<?xml version="1.0" standalone="no"?><!DOCTYPE svg PUBLIC "-//W3C//DTD SVG 1.1//EN" "http://www.w3.org/Graphics/SVG/1.1/DTD/svg11.dtd"><svg t="1765988732294" class="icon" viewBox="0 0 1024 1024" version="1.1" xmlns="http://www.w3.org/2000/svg" p-id="2603" xmlns:xlink="http://www.w3.org/1999/xlink" width="128" height="128"><path d="M913.9 875.3l-91.2-49.6c0.5-0.6 1.1-1.2 1.6-1.8 1.1-1.4 2.2-2.8 3.2-4.2l91.2 49.6c-1 1.4-2.1 2.8-3.2 4.2-0.5 0.6-1.1 1.2-1.6 1.8" fill="#508094" p-id="2604"></path><path d="M918.7 869.2l-91.2-49.6c1.5-2.2 2.9-4.5 4.2-6.8l91.2 49.6c-1.3 2.4-2.7 4.6-4.2 6.8" fill="#4D7B8F" p-id="2605"></path><path d="M922.9 862.4l-91.2-49.6c1.5-2.8 2.8-5.7 3.9-8.6l91.2 49.6c-1.1 2.9-2.4 5.8-3.9 8.6" fill="#4B778A" p-id="2606"></path><path d="M926.8 853.8l-91.2-49.6c2.7-7.2 4-14.7 4-22l91.2 49.6c-0.1 7.3-1.4 14.8-4 22" fill="#487285" p-id="2607"></path><path d="M860.7 894.1l-91.2-49.6c5.8 1.5 11.9 1.8 18 0.9 5.1-0.7 10.3-2.3 15.2-4.6l91.2 49.6c-5 2.3-10.1 3.9-15.2 4.6-6.1 0.9-12.2 0.6-18-0.9" fill="#5B91A8" p-id="2608"></path><path d="M894 890.4l-91.2-49.6c2.9-1.3 5.7-3 8.4-4.8l91.2 49.6c-2.8 1.9-5.6 3.5-8.4 4.8" fill="#588DA3" p-id="2609"></path><path d="M902.4 885.6L811.2 836c2.1-1.5 4.2-3.1 6.3-4.9l91.2 49.6c-2.1 1.8-4.2 3.4-6.3 4.9" fill="#56889E" p-id="2610"></path><path d="M908.6 880.6L817.4 831c1.8-1.7 3.6-3.4 5.3-5.4l91.2 49.6c-1.7 2-3.5 3.8-5.3 5.4" fill="#538499" p-id="2611"></path><path d="M913.9 875.3l-91.2-49.6c0.5-0.6 1.1-1.2 1.6-1.8 1.1-1.4 2.2-2.8 3.2-4.2l91.2 49.6c-1 1.4-2.1 2.8-3.2 4.2-0.5 0.6-1.1 1.2-1.6 1.8" fill="#508094" p-id="2612"></path><path d="M851.1 890.3l-91.2-49.6c0.5 0.3 1 0.5 1.5 0.8l91.2 49.6c-0.5-0.3-1-0.5-1.5-0.8" fill="#56889E" p-id="2613"></path><path d="M852.7 891.1l-91.2-49.6c2.6 1.3 5.3 2.3 8.1 3l91.2 49.6c-2.8-0.7-5.5-1.7-8.1-3" fill="#588DA3" p-id="2614"></path><path d="M860.7 894.1l-91.2-49.6c5.8 1.5 11.9 1.8 18 0.9 5.1-0.7 10.3-2.3 15.2-4.6l91.2 49.6c-5 2.3-10.1 3.9-15.2 4.6-6.1 0.9-12.2 0.6-18-0.9" fill="#5B91A8" p-id="2615"></path><path d="M915.6 794.3l-91.2-49.6-8.1-7.7 91.1 49.6z" fill="#456E80" p-id="2616"></path><path d="M851.1 890.3l-91.2-49.6c-3.2-1.7-6.2-3.9-9-6.5l91.2 49.6c2.8 2.6 5.8 4.8 9 6.5" fill="#487285" p-id="2617"></path><path d="M851.1 890.3l-91.2-49.6c-3.2-1.7-6.2-3.9-9-6.5l91.2 49.6c2.8 2.6 5.8 4.8 9 6.5" fill="#074CE5" p-id="2618"></path><path d="M834 876.1l-91.2-49.6 73.5-89.5 91.1 49.6z" fill="#0068A2" p-id="2619"></path><path d="M754.9 643.1l160.7 151.2-8.2-7.7-73.4 89.5 8.2 7.7c10.1 9.5 23.3 13.1 36.6 11.3 13.3-1.9 26.6-9.2 36.7-21.6 10.2-12.3 15.3-27.4 15.3-41.7 0 14.3-5.1 29.4-15.3 41.7-10.2 12.4-23.5 19.7-36.7 21.6-13.3 1.9-26.5-1.7-36.6-11.3L681.4 732.6l73.5-89.5z" fill="#8ADCFF" p-id="2620"></path><path d="M907.4 786.6l8.2 7.7c10.1 9.5 15.2 23.2 15.1 37.5s-5.1 29.4-15.3 41.7c-10.2 12.4-23.5 19.7-36.7 21.6-13.3 1.9-26.5-1.7-36.6-11.3l-8.2-7.7 73.5-89.5z" fill="#007AFF" p-id="2621"></path><path d="M842.1 883.8L751 834.2l-8.2-7.7 91.2 49.6z" fill="#005280" p-id="2622"></path><path d="M842.1 883.8L751 834.2 590.2 683l91.2 49.6z" fill="#00A4FF" p-id="2623"></path><path d="M681.4 732.6L590.2 683l73.5-89.5 91.2 49.6z" fill="#578BA2" p-id="2624"></path><path d="M681.4 732.6L590.2 683l-44.8-42.1 91.2 49.6z" fill="#0047C6" p-id="2625"></path><path d="M710.1 601l44.8 42.1-73.5 89.5-44.8-42.1z" fill="#007AFF" p-id="2626"></path><path d="M636.6 690.5l-91.2-49.6 73.5-89.5 91.2 49.6z" fill="#074CE5" p-id="2627"></path><path d="M633.1 624.8l-91.2-49.6c8.6-9.7 16.6-19.9 24.1-30.6l91.2 49.6c-7.5 10.7-15.6 20.9-24.1 30.6" fill="#58517F" p-id="2628"></path><path d="M657.1 594.2L566 544.6c2.5-3.5 4.9-7.1 7.2-10.7l91.2 49.6c-2.4 3.6-4.8 7.2-7.3 10.7" fill="#554E7B" p-id="2629"></path><path d="M633.1 624.8l-91.2-49.6c8.6-9.7 16.6-19.9 24.1-30.6l91.2 49.6c-7.5 10.7-15.6 20.9-24.1 30.6" fill="#58517F" p-id="2630"></path><path d="M614.6 644.1l-91.2-49.6c6.4-6.2 12.6-12.7 18.5-19.4l91.2 49.6c-6 6.8-12.1 13.3-18.5 19.4" fill="#5B5483" p-id="2631"></path><path d="M633.1 624.8l-91.2-49.6c8.6-9.7 16.6-19.9 24.1-30.6l91.2 49.6c-7.5 10.7-15.6 20.9-24.1 30.6" fill="#58517F" p-id="2632"></path><path d="M648.4 676l-91.2-49.6-33.8-31.8 91.2 49.5z" fill="#4D4DCE" p-id="2633"></path><path d="M664.4 583.5l33.8 31.8-49.8 60.7-33.8-31.8c18.7-18.1 35.4-38.5 49.8-60.7z" fill="#978CDB" p-id="2634"></path><path d="M350.870591 623.221258a180.8 211.5 28.548 1 0 202.149513-371.570416 180.8 211.5 28.548 1 0-202.149513 371.570416Z" fill="#FDF17F" p-id="2635"></path><path d="M184.2 465.2c0.1-1.6 0.1-3.3 0.2-4.9 0-1 0.1-2 0.2-3 0.1-1.5 0.2-2.9 0.3-4.4 0.1-1 0.2-2.1 0.3-3.1l0.3-4.2c0.1-1.1 0.2-2.2 0.3-3.2 0.1-1.4 0.3-2.7 0.4-4.1 0.1-1.1 0.3-2.2 0.4-3.3 0.2-1.3 0.3-2.7 0.5-4 0.2-1.1 0.3-2.2 0.5-3.4l0.6-3.9c0.2-1.1 0.4-2.2 0.6-3.4 0.2-1.3 0.4-2.6 0.7-3.8 0.2-1.1 0.4-2.3 0.7-3.4 0.2-1.3 0.5-2.5 0.8-3.8 0.2-1.1 0.5-2.3 0.7-3.4 0.3-1.3 0.5-2.5 0.8-3.8 0.3-1.1 0.5-2.2 0.8-3.4 0.3-1.2 0.6-2.5 0.9-3.7 0.3-1.1 0.6-2.2 0.9-3.4 0.3-1.2 0.6-2.5 1-3.7 0.3-1.1 0.6-2.2 1-3.4 0.3-1.2 0.7-2.4 1.1-3.6 0.3-1.1 0.7-2.2 1-3.3 0.4-1.2 0.7-2.4 1.1-3.6 0.4-1.1 0.7-2.2 1.1-3.3l1.2-3.6 1.2-3.3c0.4-1.2 0.9-2.4 1.3-3.6 0.3-0.8 0.6-1.5 0.9-2.3 0.5-1.4 1-2.7 1.6-4.1 0.3-0.8 0.6-1.6 1-2.4 0.5-1.3 1.1-2.7 1.6-4 0.3-0.8 0.7-1.6 1-2.4l1.8-4.2c0.3-0.7 0.6-1.3 0.9-2 0.9-2 1.8-4.1 2.8-6.1v-0.1c1-2 2-4.1 3-6.1 0.3-0.7 0.7-1.3 1-1.9 0.7-1.4 1.4-2.7 2.1-4.1 0.4-0.8 0.8-1.5 1.2-2.3 0.7-1.4 1.4-2.7 2.2-4 0.3-0.5 0.6-1.1 0.9-1.6 1-1.9 2.1-3.8 3.2-5.6 0-0.1 0.1-0.1 0.1-0.2 1-1.8 2.1-3.6 3.2-5.4 0.3-0.5 0.6-1 1-1.6 0.9-1.5 1.8-2.9 2.7-4.4 0.3-0.4 0.5-0.8 0.8-1.2 1.1-1.8 2.3-3.6 3.5-5.4 0.3-0.4 0.5-0.8 0.8-1.2 1-1.4 1.9-2.9 2.9-4.3 0.3-0.5 0.7-1 1-1.5 0.6-0.8 1.1-1.6 1.7-2.4l3.9-5.4c0.5-0.7 1-1.4 1.5-2 1.7-2.3 3.5-4.7 5.3-6.9 0.1-0.1 0.1-0.2 0.2-0.2 1.7-2.2 3.5-4.4 5.3-6.6 0.5-0.7 1.1-1.3 1.6-2 1.4-1.7 2.9-3.4 4.3-5l1.5-1.8c1.9-2.2 3.9-4.3 5.9-6.4 0.3-0.3 0.6-0.7 0.9-1 1.7-1.8 3.4-3.6 5.2-5.4l1.8-1.8c1.6-1.6 3.3-3.2 4.9-4.8l1.4-1.4c2.1-2 4.2-3.9 6.3-5.9 1.5-1.4 3-2.7 4.5-4 0.3-0.3 0.6-0.5 0.9-0.8 1.3-1.1 2.7-2.3 4-3.4l1.5-1.2c1.3-1.1 2.6-2.2 4-3.2 0.3-0.3 0.7-0.5 1-0.8 1.6-1.3 3.3-2.6 5-3.9l1.2-0.9c1.3-1 2.6-2 3.9-2.9 0.5-0.4 1-0.7 1.5-1.1 1.6-1.1 3.1-2.2 4.7-3.3 0.2-0.1 0.3-0.2 0.5-0.3 1.8-1.3 3.7-2.5 5.6-3.8 0.5-0.4 1.1-0.7 1.6-1 1.3-0.9 2.7-1.7 4-2.6 0.7-0.5 1.4-0.9 2.2-1.3 1.2-0.7 2.4-1.5 3.5-2.2 0.8-0.5 1.6-0.9 2.4-1.4 1.1-0.7 2.3-1.3 3.4-2 0.8-0.5 1.6-0.9 2.4-1.4 1.1-0.6 2.3-1.3 3.4-1.9 0.8-0.4 1.7-0.9 2.5-1.3 1.2-0.6 2.3-1.2 3.5-1.8 0.8-0.4 1.6-0.8 2.5-1.3l3.6-1.8c0.8-0.4 1.6-0.8 2.4-1.1 1.8-0.9 3.7-1.7 5.6-2.6 0.2-0.1 0.5-0.2 0.7-0.3 1.7-0.7 3.4-1.5 5.1-2.2 0.6-0.2 1.1-0.5 1.7-0.7l4.5-1.8 1.5-0.6c1.9-0.7 3.9-1.5 5.8-2.2 0.4-0.1 0.8-0.3 1.2-0.4 1.6-0.6 3.2-1.1 4.8-1.7l1.8-0.6 4.8-1.5c0.4-0.1 0.8-0.3 1.3-0.4 2-0.6 4-1.2 6-1.7 0.5-0.1 1-0.3 1.5-0.4 1.6-0.4 3.1-0.8 4.7-1.2 0.6-0.2 1.2-0.3 1.8-0.5 1.8-0.4 3.5-0.9 5.3-1.2 0.3-0.1 0.6-0.1 0.8-0.2 2-0.5 4.1-0.9 6.1-1.3 0.6-0.1 1.1-0.2 1.7-0.3 1.6-0.3 3.1-0.6 4.7-0.9l1.8-0.3c2.1-0.3 4.1-0.7 6.2-1 1.9-0.3 3.7-0.5 5.6-0.7 0.6-0.1 1.2-0.1 1.7-0.2 1.3-0.1 2.6-0.3 3.9-0.4 0.7-0.1 1.3-0.1 2-0.2 1.3-0.1 2.5-0.2 3.8-0.3 0.6 0 1.2-0.1 1.8-0.1 1.6-0.1 3.1-0.2 4.7-0.3h0.8c1.8-0.1 3.6-0.1 5.4-0.2h7.4c1.2 0 2.4 0 3.6 0.1h1.8c1.4 0 2.8 0.1 4.1 0.2 0.4 0 0.8 0 1.2 0.1 1.8 0.1 3.5 0.2 5.3 0.3 0.4 0 0.9 0.1 1.3 0.1 1.3 0.1 2.6 0.2 4 0.4 0.6 0.1 1.2 0.1 1.8 0.2 1.2 0.1 2.4 0.3 3.5 0.4 0.6 0.1 1.2 0.1 1.8 0.2 1.3 0.2 2.5 0.3 3.8 0.5 0.5 0.1 0.9 0.1 1.4 0.2 1.7 0.3 3.4 0.5 5.1 0.9 0.3 0.1 0.6 0.1 1 0.2 1.4 0.3 2.8 0.5 4.1 0.8 0.6 0.1 1.1 0.2 1.7 0.4 1.1 0.2 2.3 0.5 3.4 0.7 0.6 0.1 1.2 0.3 1.8 0.4 1.2 0.3 2.3 0.6 3.5 0.9 0.5 0.1 1 0.2 1.5 0.4 1.7 0.4 3.4 0.9 5 1.4 0.2 0.1 0.4 0.1 0.7 0.2 1.4 0.4 2.9 0.8 4.3 1.3 0.5 0.2 1.1 0.3 1.6 0.5 1.1 0.4 2.3 0.7 3.4 1.1 0.6 0.2 1.1 0.4 1.7 0.6 1.2 0.4 2.5 0.9 3.7 1.3 0.4 0.1 0.8 0.3 1.2 0.4l4.8 1.8c0.4 0.1 0.7 0.3 1.1 0.4 1.2 0.5 2.5 1 3.7 1.5 0.5 0.2 1 0.5 1.6 0.7l3.3 1.5c0.5 0.2 1 0.5 1.5 0.7 1.3 0.6 2.5 1.2 3.8 1.8 0.3 0.1 0.6 0.3 0.8 0.4 0.9 0.4 1.8 0.9 2.7 1.4 0.4 0.2 0.9 0.4 1.3 0.7 1.3 0.7 2.7 1.4 4 2.1l-91.2-49.6c-1.3-0.7-2.6-1.4-4-2.1-0.4-0.2-0.9-0.4-1.3-0.7-0.9-0.5-1.8-0.9-2.7-1.4-0.1 0-0.1-0.1-0.2-0.1-0.2-0.1-0.5-0.2-0.7-0.3-1.3-0.6-2.5-1.2-3.8-1.8-0.5-0.2-1-0.5-1.5-0.7-1.1-0.5-2.2-1-3.3-1.4-0.5-0.2-1-0.5-1.6-0.7-1.2-0.5-2.5-1-3.7-1.5-0.4-0.1-0.7-0.3-1.1-0.4l-4.8-1.8c-0.4-0.1-0.8-0.3-1.2-0.4-1.2-0.4-2.4-0.9-3.7-1.3-0.6-0.2-1.1-0.4-1.7-0.6-1.1-0.4-2.3-0.8-3.4-1.1-0.5-0.2-1.1-0.3-1.6-0.5-1.4-0.4-2.9-0.9-4.3-1.3-0.2-0.1-0.4-0.1-0.7-0.2-1.7-0.5-3.3-0.9-5-1.4-0.1 0-0.3-0.1-0.4-0.1-0.4-0.1-0.7-0.2-1.1-0.3-1.2-0.3-2.3-0.6-3.5-0.9-0.6-0.1-1.2-0.3-1.8-0.4-1.1-0.3-2.3-0.5-3.4-0.7-0.6-0.1-1.1-0.2-1.7-0.4-1.4-0.3-2.8-0.5-4.1-0.8-0.3-0.1-0.6-0.1-1-0.2l-5.1-0.9c-0.5-0.1-0.9-0.1-1.4-0.2-1.3-0.2-2.5-0.4-3.8-0.5-0.6-0.1-1.2-0.2-1.8-0.2-1.2-0.1-2.3-0.3-3.5-0.4-0.6-0.1-1.2-0.1-1.8-0.2-1.3-0.1-2.6-0.2-4-0.4-0.4 0-0.9-0.1-1.3-0.1-1.8-0.1-3.5-0.3-5.3-0.3-0.4 0-0.8 0-1.2-0.1-1.4-0.1-2.8-0.1-4.1-0.2h-1.8c-1.2 0-2.4 0-3.6-0.1h-7.4c-1.8 0-3.6 0.1-5.4 0.2h-0.8c-1.6 0.1-3.1 0.2-4.7 0.3-0.6 0-1.2 0.1-1.8 0.1-1.3 0.1-2.5 0.2-3.8 0.3-0.7 0.1-1.3 0.1-2 0.2-1.3 0.1-2.6 0.3-3.9 0.4-0.6 0.1-1.2 0.1-1.7 0.2-1.9 0.2-3.7 0.5-5.6 0.7-2.1 0.3-4.1 0.6-6.2 1l-1.8 0.3c-1.6 0.3-3.1 0.6-4.7 0.9-0.6 0.1-1.1 0.2-1.7 0.3-2 0.4-4.1 0.8-6.1 1.3-0.3 0.1-0.6 0.1-0.8 0.2-1.8 0.4-3.5 0.8-5.3 1.3-0.6 0.1-1.2 0.3-1.8 0.5-1.6 0.4-3.1 0.8-4.7 1.2-0.5 0.1-1 0.3-1.5 0.4-2 0.6-4 1.1-6 1.7-0.4 0.1-0.8 0.3-1.2 0.4l-4.8 1.5-1.8 0.6c-1.6 0.5-3.2 1.1-4.8 1.7-0.4 0.1-0.8 0.3-1.2 0.4-1.9 0.7-3.9 1.4-5.8 2.2l-1.5 0.6-4.5 1.8c-0.6 0.2-1.2 0.5-1.7 0.7-1.7 0.7-3.4 1.4-5.1 2.2-0.2 0.1-0.5 0.2-0.7 0.3-1.6 0.7-3.2 1.5-4.8 2.2-0.2 0.1-0.5 0.2-0.7 0.4-0.8 0.4-1.6 0.8-2.4 1.1l-3.6 1.8c-0.8 0.4-1.6 0.8-2.5 1.3-1.2 0.6-2.3 1.2-3.5 1.8-0.8 0.4-1.7 0.9-2.5 1.3-1.1 0.6-2.3 1.2-3.4 1.9-0.8 0.5-1.6 0.9-2.4 1.4-1.1 0.7-2.3 1.3-3.4 2-0.8 0.5-1.6 0.9-2.4 1.4-1.2 0.7-2.4 1.4-3.5 2.2-0.7 0.4-1.4 0.9-2.1 1.3-1.3 0.8-2.7 1.7-4 2.6-0.5 0.4-1.1 0.7-1.6 1-1.8 1.2-3.6 2.4-5.4 3.7 0 0-0.1 0-0.1 0.1-0.2 0.1-0.3 0.2-0.5 0.3-1.6 1.1-3.1 2.2-4.7 3.3-0.5 0.4-1 0.7-1.5 1.1-1.3 1-2.6 1.9-3.9 2.9l-1.2 0.9c-1.7 1.3-3.3 2.6-5 3.9-0.3 0.3-0.7 0.5-1 0.8-1.3 1.1-2.7 2.1-4 3.2l-1.5 1.2c-1.3 1.1-2.7 2.3-4 3.4-0.3 0.3-0.6 0.5-0.9 0.8-1.4 1.2-2.8 2.4-4.2 3.7-0.1 0.1-0.3 0.2-0.4 0.4-2.1 1.9-4.2 3.9-6.3 5.9l-1.4 1.4c-1.6 1.6-3.3 3.2-4.9 4.8l-1.8 1.8c-1.7 1.8-3.5 3.5-5.2 5.4-0.3 0.3-0.6 0.7-0.9 1-2 2.1-3.9 4.3-5.9 6.4-0.2 0.2-0.4 0.4-0.5 0.6-0.3 0.4-0.7 0.8-1 1.2-1.5 1.7-2.9 3.3-4.3 5-0.5 0.7-1.1 1.3-1.6 2-1.8 2.2-3.6 4.4-5.3 6.6-0.1 0.1-0.1 0.2-0.2 0.2-1.8 2.3-3.6 4.6-5.3 6.9-0.5 0.7-1 1.4-1.5 2l-3.9 5.4c-0.3 0.4-0.6 0.9-0.9 1.3-0.3 0.4-0.5 0.7-0.8 1.1-0.4 0.5-0.7 1-1 1.5-1 1.4-1.9 2.8-2.9 4.3-0.3 0.4-0.5 0.8-0.8 1.2-1.2 1.8-2.3 3.6-3.5 5.4-0.3 0.4-0.5 0.8-0.8 1.3-0.9 1.4-1.8 2.9-2.7 4.4-0.3 0.5-0.6 1-1 1.6-1.1 1.8-2.1 3.6-3.2 5.4 0 0.1-0.1 0.1-0.1 0.2-1.1 1.9-2.1 3.7-3.2 5.6-0.3 0.5-0.6 1.1-0.9 1.6-0.4 0.6-0.7 1.3-1.1 1.9-0.4 0.7-0.7 1.4-1.1 2.1-0.4 0.8-0.8 1.5-1.2 2.3-0.7 1.4-1.4 2.7-2.1 4.1-0.3 0.6-0.7 1.3-1 1.9-1 2-2 4.1-3 6.1v0.1c-0.9 2-1.9 4-2.8 6.1-0.3 0.7-0.6 1.3-0.9 2l-1.8 4.2c-0.3 0.8-0.7 1.6-1 2.4-0.6 1.3-1.1 2.7-1.6 4-0.3 0.8-0.7 1.6-1 2.4-0.5 1.4-1.1 2.7-1.6 4.1-0.3 0.8-0.6 1.5-0.9 2.3-0.1 0.3-0.2 0.6-0.4 0.9-0.3 0.9-0.6 1.8-1 2.7l-1.2 3.3-1.2 3.6c-0.4 1.1-0.7 2.2-1.1 3.3-0.4 1.2-0.8 2.4-1.1 3.6-0.3 1.1-0.7 2.2-1 3.3-0.4 1.2-0.7 2.4-1.1 3.6-0.3 1.1-0.6 2.2-1 3.4-0.3 1.2-0.7 2.5-1 3.7-0.3 1.1-0.6 2.2-0.9 3.4-0.3 1.2-0.6 2.5-0.9 3.7-0.3 1.1-0.5 2.2-0.8 3.4-0.3 1.3-0.6 2.5-0.8 3.8-0.2 1.1-0.5 2.2-0.7 3.4-0.3 1.3-0.5 2.5-0.8 3.8-0.2 1.1-0.4 2.2-0.7 3.4-0.2 1.3-0.5 2.6-0.7 3.8-0.2 1.1-0.4 2.2-0.6 3.4l-0.6 3.9c-0.2 1.1-0.3 2.2-0.5 3.4-0.2 1.3-0.3 2.6-0.5 4-0.1 1.1-0.3 2.2-0.4 3.3-0.2 1.4-0.3 2.7-0.4 4.1-0.1 1.1-0.2 2.2-0.3 3.2l-0.3 4.2c-0.1 1-0.2 2.1-0.3 3.1-0.1 1.5-0.2 2.9-0.3 4.4-0.1 1-0.1 2-0.2 3-0.1 1.6-0.1 3.3-0.2 4.9 0 0.8-0.1 1.7-0.1 2.5-0.1 2.5-0.1 4.9-0.1 7.4-0.2 102.9 49.4 186.2 124.3 227l91.2 49.6C233.4 661.4 183.8 578 184 475.1c0-2.5 0-5 0.1-7.4 0-0.8 0-1.7 0.1-2.5z" fill="#FF7900" p-id="2636"></path><path d="M452.5 148.2c148-20.8 267.7 91.8 267.5 251.6-0.1 66.2-20.8 130.1-55.6 183.7-14.4 22.2-31.1 42.6-49.8 60.7-45.2 43.8-101.8 73.9-163.1 82.6-148 20.8-267.8-91.8-267.5-251.6 0.3-159.8 120.5-306.2 268.5-327z m-0.9 492.4C555.6 626 640 523.2 640.2 411c0.2-112.2-83.9-191.3-187.9-176.7-104 14.6-188.4 117.4-188.6 229.6-0.2 112.2 83.9 191.3 187.9 176.7" fill="#FFA300" p-id="2637"></path></svg>