<?xml version="1.0" standalone="no"?><!DOCTYPE svg PUBLIC "-//W3C//DTD SVG 1.1//EN" "http://www.w3.org/Graphics/SVG/1.1/DTD/svg11.dtd"><svg t="1765890466313" class="icon" viewBox="0 0 1024 1024" version="1.1" xmlns="http://www.w3.org/2000/svg" p-id="16632" xmlns:xlink="http://www.w3.org/1999/xlink" width="128" height="128"><path d="M153.088 878.592c37.376-13.824 181.76-57.856 361.472 2.048 2.56 1.024 3.584 3.584 2.56 6.144-12.288 24.064-86.016 129.536-364.032-0.512-4.096-1.024-3.584-6.144 0-7.68z" fill="#60ED58" p-id="16633"></path><path d="M328.192 869.376c54.272 0 108.544 8.192 161.792 23.552-14.848 16.384-46.08 37.888-106.496 37.888-51.2 0-114.176-15.36-186.368-45.568 30.72-7.68 75.776-15.872 131.072-15.872m0-18.944c-88.576 0-153.088 20.48-175.616 28.672-3.584 1.024-3.584 6.144 0 7.168 102.4 47.616 176.64 63.488 230.912 63.488 94.208 0 126.464-48.64 134.144-63.488 1.024-2.048 0-5.12-2.56-5.632-69.12-22.528-132.608-30.208-186.88-30.208z" fill="#353942" p-id="16634"></path><path d="M880.128 877.056c-37.376-13.824-181.76-57.856-361.472 2.048-2.56 1.024-3.584 3.584-2.56 6.144 12.288 24.064 86.016 129.536 364.032-0.512 3.584-1.024 3.584-6.144 0-7.68z" fill="#60ED58" p-id="16635"></path><path d="M721.408 865.28s74.752 11.264 91.648 19.968c0 0-67.072 39.936-195.072 41.472 0 0 6.656 16.896 46.592 10.24s189.44-42.496 192.512-50.176c3.072-8.192-10.752-14.336-10.752-14.336s-94.208-23.04-124.928-7.168z" fill="#BDFFB8" p-id="16636"></path><path d="M705.024 867.84c55.296 0 100.352 8.192 131.584 15.872-72.704 30.208-135.168 46.08-186.368 46.08-60.928 0-91.648-21.504-106.496-37.888 52.736-16.384 107.008-24.064 161.28-24.064m0-19.456c-54.272 0-118.272 7.68-186.88 30.72-2.56 1.024-3.584 3.584-2.56 5.632 7.68 14.848 39.936 63.488 134.144 63.488 54.272 0 128.512-15.872 230.912-63.488 3.072-1.536 3.072-6.144 0-7.168-22.528-8.192-86.528-29.184-175.616-29.184z" fill="#353942" p-id="16637"></path><path d="M589.824 105.984l-49.152-26.624c-14.336-7.68-31.232-7.68-45.568 0L445.44 105.984S112.64 297.472 112.64 537.6c0 320.512 203.264 348.672 275.968 357.888 58.368 7.168 103.424-0.512 121.344-6.656 5.12-1.536 10.24-1.536 14.848 0 17.92 6.144 67.584 15.872 121.344 6.656 75.264-12.8 279.04-46.08 275.968-357.888-1.536-240.128-332.288-431.616-332.288-431.616z" fill="#FF7DA2" p-id="16638"></path><path d="M499.2 97.792s-601.088 481.28-172.544 766.976c0 0-217.6-14.336-209.408-287.232-0.512-0.512-66.048-271.872 381.952-479.744z" fill="#EF596B" p-id="16639"></path><path d="M517.12 93.184c5.12 0 10.752 1.536 15.36 3.584l47.616 25.6c3.072 2.048 332.8 188.416 332.8 415.232 0 135.68-46.08 304.64-266.24 338.432l-3.072 0.512c-14.336 2.048-29.184 3.584-44.032 3.584-30.208 0-55.296-5.12-68.096-9.216-4.608-1.536-9.216-2.048-13.824-2.048s-9.216 1.024-13.824 2.048c-4.096 1.536-27.136 8.704-68.096 8.704-14.848 0-29.696-1.024-45.056-3.072-26.112-3.072-95.232-11.776-155.648-57.856-75.264-56.832-113.152-151.552-113.152-281.088 0-226.304 329.216-413.184 332.288-414.72l47.616-25.6c5.12-2.56 10.24-4.096 15.36-4.096m0-18.944c-8.192 0-16.896 2.048-24.064 6.144l-47.616 25.6S102.912 297.472 102.912 537.6c0 320.512 226.816 350.72 285.696 357.888 16.896 2.048 32.768 3.072 47.104 3.072 35.328 0 61.44-5.12 74.24-9.728 2.56-1.024 5.12-1.024 7.68-1.024s5.12 0.512 7.68 1.024c12.8 4.096 39.424 10.24 74.24 10.24 14.336 0 30.208-1.024 47.104-3.584 46.08-7.168 285.696-37.376 285.696-357.888 0-240.64-342.528-431.616-342.528-431.616l-47.616-25.6c-8.192-4.096-16.384-6.144-25.088-6.144z" fill="#353942" p-id="16640"></path><path d="M519.168 93.184s369.152 218.624 369.152 465.92c0 190.464-76.288 247.808-126.976 280.064 0 0 145.92-58.368 151.552-289.792 5.12-226.304-318.976-432.64-393.728-456.192z" fill="#FFFFFF" p-id="16641"></path><path d="M280.064 871.424s103.936 57.344 207.36 24.064c0 0-88.576 17.408-200.192-25.088l-7.168 1.024zM748.544 868.352s-100.864 59.392-203.776 26.112c0 0 67.584 20.992 181.248-17.92l22.528-8.192z" fill="#63C458" p-id="16642"></path></svg>