<?xml version="1.0" standalone="no"?><!DOCTYPE svg PUBLIC "-//W3C//DTD SVG 1.1//EN" "http://www.w3.org/Graphics/SVG/1.1/DTD/svg11.dtd"><svg t="1765992078149" class="icon" viewBox="0 0 1024 1024" version="1.1" xmlns="http://www.w3.org/2000/svg" p-id="1694" xmlns:xlink="http://www.w3.org/1999/xlink" width="128" height="128"><path d="M670.9 374.6c0-77.4-55.8-143.4-127.9-155.6v-2.9h-32.3v1c-36.7 2-71 17.1-97.8 43.4-29.8 29.4-46.2 74.6-46.2 116.5v0.8c0 46.4-18.1 89.6-51 121.5-57.4 55.7-83 126.1-83 209 0 78.6 24.3 143.4 81.3 187.3 51.6 39.8 122.2 60.8 204.6 60.8s153.2-21 204.9-60.7c57.2-44 81.7-108.9 81.7-187.3 0-78.7-26.9-150.7-83.7-207.8-32.8-32.6-50.6-81.1-50.6-126z" fill="#177943" p-id="1695"></path><path d="M519.8 923.7c-125.4 0-253.5-56.5-253.5-215.2 0-73.8 22.2-135.7 73.1-185.1 39.4-38.3 61.1-95.8 61.1-151.4v-0.8c0-32.9 12.8-63.7 36.3-86.9 22.7-22.4 52.2-34.4 83.3-34.4 1.5 0 2.9 0 4.5 0.1 63.6 2.3 115.4 58.2 115.4 124.6 0 53.7 21.4 110.8 60.1 149.7 50.8 50.9 74.1 114.4 74.1 184.3-0.1 158.7-128.6 215.1-254.4 215.1z m152.5-549.1c0-77.4-55.8-143.4-127.9-155.6v-2.9h-32.3v1c-36.7 2-71 17.1-97.8 43.4-29.8 29.4-46.2 74.6-46.2 116.5v0.8c0 46.4-18.1 89.6-51 121.5-57.4 55.7-83 126.1-83 209 0 78.6 24.3 143.4 81.3 187.3 51.6 39.8 122.2 60.8 204.6 60.8s153.2-21 204.9-60.7c57.2-44 81.7-108.9 81.7-187.3 0-78.7-26.9-150.7-83.7-207.8-32.8-32.6-50.6-81.1-50.6-126z" fill="#333333" p-id="1696"></path><path d="M597.1 374.6c0-77.4-49.1-143.4-112.6-155.6v-2.9H456v1c-32.3 2-62.6 17.1-86.1 43.4-26.2 29.4-40.7 74.6-40.7 116.5v0.8c0 46.4-15.9 89.6-44.9 121.5-50.6 55.7-73.1 126.1-73.1 209 0 78.6 21.4 143.4 71.6 187.3 45.4 39.8 107.6 60.8 180.1 60.8s134.9-21 180.4-60.7c50.4-44 71.9-108.9 71.9-187.3 0-78.7-23.7-150.7-73.7-207.8-28.7-32.6-44.4-81.1-44.4-126z" fill="#ADDB7D" p-id="1697"></path><path d="M464.1 923.7c-110.4 0-223.3-56.5-223.3-215.2 0-73.8 19.5-135.7 64.4-185.1C339.9 485.2 359 427.6 359 372v-0.8c0-32.9 11.3-63.7 32-86.9 20-22.4 45.9-34.4 73.4-34.4 1.3 0 2.6 0 3.9 0.1 56 2.3 101.6 58.2 101.6 124.6 0 53.7 18.9 110.8 53 149.7 44.7 50.9 65.2 114.4 65.2 184.3-0.1 158.7-113.3 215.1-224 215.1z m134.3-549.1c0-77.4-49.1-143.4-112.6-155.6v-2.9h-28.5v1c-32.3 2-62.6 17.1-86.1 43.4-26.2 29.4-40.7 74.6-40.7 116.5v0.8c0 46.4-15.9 89.6-44.9 121.5-50.6 55.7-73.1 126.1-73.1 209 0 78.6 21.4 143.4 71.6 187.3 45.4 39.8 107.6 60.8 180.1 60.8s134.9-21 180.4-60.7c50.4-44 71.9-108.9 71.9-187.3 0-78.7-23.7-150.7-73.7-207.8-28.7-32.6-44.4-81.1-44.4-126z" fill="#333333" p-id="1698"></path><path d="M498.8 255.4c-7.3 0-13.7-5.3-14.8-12.8-0.2-1.1-3.9-27 2.1-61.3 8.1-45.7 29.9-85 63.1-113.8 6.3-5.4 15.7-4.7 21.2 1.5 5.4 6.3 4.7 15.7-1.5 21.2-67.8 58.7-55.4 147.1-55.3 147.9 1.2 8.2-4.4 15.8-12.6 17.1-0.7 0.1-1.5 0.2-2.2 0.2z" fill="#333333" p-id="1699"></path><path d="M353.2 715.8a110 138 0 1 0 220 0 110 138 0 1 0-220 0Z" fill="#7F5021" p-id="1700"></path><path d="M463.2 868.8c-34 0-65.8-16.4-89.5-46.1-22.9-28.7-35.5-66.7-35.5-106.9s12.6-78.2 35.5-106.9c23.7-29.7 55.5-46.1 89.5-46.1s65.8 16.4 89.5 46.1c22.9 28.7 35.5 66.7 35.5 106.9s-12.6 78.2-35.5 106.9c-23.7 29.7-55.4 46.1-89.5 46.1z m0-275.9c-52.4 0-95 55.2-95 123s42.6 123 95 123 95-55.2 95-123c0-67.9-42.6-123-95-123z" fill="#333333" p-id="1701"></path><path d="M424.2 665.5m-22.3 0a22.3 22.3 0 1 0 44.6 0 22.3 22.3 0 1 0-44.6 0Z" fill="#5E3616" p-id="1702"></path><path d="M424.2 694.8c-16.2 0-29.3-13.1-29.3-29.3 0-16.2 13.1-29.3 29.3-29.3 16.2 0 29.3 13.1 29.3 29.3 0 16.2-13.2 29.3-29.3 29.3z m0-44.5c-8.4 0-15.3 6.8-15.3 15.3 0 8.4 6.8 15.3 15.3 15.3 8.4 0 15.3-6.8 15.3-15.3-0.1-8.5-6.9-15.3-15.3-15.3z" fill="#333333" p-id="1703"></path><path d="M539.5 414.8c-0.4 0-0.9 0-1.3-0.1-4.9-0.7-8.3-5.3-7.6-10.2 7.3-48.8-28.1-90-28.5-90.4-3.3-3.7-2.9-9.4 0.8-12.7 3.7-3.3 9.4-2.9 12.7 0.8 1.7 1.9 41.4 47.7 32.8 104.9-0.7 4.5-4.5 7.7-8.9 7.7z" fill="#FFFFFF" p-id="1704"></path><path d="M485.5 282.5m-12 0a12 12 0 1 0 24 0 12 12 0 1 0-24 0Z" fill="#FFFFFF" p-id="1705"></path></svg>