<?xml version="1.0" standalone="no"?><!DOCTYPE svg PUBLIC "-//W3C//DTD SVG 1.1//EN" "http://www.w3.org/Graphics/SVG/1.1/DTD/svg11.dtd"><svg t="1765890350708" class="icon" viewBox="0 0 1025 1024" version="1.1" xmlns="http://www.w3.org/2000/svg" p-id="7682" xmlns:xlink="http://www.w3.org/1999/xlink" width="128.125" height="128"><path d="M559.795907 21.436677c-72.813264 267.136801 141.1573 246.058617 141.1573 246.058617s126.594648-173.396001-141.1573-246.058617" fill="#3BB777" p-id="7683"></path><path d="M559.795907 21.436677l141.1573 246.058617s126.594648-173.396001-141.1573-246.058617" fill="#229857" p-id="7684"></path><path d="M575.174571 48.252045C558.653492 120.876998 564.491107 174.407302 592.549322 207.574999c29.188076 34.448206 75.901551 38.791894 96.226495 38.917434 10.143641-17.676048 30.129627-60.510333 15.064813-102.829904-14.537545-40.863306-57.823775-72.913696-128.766491-95.410484m115.032403 241.037012c-26.802814 0-89.296681-5.624197-130.348297-54.070126-40.449024-47.705242-47.441608-121.535381-20.764334-219.393897a21.454805 21.454805 0 0 1 26.363423-15.064813C663.492038 27.387278 723.751292 70.799048 744.452856 129.790346c26.85303 76.278171-24.066039 147.296212-26.250437 150.284067A21.479913 21.479913 0 0 1 703.024619 288.774342c-0.790903 0.087878-5.448441 0.514714-12.830199 0.514715" fill="#454849" p-id="7685"></path><path d="M522.698804 815.528092a124.447912 124.447912 0 1 1-124.447911-124.159169 124.284709 124.284709 0 0 1 124.447911 124.159169" fill="#6E54A3" p-id="7686"></path><path d="M522.698804 815.528092a124.447912 124.447912 0 1 1-124.447911-124.159169 124.284709 124.284709 0 0 1 124.447911 124.159169" fill="#6E54A3" p-id="7687"></path><path d="M398.250893 844.176346a152.832531 152.832531 0 0 0 120.380412-58.551908 123.995967 123.995967 0 0 0-240.760824 0 152.870193 152.870193 0 0 0 120.380412 58.551908" fill="#7E64AB" p-id="7688"></path><path d="M429.811677 797.324776A31.560784 31.560784 0 1 1 398.250893 765.826763a31.523122 31.523122 0 0 1 31.560784 31.485459" fill="#FEFEFE" p-id="7689"></path><path d="M398.250893 718.385155a97.142938 97.142938 0 1 0 97.36891 97.142937 97.36891 97.36891 0 0 0-97.36891-97.142937m0 248.305785c-83.53439 0-151.514359-67.79166-151.51436-151.162848s67.967416-151.162847 151.51436-151.162847 151.514359 67.79166 151.514359 151.162847S481.785282 966.69094 398.250893 966.69094" fill="#454849" p-id="7690"></path><path d="M326.893894 620.200234a124.447912 124.447912 0 1 1-124.447912-124.159169 124.284709 124.284709 0 0 1 124.447912 124.159169" fill="#6E54A3" p-id="7691"></path><path d="M326.893894 620.200234a124.447912 124.447912 0 1 1-124.447912-124.159169 124.284709 124.284709 0 0 1 124.447912 124.159169" fill="#6E54A3" p-id="7692"></path><path d="M202.458536 648.82338a152.832531 152.832531 0 0 0 120.380412-58.551908 123.995967 123.995967 0 0 0-240.760824 0 152.870193 152.870193 0 0 0 120.380412 58.551908" fill="#7E64AB" p-id="7693"></path><path d="M234.01932 601.97181a31.560784 31.560784 0 1 1-31.560784-31.485459 31.523122 31.523122 0 0 1 31.560784 31.485459" fill="#FEFEFE" p-id="7694"></path><path d="M202.458536 523.044743A97.130384 97.130384 0 1 0 299.827446 620.200234a97.36891 97.36891 0 0 0-97.36891-97.142937m0 248.280676c-83.53439 0-151.514359-67.79166-151.514359-151.137739s67.967416-151.162847 151.514359-151.162847S354.023112 536.854155 354.023112 620.200234s-68.030186 151.125185-151.564576 151.125185" fill="#454849" p-id="7695"></path><path d="M824.547446 514.369921a124.447912 124.447912 0 1 1-124.447911-124.159169 124.284709 124.284709 0 0 1 124.447911 124.159169" fill="#6E54A3" p-id="7696"></path><path d="M824.547446 514.369921a124.447912 124.447912 0 1 1-124.447911-124.159169 124.284709 124.284709 0 0 1 124.447911 124.159169" fill="#6E54A3" p-id="7697"></path><path d="M700.099535 543.030728a152.870193 152.870193 0 0 0 120.380412-58.551907 123.995967 123.995967 0 0 0-240.760824 0 152.832531 152.832531 0 0 0 120.380412 58.551907" fill="#7E64AB" p-id="7698"></path><path d="M731.660318 487.479229a31.560784 31.560784 0 1 1-31.560783-31.485459 31.523122 31.523122 0 0 1 31.560783 31.485459" fill="#FEFEFE" p-id="7699"></path><path d="M700.112089 417.226984a97.130384 97.130384 0 1 0 97.368909 97.142937 97.36891 97.36891 0 0 0-97.368909-97.142937m0 248.280676c-83.53439 0-151.514359-67.79166-151.51436-151.137739s67.967416-151.150293 151.51436-151.150293 151.514359 67.79166 151.514359 151.162847S783.646478 665.520214 700.112089 665.520214" fill="#454849" p-id="7700"></path><path d="M628.742536 319.029509a124.447912 124.447912 0 1 1-124.447912-124.159169 124.284709 124.284709 0 0 1 124.447912 124.159169" fill="#6E54A3" p-id="7701"></path><path d="M628.742536 319.029509a124.447912 124.447912 0 1 1-124.447912-124.159169 124.284709 124.284709 0 0 1 124.447912 124.159169" fill="#6E54A3" p-id="7702"></path><path d="M504.307178 347.677762a152.832531 152.832531 0 0 0 120.380412-58.551907 123.995967 123.995967 0 0 0-240.760824 0 152.870193 152.870193 0 0 0 120.380412 58.551907" fill="#7E64AB" p-id="7703"></path><path d="M535.867962 300.813639a31.560784 31.560784 0 1 1-31.560784-31.48546 31.523122 31.523122 0 0 1 31.560784 31.48546" fill="#FEFEFE" p-id="7704"></path><path d="M504.294624 221.874017a97.142938 97.142938 0 1 0 97.36891 97.168046 97.394018 97.394018 0 0 0-97.36891-97.168046m0 248.305785c-83.53439 0-151.514359-67.79166-151.514359-151.137739s67.97997-151.187955 151.514359-151.187955 151.514359 67.79166 151.51436 151.187955S587.841568 470.179802 504.294624 470.179802" fill="#454849" p-id="7705"></path><path d="M576.316986 566.682485a124.447912 124.447912 0 1 1-124.447912-124.159169 124.284709 124.284709 0 0 1 124.447912 124.159169" fill="#6E54A3" p-id="7706"></path><path d="M576.316986 566.682485a124.447912 124.447912 0 1 1-124.447912-124.159169 124.284709 124.284709 0 0 1 124.447912 124.159169" fill="#6E54A3" p-id="7707"></path><path d="M451.869074 595.330738a152.832531 152.832531 0 0 0 120.380412-58.551907 123.995967 123.995967 0 0 0-240.760824 0 152.870193 152.870193 0 0 0 120.380412 58.551907" fill="#7E64AB" p-id="7708"></path><path d="M483.429858 548.479169a31.560784 31.560784 0 1 1-31.560784-31.48546 31.523122 31.523122 0 0 1 31.560784 31.48546" fill="#FEFEFE" p-id="7709"></path><path d="M451.881628 469.552102a97.142938 97.142938 0 1 0 97.36891 97.142937A97.36891 97.36891 0 0 0 451.881628 469.552102m0 248.305784c-83.53439 0-151.514359-67.79166-151.514359-151.162847S368.334684 415.569854 451.881628 415.569854s151.514359 67.79166 151.514359 151.162847-67.97997 151.112631-151.514359 151.112631" fill="#454849" p-id="7710"></path><path d="M380.512075 371.329519a124.447912 124.447912 0 1 1-124.410249-124.146615 124.284709 124.284709 0 0 1 124.447911 124.159169" fill="#6E54A3" p-id="7711"></path><path d="M380.512075 371.329519a124.447912 124.447912 0 1 1-124.410249-124.146615 124.284709 124.284709 0 0 1 124.447911 124.159169" fill="#6E54A3" p-id="7712"></path><path d="M256.101826 399.977772a152.870193 152.870193 0 0 0 120.380412-58.551907 123.995967 123.995967 0 0 0-240.760824 0A152.870193 152.870193 0 0 0 256.101826 399.977772" fill="#7E64AB" p-id="7713"></path><path d="M287.637501 353.126203A31.560784 31.560784 0 1 1 256.101826 321.640743a31.523122 31.523122 0 0 1 31.560783 31.48546" fill="#FEFEFE" p-id="7714"></path><path d="M256.101826 274.199136a97.130384 97.130384 0 1 0 97.368909 97.142937A97.36891 97.36891 0 0 0 256.101826 274.199136m0 248.280676c-83.53439 0-151.514359-67.79166-151.51436-151.137739s67.954862-151.150293 151.51436-151.150293 151.514359 67.79166 151.514359 151.162847S339.623661 522.479812 256.101826 522.479812" fill="#454849" p-id="7715"></path><path d="M762.204227 752.142891A124.447912 124.447912 0 1 1 637.743762 627.996275a124.284709 124.284709 0 0 1 124.447911 124.15917" fill="#6E54A3" p-id="7716"></path><path d="M762.204227 752.142891A124.447912 124.447912 0 1 1 637.743762 627.996275a124.284709 124.284709 0 0 1 124.447911 124.15917" fill="#6E54A3" p-id="7717"></path><path d="M637.743762 780.791144a152.870193 152.870193 0 0 0 120.380412-58.551908 123.995967 123.995967 0 0 0-240.760824 0A152.870193 152.870193 0 0 0 637.743762 780.791144" fill="#7E64AB" p-id="7718"></path><path d="M669.329654 733.939575A31.560784 31.560784 0 1 1 637.743762 702.441561a31.523122 31.523122 0 0 1 31.560784 31.485459" fill="#FEFEFE" p-id="7719"></path><path d="M637.743762 654.999953a97.142938 97.142938 0 1 0 97.36891 97.142938A97.36891 97.36891 0 0 0 637.743762 654.999953m0 248.305785c-83.53439 0-151.514359-67.79166-151.51436-151.162847S554.23448 600.980043 637.743762 600.980043s151.514359 67.79166 151.514359 151.162848S721.315813 903.305738 637.743762 903.305738" fill="#454849" p-id="7720"></path><path d="M275.949717 872.849707a124.447912 124.447912 0 1 1-124.447912-124.15917 124.284709 124.284709 0 0 1 124.447912 124.15917" fill="#6E54A3" p-id="7721"></path><path d="M275.949717 872.849707a124.447912 124.447912 0 1 1-124.447912-124.15917 124.284709 124.284709 0 0 1 124.447912 124.15917" fill="#6E54A3" p-id="7722"></path><path d="M151.514359 901.49796a152.870193 152.870193 0 0 0 120.380412-58.551907 123.995967 123.995967 0 0 0-240.760824 0 152.870193 152.870193 0 0 0 120.380412 58.551907" fill="#7E64AB" p-id="7723"></path><path d="M183.075143 854.633837a31.560784 31.560784 0 1 1-31.560784-31.48546 31.523122 31.523122 0 0 1 31.560784 31.48546" fill="#FEFEFE" p-id="7724"></path><path d="M151.514359 775.694215a97.142938 97.142938 0 1 0 97.36891 97.168046 97.394018 97.394018 0 0 0-97.36891-97.168046m0 248.305785C67.967416 1024 0 956.20834 0 872.862261s67.967416-151.187955 151.514359-151.187955 151.514359 67.79166 151.51436 151.187955-67.97997 151.137739-151.51436 151.137739M858.39306 255.719631c-11.42415 19.747459-15.968702 40.75032-10.796449 56.041106 4.607322 13.671318 17.977344 21.655669 39.771107 23.764743 15.86827 1.506481 36.080228-0.753241 42.420003-20.31239 5.147145-15.956148-1.029429-39.733445-22.710206-52.312564-12.152283-7.10557-28.510159-10.043209-48.671901-7.180895M643.568823 397.881252a27.028786 27.028786 0 0 1-19.898108-45.294871C707.292983 261.896205 774.582482 222.238084 825.714969 207.800971a177.300298 177.300298 0 0 1 19.433609-20.990306C891.334785 144.302783 952.297063 133.104605 1008.087088 157.057658a27.028786 27.028786 0 1 1-21.341819 49.63856c-29.64002-12.779983-55.237649-8.511619-74.395069-0.138094a108.027265 108.027265 0 0 1 22.057397 9.666588c41.039062 23.927945 60.799076 72.54963 46.889231 115.572226-10.156195 31.385028-41.767195 63.196892-99.176687 57.472263-59.003852-5.674413-79.09027-40.172835-85.869436-60.259253-5.021604-14.989489-6.013371-31.711432-3.326813-48.797441-36.820914 20.827104-80.232685 55.639377-129.4193 108.943708a27.028786 27.028786 0 0 1-19.948323 8.787808" fill="#454849" p-id="7725"></path></svg>