<?xml version="1.0" standalone="no"?><!DOCTYPE svg PUBLIC "-//W3C//DTD SVG 1.1//EN" "http://www.w3.org/Graphics/SVG/1.1/DTD/svg11.dtd"><svg t="1765988605309" class="icon" viewBox="0 0 1024 1024" version="1.1" xmlns="http://www.w3.org/2000/svg" p-id="2014" xmlns:xlink="http://www.w3.org/1999/xlink" width="128" height="128"><path d="M946.5 786.3l5.5-42.1c0 0.3-0.1 0.6-0.2 0.9 0 0.1 0 0.2-0.1 0.3-0.1 0.2-0.1 0.4-0.2 0.7 0 0.1-0.1 0.1-0.1 0.2-0.1 0.3-0.3 0.6-0.4 0.8l-0.1 0.1c-0.1 0.2-0.3 0.5-0.5 0.7l-0.2 0.2c-0.2 0.3-0.4 0.5-0.7 0.8-0.2 0.3-0.5 0.5-0.8 0.8-0.1 0.1-0.2 0.1-0.2 0.2-0.2 0.2-0.5 0.4-0.7 0.6-0.1 0-0.1 0.1-0.2 0.1-0.3 0.2-0.7 0.5-1 0.7-0.1 0.1-0.2 0.1-0.3 0.2-0.3 0.2-0.5 0.3-0.8 0.5-0.1 0.1-0.3 0.2-0.4 0.2-0.3 0.1-0.5 0.3-0.8 0.4-0.2 0.1-0.3 0.1-0.5 0.2-0.3 0.1-0.5 0.2-0.8 0.3-0.2 0.1-0.5 0.2-0.7 0.3-0.3 0.1-0.6 0.2-0.8 0.3-0.3 0.1-0.5 0.2-0.8 0.3-0.4 0.1-0.8 0.2-1.2 0.4-0.2 0-0.3 0.1-0.5 0.1-0.6 0.2-1.1 0.3-1.7 0.5-0.1 0-0.3 0.1-0.4 0.1-0.5 0.1-0.9 0.2-1.4 0.3-0.2 0-0.5 0.1-0.7 0.1l-1.5 0.3-598.8 93.3c-0.7 0.1-1.5 0.2-2.3 0.3-0.2 0-0.4 0-0.6 0.1-0.8 0.1-1.5 0.2-2.3 0.2-1.2 0.1-2.5 0.1-3.7 0.2h-4.5c-0.5 0-1 0-1.5-0.1h-0.7c-0.5 0-1-0.1-1.6-0.1h-0.5c-1.2-0.1-2.4-0.2-3.6-0.4h-0.2c-1.1-0.1-2.1-0.3-3.2-0.5-0.1 0-0.2 0-0.3-0.1-0.9-0.2-1.9-0.3-2.8-0.5-0.2 0-0.3-0.1-0.5-0.1-0.9-0.2-1.8-0.4-2.6-0.6-0.2 0-0.3-0.1-0.5-0.1-0.9-0.2-1.8-0.5-2.6-0.7-0.1 0-0.2 0-0.2-0.1-0.9-0.3-1.8-0.5-2.6-0.8-0.1 0-0.1 0-0.2-0.1-0.9-0.3-1.8-0.7-2.7-1-0.1 0-0.2-0.1-0.3-0.1-0.3-0.1-0.6-0.3-0.9-0.4l-0.6-0.3c-0.3-0.1-0.6-0.3-1-0.4-0.2-0.1-0.3-0.2-0.5-0.2-0.5-0.3-1.1-0.5-1.6-0.8-0.1-0.1-0.3-0.2-0.4-0.2-0.4-0.2-0.8-0.4-1.1-0.6-0.2-0.1-0.4-0.2-0.5-0.3-0.3-0.2-0.5-0.3-0.8-0.5-0.2-0.1-0.4-0.2-0.5-0.3-0.3-0.2-0.5-0.3-0.8-0.5-0.2-0.1-0.3-0.2-0.5-0.3-0.3-0.2-0.5-0.4-0.8-0.6-0.1-0.1-0.3-0.2-0.4-0.3-0.4-0.3-0.7-0.6-1.1-0.9L140.9 714c-3.8-3.3-5.4-6.7-5-9.9l-5.5 42.1c-0.4 3.1 1.2 6.5 5 9.9l142.3 123.7c0.3 0.3 0.7 0.6 1.1 0.9 0.1 0.1 0.3 0.2 0.4 0.3 0.3 0.2 0.5 0.4 0.8 0.6 0.2 0.1 0.3 0.2 0.5 0.3 0.3 0.2 0.5 0.3 0.8 0.5 0.2 0.1 0.4 0.2 0.5 0.3 0.3 0.2 0.5 0.3 0.8 0.5 0.1 0.1 0.2 0.1 0.3 0.2 0.1 0 0.2 0.1 0.3 0.1 0.4 0.2 0.7 0.4 1.1 0.6 0.1 0.1 0.3 0.2 0.4 0.2 0.5 0.3 1.1 0.5 1.6 0.8 0.2 0.1 0.3 0.1 0.5 0.2 0.3 0.1 0.6 0.3 0.9 0.4l0.6 0.3c0.3 0.1 0.6 0.3 0.9 0.4 0 0 0.1 0 0.1 0.1 0.1 0 0.1 0 0.2 0.1 0.9 0.4 1.8 0.7 2.7 1h0.1c0.9 0.3 1.7 0.6 2.6 0.8 0.1 0 0.1 0 0.2 0.1h0.1c0.9 0.3 1.7 0.5 2.6 0.7 0.1 0 0.2 0 0.3 0.1h0.2c0.9 0.2 1.7 0.4 2.6 0.6h0.2c0.1 0 0.2 0 0.3 0.1 0.9 0.2 1.9 0.4 2.8 0.5H304.5c1 0.2 2.1 0.3 3.2 0.5h0.1c1.2 0.2 2.4 0.3 3.6 0.4h0.5c0.5 0 1 0.1 1.6 0.1h0.7c0.5 0 1 0 1.5 0.1h4.4c1.3 0 2.5-0.1 3.7-0.2 0.8-0.1 1.5-0.1 2.3-0.2 0.2 0 0.4 0 0.6-0.1 0.8-0.1 1.5-0.2 2.3-0.3l598.8-93.3c0.2 0 0.4-0.1 0.6-0.1 0.3-0.1 0.6-0.1 0.9-0.2 0.2 0 0.5-0.1 0.7-0.1l1.5-0.3c0.1 0 0.3-0.1 0.4-0.1 0.6-0.1 1.2-0.3 1.7-0.5 0.2 0 0.3-0.1 0.4-0.1 0.3-0.1 0.7-0.2 1-0.3 0.1 0 0.1 0 0.2-0.1 0.3-0.1 0.5-0.2 0.8-0.3 0.3-0.1 0.6-0.2 0.8-0.3 0.2-0.1 0.5-0.2 0.7-0.3 0.2-0.1 0.4-0.2 0.6-0.2 0.1 0 0.1-0.1 0.2-0.1 0.2-0.1 0.3-0.1 0.5-0.2 0.3-0.1 0.6-0.3 0.8-0.4 0.1-0.1 0.3-0.2 0.4-0.2 0.1-0.1 0.2-0.1 0.3-0.2 0.2-0.1 0.4-0.2 0.5-0.3 0.1-0.1 0.2-0.1 0.3-0.2l0.9-0.6 0.1-0.1c0.1 0 0.1-0.1 0.2-0.1 0.3-0.2 0.5-0.4 0.7-0.6 0.1-0.1 0.2-0.1 0.2-0.2l0.2-0.2 0.6-0.6c0.2-0.2 0.4-0.4 0.5-0.6 0-0.1 0.1-0.1 0.1-0.2l0.2-0.2c0.2-0.2 0.3-0.5 0.5-0.7l0.1-0.1c0.1-0.3 0.3-0.5 0.4-0.8 0-0.1 0.1-0.1 0.1-0.2s0.1-0.2 0.1-0.4c0-0.1 0.1-0.2 0.1-0.3 0-0.1 0.1-0.2 0.1-0.3 0.2 0.1 0.2-0.2 0.3-0.5z" fill="#D30032" p-id="2015"></path><path d="M933.4 755.8l-598.8 93.3c-17.9 2.8-41-2.3-51.4-11.4L140.9 714c-10.4-9-4.3-18.7 13.5-21.5l598.8-93.3c17.9-2.8 41 2.3 51.4 11.4l142.3 123.7c10.4 9.1 4.3 18.7-13.5 21.5z" fill="#F77490" p-id="2016"></path><path d="M773.2 155.5c0.7 0 1.4-0.1 2.1 0h0.4c0.6 0 1.3 0.1 1.9 0.1h0.3c0.7 0.1 1.3 0.2 2 0.3 0.1 0 0.3 0.1 0.4 0.1 0.7 0.1 1.3 0.3 1.9 0.4 0.1 0 0.1 0 0.2 0.1 0.6 0.2 1.2 0.3 1.7 0.5 0.1 0 0.3 0.1 0.4 0.1 0.6 0.2 1.2 0.5 1.8 0.7 0.1 0.1 0.2 0.1 0.3 0.2l1.8 0.9-43.1-23.5c-0.3-0.2-0.7-0.4-1-0.5-0.2-0.1-0.5-0.2-0.7-0.3-0.1-0.1-0.2-0.1-0.3-0.2-0.6-0.3-1.2-0.5-1.8-0.7-0.1 0-0.3-0.1-0.4-0.1-0.6-0.2-1.2-0.4-1.7-0.5-0.1 0-0.1 0-0.2-0.1h-0.1c-0.6-0.2-1.2-0.3-1.9-0.4-0.1 0-0.3-0.1-0.4-0.1-0.7-0.1-1.3-0.2-2-0.3h-0.3c-0.6-0.1-1.3-0.1-1.9-0.1h-2.9c-0.7 0.1-1.5 0.1-2.2 0.2l-621 87.3c-0.8 0.1-1.5 0.2-2.2 0.4-0.2 0-0.4 0.1-0.6 0.1-0.7 0.2-1.3 0.3-2 0.5-0.1 0-0.2 0-0.2 0.1-0.7 0.2-1.4 0.5-2.1 0.7-0.2 0.1-0.4 0.1-0.5 0.2-0.6 0.2-1.2 0.5-1.8 0.8-0.1 0-0.2 0.1-0.3 0.1 0 0-0.1 0-0.1 0.1-0.2 0.1-0.4 0.2-0.5 0.3-0.3 0.2-0.6 0.3-1 0.5l-0.6 0.3c-0.3 0.2-0.6 0.3-0.9 0.5-0.2 0.1-0.4 0.2-0.6 0.4-0.3 0.2-0.6 0.3-0.8 0.5-0.2 0.1-0.4 0.3-0.6 0.4-0.1 0.1-0.2 0.2-0.4 0.2-0.1 0.1-0.2 0.1-0.3 0.2-0.6 0.4-1.1 0.8-1.7 1.2l-0.2 0.2-1.8 1.5-0.2 0.2-0.3 0.3-1.2 1.2-0.4 0.4c-0.5 0.5-1 1.1-1.5 1.6l-0.1 0.1c-0.1 0.1-0.1 0.2-0.2 0.3-0.4 0.5-0.8 0.9-1.2 1.4-0.1 0.2-0.3 0.3-0.4 0.5-0.4 0.5-0.7 1-1.1 1.4-0.1 0.1-0.1 0.2-0.2 0.3 0 0 0 0.1-0.1 0.1-0.4 0.6-0.9 1.3-1.3 1.9-0.1 0.2-0.2 0.3-0.3 0.5-0.3 0.5-0.6 1.1-1 1.7-0.1 0.1-0.1 0.2-0.2 0.3 0 0 0 0.1-0.1 0.1l-1.2 2.4c-0.1 0.2-0.1 0.3-0.2 0.5-0.4 0.8-0.7 1.7-1 2.5v0.1c-0.1 0.3-0.2 0.5-0.3 0.8-0.1 0.3-0.2 0.5-0.3 0.8l-0.3 0.9c-0.1 0.3-0.2 0.5-0.2 0.8-0.1 0.3-0.2 0.6-0.2 1-0.1 0.3-0.1 0.5-0.2 0.8-0.1 0.3-0.1 0.7-0.2 1-0.1 0.3-0.1 0.5-0.2 0.8-0.1 0.3-0.1 0.7-0.2 1 0 0.3-0.1 0.5-0.1 0.8-0.1 0.4-0.1 0.7-0.1 1.1 0 0.2-0.1 0.5-0.1 0.7 0 0.4-0.1 0.8-0.1 1.2v2.5L72 650.5c0 12.9 6.3 23.4 15.7 28.5l43.1 23.5c-9.4-5.1-15.7-15.6-15.7-28.5l0.7-389.8v-1.9-0.6c0-0.4 0.1-0.8 0.1-1.2 0-0.2 0.1-0.5 0.1-0.7 0-0.4 0.1-0.7 0.1-1.1 0-0.3 0.1-0.5 0.1-0.8 0.1-0.3 0.1-0.7 0.2-1 0-0.3 0.1-0.5 0.2-0.8 0.1-0.3 0.1-0.7 0.2-1 0.1-0.3 0.1-0.5 0.2-0.8 0.1-0.3 0.2-0.7 0.2-1 0.1-0.3 0.2-0.5 0.2-0.8 0.1-0.3 0.2-0.6 0.3-1 0.1-0.3 0.2-0.5 0.3-0.8l0.3-0.9c0.3-0.9 0.7-1.7 1-2.5 0.1-0.2 0.1-0.3 0.2-0.5l1.2-2.4c0.1-0.2 0.2-0.3 0.3-0.5 0.3-0.6 0.6-1.1 0.9-1.6 0.1-0.2 0.2-0.3 0.3-0.5 0.4-0.7 0.8-1.3 1.3-1.9 0.1-0.1 0.2-0.2 0.3-0.4 0.3-0.5 0.7-1 1.1-1.4 0.1-0.2 0.3-0.3 0.4-0.5 0.4-0.5 0.8-0.9 1.2-1.4l0.3-0.3c0.5-0.5 1-1.1 1.5-1.6l0.4-0.4 1.2-1.2c0.2-0.1 0.3-0.3 0.5-0.4l1.8-1.5 0.2-0.2c0.5-0.4 1.1-0.8 1.7-1.2 0.2-0.1 0.4-0.3 0.6-0.4 0.2-0.1 0.4-0.3 0.6-0.4 0.3-0.2 0.6-0.4 0.8-0.5 0.2-0.1 0.4-0.2 0.6-0.4 0.3-0.2 0.6-0.3 0.9-0.5l0.6-0.3c0.3-0.2 0.6-0.3 1-0.5 0.2-0.1 0.4-0.2 0.5-0.3 0.1-0.1 0.3-0.1 0.4-0.2 0.6-0.3 1.2-0.5 1.8-0.8 0.2-0.1 0.4-0.1 0.5-0.2 0.7-0.3 1.4-0.5 2.1-0.7 0.1 0 0.2 0 0.2-0.1 0.7-0.2 1.3-0.4 2-0.5 0.2 0 0.4-0.1 0.6-0.1 0.7-0.2 1.5-0.3 2.2-0.4l621-87.3c0.7-0.1 1.5-0.2 2.2-0.2 0.2 0 0.3 0 0.5-0.1z" fill="#4D4DCE" p-id="2017"></path><path d="M753.6 212.7l-0.6 353.5-587.3 82.5 0.6-353.5z" fill="#FFFFFF" p-id="2018"></path><path d="M770.5 155.8c18.5-2.6 33.6 11.6 33.6 31.6l-0.7 389.8c0 20-15.2 38.5-33.7 41.1l-621 87.3c-18.5 2.6-33.6-11.6-33.6-31.6l0.7-389.8c0-20 15.2-38.5 33.7-41.1l621-87.3zM753 566.2l0.7-353.5-587.3 82.5-0.7 353.5L753 566.2" fill="#978CDB" p-id="2019"></path><path d="M367.8 694.2l-41.6 6.5-26.2-22.8 41.5-6.5z" fill="#FFA300" p-id="2020"></path><path d="M294.5 720l5.5-42.1 26.2 22.8-5.4 42.1z" fill="#FF7900" p-id="2021"></path><path d="M320.8 742.8l5.4-42.1 41.6-6.5-5.5 42.1z" fill="#FDF17F" p-id="2022"></path><path d="M441.8 682.7l-41.5 6.5-26.3-22.8 41.6-6.5z" fill="#FFA300" p-id="2023"></path><path d="M368.6 708.5l5.4-42.1 26.3 22.8-5.5 42.1z" fill="#FF7900" p-id="2024"></path><path d="M394.8 731.3l5.5-42.1 41.5-6.5-5.4 42.1z" fill="#FDF17F" p-id="2025"></path><path d="M412.9 733.4l-41.5 6.5-26.3-22.8 41.6-6.5z" fill="#FFA300" p-id="2026"></path><path d="M339.7 759.2l5.4-42.1 26.3 22.8-5.5 42.1z" fill="#FF7900" p-id="2027"></path><path d="M365.9 782l5.5-42.1 41.5-6.5-5.4 42.1z" fill="#FDF17F" p-id="2028"></path><path d="M515.8 671.2l-41.5 6.4-26.3-22.8 41.6-6.4z" fill="#FFA300" p-id="2029"></path><path d="M442.6 696.9l5.4-42.1 26.3 22.8-5.5 42.2z" fill="#FF7900" p-id="2030"></path><path d="M468.8 719.8l5.5-42.2 41.5-6.4-5.4 42.1z" fill="#FDF17F" p-id="2031"></path><path d="M486.9 721.9l-41.5 6.5-26.3-22.8 41.6-6.5z" fill="#FFA300" p-id="2032"></path><path d="M413.7 747.7l5.4-42.1 26.3 22.8-5.5 42.1z" fill="#FF7900" p-id="2033"></path><path d="M439.9 770.5l5.5-42.1 41.5-6.5-5.4 42.1z" fill="#FDF17F" p-id="2034"></path><path d="M814.8 624.6l-44.3 6.9-26.3-22.8 44.3-6.9z" fill="#FFA300" p-id="2035"></path><path d="M738.8 650.8l5.4-42.1 26.3 22.8-5.5 42.1z" fill="#FF7900" p-id="2036"></path><path d="M765 673.6l5.5-42.1 44.3-6.9-5.5 42.1z" fill="#FDF17F" p-id="2037"></path><path d="M859.9 663.8l-44.3 6.9-26.2-22.8 44.3-6.9z" fill="#FFA300" p-id="2038"></path><path d="M783.9 690l5.5-42.1 26.2 22.8-5.4 42.1z" fill="#FF7900" p-id="2039"></path><path d="M810.2 712.8l5.4-42.1 44.3-6.9-5.4 42.1z" fill="#FDF17F" p-id="2040"></path><path d="M737.9 636.6l-41.5 6.4-26.3-22.8 41.6-6.4z" fill="#FFA300" p-id="2041"></path><path d="M664.7 662.4l5.4-42.2 26.3 22.8-5.5 42.2z" fill="#FF7900" p-id="2042"></path><path d="M690.9 685.2l5.5-42.2 41.5-6.4-5.4 42.1z" fill="#FDF17F" p-id="2043"></path><path d="M663.9 648.1l-41.5 6.5-26.3-22.8 41.6-6.5z" fill="#FFA300" p-id="2044"></path><path d="M590.7 673.9l5.4-42.1 26.3 22.8-5.5 42.1z" fill="#FF7900" p-id="2045"></path><path d="M616.9 696.7l5.5-42.1 41.5-6.5-5.4 42.1z" fill="#FDF17F" p-id="2046"></path><path d="M709 687.3l-41.5 6.5-26.3-22.8 41.6-6.5z" fill="#FFA300" p-id="2047"></path><path d="M635.8 713.1l5.4-42.1 26.3 22.8-5.5 42.1z" fill="#FF7900" p-id="2048"></path><path d="M662 735.9l5.5-42.1 41.5-6.5-5.4 42.1z" fill="#FDF17F" p-id="2049"></path><path d="M589.9 659.6l-41.5 6.5-26.3-22.8 41.6-6.5z" fill="#FFA300" p-id="2050"></path><path d="M516.7 685.4l5.4-42.1 26.3 22.8-5.5 42.1z" fill="#FF7900" p-id="2051"></path><path d="M542.9 708.2l5.5-42.1 41.5-6.5-5.4 42.1z" fill="#FDF17F" p-id="2052"></path><path d="M635 698.8l-41.5 6.5-26.3-22.8 41.6-6.5z" fill="#FFA300" p-id="2053"></path><path d="M561.8 724.6l5.4-42.1 26.3 22.8-5.5 42.1z" fill="#FF7900" p-id="2054"></path><path d="M588 747.4l5.5-42.1 41.5-6.5-5.4 42.1z" fill="#FDF17F" p-id="2055"></path><path d="M560.9 710.4l-41.5 6.5-26.3-22.9 41.6-6.4z" fill="#FFA300" p-id="2056"></path><path d="M487.7 736.2l5.4-42.2 26.3 22.9-5.5 42.1z" fill="#FF7900" p-id="2057"></path><path d="M513.9 759l5.5-42.1 41.5-6.5-5.4 42.1z" fill="#FDF17F" p-id="2058"></path><path d="M293.8 705.8l-45.3 7-26.3-22.8 45.3-7.1z" fill="#FFA300" p-id="2059"></path><path d="M216.8 732.1l5.4-42.1 26.3 22.8-5.5 42.1z" fill="#FF7900" p-id="2060"></path><path d="M243 754.9l5.5-42.1 45.3-7-5.5 42.1z" fill="#FDF17F" p-id="2061"></path><path d="M783.1 675.8l-41.6 6.5-26.2-22.9 41.5-6.4z" fill="#FFA300" p-id="2062"></path><path d="M709.8 701.6l5.5-42.2 26.2 22.9-5.4 42.1z" fill="#FF7900" p-id="2063"></path><path d="M736.1 724.4l5.4-42.1 41.6-6.5-5.5 42.1z" fill="#FDF17F" p-id="2064"></path><path d="M338.9 745l-45.3 7-26.2-22.8 45.3-7z" fill="#FFA300" p-id="2065"></path><path d="M261.9 771.3l5.5-42.1 26.2 22.8-5.4 42.1z" fill="#FF7900" p-id="2066"></path><path d="M288.2 794.1l5.4-42.1 45.3-7-5.4 42.1z" fill="#FDF17F" p-id="2067"></path></svg>