<?xml version="1.0" standalone="no"?><!DOCTYPE svg PUBLIC "-//W3C//DTD SVG 1.1//EN" "http://www.w3.org/Graphics/SVG/1.1/DTD/svg11.dtd"><svg t="1765988610631" class="icon" viewBox="0 0 1024 1024" version="1.1" xmlns="http://www.w3.org/2000/svg" p-id="2241" xmlns:xlink="http://www.w3.org/1999/xlink" width="128" height="128"><path d="M804.5 283.3c0.2-0.7 0.4-1.4 0.5-2.1 0-0.1 0.1-0.3 0.1-0.4 0.2-0.8 0.3-1.6 0.5-2.4 0-0.2 0.1-0.4 0.1-0.6l0.3-2.1v-0.4c0.1-0.8 0.1-1.6 0.1-2.4v-0.6-2.1-0.3c0-0.8-0.1-1.5-0.2-2.3 0-0.2 0-0.4-0.1-0.6l-0.3-2.1v-0.3c-0.1-0.7-0.3-1.5-0.5-2.2 0-0.2-0.1-0.4-0.1-0.5-0.2-0.7-0.4-1.3-0.6-2 0-0.1 0-0.1-0.1-0.2-0.2-0.7-0.5-1.4-0.8-2.1-0.1-0.2-0.1-0.3-0.2-0.5-0.3-0.7-0.6-1.3-0.9-1.9 0 0 0-0.1-0.1-0.1-0.3-0.7-0.7-1.3-1.1-1.9-0.1-0.2-0.2-0.3-0.3-0.5l-1.2-1.8-0.1-0.1c-0.4-0.6-0.9-1.2-1.4-1.7-0.1-0.1-0.2-0.3-0.4-0.4-0.5-0.6-1-1.1-1.6-1.6a26.5 26.5 0 0 0-5.9-4.2l-92.4-50.3c2.1 1.1 4 2.5 5.9 4.2 0.6 0.5 1.1 1.1 1.6 1.6 0.1 0.1 0.2 0.3 0.4 0.4 0.5 0.6 1 1.1 1.4 1.7v0.1l1.2 1.8c0.1 0.2 0.2 0.3 0.3 0.5 0.4 0.6 0.8 1.3 1.1 1.9 0 0 0 0.1 0.1 0.1 0.3 0.6 0.6 1.3 0.9 1.9 0.1 0.2 0.1 0.3 0.2 0.5 0.3 0.7 0.6 1.4 0.8 2.1 0 0.1 0 0.1 0.1 0.2 0.2 0.7 0.4 1.3 0.6 2 0 0.2 0.1 0.4 0.1 0.5 0.2 0.7 0.3 1.5 0.5 2.2v0.3l0.3 2.1c0 0.2 0 0.4 0.1 0.6 0.1 0.8 0.1 1.5 0.2 2.3v3c0 0.8-0.1 1.6-0.1 2.4v0.4l-0.3 2.1c0 0.2-0.1 0.4-0.1 0.6-0.1 0.8-0.3 1.6-0.5 2.4 0 0.1-0.1 0.3-0.1 0.4-0.2 0.7-0.3 1.4-0.5 2-0.1 0.2-0.1 0.4-0.2 0.5-0.2 0.8-0.5 1.5-0.8 2.3 0 0.1-0.1 0.3-0.1 0.4-0.3 0.8-0.6 1.6-1 2.4 0 0.1-0.1 0.2-0.1 0.3-0.4 0.8-0.8 1.7-1.2 2.5l-0.3 0.6c-0.3 0.6-0.6 1.1-1 1.7-0.1 0.1-0.1 0.2-0.2 0.3-0.4 0.7-0.8 1.3-1.3 2-0.2 0.3-0.4 0.6-0.7 0.9-0.1 0.2-0.2 0.3-0.3 0.5-0.4 0.5-0.7 1-1.1 1.4-0.4 0.5-0.8 0.9-1.1 1.3-0.5 0.6-1 1.1-1.5 1.6l-0.3 0.3c-0.4 0.4-0.9 0.8-1.3 1.2-0.2 0.2-0.3 0.3-0.5 0.4-0.5 0.4-1 0.8-1.4 1.2-0.1 0.1-0.3 0.2-0.4 0.3-0.6 0.5-1.2 0.9-1.8 1.4l-0.9 0.6c-0.2 0.1-0.3 0.2-0.5 0.3-0.5 0.3-0.9 0.6-1.4 0.9-0.5 0.3-1 0.5-1.5 0.8-0.2 0.1-0.3 0.2-0.5 0.2-0.3 0.2-0.6 0.3-0.9 0.5-0.7 0.3-1.4 0.6-2.2 0.9-0.2 0.1-0.3 0.1-0.5 0.2-0.7 0.2-1.3 0.5-2 0.7-0.1 0-0.2 0.1-0.3 0.1-0.7 0.2-1.5 0.4-2.2 0.6-0.2 0-0.3 0.1-0.5 0.1-0.8 0.2-1.5 0.3-2.3 0.4-0.7 0.1-1.4 0.2-2.1 0.2h-0.5c-0.7 0-1.4 0.1-2.1 0.1h-0.3c-0.6 0-1.2 0-1.9-0.1h-0.4c-0.7-0.1-1.3-0.1-2-0.3-0.1 0-0.3 0-0.4-0.1-0.6-0.1-1.2-0.2-1.8-0.4-0.1 0-0.2 0-0.3-0.1-0.7-0.2-1.3-0.4-2-0.6-0.1 0-0.3-0.1-0.4-0.1-0.6-0.2-1.3-0.5-1.9-0.7-0.1 0-0.2-0.1-0.3-0.1-0.7-0.3-1.3-0.6-1.9-0.9l92.4 50.3c0.3 0.2 0.7 0.4 1 0.5 0.3 0.1 0.6 0.3 0.9 0.4 0.1 0 0.2 0.1 0.2 0.1 0.6 0.3 1.3 0.5 1.9 0.7 0.1 0 0.3 0.1 0.4 0.1l1.8 0.6h0.1c0.1 0 0.2 0 0.3 0.1 0.6 0.1 1.2 0.3 1.8 0.4 0.1 0 0.3 0.1 0.4 0.1 0.7 0.1 1.3 0.2 2 0.3h0.4c0.6 0 1.2 0.1 1.9 0.1h0.3c0.7 0 1.4 0 2.1-0.1h0.5c0.7-0.1 1.4-0.1 2.1-0.2 0.8-0.1 1.5-0.2 2.3-0.4 0.2 0 0.3-0.1 0.5-0.1 0.7-0.2 1.5-0.4 2.2-0.6 0.1 0 0.2-0.1 0.3-0.1 0.7-0.2 1.3-0.4 2-0.7 0.2-0.1 0.3-0.1 0.5-0.2 0.7-0.3 1.4-0.6 2.2-0.9 0 0 0.1 0 0.1-0.1 0.3-0.1 0.5-0.3 0.8-0.4 0.2-0.1 0.3-0.2 0.5-0.2 0.5-0.3 1-0.5 1.5-0.8 0.5-0.3 0.9-0.6 1.4-0.9 0.2-0.1 0.3-0.2 0.5-0.3 0.3-0.2 0.5-0.3 0.8-0.5l0.1-0.1c0.6-0.4 1.2-0.9 1.8-1.4 0.1-0.1 0.3-0.2 0.4-0.3 0.5-0.4 1-0.8 1.4-1.2 0.1-0.1 0.2-0.2 0.3-0.2l0.2-0.2c0.4-0.4 0.9-0.8 1.3-1.2l0.3-0.3c0.5-0.5 1-1.1 1.5-1.6l0.1-0.1c0.3-0.4 0.7-0.8 1-1.2 0.4-0.5 0.8-1 1.1-1.4 0.1-0.2 0.2-0.3 0.4-0.5 0.2-0.3 0.4-0.5 0.6-0.8 0-0.1 0.1-0.1 0.1-0.2 0.5-0.6 0.9-1.3 1.3-2 0.1-0.1 0.1-0.2 0.2-0.3 0.3-0.6 0.7-1.1 1-1.7 0.1-0.1 0.1-0.2 0.2-0.3 0-0.1 0.1-0.2 0.1-0.3 0.4-0.8 0.8-1.6 1.2-2.5 0-0.1 0.1-0.2 0.1-0.3 0.4-0.8 0.7-1.6 1-2.4 0-0.1 0.1-0.2 0.1-0.3v-0.1c0.3-0.8 0.5-1.5 0.8-2.3 0.3 0.1 0.4-0.1 0.4-0.3z" fill="#2B2B93" p-id="2242"></path><path d="M381.4 949L289 898.7c-1.9-1-3.6-2.3-5.2-3.8l92.4 50.3c1.6 1.5 3.4 2.8 5.2 3.8" fill="#4F4972" p-id="2243"></path><path d="M913 291.6c11.8 11.1 11.8 32.1 0 46.6L419.3 939.1c-5.9 7.2-13.8 11.5-21.6 12.6-7.8 1.1-15.6-1-21.5-6.6L203.4 782.7c-11.8-11.1-11.8-32 0.1-46.5l493.6-600.9c5.9-7.2 13.8-11.5 21.6-12.6s15.6 1 21.5 6.6L913 291.6z m-116.8 7.6c13.3-16.2 13.3-39.4 0.1-51.9-6.6-6.2-15.3-8.6-24-7.4-8.7 1.2-17.4 6-24.1 14.1-13.3 16.2-13.3 39.4-0.1 51.9 6.6 6.2 15.3 8.6 24 7.4 8.8-1.2 17.5-6 24.1-14.1" fill="#978CDB" p-id="2244"></path><path d="M722.9 122.3h0.3c0.6 0 1.1 0 1.7 0.1h0.4c0.6 0.1 1.2 0.1 1.8 0.2 0.1 0 0.2 0 0.4 0.1 0.5 0.1 1.1 0.2 1.6 0.3 0.1 0 0.2 0 0.2 0.1 0.6 0.2 1.2 0.3 1.8 0.5 0.1 0 0.2 0.1 0.4 0.1 0.6 0.2 1.1 0.4 1.7 0.7 0.1 0 0.1 0.1 0.2 0.1 0.6 0.3 1.2 0.5 1.7 0.9l-92.4-50.3c-0.3-0.2-0.6-0.3-0.9-0.5-0.3-0.1-0.6-0.3-0.8-0.4-0.1 0-0.1-0.1-0.2-0.1-0.6-0.2-1.1-0.5-1.7-0.7-0.1 0-0.2-0.1-0.4-0.1-0.5-0.2-1.1-0.3-1.6-0.5h-0.1c-0.1 0-0.2 0-0.2-0.1-0.5-0.1-1.1-0.2-1.6-0.3-0.1 0-0.2 0-0.4-0.1-0.6-0.1-1.2-0.2-1.8-0.2h-0.4c-0.6 0-1.1-0.1-1.7-0.1h-0.3c-0.6 0-1.2 0-1.9 0.1h-0.4c-0.6 0-1.3 0.1-1.9 0.2-0.7 0.1-1.4 0.2-2 0.4-0.2 0-0.3 0.1-0.5 0.1-0.7 0.2-1.3 0.3-2 0.5-0.1 0-0.2 0.1-0.3 0.1l-1.8 0.6c-0.1 0.1-0.3 0.1-0.4 0.2-0.6 0.3-1.3 0.5-1.9 0.8 0 0-0.1 0-0.1 0.1-0.2 0.1-0.5 0.2-0.7 0.3-0.2 0.1-0.3 0.2-0.5 0.2-0.4 0.2-0.8 0.4-1.1 0.6-0.1 0-0.1 0.1-0.2 0.1-0.4 0.3-0.9 0.5-1.3 0.8-0.1 0.1-0.3 0.2-0.4 0.3-0.3 0.2-0.5 0.3-0.7 0.5l-0.1 0.1c-0.6 0.4-1.1 0.8-1.6 1.2-0.1 0.1-0.2 0.2-0.4 0.3-0.4 0.3-0.9 0.7-1.3 1.1-0.1 0.1-0.2 0.1-0.3 0.2l-0.2 0.2c-0.4 0.4-0.8 0.7-1.2 1.1l-0.3 0.3c-0.5 0.5-0.9 1-1.4 1.5l-0.1 0.1c-0.3 0.3-0.6 0.7-0.9 1.1L111.2 685.9c-0.6 0.7-1.1 1.4-1.7 2.2l-0.2 0.2c0 0.1-0.1 0.1-0.1 0.2l-1.2 1.8c-0.1 0.1-0.1 0.2-0.2 0.3l-0.9 1.5c0 0.1-0.1 0.2-0.1 0.3 0 0.1-0.1 0.2-0.1 0.2-0.4 0.7-0.8 1.5-1.1 2.2 0 0.1-0.1 0.2-0.1 0.3l-0.9 2.1c0 0.1-0.1 0.2-0.1 0.2v0.1c-0.3 0.7-0.5 1.4-0.7 2.1 0 0.2-0.1 0.3-0.1 0.5-0.2 0.6-0.3 1.2-0.5 1.8 0 0.1-0.1 0.2-0.1 0.4-0.2 0.7-0.3 1.4-0.4 2.1 0 0.2-0.1 0.3-0.1 0.5-0.1 0.6-0.2 1.2-0.2 1.9v0.3c-0.1 0.7-0.1 1.4-0.1 2.1V711.9c0 0.7 0.1 1.4 0.1 2.1 0 0.2 0 0.3 0.1 0.5l0.3 1.8v0.3c0.1 0.7 0.3 1.3 0.4 2 0 0.2 0.1 0.3 0.1 0.5 0.2 0.6 0.3 1.2 0.5 1.8 0 0.1 0 0.1 0.1 0.2 0.2 0.6 0.5 1.3 0.7 1.9 0.1 0.2 0.1 0.3 0.2 0.5 0.2 0.6 0.5 1.2 0.8 1.7 0 0 0 0.1 0.1 0.1 0.3 0.6 0.6 1.2 1 1.7 0.1 0.1 0.2 0.3 0.3 0.4 0.3 0.5 0.7 1.1 1.1 1.6v0.1c0.4 0.5 0.8 1.1 1.3 1.6 0.1 0.1 0.2 0.2 0.3 0.4 0.5 0.5 0.9 1 1.4 1.5l172.8 162.5 92.4 50.3-172.9-162.7c-0.5-0.5-1-1-1.4-1.5-0.1-0.1-0.2-0.2-0.3-0.4-0.4-0.5-0.9-1-1.3-1.6v-0.1c-0.4-0.5-0.8-1.1-1.1-1.6-0.1-0.1-0.2-0.3-0.3-0.4-0.3-0.6-0.7-1.1-1-1.7 0 0 0-0.1-0.1-0.1-0.3-0.6-0.6-1.1-0.8-1.7-0.1-0.2-0.1-0.3-0.2-0.5-0.3-0.6-0.5-1.2-0.7-1.9 0-0.1 0-0.1-0.1-0.2-0.2-0.6-0.4-1.2-0.5-1.8 0-0.2-0.1-0.3-0.1-0.5-0.2-0.7-0.3-1.3-0.4-2v-0.3l-0.3-1.8c0-0.2 0-0.3-0.1-0.5-0.1-0.7-0.1-1.4-0.1-2.1v-0.3-1.9-0.5c0-0.7 0.1-1.4 0.1-2.1v-0.3c0.1-0.6 0.1-1.2 0.2-1.9 0-0.2 0-0.3 0.1-0.5 0.1-0.7 0.3-1.4 0.4-2.1 0-0.1 0.1-0.2 0.1-0.4 0.1-0.6 0.3-1.2 0.5-1.8 0-0.2 0.1-0.3 0.1-0.5 0.2-0.7 0.4-1.4 0.7-2.1 0-0.1 0.1-0.2 0.1-0.4l0.9-2.1c0-0.1 0.1-0.2 0.1-0.3 0.3-0.7 0.7-1.5 1.1-2.2 0.1-0.2 0.2-0.3 0.3-0.5l0.9-1.5c0.1-0.1 0.1-0.2 0.2-0.3l1.2-1.8c0.1-0.1 0.2-0.2 0.3-0.4 0.5-0.7 1.1-1.5 1.7-2.2L697.2 135c0.3-0.4 0.7-0.8 1-1.2 0.4-0.5 0.9-1 1.4-1.5l0.3-0.3c0.4-0.4 0.8-0.8 1.2-1.1l0.4-0.4c0.4-0.4 0.8-0.7 1.3-1.1 0.1-0.1 0.2-0.2 0.4-0.3 0.5-0.4 1.1-0.8 1.6-1.2 0.3-0.2 0.6-0.4 0.8-0.6 0.1-0.1 0.3-0.2 0.4-0.3 0.4-0.3 0.9-0.5 1.3-0.8 0.1 0 0.1-0.1 0.2-0.1l1.2-0.6c0.2-0.1 0.3-0.2 0.5-0.2 0.3-0.1 0.5-0.3 0.8-0.4 0.6-0.3 1.3-0.6 1.9-0.8 0.1-0.1 0.3-0.1 0.4-0.2l1.8-0.6c0.1 0 0.2-0.1 0.2-0.1 0.7-0.2 1.3-0.4 2-0.5 0.2 0 0.3-0.1 0.5-0.1 0.7-0.1 1.4-0.3 2-0.4 0.6-0.1 1.3-0.1 1.9-0.2h0.4c0.5 0.3 1.2 0.3 1.8 0.3z" fill="#4D4DCE" p-id="2245"></path><path d="M755.9 424.5L677.7 351c-0.3-0.3-0.6-0.6-0.9-1l-0.3-0.3c-0.2-0.3-0.4-0.5-0.6-0.8-0.1-0.1-0.2-0.2-0.2-0.3-0.2-0.4-0.4-0.7-0.6-1.1v-0.1l-0.6-1.2c0-0.1-0.1-0.2-0.1-0.4-0.1-0.3-0.2-0.6-0.3-1 0-0.1-0.1-0.3-0.1-0.4l-0.3-1.2v-0.2c-0.1-0.5-0.1-0.9-0.2-1.4v-0.4-1-0.4c0-0.4 0-0.8 0.1-1.2v-0.2c0-0.5 0.1-1 0.2-1.4 0-0.1 0.1-0.3 0.1-0.4 0.1-0.4 0.1-0.7 0.2-1.1 0-0.2 0.1-0.3 0.1-0.5 0.1-0.4 0.2-0.8 0.4-1.1 0-0.1 0.1-0.2 0.1-0.3 0.2-0.5 0.4-1 0.6-1.4 0-0.1 0.1-0.2 0.2-0.3 0.2-0.4 0.4-0.7 0.6-1.1 0.1-0.1 0.1-0.2 0.2-0.3 0.2-0.4 0.4-0.7 0.7-1.1 0.1-0.1 0.1-0.2 0.2-0.3 0.3-0.5 0.6-0.9 1-1.3 0.3-0.4 0.7-0.8 1.1-1.2l0.1-0.1c0.3-0.4 0.7-0.7 1.1-1l0.3-0.3c0.3-0.3 0.6-0.5 0.9-0.7 0.1-0.1 0.2-0.1 0.3-0.2 0.3-0.2 0.7-0.5 1-0.7 0.1-0.1 0.2-0.1 0.2-0.2 0.4-0.3 0.9-0.5 1.3-0.7 0.1 0 0.2-0.1 0.2-0.1 0.3-0.2 0.7-0.3 1.1-0.4 0.1-0.1 0.3-0.1 0.4-0.1l0.9-0.3c0.1 0 0.3-0.1 0.4-0.1 0.4-0.1 0.9-0.2 1.3-0.3 0.4-0.1 0.8-0.1 1.2-0.1H691.7c0.3 0 0.6 0 0.9 0.1h0.3c0.4 0.1 0.8 0.1 1.2 0.2 0.1 0 0.1 0 0.2 0.1l0.9 0.3c0.1 0 0.2 0.1 0.4 0.1 0.2 0.1 0.5 0.2 0.7 0.3 0.2 0.1 0.4 0.2 0.7 0.3l-92.4-50.3c-0.2-0.1-0.3-0.2-0.5-0.2-0.1 0-0.1-0.1-0.2-0.1-0.2-0.1-0.5-0.2-0.7-0.3-0.1 0-0.2-0.1-0.4-0.1l-0.9-0.3c-0.1 0-0.1 0-0.2-0.1-0.4-0.1-0.8-0.2-1.2-0.2h-0.3c-0.3 0-0.6-0.1-0.9-0.1H597.6c-0.4 0-0.8 0.1-1.2 0.1-0.4 0.1-0.9 0.2-1.3 0.3-0.1 0-0.3 0.1-0.4 0.1l-0.9 0.3c-0.1 0-0.3 0.1-0.4 0.1-0.4 0.1-0.7 0.3-1.1 0.4-0.1 0-0.2 0.1-0.2 0.1h-0.1c-0.4 0.2-0.9 0.4-1.3 0.7-0.1 0-0.2 0.1-0.2 0.2l-0.9 0.6-0.1 0.1c-0.1 0.1-0.2 0.1-0.3 0.2-0.3 0.2-0.6 0.5-0.9 0.7l-0.3 0.3c-0.1 0.1-0.2 0.1-0.2 0.2-0.3 0.3-0.6 0.5-0.9 0.8l-0.1 0.1-0.6 0.6c-0.2 0.2-0.3 0.4-0.5 0.6l-0.9 1.2s0 0.1-0.1 0.1c-0.1 0.1-0.1 0.2-0.2 0.2-0.2 0.4-0.5 0.7-0.7 1.1-0.1 0.1-0.1 0.2-0.2 0.3 0 0.1-0.1 0.2-0.1 0.2-0.2 0.3-0.3 0.6-0.4 0.9-0.1 0.1-0.1 0.2-0.2 0.3-0.2 0.4-0.4 0.9-0.6 1.4v0.1c0 0.1-0.1 0.2-0.1 0.3-0.1 0.4-0.3 0.8-0.4 1.1 0 0.2-0.1 0.3-0.1 0.5-0.1 0.4-0.2 0.7-0.2 1.1 0 0.1-0.1 0.3-0.1 0.4-0.1 0.5-0.1 1-0.2 1.4v0.2c0 0.4 0 0.8-0.1 1.2V291.3c0 0.5 0.1 0.9 0.2 1.4v0.2l0.3 1.2c0 0.1 0.1 0.3 0.1 0.4 0.1 0.3 0.2 0.6 0.3 1 0 0.1 0.1 0.2 0.1 0.4l0.6 1.2s0 0.1 0.1 0.1c0.2 0.4 0.4 0.7 0.6 1.1 0.1 0.1 0.2 0.2 0.2 0.3 0.2 0.3 0.4 0.5 0.6 0.8l0.3 0.3c0.3 0.3 0.6 0.7 0.9 1l78.2 73.5c0.8 0.8 1.7 1.4 2.6 1.9l92.4 50.3c-1-0.5-1.9-1.1-2.7-1.9zM618.8 422.8c-0.3-0.3-0.6-0.6-0.9-1l-0.3-0.3c-0.2-0.3-0.4-0.5-0.6-0.8-0.1-0.1-0.2-0.2-0.2-0.3-0.2-0.3-0.4-0.7-0.6-1.1 0 0 0-0.1-0.1-0.1l-0.6-1.2c0-0.1-0.1-0.2-0.1-0.4-0.1-0.3-0.2-0.6-0.3-1 0-0.1-0.1-0.3-0.1-0.4l-0.3-1.2v-0.2c-0.1-0.5-0.1-0.9-0.2-1.4v-0.4-1-0.4c0-0.4 0-0.8 0.1-1.2v-0.2c0-0.5 0.1-1 0.2-1.4 0-0.1 0.1-0.3 0.1-0.4 0.1-0.4 0.1-0.7 0.2-1.1 0-0.2 0.1-0.3 0.1-0.5 0.1-0.4 0.2-0.8 0.4-1.1 0-0.1 0.1-0.2 0.1-0.3 0.2-0.5 0.4-1 0.6-1.4 0.1-0.1 0.1-0.2 0.2-0.3 0.2-0.4 0.4-0.7 0.6-1.1 0.1-0.1 0.1-0.2 0.2-0.3 0.2-0.4 0.4-0.7 0.7-1.1 0.1-0.1 0.1-0.2 0.2-0.3 0.3-0.5 0.6-0.9 1-1.3 0.3-0.4 0.7-0.8 1.1-1.2l0.1-0.1c0.3-0.4 0.7-0.7 1.1-1l0.3-0.3c0.3-0.3 0.6-0.5 0.9-0.7 0.1-0.1 0.2-0.1 0.2-0.2 0.4-0.3 0.8-0.5 1.2-0.7l0.1-0.1c0.4-0.3 0.9-0.5 1.3-0.7 0.1 0 0.2-0.1 0.3-0.1 0.3-0.2 0.7-0.3 1-0.4 0.1-0.1 0.3-0.1 0.4-0.1l0.9-0.3c0.1 0 0.3-0.1 0.4-0.1 0.4-0.1 0.9-0.2 1.3-0.3 0.4-0.1 0.8-0.1 1.2-0.1H632.7c0.3 0 0.6 0.1 0.9 0.1h0.3c0.4 0.1 0.8 0.1 1.2 0.2 0.1 0 0.1 0 0.2 0.1l0.9 0.3c0.1 0 0.2 0.1 0.4 0.1 0.2 0.1 0.5 0.2 0.7 0.3 0.2 0.1 0.4 0.2 0.7 0.3l-92.4-50.3c-0.2-0.1-0.3-0.2-0.5-0.2-0.1 0-0.1-0.1-0.2-0.1-0.2-0.1-0.5-0.2-0.7-0.3-0.1 0-0.2-0.1-0.4-0.1l-0.9-0.3c-0.1 0-0.1 0-0.2-0.1-0.4-0.1-0.8-0.2-1.2-0.2h-0.3c-0.3 0-0.6-0.1-0.9-0.1H538.6c-0.4 0-0.8 0.1-1.2 0.1-0.4 0.1-0.9 0.2-1.3 0.3-0.1 0-0.3 0.1-0.4 0.1l-0.9 0.3c-0.1 0-0.3 0.1-0.4 0.1-0.3 0.1-0.7 0.3-1 0.4-0.1 0-0.2 0.1-0.3 0.1h-0.1c-0.4 0.2-0.8 0.4-1.3 0.7-0.1 0-0.1 0.1-0.2 0.1-0.4 0.2-0.7 0.4-1 0.7 0 0-0.1 0-0.1 0.1-0.1 0.1-0.2 0.1-0.2 0.2-0.3 0.2-0.6 0.5-0.9 0.7l-0.3 0.3c-0.1 0.1-0.2 0.1-0.2 0.2-0.3 0.3-0.6 0.5-0.8 0.8l-0.1 0.1c-0.2 0.2-0.4 0.4-0.6 0.7-0.2 0.2-0.3 0.4-0.5 0.5l-0.9 1.2s0 0.1-0.1 0.1c-0.1 0.1-0.1 0.2-0.2 0.2-0.2 0.4-0.5 0.7-0.7 1.1-0.1 0.1-0.1 0.2-0.2 0.3 0 0.1-0.1 0.2-0.1 0.2-0.2 0.3-0.3 0.6-0.4 0.9-0.1 0.1-0.1 0.2-0.2 0.3-0.2 0.4-0.4 0.9-0.6 1.4v0.1c0 0.1-0.1 0.2-0.1 0.3-0.1 0.4-0.3 0.8-0.4 1.1 0 0.1-0.1 0.3-0.1 0.4-0.1 0.4-0.2 0.7-0.2 1.1 0 0.1-0.1 0.3-0.1 0.4-0.1 0.5-0.1 1-0.2 1.4v0.2c0 0.4 0 0.8-0.1 1.2V363.1c0 0.5 0.1 0.9 0.2 1.4v0.2l0.3 1.2c0 0.1 0.1 0.3 0.1 0.4 0.1 0.3 0.2 0.6 0.3 1 0 0.1 0.1 0.2 0.1 0.4l0.6 1.2s0 0.1 0.1 0.1c0.2 0.4 0.4 0.7 0.6 1.1 0.1 0.1 0.2 0.2 0.2 0.3 0.2 0.3 0.4 0.5 0.6 0.8l0.3 0.3c0.3 0.3 0.6 0.7 0.9 1l35.2 33.1c0.8 0.8 1.7 1.4 2.6 1.9l92.4 50.3c-0.9-0.5-1.8-1.1-2.6-1.9l-35.3-33.1zM559.8 494.6c-0.3-0.3-0.6-0.6-0.9-1l-0.3-0.3c-0.2-0.3-0.4-0.5-0.6-0.8-0.1-0.1-0.2-0.2-0.2-0.3-0.2-0.3-0.4-0.7-0.6-1.1 0 0 0-0.1-0.1-0.1l-0.6-1.2c0-0.1-0.1-0.2-0.1-0.4-0.1-0.3-0.2-0.6-0.3-1 0-0.1-0.1-0.3-0.1-0.4l-0.3-1.2v-0.2c-0.1-0.5-0.1-0.9-0.2-1.4v-0.4-1-0.4c0-0.4 0-0.8 0.1-1.2v-0.2c0-0.5 0.1-1 0.2-1.4 0-0.1 0.1-0.3 0.1-0.4 0.1-0.4 0.1-0.7 0.2-1.1 0-0.2 0.1-0.3 0.1-0.5 0.1-0.4 0.2-0.8 0.4-1.1 0-0.1 0.1-0.2 0.1-0.3 0.2-0.5 0.4-1 0.6-1.4 0-0.1 0.1-0.2 0.2-0.3 0.2-0.4 0.4-0.7 0.6-1.1 0.1-0.1 0.1-0.2 0.2-0.3 0.2-0.4 0.4-0.7 0.7-1.1 0.1-0.1 0.1-0.2 0.2-0.3 0.3-0.5 0.6-0.9 1-1.3 0.3-0.4 0.7-0.8 1.1-1.2l0.1-0.1c0.3-0.4 0.7-0.7 1.1-1l0.3-0.3c0.3-0.3 0.6-0.5 0.9-0.7 0.1-0.1 0.2-0.1 0.3-0.2 0.3-0.2 0.7-0.5 1.1-0.7 0.1 0 0.2-0.1 0.2-0.2 0.4-0.3 0.9-0.5 1.3-0.7 0.1 0 0.2-0.1 0.2-0.1 0.4-0.2 0.7-0.3 1.1-0.4 0.1-0.1 0.3-0.1 0.4-0.1l0.9-0.3c0.1 0 0.3-0.1 0.4-0.1 0.4-0.1 0.9-0.2 1.3-0.3 0.4-0.1 0.8-0.1 1.2-0.1h1.6c0.3 0 0.6 0 0.9 0.1h0.3c0.4 0.1 0.8 0.1 1.2 0.2 0.1 0 0.1 0 0.2 0.1l0.9 0.3c0.1 0 0.2 0.1 0.4 0.1 0.2 0.1 0.5 0.2 0.7 0.3 0.2 0.1 0.4 0.2 0.7 0.3L486.6 416c-0.2-0.1-0.3-0.2-0.5-0.2-0.1 0-0.1-0.1-0.2-0.1-0.2-0.1-0.5-0.2-0.7-0.3-0.1 0-0.2-0.1-0.4-0.1l-0.9-0.3h-0.2c-0.4-0.1-0.8-0.2-1.2-0.2h-0.3c-0.3 0-0.6-0.1-0.9-0.1H479.6c-0.4 0-0.8 0.1-1.2 0.1-0.4 0.1-0.9 0.2-1.3 0.3-0.1 0-0.3 0.1-0.4 0.1l-0.9 0.3c-0.1 0-0.3 0.1-0.4 0.1-0.4 0.1-0.7 0.3-1.1 0.4-0.1 0-0.2 0.1-0.2 0.1h-0.1c-0.4 0.2-0.9 0.4-1.3 0.7-0.1 0-0.2 0.1-0.3 0.2l-0.9 0.6-0.1 0.1c-0.1 0.1-0.2 0.1-0.3 0.2-0.3 0.2-0.6 0.5-0.9 0.7l-0.3 0.3c-0.1 0.1-0.2 0.1-0.2 0.2-0.3 0.3-0.6 0.5-0.9 0.8l-0.1 0.1-0.6 0.6c-0.2 0.2-0.3 0.4-0.5 0.6l-0.9 1.2s0 0.1-0.1 0.1c-0.1 0.1-0.1 0.2-0.2 0.3-0.2 0.4-0.5 0.7-0.7 1.1-0.1 0.1-0.1 0.2-0.2 0.3 0 0.1-0.1 0.2-0.1 0.2-0.2 0.3-0.3 0.6-0.4 0.9-0.1 0.1-0.1 0.2-0.2 0.3-0.2 0.4-0.4 0.9-0.6 1.4v0.1c0 0.1-0.1 0.2-0.1 0.3-0.1 0.4-0.2 0.8-0.4 1.1 0 0.2-0.1 0.3-0.1 0.5-0.1 0.4-0.2 0.7-0.2 1.1 0 0.1-0.1 0.3-0.1 0.4-0.1 0.5-0.1 1-0.2 1.4v0.2c0 0.4 0 0.8-0.1 1.2V435.1c0 0.5 0.1 0.9 0.2 1.4v0.2l0.3 1.2c0 0.1 0.1 0.3 0.1 0.4 0.1 0.3 0.2 0.6 0.3 1 0 0.1 0.1 0.2 0.1 0.4l0.6 1.2s0 0.1 0.1 0.1c0.2 0.4 0.4 0.7 0.6 1.1 0.1 0.1 0.2 0.2 0.2 0.3 0.2 0.3 0.4 0.5 0.6 0.8l0.3 0.3c0.3 0.3 0.6 0.7 0.9 1l78.2 73.5c0.4 0.4 0.8 0.7 1.3 1.1 0.4 0.3 0.9 0.6 1.4 0.9l92.4 50.3c-0.9-0.5-1.8-1.1-2.6-1.9l-78.2-73.8zM500.8 566.4c-0.3-0.3-0.6-0.6-0.9-1l-0.3-0.3c-0.2-0.3-0.4-0.5-0.6-0.8-0.1-0.1-0.2-0.2-0.2-0.3-0.2-0.3-0.4-0.7-0.6-1.1 0 0 0-0.1-0.1-0.1l-0.6-1.2c0-0.1-0.1-0.2-0.1-0.4-0.1-0.3-0.2-0.6-0.3-1 0-0.1-0.1-0.3-0.1-0.4l-0.3-1.2v-0.2c-0.1-0.5-0.1-0.9-0.2-1.4v-0.4-1-0.4c0-0.4 0-0.8 0.1-1.2v-0.3c0-0.5 0.1-1 0.2-1.4 0-0.1 0.1-0.3 0.1-0.4 0.1-0.4 0.1-0.7 0.2-1.1 0-0.2 0.1-0.3 0.1-0.5 0.1-0.4 0.2-0.8 0.4-1.1 0-0.1 0.1-0.2 0.1-0.3 0.2-0.5 0.4-1 0.6-1.4 0-0.1 0.1-0.2 0.2-0.3 0.2-0.4 0.4-0.7 0.6-1.1 0.1-0.1 0.1-0.2 0.2-0.3 0.2-0.4 0.4-0.7 0.7-1.1 0.1-0.1 0.1-0.2 0.2-0.3 0.3-0.5 0.6-0.9 1-1.3 0.3-0.4 0.7-0.8 1.1-1.2l0.1-0.1c0.3-0.4 0.7-0.7 1.1-1l0.3-0.3c0.3-0.3 0.6-0.5 0.9-0.7 0.1-0.1 0.2-0.1 0.2-0.2 0.4-0.3 0.8-0.5 1.2-0.8 0 0 0.1 0 0.1-0.1 0.4-0.3 0.9-0.5 1.3-0.7 0.1 0 0.2-0.1 0.3-0.1 0.3-0.2 0.7-0.3 1-0.4 0.1-0.1 0.3-0.1 0.4-0.1l0.9-0.3c0.1 0 0.3-0.1 0.4-0.1 0.4-0.1 0.9-0.2 1.3-0.3 0.4-0.1 0.8-0.1 1.2-0.1H514.7c0.3 0 0.6 0.1 0.9 0.1h0.3c0.4 0.1 0.8 0.1 1.2 0.2 0.1 0 0.1 0 0.2 0.1l0.9 0.3c0.1 0 0.2 0.1 0.4 0.1 0.2 0.1 0.5 0.2 0.7 0.3 0.2 0.1 0.4 0.2 0.7 0.3l-92.4-50.3c-0.2-0.1-0.3-0.2-0.5-0.2-0.1 0-0.1-0.1-0.2-0.1-0.2-0.1-0.5-0.2-0.7-0.3-0.1 0-0.2-0.1-0.4-0.1l-0.9-0.3c-0.1 0-0.1 0-0.2-0.1-0.4-0.1-0.8-0.2-1.2-0.2h-0.3c-0.3 0-0.6-0.1-0.9-0.1H420.6c-0.4 0-0.8 0.1-1.2 0.1-0.4 0.1-0.9 0.2-1.3 0.3-0.1 0-0.3 0.1-0.4 0.1l-0.9 0.3c-0.1 0-0.3 0.1-0.4 0.1-0.3 0.1-0.7 0.3-1 0.4-0.1 0-0.2 0.1-0.3 0.1h-0.1c-0.4 0.2-0.8 0.4-1.3 0.7 0 0-0.1 0-0.1 0.1-0.4 0.2-0.7 0.4-1.1 0.7 0 0-0.1 0-0.1 0.1-0.1 0.1-0.2 0.1-0.2 0.2-0.3 0.2-0.6 0.5-0.9 0.7l-0.3 0.3c-0.1 0.1-0.2 0.1-0.2 0.2-0.3 0.3-0.6 0.5-0.8 0.8l-0.1 0.1c-0.2 0.2-0.4 0.4-0.6 0.7-0.2 0.2-0.3 0.4-0.5 0.5l-0.9 1.2-0.1 0.1c-0.1 0.1-0.1 0.2-0.2 0.3-0.2 0.4-0.5 0.7-0.7 1.1-0.1 0.1-0.1 0.2-0.2 0.3 0 0.1-0.1 0.1-0.1 0.2-0.2 0.3-0.3 0.6-0.4 0.9 0 0.1-0.1 0.2-0.2 0.3-0.2 0.4-0.4 0.9-0.6 1.3v0.1c0 0.1-0.1 0.2-0.1 0.3-0.1 0.4-0.2 0.8-0.4 1.1 0 0.2-0.1 0.3-0.1 0.5-0.1 0.4-0.2 0.7-0.2 1.1 0 0.1-0.1 0.3-0.1 0.4-0.1 0.5-0.1 1-0.2 1.4v0.3c0 0.4 0 0.8-0.1 1.2V506.7c0 0.5 0.1 0.9 0.2 1.4v0.2l0.3 1.2c0 0.1 0.1 0.3 0.1 0.4 0.1 0.3 0.2 0.6 0.3 1 0 0.1 0.1 0.2 0.1 0.4l0.6 1.2s0 0.1 0.1 0.1c0.2 0.4 0.4 0.7 0.6 1.1 0.1 0.1 0.2 0.2 0.2 0.3 0.2 0.3 0.4 0.5 0.6 0.8l0.3 0.3c0.3 0.3 0.6 0.7 0.9 1l35.2 33.1c0.4 0.4 0.8 0.7 1.3 1s0.9 0.6 1.4 0.9l92.4 50.3c-0.9-0.5-1.8-1.1-2.6-1.9l-35.4-33.1zM441.8 638.3c-0.3-0.3-0.6-0.6-0.9-1l-0.3-0.3c-0.2-0.3-0.4-0.5-0.6-0.8-0.1-0.1-0.2-0.2-0.2-0.3-0.2-0.3-0.4-0.7-0.6-1.1 0 0 0-0.1-0.1-0.1l-0.6-1.2c0-0.1-0.1-0.2-0.1-0.4-0.1-0.3-0.2-0.6-0.3-1 0-0.1-0.1-0.3-0.1-0.4l-0.3-1.2v-0.2c-0.1-0.5-0.1-0.9-0.2-1.4v-0.4-1-0.4c0-0.4 0-0.8 0.1-1.2v-0.2c0-0.5 0.1-1 0.2-1.4 0-0.1 0.1-0.3 0.1-0.4 0.1-0.4 0.1-0.7 0.2-1.1 0-0.2 0.1-0.3 0.1-0.5 0.1-0.4 0.2-0.8 0.4-1.1 0-0.1 0.1-0.2 0.1-0.3 0.2-0.5 0.4-1 0.6-1.4 0-0.1 0.1-0.2 0.2-0.3 0.2-0.4 0.4-0.7 0.6-1.1 0.1-0.1 0.1-0.2 0.2-0.3 0.2-0.4 0.4-0.7 0.7-1.1 0.1-0.1 0.1-0.2 0.2-0.3 0.3-0.5 0.6-0.9 1-1.3 0.3-0.4 0.7-0.8 1.1-1.2l0.1-0.1c0.3-0.4 0.7-0.7 1.1-1l0.3-0.3c0.3-0.3 0.6-0.5 0.9-0.7 0.1-0.1 0.2-0.1 0.2-0.2 0.4-0.3 0.8-0.5 1.1-0.7 0.1 0 0.1-0.1 0.2-0.1 0.4-0.3 0.9-0.5 1.3-0.7 0.1 0 0.2-0.1 0.3-0.1 0.3-0.2 0.7-0.3 1-0.4 0.1-0.1 0.3-0.1 0.4-0.1l0.9-0.3c0.1 0 0.3-0.1 0.4-0.1 0.4-0.1 0.9-0.2 1.3-0.3 0.4-0.1 0.8-0.1 1.2-0.1H455.7c0.3 0 0.6 0.1 0.9 0.1h0.3c0.4 0.1 0.8 0.1 1.2 0.2 0.1 0 0.1 0 0.2 0.1l0.9 0.3c0.1 0 0.2 0.1 0.4 0.1 0.2 0.1 0.5 0.2 0.7 0.3 0.2 0.1 0.4 0.2 0.7 0.3l-92.4-50.3c-0.2-0.1-0.3-0.2-0.5-0.2-0.1 0-0.1-0.1-0.2-0.1-0.2-0.1-0.5-0.2-0.7-0.3-0.1 0-0.2-0.1-0.4-0.1l-0.9-0.3c-0.1 0-0.1 0-0.2-0.1-0.4-0.1-0.8-0.2-1.2-0.2h-0.3c-0.3 0-0.6-0.1-0.9-0.1H361.6c-0.4 0-0.8 0.1-1.2 0.1-0.4 0.1-0.9 0.2-1.3 0.3-0.1 0-0.3 0.1-0.4 0.1l-0.9 0.3c-0.1 0-0.3 0.1-0.4 0.1-0.3 0.1-0.7 0.3-1 0.4-0.1 0-0.2 0.1-0.3 0.1h-0.1c-0.4 0.2-0.8 0.4-1.3 0.7-0.1 0-0.1 0.1-0.2 0.1-0.4 0.2-0.7 0.4-1 0.7 0 0-0.1 0-0.1 0.1-0.1 0.1-0.2 0.1-0.2 0.2-0.3 0.2-0.6 0.5-0.9 0.7l-0.3 0.3c-0.1 0.1-0.2 0.1-0.2 0.2-0.3 0.3-0.6 0.5-0.8 0.8l-0.1 0.1-0.6 0.6c-0.2 0.2-0.3 0.4-0.5 0.6l-0.9 1.2s0 0.1-0.1 0.1c-0.1 0.1-0.1 0.2-0.2 0.2-0.2 0.4-0.5 0.7-0.7 1.1-0.1 0.1-0.1 0.2-0.2 0.3 0 0.1-0.1 0.2-0.1 0.2-0.2 0.3-0.3 0.6-0.4 0.9-0.1 0.1-0.1 0.2-0.2 0.3-0.2 0.4-0.4 0.9-0.6 1.4v0.1c0 0.1-0.1 0.2-0.1 0.3-0.1 0.4-0.3 0.8-0.4 1.1 0 0.1-0.1 0.3-0.1 0.5-0.1 0.4-0.2 0.7-0.2 1.1 0 0.1-0.1 0.3-0.1 0.4-0.1 0.5-0.1 1-0.2 1.4v0.2c0 0.4 0 0.8-0.1 1.2V578.7c0 0.5 0.1 0.9 0.2 1.4v0.2l0.3 1.2c0 0.1 0.1 0.3 0.1 0.4 0.1 0.3 0.2 0.6 0.3 1 0 0.1 0.1 0.2 0.1 0.4l0.6 1.2v0.1c0.2 0.4 0.4 0.7 0.6 1.1 0.1 0.1 0.2 0.2 0.2 0.3 0.2 0.3 0.4 0.5 0.6 0.8l0.3 0.3c0.3 0.3 0.6 0.7 0.9 1l78.2 73.5c0.8 0.8 1.7 1.4 2.6 1.9l92.4 50.3c-0.9-0.5-1.8-1.1-2.6-1.9l-78.2-73.6zM382.8 710.1c-0.3-0.3-0.6-0.6-0.9-1l-0.3-0.3c-0.2-0.3-0.4-0.5-0.6-0.8-0.1-0.1-0.2-0.2-0.2-0.3-0.2-0.3-0.4-0.7-0.6-1.1 0 0 0-0.1-0.1-0.1l-0.6-1.2c0-0.1-0.1-0.2-0.1-0.4-0.1-0.3-0.2-0.6-0.3-1 0-0.1-0.1-0.3-0.1-0.4l-0.3-1.2v-0.2c-0.1-0.5-0.1-0.9-0.2-1.4v-0.4-1-0.4c0-0.4 0-0.8 0.1-1.2v-0.2c0-0.5 0.1-1 0.2-1.4 0-0.1 0.1-0.3 0.1-0.4 0.1-0.4 0.1-0.7 0.2-1.1 0-0.2 0.1-0.3 0.1-0.5 0.1-0.4 0.2-0.8 0.4-1.1 0-0.1 0.1-0.2 0.1-0.3 0.2-0.5 0.4-1 0.6-1.4 0-0.1 0.1-0.2 0.2-0.3 0.2-0.4 0.4-0.7 0.6-1.1 0.1-0.1 0.1-0.2 0.2-0.3 0.2-0.4 0.4-0.7 0.7-1.1 0.1-0.1 0.1-0.2 0.2-0.2 0.3-0.5 0.6-0.9 1-1.3 0.3-0.4 0.7-0.8 1.1-1.2l0.1-0.1c0.3-0.4 0.7-0.7 1.1-1l0.3-0.3c0.3-0.3 0.6-0.5 0.9-0.7 0.1-0.1 0.2-0.1 0.2-0.2 0.4-0.3 0.8-0.5 1.2-0.7l0.1-0.1c0.4-0.3 0.9-0.5 1.3-0.7 0.1 0 0.2-0.1 0.3-0.1 0.3-0.2 0.7-0.3 1-0.4 0.1-0.1 0.3-0.1 0.4-0.1l0.9-0.3c0.1 0 0.3-0.1 0.4-0.1 0.4-0.1 0.9-0.2 1.3-0.3 0.4-0.1 0.8-0.1 1.2-0.1H396.7c0.3 0 0.6 0.1 0.9 0.1h0.3c0.4 0.1 0.8 0.1 1.2 0.2 0.1 0 0.1 0 0.2 0.1l0.9 0.3c0.1 0 0.2 0.1 0.4 0.1 0.2 0.1 0.5 0.2 0.7 0.3 0.2 0.1 0.4 0.2 0.7 0.3l-92.4-50.3c-0.2-0.1-0.3-0.2-0.5-0.2-0.1 0-0.1-0.1-0.2-0.1-0.2-0.1-0.5-0.2-0.7-0.3-0.1 0-0.2-0.1-0.4-0.1l-0.9-0.3c-0.1 0-0.1 0-0.2-0.1-0.4-0.1-0.8-0.2-1.2-0.2h-0.3c-0.3 0-0.6-0.1-0.9-0.1H302.6c-0.4 0-0.8 0.1-1.2 0.1-0.4 0.1-0.9 0.2-1.3 0.3-0.1 0-0.3 0.1-0.4 0.1l-0.9 0.3c-0.1 0-0.3 0.1-0.4 0.1-0.3 0.1-0.7 0.3-1 0.4-0.1 0-0.2 0.1-0.3 0.1h-0.1c-0.4 0.2-0.8 0.4-1.3 0.7-0.1 0-0.1 0.1-0.1 0.1-0.4 0.2-0.7 0.4-1.1 0.7 0 0-0.1 0-0.1 0.1-0.1 0.1-0.2 0.1-0.2 0.2-0.3 0.2-0.6 0.5-0.9 0.7l-0.3 0.3c-0.1 0.1-0.2 0.1-0.2 0.2-0.3 0.3-0.6 0.5-0.8 0.8l-0.1 0.1c-0.2 0.2-0.4 0.4-0.6 0.7-0.2 0.2-0.3 0.4-0.5 0.5l-0.9 1.2s0 0.1-0.1 0.1c-0.1 0.1-0.1 0.2-0.2 0.3-0.2 0.4-0.5 0.7-0.7 1.1-0.1 0.1-0.1 0.2-0.2 0.3 0 0.1-0.1 0.2-0.1 0.2-0.2 0.3-0.3 0.6-0.4 0.9-0.1 0.1-0.1 0.2-0.2 0.3-0.2 0.4-0.4 0.9-0.6 1.4v0.1c0 0.1-0.1 0.2-0.1 0.3-0.1 0.4-0.3 0.8-0.4 1.1 0 0.1-0.1 0.3-0.1 0.4-0.1 0.4-0.2 0.7-0.2 1.1 0 0.1-0.1 0.3-0.1 0.4-0.1 0.5-0.1 1-0.2 1.4v0.2c0 0.4 0 0.8-0.1 1.2V650.6c0 0.5 0.1 0.9 0.2 1.4v0.2l0.3 1.2c0 0.1 0.1 0.3 0.1 0.4 0.1 0.3 0.2 0.6 0.3 1 0 0.1 0.1 0.2 0.1 0.4l0.6 1.2s0 0.1 0.1 0.1c0.2 0.4 0.4 0.7 0.6 1.1 0.1 0.1 0.2 0.2 0.2 0.3 0.2 0.3 0.4 0.5 0.6 0.8l0.3 0.3c0.3 0.3 0.6 0.7 0.9 1l35.2 33.1c0.8 0.8 1.7 1.4 2.6 1.9l92.4 50.3c-0.9-0.5-1.8-1.1-2.6-1.9l-35.3-33.3zM323.8 782c-0.3-0.3-0.6-0.6-0.9-1l-0.3-0.3c-0.2-0.3-0.4-0.5-0.6-0.8-0.1-0.1-0.2-0.2-0.2-0.3-0.2-0.3-0.4-0.7-0.6-1.1 0 0 0-0.1-0.1-0.1l-0.6-1.2c0-0.1-0.1-0.2-0.1-0.4-0.1-0.3-0.2-0.6-0.3-1 0-0.1-0.1-0.3-0.1-0.4l-0.3-1.2v-0.2c-0.1-0.5-0.1-0.9-0.2-1.4v-0.4-1-0.4c0-0.4 0-0.8 0.1-1.2v-0.3c0-0.5 0.1-1 0.2-1.4 0-0.1 0.1-0.3 0.1-0.4 0.1-0.4 0.1-0.7 0.2-1.1 0-0.2 0.1-0.3 0.1-0.5 0.1-0.4 0.2-0.8 0.4-1.1 0-0.1 0.1-0.2 0.1-0.3 0.2-0.5 0.4-1 0.6-1.4 0-0.1 0.1-0.2 0.2-0.3 0.2-0.4 0.4-0.7 0.6-1.1 0.1-0.1 0.1-0.2 0.2-0.3 0.2-0.4 0.4-0.7 0.7-1.1 0.1-0.1 0.1-0.2 0.2-0.3 0.3-0.5 0.6-0.9 1-1.3 0.3-0.4 0.7-0.8 1.1-1.2l0.1-0.1c0.3-0.4 0.7-0.7 1.1-1l0.3-0.3c0.3-0.3 0.6-0.5 0.9-0.7 0.1-0.1 0.2-0.1 0.2-0.2 0.4-0.3 0.8-0.5 1.2-0.8l0.1-0.1c0.4-0.3 0.9-0.5 1.3-0.7 0.1 0 0.2-0.1 0.3-0.1 0.3-0.2 0.7-0.3 1-0.4 0.1-0.1 0.3-0.1 0.4-0.1l0.9-0.3c0.1 0 0.3-0.1 0.4-0.1 0.4-0.1 0.9-0.2 1.3-0.3 0.4-0.1 0.8-0.1 1.2-0.1H337.7c0.3 0 0.6 0.1 0.9 0.1h0.3c0.4 0.1 0.8 0.1 1.2 0.2 0.1 0 0.1 0 0.2 0.1l0.9 0.3c0.1 0 0.2 0.1 0.4 0.1 0.2 0.1 0.5 0.2 0.7 0.3 0.2 0.1 0.4 0.2 0.7 0.3l-92.4-50.3c-0.2-0.1-0.3-0.2-0.5-0.2-0.1 0-0.1-0.1-0.2-0.1-0.2-0.1-0.5-0.2-0.7-0.3-0.1 0-0.2-0.1-0.4-0.1l-0.9-0.3c-0.1 0-0.1 0-0.2-0.1-0.4-0.1-0.8-0.2-1.2-0.2h-0.3c-0.3 0-0.6-0.1-0.9-0.1H243.6c-0.4 0-0.8 0.1-1.2 0.1-0.4 0.1-0.9 0.2-1.3 0.3-0.1 0-0.3 0.1-0.4 0.1l-0.9 0.3c-0.1 0-0.3 0.1-0.4 0.1-0.3 0.1-0.7 0.3-1 0.4-0.1 0-0.2 0.1-0.3 0.1h-0.1c-0.4 0.2-0.8 0.4-1.3 0.7 0 0-0.1 0-0.1 0.1-0.4 0.2-0.7 0.4-1.1 0.7 0 0-0.1 0-0.1 0.1-0.1 0.1-0.2 0.1-0.2 0.2-0.3 0.2-0.6 0.5-1 0.7l-0.3 0.3c-0.1 0.1-0.2 0.1-0.2 0.2-0.3 0.3-0.6 0.5-0.8 0.8l-0.1 0.1c-0.2 0.2-0.4 0.4-0.6 0.7-0.2 0.2-0.3 0.4-0.5 0.5l-0.9 1.2-0.1 0.1c-0.1 0.1-0.1 0.2-0.2 0.3-0.2 0.4-0.5 0.7-0.7 1.1-0.1 0.1-0.1 0.2-0.2 0.3 0 0.1-0.1 0.1-0.1 0.2-0.2 0.3-0.3 0.6-0.4 0.9 0 0.1-0.1 0.2-0.2 0.3-0.2 0.4-0.4 0.9-0.6 1.3v0.1c0 0.1-0.1 0.2-0.1 0.3-0.1 0.4-0.2 0.8-0.4 1.1 0 0.2-0.1 0.3-0.1 0.5-0.1 0.4-0.2 0.7-0.2 1.1 0 0.1-0.1 0.3-0.1 0.4-0.1 0.5-0.1 1-0.2 1.4v0.3c0 0.4 0 0.8-0.1 1.2V722.3c0 0.5 0.1 0.9 0.2 1.4v0.2l0.3 1.2c0 0.1 0.1 0.3 0.1 0.4 0.1 0.3 0.2 0.6 0.3 1 0 0.1 0.1 0.2 0.1 0.4l0.6 1.2s0 0.1 0.1 0.1c0.2 0.4 0.4 0.7 0.6 1.1 0.1 0.1 0.2 0.2 0.2 0.3 0.2 0.3 0.4 0.5 0.6 0.8l0.3 0.3c0.3 0.3 0.6 0.7 0.9 1l78.2 73.5c0.8 0.8 1.7 1.4 2.6 1.9l92.4 50.3c-0.9-0.5-1.8-1.1-2.6-1.9L323.8 782z" fill="#FFA300" p-id="2246"></path><path d="M688.6 321.4c3.9-0.5 7.8 0.5 10.8 3.3l78.2 73.5c5.9 5.6 6 16 0 23.3-3 3.6-6.9 5.8-10.8 6.3-3.9 0.5-7.8-0.5-10.8-3.3L677.7 351c-5.9-5.6-6-16 0-23.3 3.1-3.6 7-5.8 10.9-6.3zM629.6 393.2c3.9-0.5 7.8 0.5 10.8 3.3l35.2 33.1c5.9 5.6 6 16 0 23.3-3 3.6-6.9 5.8-10.8 6.3s-7.8-0.5-10.7-3.3l-35.2-33.1c-5.9-5.6-6-16 0-23.3 2.9-3.6 6.8-5.8 10.7-6.3zM570.6 465c3.9-0.5 7.8 0.5 10.8 3.3l78.2 73.5c5.9 5.6 6 16 0 23.3-3 3.6-6.9 5.8-10.8 6.3-3.9 0.5-7.8-0.5-10.8-3.3l-78.2-73.5c-5.9-5.6-6-16 0-23.3 3-3.6 6.9-5.8 10.8-6.3zM511.6 536.8c3.9-0.5 7.8 0.5 10.8 3.3l35.2 33.1c5.9 5.6 6 16 0 23.3-3 3.6-6.9 5.8-10.8 6.3-3.9 0.5-7.8-0.5-10.7-3.3l-35.2-33.1c-5.9-5.6-6-16 0-23.3 2.9-3.6 6.8-5.8 10.7-6.3zM452.6 608.7c3.9-0.5 7.8 0.5 10.8 3.3l78.2 73.5c5.9 5.6 6 16 0 23.3-3 3.6-6.9 5.8-10.8 6.3-3.9 0.5-7.8-0.5-10.8-3.3l-78.2-73.5c-5.9-5.6-6-16 0-23.3 3-3.6 6.9-5.8 10.8-6.3zM393.6 680.5c3.9-0.5 7.8 0.5 10.8 3.3l35.2 33.1c5.9 5.6 6 16 0 23.3-3 3.6-6.9 5.8-10.8 6.3-3.9 0.5-7.8-0.5-10.7-3.3l-35.2-33.1c-5.9-5.6-6-16 0-23.3 2.9-3.6 6.8-5.8 10.7-6.3zM334.6 752.3c3.9-0.5 7.8 0.5 10.8 3.3l78.2 73.5c5.9 5.6 6 16 0 23.3-3 3.6-6.9 5.8-10.8 6.3-3.9 0.5-7.8-0.5-10.8-3.3L323.8 782c-5.9-5.6-6-16 0-23.3 3-3.6 6.9-5.8 10.8-6.4z" fill="#FDF17F" p-id="2247"></path></svg>