<?xml version="1.0" standalone="no"?><!DOCTYPE svg PUBLIC "-//W3C//DTD SVG 1.1//EN" "http://www.w3.org/Graphics/SVG/1.1/DTD/svg11.dtd"><svg t="1765890553657" class="icon" viewBox="0 0 1024 1024" version="1.1" xmlns="http://www.w3.org/2000/svg" p-id="30948" xmlns:xlink="http://www.w3.org/1999/xlink" width="128" height="128"><path d="M525.824 153.088c-0.512-3.584 2.048-6.656 5.12-7.168 17.92-4.608 12.288-4.096 36.864-7.68 19.456-3.072 30.208-27.136 12.8-45.568-8.192-8.704-20.992-13.312-32.768-10.752-122.88 27.648-144.896 32.256-191.488 54.272-18.432 8.704-26.112 30.72-16.384 49.152 6.144 11.776 19.968 16.896 31.744 11.776 19.456-7.68-1.024 0 28.16-11.264 0.512 0 1.024 0 1.024 1.024-20.48 78.848-55.296 235.52-48.64 374.272 0.512 9.216 10.752 14.848 19.968 15.872 9.728 1.024 18.944-7.68 19.456-15.872C402.432 379.392 446.464 214.528 461.312 163.84c0 0 4.096-0.512 14.336-3.584 0.512 0 1.024 0 1.024 0.512 6.656 74.752 27.136 302.08 111.616 424.96 5.632 8.192 23.04 5.12 30.72-1.536 7.168-5.632 8.704-15.872 3.584-23.552-71.68-105.472-93.184-365.568-96.768-407.552z" fill="#39F786" p-id="30949"></path><path d="M519.68 105.472s39.424-9.216 46.592 2.048c7.68 11.264-11.264 12.288-11.264 12.288s-48.64 3.584-50.176 26.624 21.504 318.976 101.888 427.008c0 0 7.168-5.12 9.216-9.728 0 0-89.6-106.496-92.672-423.936 0 0 96.256-13.824 45.056-46.592l-48.64 12.288zM445.952 155.136S389.12 326.656 381.44 536.064h4.096c0-0.512 54.784-370.688 60.416-380.928z" fill="#FFFFFF" p-id="30950"></path><path d="M555.008 97.792c5.12 0 9.728 2.048 13.312 6.144 3.584 3.584 4.608 7.68 3.584 11.264-1.024 2.56-3.072 5.12-6.656 5.632-18.432 2.56-20.48 3.584-28.16 5.632-2.56 0.512-5.632 1.536-10.24 2.56-11.264 3.072-18.944 13.312-18.432 25.088 5.632 71.68 29.184 312.832 99.328 416.256v0.512c-1.536 1.024-4.608 2.56-7.68 2.56-54.272-80.384-90.112-219.648-107.008-414.208-1.024-9.216-8.192-16.384-17.408-16.384h-2.56l-2.048 1.024c-5.632 1.536-9.728 2.56-11.264 2.56-3.072 0.512-11.776 2.56-14.848 12.288-15.36 52.736-50.688 218.624-61.952 398.336-2.56 1.024-6.144 2.048-9.216 2.048h-0.512c-2.048 0-3.584-0.512-4.096-1.024-6.144-135.68 27.136-288.256 48.128-367.616 1.536-5.12 0.512-10.752-3.072-15.36-3.584-4.096-8.704-7.168-14.336-7.168h-3.584l-3.072 1.024c-16.896 6.656-17.92 7.168-19.456 8.192-0.512 0-2.048 1.024-8.192 3.584-1.024 0.512-2.048 0.512-3.072 0.512-3.072 0-6.144-1.536-7.68-4.608-2.56-4.608-2.56-9.728-1.024-14.336 1.536-5.12 5.12-8.704 9.728-10.752 43.52-20.48 63.488-25.088 174.592-50.176l13.824-3.072c1.024 0 2.048-0.512 3.072-0.512m0-16.896c-2.56 0-4.608 0.512-7.168 1.024-122.88 27.648-144.896 32.256-191.488 54.272-18.432 8.704-26.112 30.72-16.384 49.152 4.608 8.704 13.312 13.824 22.528 13.824 3.072 0 6.144-0.512 9.216-1.536 19.456-7.68-1.024 0 28.16-11.264h0.512c0.512 0 1.024 0.512 0.512 1.024-20.48 78.848-55.296 235.52-48.64 374.272 0.512 9.216 10.752 14.848 19.968 15.872h2.048c10.24 0 25.6-5.632 26.112-13.824 10.752-181.248 46.592-348.672 61.44-398.848 0 0 4.096-0.512 14.336-3.584 0.512 0 0.512 0 0.512 0.512 6.656 74.752 27.136 302.08 111.616 424.96 2.56 3.584 6.656 5.12 11.776 5.12 6.656 0 14.336-2.56 18.944-6.144 7.168-5.632 8.704-15.872 3.584-23.552-71.68-105.472-93.184-365.568-96.256-408.064-0.512-3.584 2.048-6.656 5.12-7.168 17.92-4.608 12.288-4.096 36.864-7.68 19.456-3.072 30.208-27.136 12.8-45.568-6.656-8.704-16.384-12.8-26.112-12.8z" fill="#353942" p-id="30951"></path><path d="M410.624 529.92c-16.896 9.216-34.816 4.608-34.816 4.608s-18.432-2.048-31.232-16.384C332.8 504.832 179.2 468.992 145.408 657.408c-26.112 146.944 56.832 217.6 165.888 237.568s211.456-17.92 238.08-165.376c33.792-188.416-122.88-207.872-138.752-199.68z" fill="#F73E59" p-id="30952"></path><path d="M417.28 545.792c74.752-13.824 106.496 66.56 106.496 66.56s-3.584 3.072-8.704 9.728c0 0-24.576-66.048-97.792-76.288z" fill="#F44A6A" p-id="30953"></path><path d="M293.376 506.368v16.896c20.992 0 35.84 5.12 39.424 7.168 14.848 16.384 34.816 19.968 39.936 20.992 2.048 0.512 7.168 1.536 13.824 1.536 11.264 0 22.016-2.56 31.232-7.168h4.096c17.408 0 58.368 8.704 86.528 42.496 27.136 32.256 35.328 78.848 24.576 138.752-23.04 129.024-104.96 156.16-169.472 156.16-15.36 0-31.744-1.536-48.128-4.608-69.12-12.288-180.736-56.832-152.064-217.6 20.992-119.296 91.136-136.704 131.072-136.704v-17.92m-1.024 0c-51.712 0-125.44 26.624-147.968 151.04-26.112 146.944 56.832 217.6 165.888 237.568 17.408 3.072 34.816 4.608 51.2 4.608 88.576 0 164.352-46.08 186.368-169.984 29.696-166.4-88.576-201.216-128-201.216-5.12 0-9.216 0.512-10.752 1.536-8.704 4.608-17.408 5.632-24.064 5.632-6.656 0-10.752-1.024-10.752-1.024s-18.432-2.048-31.232-16.384c-3.584-4.608-24.064-11.776-50.688-11.776z" fill="#353942" p-id="30954"></path><path d="M332.8 530.432s34.304 37.888 84.992 15.36c0 0-48.128 43.008-84.992-15.36z" fill="#E53942" p-id="30955"></path><path d="M861.696 651.264c26.112 85.504-18.432 195.584-105.984 238.592-84.992 41.984-194.048 15.36-247.296-79.36-45.056-80.384-25.088-187.392 59.392-226.816 9.216-4.096 15.872 2.048 36.352-9.216 16.896-9.728 14.336-13.824 20.992-18.944 83.456-61.44 207.36 0 236.544 95.744z" fill="#F73E59" p-id="30956"></path><path d="M637.44 563.2s190.464-5.632 216.576 186.88c0 0 48.128-101.376-57.856-183.296 0 0-78.848-60.416-158.72-3.584z" fill="#F44A6A" p-id="30957"></path><path d="M637.44 560.128s20.48-12.288 31.744-13.312c37.888-4.096 142.848 5.12 178.688 118.784 6.656 19.968 6.144 24.576 11.264 59.904 0 0 5.632-136.192-85.504-174.592-0.512-0.512-77.312-38.4-136.192 9.216z" fill="#FFFFFF" p-id="30958"></path><path d="M497.664 718.848s63.488 184.832 227.328 162.816c0 0-112.128 60.416-188.928-49.152 0 0-47.616-36.352-38.4-113.664z" fill="#E53855" p-id="30959"></path><path d="M700.416 543.232c64 0 129.024 48.64 147.968 110.592 28.16 91.648-7.168 172.544-93.696 215.552-30.208 14.848-59.904 22.528-88.576 22.528-59.392 0-112.128-33.28-145.408-91.648-23.04-40.448-27.136-91.648-11.264-134.144 9.216-24.064 29.184-55.808 71.168-70.144h1.536c1.536 0 3.584 0.512 5.632 0.512 8.192 0 16.896-2.56 27.648-8.704 15.872-9.216 19.968-19.456 22.016-24.576 18.432-13.312 39.424-19.968 62.976-19.968m0-16.896c-26.112 0-52.224 7.68-74.752 24.576-6.656 5.12-1.536 12.8-18.432 22.528-9.728 5.632-15.36 6.656-19.456 6.656-2.56 0-4.608-0.512-7.168-0.512-1.536 0-3.072 0-5.12 1.024-93.696 31.744-115.2 148.48-69.632 228.864 35.84 62.464 92.672 100.352 160.256 100.352 30.208 0 62.976-7.68 96.256-24.064 107.008-53.248 129.024-150.528 102.4-236.032-21.504-70.144-94.208-123.392-164.352-123.392z" fill="#353942" p-id="30960"></path><path d="M580.608 595.968s13.824 4.608 33.792-7.68c19.968-12.288 19.456-18.944 22.528-25.088 0 0 2.56 18.432-18.944 30.72-20.992 12.8-37.376 2.048-37.376 2.048z" fill="#E53942" p-id="30961"></path><path d="M417.792 545.792s65.536 2.048 106.496 66.56c-0.512 0-28.16-65.024-106.496-66.56z" fill="#FFFFFF" p-id="30962"></path><path d="M521.216 606.208s-93.696 68.608-23.552 211.968l7.168-11.264s-60.928-103.936 19.456-195.072l-3.072-5.632zM165.376 641.024s-59.904 191.488 133.12 233.984c0 0-147.456-57.856-133.12-233.984z" fill="#E53855" p-id="30963"></path><path d="M707.601482 658.624308a14.336 14.336 0 1 0 21.480357-18.99152 14.336 14.336 0 1 0-21.480357 18.99152Z" fill="#ED3550" p-id="30964"></path><path d="M372.694502 726.902078a12.288 12.288 0 1 0 18.411735-16.278446 12.288 12.288 0 1 0-18.411735 16.278446Z" fill="#ED3550" p-id="30965"></path><path d="M412.221731 672.862121a14.336 14.336 0 1 0 21.480358-18.99152 14.336 14.336 0 1 0-21.480358 18.99152Z" fill="#ED3550" p-id="30966"></path><path d="M719.426001 729.367138a8.704 8.704 0 1 0 15.07577-8.704 8.704 8.704 0 1 0-15.07577 8.704Z" fill="#ED3550" p-id="30967"></path><path d="M290.891739 729.372761a8.704 8.704 0 1 0 15.07577-8.704 8.704 8.704 0 1 0-15.07577 8.704Z" fill="#ED3550" p-id="30968"></path><path d="M336.982701 703.660071a8.704 8.704 0 1 0 15.07577-8.704 8.704 8.704 0 1 0-15.07577 8.704Z" fill="#ED3550" p-id="30969"></path><path d="M626.797502 759.129999a8.704 8.704 0 1 0 3.565221-17.039004 8.704 8.704 0 1 0-3.565221 17.039004Z" fill="#ED3550" p-id="30970"></path><path d="M280.501245 791.46082a8.704 8.704 0 1 0 3.565221-17.039004 8.704 8.704 0 1 0-3.565221 17.039004Z" fill="#ED3550" p-id="30971"></path><path d="M347.912754 766.46304a8.704 8.704 0 1 0 3.565221-17.039004 8.704 8.704 0 1 0-3.565221 17.039004Z" fill="#ED3550" p-id="30972"></path><path d="M661.630162 674.318191a4.608 4.608 0 1 0 7.74204-4.999547 4.608 4.608 0 1 0-7.74204 4.999547Z" fill="#ED3550" p-id="30973"></path><path d="M374.982842 681.937517a4.608 4.608 0 1 0 7.742041-4.999547 4.608 4.608 0 1 0-7.742041 4.999547Z" fill="#ED3550" p-id="30974"></path><path d="M745.532322 679.20169a4.096 4.096 0 1 0 4.48516-6.855086 4.096 4.096 0 1 0-4.48516 6.855086Z" fill="#ED3550" p-id="30975"></path><path d="M658.070001 739.37174a4.096 4.096 0 1 0 7.09448-4.096 4.096 4.096 0 1 0-7.09448 4.096Z" fill="#ED3550" p-id="30976"></path><path d="M437.784211 740.320162a7.168 7.168 0 1 0 6.337733-12.859006 7.168 7.168 0 1 0-6.337733 12.859006Z" fill="#ED3550" p-id="30977"></path><path d="M693.415704 695.852731a7.168 7.168 0 1 0 10.136906-10.13726 7.168 7.168 0 1 0-10.136906 10.13726Z" fill="#ED3550" p-id="30978"></path></svg>