<?xml version="1.0" standalone="no"?><!DOCTYPE svg PUBLIC "-//W3C//DTD SVG 1.1//EN" "http://www.w3.org/Graphics/SVG/1.1/DTD/svg11.dtd"><svg t="1765890412882" class="icon" viewBox="0 0 1024 1024" version="1.1" xmlns="http://www.w3.org/2000/svg" p-id="10809" xmlns:xlink="http://www.w3.org/1999/xlink" width="128" height="128"><path d="M209.993385 267.948548s126.823962 47.794193 161.446527 165.586182 140.748254-97.84638 140.748254-97.84638-136.6086-144.887909-302.194781-67.739802z" fill="#469E78" p-id="10810"></path><path d="M401.922822 487.726571h-3.763322c-21.074605-1.881661-36.127894-18.063947-44.783535-48.546858C321.764057 331.548695 204.724734 286.012495 203.219405 285.636163c-7.150312-2.634326-12.042631-9.408306-12.042632-16.93495-0.376332-7.526645 4.139655-14.676957 10.913635-17.687615 73.008453-33.869901 152.414553-32.364572 229.186328 4.892319 57.202499 27.848585 92.954061 65.105476 94.45939 66.987137 5.268651 5.644983 6.77398 14.300625 3.010658 21.074605-0.752664 1.505329-17.687615 35.751562-40.643881 69.997795-32.740904 50.052187-60.589489 73.761117-86.180081 73.761117zM257.787578 270.959206c42.901874 25.214259 107.631018 75.266446 131.716281 157.683205 5.268651 17.311283 10.537302 21.450937 12.042631 21.827269 6.021316 0.376332 25.214259-10.537302 55.69717-56.826167 13.54796-20.32194 25.214259-41.020213 31.611908-53.439176-13.171628-12.042631-39.891216-33.493569-75.266446-50.428519-52.686512-25.966924-104.996692-31.98824-155.801544-18.816612z" fill="#333333" p-id="10811"></path><path d="M814.006615 267.948548s-126.823962 47.794193-161.446527 165.586182-140.748254-97.84638-140.748254-97.84638 136.6086-144.887909 302.194781-67.739802z" fill="#469E78" p-id="10812"></path><path d="M622.077178 487.726571c-25.590592 0-53.439177-23.332598-86.556414-73.384785-22.956266-34.246233-39.891216-68.492466-40.643881-69.997795-3.38699-7.150312-2.257993-15.429621 3.010658-21.074605 1.505329-1.505329 37.256891-39.138552 94.45939-66.987137 77.148107-37.256891 156.177876-39.138552 229.186329-4.892319 6.77398 3.010658 11.289967 10.16097 10.913635 17.687615-0.376332 7.526645-4.892319 14.300625-12.042632 16.93495-1.128997 0.376332-118.544653 46.288864-150.15656 153.167218-9.031974 30.482911-24.085263 46.665197-44.783535 48.546858h-3.38699z m-86.932746-147.898567c6.77398 12.795296 18.440279 33.493569 31.98824 53.815509 30.482911 45.912532 49.675854 56.826167 55.320838 56.449835 1.505329 0 7.150312-4.515987 12.042631-21.827269 24.085263-82.416759 88.814406-132.468945 131.716281-157.683205-50.804851-13.171628-103.115031-6.77398-156.177876 18.440279-34.998897 17.311283-61.718486 38.76222-74.890114 50.804851z" fill="#333333" p-id="10813"></path><path d="M257.034914 164.080853s168.596839 83.922087 149.027563 199.832414 79.782433-17.687615 79.782433-17.687615 16.93495-194.940096-228.809996-182.144799z" fill="#469E78" p-id="10814"></path><path d="M414.341786 430.14774c-3.763322 0-7.150312-0.752664-10.537302-2.257994-25.590592-10.913635-19.192944-50.428519-16.182286-66.987137 16.93495-100.857038-137.361264-179.134142-138.866593-179.886806-7.526645-3.763322-11.666299-12.418964-10.160971-20.698273 1.881661-8.279309 9.031974-14.676957 17.311283-15.053289 88.061742-4.515987 154.672547 15.805954 197.950753 60.589489 57.202499 59.08416 51.181183 138.490261 50.804851 141.877251-0.376332 3.38699-1.505329 6.77398-3.763322 9.784638-35.751562 48.170526-64.729144 72.632121-86.556413 72.632121z m-88.438074-244.61595c50.428519 38.009555 112.147005 101.986035 98.975377 181.768467-1.505329 9.408306-2.257993 15.805954-2.257994 20.698273 11.289967-8.655641 29.353914-27.848585 44.783536-47.794193 0-16.182286-2.634326-68.868798-40.643881-108.007351C402.675487 207.359059 368.805586 191.553105 325.903712 185.53179z" fill="#333333" p-id="10815"></path><path d="M771.481073 164.080853s-168.596839 83.922087-149.027563 199.832414-80.158765-17.687615-80.158765-17.687615-16.558618-194.940096 229.186328-182.144799z" fill="#469E78" p-id="10816"></path><path d="M613.421536 430.14774c-18.816612 0-38.009555-17.311283-54.944505-35.37523-16.558618-17.687615-30.482911-36.127894-31.235576-37.256891-2.257993-2.634326-3.38699-6.021316-3.763322-9.784638-0.376332-3.38699-6.397648-82.793091 51.181183-141.877251 43.278207-44.783535 109.889011-65.105476 197.950754-60.589489 8.655641 0.376332 15.805954 6.77398 17.311282 15.053289 1.881661 8.279309-2.257993 16.93495-10.16097 20.698273-1.881661 1.128997-155.801544 79.406101-138.866593 179.886806 3.010658 16.93495 9.408306 56.073502-16.182286 66.987137-3.763322 1.505329-7.526645 2.257993-11.289967 2.257994z m-52.686512-90.319736c15.805954 20.32194 33.869901 39.514884 45.159868 48.170526 0-4.515987-0.752664-11.289967-2.257994-20.698273-13.54796-79.406101 48.170526-143.758912 98.975377-181.768467-42.901874 6.021316-76.771775 21.827269-100.857038 46.288864C563.745682 270.959206 560.735024 323.269386 560.735024 339.828004z" fill="#333333" p-id="10817"></path><path d="M569.766997 266.066887c0 77.900772-25.590592 103.491363-57.202499 103.491364S455.361999 343.967659 455.361999 266.066887s57.202499-178.75781 57.202499-178.757809 57.202499 100.857038 57.202499 178.757809z" fill="#469E78" p-id="10818"></path><path d="M512.564498 388.374862c-28.224917 0-76.019111-15.805954-76.01911-122.307975 0-82.040426 57.202499-183.650129 59.836824-188.166115 3.38699-6.021316 9.408306-9.408306 16.182286-9.408306s13.171628 3.763322 16.182286 9.408306c2.257993 4.139655 59.836825 106.125689 59.836825 188.166115 0 106.502021-47.794193 122.307975-76.019111 122.307975z m0-259.292907c-16.182286 34.622565-38.385888 91.0724-38.385887 136.984932 0 38.76222 6.77398 84.674752 38.385887 84.674752s38.385888-45.912532 38.385888-84.674752c0-45.912532-22.203602-102.362367-38.385888-136.984932z" fill="#333333" p-id="10819"></path><path d="M771.857405 642.399118c0 180.263139-113.652334 294.291804-254.400588 294.291804S263.432562 822.662257 263.432562 642.399118 377.084895 316.119074 517.456817 316.119074s254.400588 146.016906 254.400588 326.280044z" fill="#F7E74D" p-id="10820"></path><path d="M517.456817 955.507534c-75.266446 0-144.135244-30.482911-193.811099-85.803749-51.557516-57.578831-79.029768-136.232268-79.029768-227.304667C244.61595 452.351341 366.923925 297.302462 517.456817 297.302462s273.2172 154.672547 273.2172 345.096656c0 91.0724-27.472253 169.725836-79.406101 227.304667-49.675854 55.320838-118.544653 85.803749-193.811099 85.803749z m0-620.571849C387.622198 334.935685 282.249173 473.049614 282.249173 642.399118c0 162.199191 96.717383 275.475193 235.207644 275.475193 138.866593 0 235.583976-113.276001 235.583977-275.475193 0-169.349504-105.749357-307.463433-235.583977-307.463433z" fill="#333333" p-id="10821"></path><path d="M443.518824 328.952003l327.130555 310.229474-12.945829 13.653334-327.134318-310.229475z" fill="#333333" p-id="10822"></path><path d="M564.31018 329.098773l14.955443 11.414156-301.562543 395.224109-14.959206-11.41792z" fill="#333333" p-id="10823"></path><path d="M684.416612 387.994767l14.970496 11.402866L340.712385 870.305917l-14.970496-11.402867z" fill="#333333" p-id="10824"></path><path d="M758.117516 519.914267l14.996839 11.365233-312.035869 411.861757-15.000603-11.365233z" fill="#333333" p-id="10825"></path><path d="M331.270209 445.727894l393.154282 371.304432-12.923249 13.679677-393.154281-371.304432z" fill="#333333" p-id="10826"></path><path d="M262.725057 576.789357l355.878574 334.058831-12.878089 13.721073-355.878574-334.058831z" fill="#333333" p-id="10827"></path></svg>