<?xml version="1.0" standalone="no"?><!DOCTYPE svg PUBLIC "-//W3C//DTD SVG 1.1//EN" "http://www.w3.org/Graphics/SVG/1.1/DTD/svg11.dtd"><svg t="1765890390662" class="icon" viewBox="0 0 1024 1024" version="1.1" xmlns="http://www.w3.org/2000/svg" p-id="9107" xmlns:xlink="http://www.w3.org/1999/xlink" width="128" height="128"><path d="M202.72 733.76A586.24 586.24 0 0 0 739.2 752q14.08-6.72 28.16-14.4a27.2 27.2 0 0 0 10.24-37.92l-21.76-36.16-21.44-35.52-228.8-379.2a19.36 19.36 0 0 0-33.12 0l-18.88 30.24-8.64 13.76-208 332.8-21.92 35.04-22.08 35.36a27.2 27.2 0 0 0 9.76 38.08z" fill="#00A53D" p-id="9108"></path><path d="M202.72 733.76A586.24 586.24 0 0 0 739.2 752l-21.76-36.16-21.44-35.84-228.8-379.04a19.36 19.36 0 0 0-21.92-8.64l-208 332.8-21.92 35.04-22.08 35.36a27.2 27.2 0 0 0 9.76 38.08z" fill="#36AE39" p-id="9109"></path><path d="M215.04 660.16A587.04 587.04 0 0 0 700.96 688a593.6 593.6 0 0 0 55.04-24.96l-21.44-35.52a589.92 589.92 0 0 1-56.32 22.72 587.04 587.04 0 0 1-441.28-25.44l-21.92 35.04z" fill="#B2D8A1" p-id="9110"></path><path d="M236.96 625.12a584.8 584.8 0 0 0 497.6 2.72l-228.8-379.2a19.36 19.36 0 0 0-33.12 0L236.96 625.12z" fill="#EA5040" p-id="9111"></path><path d="M639.2 708.48l-16 3.68zM578.24 721.28l-21.28 2.72zM608 715.68l-18.4 4.32zM215.04 660.16c8.96 4.64 18.08 9.12 27.2 13.28q-13.76-6.24-27.2-13.28zM669.76 699.36l-9.6 2.88zM547.52 725.12c-7.36 0-14.72 1.28-22.08 1.76zM678.24 650.56a587.04 587.04 0 0 1-441.28-25.44l216.8-346.56 224 372zM516.16 727.36h-21.6zM327.04 704.96l-9.28-2.88zM388 718.88l-11.68-2.24zM419.84 723.68l-14.4-1.92zM452.16 726.72l-17.28-1.44zM269.92 685.44l-13.92-5.92zM484.32 727.84h-19.84zM356.96 712.64l-9.92-2.4zM298.08 695.84l-10.08-3.84z" fill="#EC654E" p-id="9112"></path><path d="M604.8 595.04a15.04 15.04 0 0 0 28.64-9.12c-2.56-8-16-29.44-24.32-26.88s-6.88 28-4.32 36z" fill="#A11E21" p-id="9113"></path><path d="M619.2 609.44a19.04 19.04 0 0 1-18.24-13.28c-2.24-7.04-5.28-37.12 7.04-40.96 5.28-1.6 11.52 1.92 18.56 10.88a70.72 70.72 0 0 1 10.88 18.56 19.04 19.04 0 0 1-18.08 24.8z m-10.56-16a11.04 11.04 0 0 0 13.92 7.2 11.04 11.04 0 0 0 7.2-13.92 64 64 0 0 0-9.44-16c-5.92-7.52-9.28-8.48-9.92-8.16-3.52 1.12-4.64 21.6-1.76 31.04z" fill="#7B365D" p-id="9114"></path><path d="M529.28 486.56a15.04 15.04 0 1 0 29.76-4.32c-1.12-8.16-11.36-32-19.68-30.4s-11.36 26.56-10.24 34.72z" fill="#A11E21" p-id="9115"></path><path d="M544 503.52a19.04 19.04 0 0 1-18.88-16 70.88 70.88 0 0 1 1.6-21.44c2.4-11.04 6.4-17.12 12-17.92 12.64-1.6 23.2 26.88 24.16 33.92a19.04 19.04 0 0 1-16 21.6z m-10.88-17.44a11.04 11.04 0 1 0 21.92-3.2 64 64 0 0 0-6.72-17.44c-4.64-8.48-8-10.08-8.32-9.6s-3.2 2.24-5.28 11.68a64 64 0 0 0-1.44 18.56z" fill="#7B365D" p-id="9116"></path><path d="M444.8 486.56a15.04 15.04 0 1 1-29.76-4.32c1.12-8.16 11.36-32 19.68-30.4s11.36 26.56 10.24 34.72z" fill="#A11E21" p-id="9117"></path><path d="M429.92 503.52h-2.72a19.04 19.04 0 0 1-16-21.6c0.96-7.04 11.36-35.68 24.16-33.92s14.56 32 13.6 39.36a19.04 19.04 0 0 1-19.04 16.16z m4-48c-3.84 0-13.6 17.6-14.88 27.04a11.04 11.04 0 1 0 21.92 3.2c1.44-9.6-3.04-29.76-6.72-30.24z" fill="#7B365D" p-id="9118"></path><path d="M370.24 595.04a15.04 15.04 0 0 1-28.64-9.12c2.56-8 16-29.44 24.32-26.88s6.88 28 4.32 36z" fill="#A11E21" p-id="9119"></path><path d="M356 609.44a19.04 19.04 0 0 1-18.24-24.8c2.24-7.04 16.96-33.28 29.44-29.44 5.28 1.6 8.32 8.32 8.96 19.52a70.56 70.56 0 0 1-1.92 21.44 19.04 19.04 0 0 1-18.08 13.28z m8.32-46.72c-4 0-16 16-18.88 24.32a11.04 11.04 0 1 0 21.12 6.72 64 64 0 0 0 1.6-18.56c0-9.6-2.72-12.16-3.36-12.32z" fill="#7B365D" p-id="9120"></path><path d="M471.68 606.88a15.04 15.04 0 0 0 30.08 0c0-8.32-5.92-33.12-14.24-33.28s-16 24.32-16 32z" fill="#A11E21" p-id="9121"></path><path d="M486.72 626.4a19.04 19.04 0 0 1-18.56-19.52c0-7.04 7.2-36.48 19.68-36.48 12.96 0 18.4 30.08 18.24 37.44a19.04 19.04 0 0 1-19.04 18.56z m-15.04-19.36h4a11.04 11.04 0 0 0 10.72 11.36 10.4 10.4 0 0 0 7.84-3.04 11.04 11.04 0 0 0 3.36-7.68c0-9.76-6.72-29.12-10.4-29.28-3.68 0-11.52 19.04-11.68 28.64z" fill="#7B365D" p-id="9122"></path><path d="M471.68 388.96a15.04 15.04 0 1 0 30.08 0c0-8.32-5.92-33.12-14.24-33.28s-16 24.32-16 32z" fill="#A11E21" p-id="9123"></path><path d="M486.72 408.32a19.04 19.04 0 0 1-18.56-19.52 70.4 70.4 0 0 1 4.64-20.8c4.32-10.56 9.44-16 14.72-16s10.24 5.6 14.08 16a70.88 70.88 0 0 1 4.16 21.12 19.04 19.04 0 0 1-19.04 18.56z m0-48s-3.52 1.76-7.2 10.56a64 64 0 0 0-4.64 18.08 11.04 11.04 0 0 0 10.72 11.36 10.72 10.72 0 0 0 7.84-3.04 11.04 11.04 0 0 0 3.36-7.68 64 64 0 0 0-3.68-18.24c-3.2-8.96-6.08-10.88-6.72-10.88z" fill="#7B365D" p-id="9124"></path><path d="M489.6 816a600.16 600.16 0 0 1-290.88-75.2 34.72 34.72 0 0 1-16.96-21.92 35.36 35.36 0 0 1 4.32-27.52l129.44-206.88a8 8 0 1 1 13.6 8.48l-129.44 206.88a19.04 19.04 0 0 0-2.4 15.04 18.88 18.88 0 0 0 9.12 11.84 579.36 579.36 0 0 0 528 18.24h1.12q13.92-6.72 27.84-14.24a19.2 19.2 0 0 0 7.52-26.72l-272-450.72a11.2 11.2 0 0 0-4.96-4.48 11.36 11.36 0 0 0-14.56 4.32l-84.64 135.36a8 8 0 1 1-13.6-8.48l84.64-135.36a27.52 27.52 0 0 1 46.72 0L784 695.2a35.2 35.2 0 0 1-13.28 49.12q-12.96 7.04-26.08 13.44l-3.36 0.96A584.16 584.16 0 0 1 489.6 816z" fill="#7B365D" p-id="9125"></path><path d="M337.76 471.84a8 8 0 0 1-6.72-12.32l34.24-54.88a8 8 0 0 1 13.6 8.48l-34.24 54.88a8 8 0 0 1-6.88 3.84z" fill="#7B365D" p-id="9126"></path><path d="M678.24 650.56a590.08 590.08 0 0 0 56.32-22.72l21.44 35.52A593.28 593.28 0 0 1 700.96 688l-22.72-37.6z" fill="#9DC985" p-id="9127"></path><path d="M489.76 736a600.8 600.8 0 0 1-278.4-68.96l-7.68-4 30.24-48 6.4 3.04a592 592 0 0 0 64 25.6 8 8 0 0 1-5.12 15.2 609.76 609.76 0 0 1-59.2-23.52l-13.6 21.76a576 576 0 0 0 471.52 23.68c16-6.08 32-13.12 46.72-20.8l-13.28-22.08c-16 7.52-33.6 14.24-50.56 20.16a581.6 581.6 0 0 1-254.88 28.48 8 8 0 1 1 1.76-16 565.12 565.12 0 0 0 247.84-27.68 584.96 584.96 0 0 0 55.52-22.56l6.56-3.04 30.4 49.12-7.68 3.84A602.08 602.08 0 0 1 704 695.68 583.04 583.04 0 0 1 489.76 736z" fill="#7B365D" p-id="9128"></path><path d="M386.56 680.8h-1.44c-16-2.88-33.12-6.72-49.44-11.04a8 8 0 1 1 4.16-16c16 4.16 32 7.84 48 10.72a8 8 0 0 1-1.44 16z" fill="#7B365D" p-id="9129"></path><path d="M347.04 516.32a8 8 0 0 1-6.72-12.16l3.2-5.12a8 8 0 0 1 13.6 8.48l-3.2 5.12a8 8 0 0 1-6.88 3.68zM366.56 485.6a8 8 0 0 1-6.88-12.16l32-50.88a8 8 0 1 1 13.6 8.48l-31.2 50.72a8 8 0 0 1-7.52 3.84z" fill="#FFFFFF" p-id="9130"></path></svg>