<?xml version="1.0" encoding="iso-8859-1"?>
<!-- Generator: Adobe Illustrator 19.0.0, SVG Export Plug-In . SVG Version: 6.00 Build 0)  -->
<svg version="1.1" id="Capa_1" xmlns="http://www.w3.org/2000/svg" xmlns:xlink="http://www.w3.org/1999/xlink" x="0px" y="0px"
	 viewBox="0 0 512 512" style="enable-background:new 0 0 512 512;" xml:space="preserve">
<linearGradient id="SVGID_1_" gradientUnits="userSpaceOnUse" x1="254.8086" y1="92.303" x2="254.8086" y2="630.793" gradientTransform="matrix(1.0039 0 0 -1.0039 0.1922 516.5609)">
	<stop  offset="0" style="stop-color:#67DCDC"/>
	<stop  offset="1" style="stop-color:#019394"/>
</linearGradient>
<path style="fill:url(#SVGID_1_);" d="M511.551,391.489c0.287-4.958,0.449-9.949,0.449-14.979c0-141.385-114.616-256-256-256
	S0,235.125,0,376.511c0,5.03,0.162,10.02,0.447,14.979L511.551,391.489L511.551,391.489z"/>
<linearGradient id="SVGID_2_" gradientUnits="userSpaceOnUse" x1="254.8086" y1="382.833" x2="254.8086" y2="19.023" gradientTransform="matrix(1.0039 0 0 -1.0039 0.1922 516.5609)">
	<stop  offset="0" style="stop-color:#67DCDC"/>
	<stop  offset="1" style="stop-color:#019394"/>
</linearGradient>
<path style="fill:url(#SVGID_2_);" d="M503.055,391.489c0.278-4.794,0.434-9.619,0.434-14.481
	c0-136.683-110.805-247.489-247.489-247.489S8.511,240.326,8.511,377.009c0,4.862,0.156,9.687,0.433,14.481H503.055z"/>
<linearGradient id="SVGID_3_" gradientUnits="userSpaceOnUse" x1="254.8086" y1="186.503" x2="254.8086" y2="118.043" gradientTransform="matrix(1.0039 0 0 -1.0039 0.1922 516.5609)">
	<stop  offset="0" style="stop-color:#019394;stop-opacity:0"/>
	<stop  offset="1" style="stop-color:#019394"/>
</linearGradient>
<path style="fill:url(#SVGID_3_);" d="M0,376.511c0,5.03,0.162,10.02,0.447,14.979h511.105c0.287-4.958,0.449-9.949,0.449-14.979
	c0-16.259-1.534-32.157-4.431-47.574H4.431C1.533,344.354,0,360.252,0,376.511z"/>
<linearGradient id="SVGID_4_" gradientUnits="userSpaceOnUse" x1="478.6112" y1="-55.3344" x2="259.9212" y2="163.3556" gradientTransform="matrix(1.0039 0 0 -1.0039 0.1922 516.5609)">
	<stop  offset="0" style="stop-color:#019394;stop-opacity:0"/>
	<stop  offset="1" style="stop-color:#019394"/>
</linearGradient>
<path style="fill:url(#SVGID_4_);" d="M502.226,391.489L370.928,260.192c-29.016-30.151-69.779-48.917-114.928-48.917
	c-88.083,0-159.49,71.406-159.49,159.488c0,7.025,0.458,13.942,1.338,20.726h3.868h33.444c-0.673-5.183-1.024-10.47-1.024-15.836
	c0-67.303,54.561-121.864,121.864-121.864s121.864,54.561,121.864,121.864c0,5.367-0.35,10.653-1.025,15.836H502.226z"/>
<path style="fill:#FFFFFF;" d="M256,211.275c-88.083,0-159.49,71.406-159.49,159.488c0,7.025,0.458,13.942,1.338,20.726h74.645
	c-0.466-3.832-0.708-7.738-0.708-11.707c0-49.754,37.704-90.09,84.214-90.09c46.512,0,84.214,40.335,84.214,90.09
	c0,3.969-0.243,7.876-0.708,11.707h74.643c0.88-6.783,1.339-13.701,1.339-20.726C415.489,282.681,344.083,211.275,256,211.275z"/>
<g>
	
		<linearGradient id="SVGID_5_" gradientUnits="userSpaceOnUse" x1="140.7536" y1="183.433" x2="140.7536" y2="111.883" gradientTransform="matrix(1.0039 0 0 -1.0039 0.1922 516.5609)">
		<stop  offset="0" style="stop-color:#BBBDBF;stop-opacity:0"/>
		<stop  offset="1" style="stop-color:#808184"/>
	</linearGradient>
	<path style="fill:url(#SVGID_5_);" d="M186.484,328.937h-84.42c-3.614,13.332-5.554,27.352-5.554,41.826
		c0,7.025,0.458,13.942,1.338,20.726h74.645c-0.466-3.832-0.708-7.738-0.708-11.707
		C171.786,360.915,177.217,343.409,186.484,328.937z"/>
	
		<linearGradient id="SVGID_6_" gradientUnits="userSpaceOnUse" x1="368.8651" y1="183.433" x2="368.8651" y2="111.883" gradientTransform="matrix(1.0039 0 0 -1.0039 0.1922 516.5609)">
		<stop  offset="0" style="stop-color:#BBBDBF;stop-opacity:0"/>
		<stop  offset="1" style="stop-color:#808184"/>
	</linearGradient>
	<path style="fill:url(#SVGID_6_);" d="M409.937,328.937h-84.42c9.267,14.472,14.698,31.978,14.698,50.846
		c0,3.969-0.243,7.876-0.708,11.707h74.643c0.88-6.783,1.339-13.701,1.339-20.726C415.489,356.289,413.55,342.269,409.937,328.937z"
		/>
</g>
<linearGradient id="SVGID_7_" gradientUnits="userSpaceOnUse" x1="326.491" y1="86.4454" x2="255.031" y2="157.8954" gradientTransform="matrix(1.0039 0 0 -1.0039 0.1922 516.5609)">
	<stop  offset="0" style="stop-color:#E6E6E6;stop-opacity:0"/>
	<stop  offset="0.143" style="stop-color:#DCDCDC;stop-opacity:0.143"/>
	<stop  offset="0.384" style="stop-color:#C2C2C2;stop-opacity:0.384"/>
	<stop  offset="0.692" style="stop-color:#979797;stop-opacity:0.692"/>
	<stop  offset="1" style="stop-color:#666666"/>
</linearGradient>
<path style="fill:url(#SVGID_7_);" d="M444.143,391.489L343.591,290.936c-22.157-22.903-53.209-37.147-87.591-37.147
	c-67.303,0-121.864,54.561-121.864,121.864c0,5.367,0.351,10.653,1.024,15.836h2.563h32.976c-0.477-3.914-0.722-7.905-0.722-11.959
	c0-50.824,38.513-92.026,86.023-92.026c47.511,0,86.023,41.202,86.023,92.026c0,4.054-0.248,8.044-0.721,11.959L444.143,391.489
	L444.143,391.489z"/>
<path style="fill:#019394;" d="M256,253.789c-67.303,0-121.864,54.561-121.864,121.864c0,5.367,0.351,10.653,1.024,15.836h39.706
	c-0.453-3.723-0.687-7.519-0.687-11.374c0-48.341,36.633-87.53,81.822-87.53c45.19,0,81.822,39.188,81.822,87.53
	c0,3.855-0.236,7.652-0.686,11.374h39.703c0.675-5.183,1.025-10.47,1.025-15.836C377.864,308.349,323.303,253.789,256,253.789z"/>
<g>
	<path style="fill:#FFFFFF;" d="M256,188.494c-2.879,0-5.212-2.334-5.212-5.212v-42.613c0-2.879,2.334-5.212,5.212-5.212
		c2.879,0,5.212,2.334,5.212,5.212v42.613C261.212,186.161,258.879,188.494,256,188.494L256,188.494z"/>
	<path style="fill:#FFFFFF;" d="M491.842,381.723h-42.611c-2.879,0-5.212-2.334-5.212-5.212c0-2.879,2.334-5.213,5.212-5.213h42.611
		c2.879,0,5.212,2.334,5.212,5.213C497.055,379.39,494.721,381.723,491.842,381.723L491.842,381.723z"/>
	<path style="fill:#FFFFFF;" d="M62.77,381.723H20.158c-2.879,0-5.212-2.334-5.212-5.212c0-2.879,2.334-5.213,5.212-5.213H62.77
		c2.879,0,5.212,2.334,5.212,5.213C67.983,379.39,65.649,381.723,62.77,381.723L62.77,381.723z"/>
	<path style="fill:#FFFFFF;" d="M392.633,245.089c-1.332,0-2.668-0.509-3.684-1.527c-2.036-2.035-2.036-5.336,0-7.372l30.131-30.13
		c2.035-2.035,5.338-2.035,7.372,0c2.036,2.035,2.036,5.336,0,7.372l-30.132,30.13C395.302,244.58,393.968,245.089,392.633,245.089
		L392.633,245.089z"/>
	<path style="fill:#FFFFFF;" d="M119.365,245.089c-1.334,0-2.667-0.509-3.686-1.527l-30.131-30.13c-2.035-2.036-2.035-5.337,0-7.372
		c2.036-2.035,5.336-2.035,7.372,0l30.131,30.13c2.035,2.036,2.035,5.337,0,7.372C122.034,244.58,120.699,245.089,119.365,245.089
		L119.365,245.089z"/>
	<path style="fill:#FFFFFF;" d="M171.395,186.166c-2.017,0-3.935-1.176-4.787-3.144l-9.039-20.894
		c-1.143-2.641,0.072-5.71,2.714-6.853c2.642-1.143,5.71,0.071,6.854,2.715l9.039,20.894c1.143,2.642-0.072,5.71-2.715,6.854
		C172.788,186.029,172.086,186.166,171.395,186.166L171.395,186.166z"/>
	<path style="fill:#FFFFFF;" d="M451.559,297.119c-2.016,0-3.934-1.177-4.786-3.144c-1.143-2.641,0.072-5.71,2.714-6.853
		l20.896-9.04c2.64-1.142,5.71,0.071,6.853,2.714c1.143,2.642-0.072,5.71-2.714,6.854l-20.895,9.04
		C452.953,296.98,452.252,297.119,451.559,297.119L451.559,297.119z"/>
	<path style="fill:#FFFFFF;" d="M340.605,186.166c-0.691,0-1.392-0.138-2.068-0.43c-2.641-1.142-3.857-4.211-2.714-6.854
		l9.038-20.894c1.142-2.641,4.21-3.858,6.854-2.715c2.641,1.142,3.857,4.211,2.714,6.853l-9.038,20.894
		C344.541,184.991,342.62,186.166,340.605,186.166L340.605,186.166z"/>
	<path style="fill:#FFFFFF;" d="M60.438,297.119c-0.691,0-1.392-0.138-2.067-0.43l-20.895-9.04
		c-2.642-1.143-3.857-4.211-2.715-6.854c1.143-2.64,4.212-3.856,6.854-2.714l20.895,9.04c2.642,1.142,3.857,4.211,2.715,6.853
		C64.374,295.942,62.454,297.119,60.438,297.119L60.438,297.119z"/>
	<path style="fill:#FFFFFF;" d="M146.018,199.229c-1.768,0-3.492-0.899-4.469-2.523l-11.751-19.497
		c-1.487-2.465-0.693-5.668,1.774-7.155c2.467-1.485,5.669-0.691,7.155,1.774l11.752,19.498c1.486,2.466,0.692,5.669-1.774,7.155
		C147.863,198.988,146.934,199.229,146.018,199.229L146.018,199.229z"/>
	<path style="fill:#FFFFFF;" d="M438.501,271.737c-1.767,0-3.49-0.898-4.468-2.522c-1.486-2.466-0.692-5.669,1.773-7.156
		l19.494-11.751c2.466-1.485,5.67-0.693,7.155,1.774c1.487,2.465,0.692,5.668-1.772,7.155l-19.495,11.752
		C440.346,271.497,439.417,271.737,438.501,271.737L438.501,271.737z"/>
	<path style="fill:#FFFFFF;" d="M313.71,176.614c-0.468,0-0.943-0.063-1.415-0.197c-2.771-0.779-4.385-3.658-3.606-6.43
		l6.167-21.915c0.78-2.77,3.659-4.385,6.43-3.605c2.771,0.779,4.385,3.658,3.606,6.43l-6.167,21.916
		C318.08,175.11,315.988,176.614,313.71,176.614L313.71,176.614z"/>
	<path style="fill:#FFFFFF;" d="M50.891,324.015c-0.468,0-0.943-0.063-1.415-0.196l-21.916-6.166
		c-2.771-0.78-4.385-3.658-3.606-6.43c0.78-2.772,3.659-4.382,6.43-3.607l21.916,6.166c2.771,0.779,4.385,3.658,3.606,6.43
		C55.259,322.512,53.168,324.015,50.891,324.015L50.891,324.015z"/>
	<path style="fill:#FFFFFF;" d="M124.255,214.26c-1.544,0-3.072-0.683-4.1-1.991l-14.076-17.89c-1.78-2.264-1.389-5.541,0.873-7.321
		c2.263-1.78,5.54-1.389,7.32,0.873l14.076,17.89c1.78,2.264,1.389,5.541-0.873,7.321C126.52,213.896,125.384,214.26,124.255,214.26
		L124.255,214.26z"/>
	<path style="fill:#FFFFFF;" d="M423.467,249.976c-1.544,0-3.071-0.683-4.101-1.99c-1.779-2.263-1.388-5.54,0.874-7.321
		l17.891-14.076c2.263-1.779,5.54-1.389,7.321,0.874c1.779,2.263,1.388,5.54-0.874,7.319l-17.891,14.076
		C425.732,249.612,424.596,249.976,423.467,249.976L423.467,249.976z"/>
	<path style="fill:#FFFFFF;" d="M287.86,171.042c-0.26,0-0.522-0.019-0.786-0.058c-2.846-0.431-4.805-3.087-4.374-5.933
		l3.403-22.511c0.431-2.847,3.093-4.809,5.933-4.374c2.846,0.43,4.805,3.086,4.375,5.933l-3.403,22.51
		C292.617,169.191,290.394,171.042,287.86,171.042L287.86,171.042z"/>
	<path style="fill:#FFFFFF;" d="M45.324,349.871c-0.259,0-0.522-0.019-0.786-0.059l-22.509-3.405
		c-2.846-0.43-4.806-3.087-4.374-5.933c0.43-2.846,3.083-4.813,5.933-4.374l22.509,3.405c2.846,0.431,4.806,3.087,4.374,5.933
		C50.082,348.019,47.859,349.871,45.324,349.871L45.324,349.871z"/>
	<path style="fill:#FFFFFF;" d="M365.983,199.229c-0.917,0-1.844-0.241-2.686-0.749c-2.466-1.486-3.259-4.689-1.774-7.155
		l11.752-19.498c1.488-2.465,4.69-3.258,7.156-1.774c2.466,1.487,3.259,4.69,1.774,7.155l-11.752,19.497
		C369.473,198.331,367.75,199.229,365.983,199.229L365.983,199.229z"/>
	<path style="fill:#FFFFFF;" d="M73.499,271.737c-0.917,0-1.844-0.241-2.685-0.749l-19.496-11.752
		c-2.466-1.485-3.261-4.689-1.774-7.155c1.487-2.465,4.692-3.258,7.155-1.774l19.496,11.751c2.466,1.487,3.261,4.69,1.774,7.155
		C76.99,270.84,75.266,271.737,73.499,271.737L73.499,271.737z"/>
	<path style="fill:#FFFFFF;" d="M198.288,176.614c-2.277,0-4.368-1.502-5.015-3.802l-6.167-21.916
		c-0.78-2.772,0.834-5.65,3.606-6.43c2.773-0.78,5.65,0.834,6.429,3.605l6.167,21.915c0.78,2.772-0.833,5.65-3.605,6.43
		C199.23,176.551,198.755,176.614,198.288,176.614L198.288,176.614z"/>
	<path style="fill:#FFFFFF;" d="M461.11,324.015c-2.277,0-4.369-1.503-5.017-3.802c-0.778-2.772,0.835-5.651,3.607-6.43
		l21.915-6.166c2.772-0.776,5.651,0.836,6.43,3.607c0.779,2.771-0.834,5.65-3.607,6.43l-21.915,6.166
		C462.052,323.951,461.577,324.015,461.11,324.015L461.11,324.015z"/>
	<path style="fill:#FFFFFF;" d="M387.746,214.26c-1.128,0-2.265-0.364-3.22-1.116c-2.263-1.779-2.654-5.057-0.874-7.321
		l14.076-17.89c1.781-2.263,5.059-2.652,7.321-0.873c2.262,1.779,2.653,5.057,0.873,7.321l-14.075,17.89
		C390.817,213.577,389.288,214.26,387.746,214.26L387.746,214.26z"/>
	<path style="fill:#FFFFFF;" d="M88.533,249.976c-1.128,0-2.265-0.364-3.22-1.117l-17.892-14.076
		c-2.263-1.779-2.653-5.057-0.873-7.319c1.78-2.264,5.057-2.654,7.32-0.874l17.891,14.076c2.263,1.78,2.654,5.058,0.873,7.321
		C91.605,249.295,90.076,249.976,88.533,249.976L88.533,249.976z"/>
	<path style="fill:#FFFFFF;" d="M224.139,171.042c-2.535,0-4.758-1.85-5.148-4.434l-3.402-22.51
		c-0.43-2.846,1.528-5.503,4.375-5.932c2.853-0.432,5.503,1.528,5.933,4.374l3.402,22.511c0.43,2.846-1.529,5.503-4.375,5.933
		C224.66,171.023,224.398,171.042,224.139,171.042L224.139,171.042z"/>
	<path style="fill:#FFFFFF;" d="M466.675,349.871c-2.534,0-4.757-1.851-5.147-4.433c-0.432-2.846,1.528-5.504,4.374-5.933
		l22.509-3.405c2.841-0.438,5.503,1.528,5.933,4.374c0.431,2.846-1.529,5.504-4.375,5.933l-22.508,3.405
		C467.198,349.851,466.934,349.871,466.675,349.871L466.675,349.871z"/>
	<path style="fill:#FFFFFF;" d="M256,288.041c-2.879,0-5.212-2.334-5.212-5.212v-20.661c0-2.879,2.334-5.212,5.212-5.212
		c2.879,0,5.212,2.334,5.212,5.212v20.661C261.212,285.707,258.879,288.041,256,288.041L256,288.041z"/>
	<path style="fill:#FFFFFF;" d="M367.456,381.723h-20.136c-2.88,0-5.213-2.334-5.213-5.212c0-2.879,2.334-5.213,5.213-5.213h20.136
		c2.88,0,5.213,2.334,5.213,5.213C372.67,379.39,370.337,381.723,367.456,381.723L367.456,381.723z"/>
	<path style="fill:#FFFFFF;" d="M164.681,381.723h-20.138c-2.879,0-5.212-2.334-5.212-5.212c0-2.879,2.334-5.213,5.212-5.213h20.138
		c2.879,0,5.213,2.334,5.213,5.213C169.894,379.39,167.561,381.723,164.681,381.723L164.681,381.723z"/>
	<path style="fill:#FFFFFF;" d="M320.573,315.48c-1.312,0-2.624-0.492-3.637-1.48c-2.063-2.01-2.103-5.31-0.095-7.373l14.24-14.608
		c2.01-2.061,5.31-2.103,7.371-0.094c2.063,2.009,2.105,5.31,0.095,7.371l-14.24,14.608
		C323.285,314.954,321.93,315.48,320.573,315.48L320.573,315.48z"/>
	<path style="fill:#FFFFFF;" d="M191.428,315.48c-1.357,0-2.712-0.526-3.734-1.575l-14.24-14.608
		c-2.01-2.061-1.968-5.362,0.093-7.371c2.063-2.01,5.363-1.967,7.371,0.094l14.24,14.608c2.01,2.063,1.968,5.362-0.094,7.372
		C194.053,314.988,192.74,315.48,191.428,315.48L191.428,315.48z"/>
	<path style="fill:#FFFFFF;" d="M204.026,293.247c-1.788,0-3.529-0.921-4.5-2.574l-5.554-9.452
		c-1.458-2.483-0.628-5.676,1.854-7.135c2.481-1.46,5.677-0.627,7.135,1.854l5.554,9.452c1.458,2.483,0.628,5.676-1.854,7.135
		C205.832,293.014,204.922,293.247,204.026,293.247L204.026,293.247z"/>
	<path style="fill:#FFFFFF;" d="M342.251,328.4c-1.747,0-3.451-0.876-4.437-2.473c-1.515-2.449-0.757-5.66,1.692-7.175l9.216-5.696
		c2.448-1.513,5.66-0.756,7.173,1.693c1.514,2.449,0.757,5.661-1.692,7.175l-9.215,5.696
		C344.134,328.149,343.188,328.4,342.251,328.4L342.251,328.4z"/>
	<path style="fill:#FFFFFF;" d="M283.279,282.281c-0.457,0-0.921-0.059-1.383-0.187c-2.775-0.762-4.408-3.629-3.648-6.406
		l2.914-10.625c0.761-2.777,3.631-4.412,6.406-3.649c2.776,0.762,4.409,3.629,3.648,6.407l-2.913,10.625
		C287.668,280.761,285.568,282.281,283.279,282.281L283.279,282.281z"/>
	<path style="fill:#FFFFFF;" d="M159.068,353.746c-0.479,0-0.965-0.066-1.448-0.207l-10.357-2.989
		c-2.766-0.799-4.361-3.687-3.563-6.455c0.799-2.766,3.685-4.36,6.454-3.562l10.357,2.989c2.766,0.798,4.36,3.687,3.563,6.454
		C163.415,352.261,161.331,353.746,159.068,353.746L159.068,353.746z"/>
	<path style="fill:#FFFFFF;" d="M307.976,293.247c-0.897,0-1.806-0.232-2.634-0.72c-2.483-1.458-3.313-4.651-1.854-7.135
		l5.553-9.452c1.458-2.483,4.653-3.314,7.135-1.854c2.483,1.459,3.313,4.651,1.854,7.135l-5.554,9.452
		C311.505,292.325,309.764,293.247,307.976,293.247L307.976,293.247z"/>
	<path style="fill:#FFFFFF;" d="M169.749,328.4c-0.936,0-1.882-0.251-2.737-0.78l-9.215-5.696c-2.449-1.514-3.207-4.726-1.693-7.175
		c1.515-2.449,4.725-3.206,7.175-1.693l9.214,5.696c2.45,1.515,3.207,4.726,1.693,7.175
		C173.202,327.523,171.496,328.4,169.749,328.4L169.749,328.4z"/>
	<path style="fill:#FFFFFF;" d="M228.724,282.281c-2.291,0-4.389-1.521-5.025-3.835l-2.914-10.625
		c-0.761-2.776,0.871-5.645,3.648-6.407c2.778-0.761,5.644,0.872,6.406,3.649l2.914,10.625c0.761,2.776-0.871,5.644-3.648,6.406
		C229.645,282.219,229.18,282.281,228.724,282.281L228.724,282.281z"/>
	<path style="fill:#FFFFFF;" d="M352.933,353.746c-2.263,0-4.347-1.486-5.006-3.769c-0.799-2.767,0.797-5.656,3.563-6.454
		l10.357-2.989c2.766-0.8,5.656,0.796,6.453,3.562c0.799,2.767-0.796,5.656-3.562,6.455l-10.357,2.989
		C353.897,353.68,353.412,353.746,352.933,353.746L352.933,353.746z"/>
</g>
<g>
</g>
<g>
</g>
<g>
</g>
<g>
</g>
<g>
</g>
<g>
</g>
<g>
</g>
<g>
</g>
<g>
</g>
<g>
</g>
<g>
</g>
<g>
</g>
<g>
</g>
<g>
</g>
<g>
</g>
</svg>
