<?xml version="1.0" encoding="iso-8859-1"?>
<!-- Generator: Adobe Illustrator 19.0.0, SVG Export Plug-In . SVG Version: 6.00 Build 0)  -->
<svg version="1.1" id="Capa_1" xmlns="http://www.w3.org/2000/svg" xmlns:xlink="http://www.w3.org/1999/xlink" x="0px" y="0px"
	 viewBox="0 0 512.001 512.001" style="enable-background:new 0 0 512.001 512.001;" xml:space="preserve">
<linearGradient id="SVGID_1_" gradientUnits="userSpaceOnUse" x1="33.7987" y1="67.1405" x2="80.0357" y2="20.9005" gradientTransform="matrix(1.0039 0 0 -1.0039 0.1922 516.5618)">
	<stop  offset="0" style="stop-color:#FFF2EB"/>
	<stop  offset="1" style="stop-color:#F1DACB"/>
</linearGradient>
<path style="fill:url(#SVGID_1_);" d="M94.911,417.09l-53.166-53.166L18.7,386.969c-4.016,4.016-6.548,9.277-7.181,14.921
	L0.045,504.217c-0.501,4.465,3.274,8.24,7.739,7.739l102.327-11.475c5.644-0.632,10.906-3.165,14.921-7.181l23.045-23.045
	L94.911,417.09z"/>
<linearGradient id="SVGID_2_" gradientUnits="userSpaceOnUse" x1="69.3257" y1="31.6105" x2="12.5687" y2="88.3705" gradientTransform="matrix(1.0039 0 0 -1.0039 0.1922 516.5618)">
	<stop  offset="0" style="stop-color:#FFF2EB"/>
	<stop  offset="1" style="stop-color:#F1DACB"/>
</linearGradient>
<path style="fill:url(#SVGID_2_);" d="M94.911,417.09l-17.719-17.719l-23.045,23.045c-4.016,4.016-7.458,8.368-9.761,12.341
	L2.624,506.796c-1.822,3.143-0.564,4.401,2.579,2.579l72.04-41.761c3.974-2.303,8.326-5.745,12.341-9.761l23.045-23.045
	L94.911,417.09z"/>
<linearGradient id="SVGID_3_" gradientUnits="userSpaceOnUse" x1="427.1192" y1="447.864" x2="462.5092" y2="412.474" gradientTransform="matrix(1.0039 0 0 -1.0039 0.1922 516.5618)">
	<stop  offset="0" style="stop-color:#FE7695"/>
	<stop  offset="1" style="stop-color:#FE547B"/>
</linearGradient>
<path style="fill:url(#SVGID_3_);" d="M347.957,57.712l106.331,106.331l47.751-47.751c13.282-13.282,13.282-34.816,0-48.098
	L443.806,9.961c-13.282-13.282-34.816-13.282-48.098,0L347.957,57.712z"/>
<linearGradient id="SVGID_4_" gradientUnits="userSpaceOnUse" x1="175.9932" y1="286.644" x2="281.9092" y2="180.728" gradientTransform="matrix(1.0039 0 0 -1.0039 0.1922 516.5618)">
	<stop  offset="0" style="stop-color:#B8DE6F"/>
	<stop  offset="1" style="stop-color:#8AA753"/>
</linearGradient>
<path style="fill:url(#SVGID_4_);" d="M439.495,178.837L126.919,491.413c9.791-9.791,9.791-25.664,0.009-35.446
	c-9.791-9.791-25.664-9.791-35.455,0c9.791-9.791,9.8-25.656,0.009-35.446s-25.656-9.782-35.446,0.009
	c9.791-9.791,9.791-25.664,0-35.455c-9.782-9.782-25.655-9.782-35.446,0.009L333.164,72.506L439.495,178.837z"/>
<linearGradient id="SVGID_5_" gradientUnits="userSpaceOnUse" x1="245.726" y1="216.9107" x2="185.476" y2="277.1607" gradientTransform="matrix(1.0039 0 0 -1.0039 0.1922 516.5618)">
	<stop  offset="0" style="stop-color:#B8DE6F"/>
	<stop  offset="1" style="stop-color:#8AA753"/>
</linearGradient>
<path style="fill:url(#SVGID_5_);" d="M404.048,143.391L91.471,455.967c9.791-9.791,9.8-25.656,0.009-35.446
	s-25.656-9.782-35.446,0.009L368.61,107.952L404.048,143.391z"/>
<linearGradient id="SVGID_6_" gradientUnits="userSpaceOnUse" x1="-7.0143" y1="37.2212" x2="32.4872" y2="-2.2793" gradientTransform="matrix(1.0039 0 0 -1.0039 0.1922 516.5618)">
	<stop  offset="0" style="stop-color:#4D4D4D"/>
	<stop  offset="1" style="stop-color:#333333"/>
</linearGradient>
<path style="fill:url(#SVGID_6_);" d="M4.076,468.269l-4.031,35.947c-0.501,4.465,3.274,8.24,7.739,7.739l35.947-4.031
	L4.076,468.269z"/>
<linearGradient id="SVGID_7_" gradientUnits="userSpaceOnUse" x1="447.6587" y1="452.3935" x2="417.3387" y2="422.0735" gradientTransform="matrix(1.0039 0 0 -1.0039 0.1922 516.5618)">
	<stop  offset="0" style="stop-color:#FE7695;stop-opacity:0"/>
	<stop  offset="1" style="stop-color:#BF3F5C"/>
</linearGradient>
<polygon style="fill:url(#SVGID_7_);" points="393.566,12.103 347.957,57.712 454.289,164.043 499.898,118.434 "/>
<linearGradient id="SVGID_8_" gradientUnits="userSpaceOnUse" x1="351.1305" y1="322.5427" x2="400.8604" y2="429.4727" gradientTransform="matrix(1.0039 0 0 -1.0039 0.1922 516.5618)">
	<stop  offset="0" style="stop-color:#B8DE6F;stop-opacity:0"/>
	<stop  offset="1" style="stop-color:#4B7104"/>
</linearGradient>
<polygon style="fill:url(#SVGID_8_);" points="333.164,72.506 324.073,81.596 324.073,154.634 393.886,224.446 439.495,178.837 "/>
<linearGradient id="SVGID_9_" gradientUnits="userSpaceOnUse" x1="365.3247" y1="438.1395" x2="484.5847" y2="318.8795" gradientTransform="matrix(1.0039 0 0 -1.0039 0.1922 516.5618)">
	<stop  offset="0" style="stop-color:#E6E6E6"/>
	<stop  offset="1" style="stop-color:#999999"/>
</linearGradient>
<polygon style="fill:url(#SVGID_9_);" points="439.729,179.283 332.718,72.272 362.517,42.472 469.528,149.483 "/>
<linearGradient id="SVGID_10_" gradientUnits="userSpaceOnUse" x1="410.0487" y1="332.6035" x2="410.0487" y2="513.6625" gradientTransform="matrix(1.0039 0 0 -1.0039 0.1922 516.5618)">
	<stop  offset="0" style="stop-color:#E6E6E6;stop-opacity:0"/>
	<stop  offset="0.143" style="stop-color:#DCDCDC;stop-opacity:0.143"/>
	<stop  offset="0.384" style="stop-color:#C2C2C2;stop-opacity:0.384"/>
	<stop  offset="0.692" style="stop-color:#979797;stop-opacity:0.692"/>
	<stop  offset="1" style="stop-color:#666666"/>
</linearGradient>
<polygon style="fill:url(#SVGID_10_);" points="354.17,50.821 354.17,81.279 445.951,173.061 469.528,149.483 362.517,42.472 "/>
<linearGradient id="SVGID_11_" gradientUnits="userSpaceOnUse" x1="417.6387" y1="422.3735" x2="399.6187" y2="404.3535" gradientTransform="matrix(1.0039 0 0 -1.0039 0.1922 516.5618)">
	<stop  offset="0" style="stop-color:#E6E6E6"/>
	<stop  offset="1" style="stop-color:#999999"/>
</linearGradient>
<path style="fill:url(#SVGID_11_);" d="M458.175,155.299L356.702,53.826c-4.962-4.962-4.962-13.007,0-17.968l0,0
	c4.962-4.962,13.007-4.962,17.968,0l101.473,101.473c4.962,4.962,4.962,13.007,0,17.968l0,0
	C471.182,160.262,463.136,160.262,458.175,155.299z"/>
<linearGradient id="SVGID_12_" gradientUnits="userSpaceOnUse" x1="387.5587" y1="392.2935" x2="369.5387" y2="374.2735" gradientTransform="matrix(1.0039 0 0 -1.0039 0.1922 516.5618)">
	<stop  offset="0" style="stop-color:#E6E6E6"/>
	<stop  offset="1" style="stop-color:#999999"/>
</linearGradient>
<path style="fill:url(#SVGID_12_);" d="M427.976,185.498L326.503,84.025c-4.962-4.962-4.962-13.007,0-17.968l0,0
	c4.962-4.962,13.007-4.962,17.968,0L445.944,167.53c4.962,4.962,4.962,13.007,0,17.968l0,0
	C440.983,190.46,432.937,190.46,427.976,185.498z"/>
<g>
</g>
<g>
</g>
<g>
</g>
<g>
</g>
<g>
</g>
<g>
</g>
<g>
</g>
<g>
</g>
<g>
</g>
<g>
</g>
<g>
</g>
<g>
</g>
<g>
</g>
<g>
</g>
<g>
</g>
</svg>
