<?xml version="1.0" standalone="no"?><!DOCTYPE svg PUBLIC "-//W3C//DTD SVG 1.1//EN" "http://www.w3.org/Graphics/SVG/1.1/DTD/svg11.dtd"><svg t="1765988642943" class="icon" viewBox="0 0 1024 1024" version="1.1" xmlns="http://www.w3.org/2000/svg" p-id="2421" xmlns:xlink="http://www.w3.org/1999/xlink" width="128" height="128"><path d="M738.2 743.1c3-0.4 6.1 0 8.9 1.3 8.5 4.1 11.4 15.5 6.4 25.3-15.1 30.2-36.8 56.7-62.6 76.8-26.6 20.7-57.2 34-88.3 38.3-31.2 4.4-61.7-0.3-88.2-13.5-25.9-12.8-47.4-33.3-62.4-59.2-4.9-8.5-2-20.7 6.5-27.1 2.8-2.1 5.9-3.4 8.9-3.8 6.1-0.9 12.1 1.7 15.3 7.4 11.9 20.6 29.1 36.9 49.7 47.2 21.2 10.5 45.4 14.3 70.2 10.8 24.7-3.5 49.1-14 70.3-30.5 20.6-16 37.9-37.1 49.9-61.2 3.3-6.7 9.2-11 15.4-11.8zM603.6 347.3c23.1-3.3 42.1 14.5 42 39.5l-0.1 69.9c0 25-19 48-42.2 51.3s-42.1-14.5-42-39.5l0.1-69.8c0-25 19-48.2 42.2-51.4z" fill="#50E6CC" p-id="2422"></path><path d="M694.1 253.5c0.8-0.1 1.5-0.2 2.3-0.2 0.4 0 0.8-0.1 1.2-0.1 0.7-0.1 1.5-0.1 2.2-0.2 0.4 0 0.7-0.1 1.1-0.1 0.9-0.1 1.8-0.1 2.7-0.2h0.6c1.1 0 2.2-0.1 3.2-0.1h7.5c0.8 0 1.6 0.1 2.4 0.1h0.8c1.1 0.1 2.1 0.1 3.1 0.2 0.2 0 0.5 0 0.7 0.1 0.8 0.1 1.6 0.1 2.4 0.2 0.4 0 0.7 0.1 1.1 0.1 0.7 0.1 1.4 0.2 2.1 0.2 0.4 0 0.7 0.1 1.1 0.1 0.7 0.1 1.5 0.2 2.2 0.3 0.3 0 0.6 0.1 0.9 0.1 1 0.2 2 0.3 3 0.5 0.1 0 0.2 0 0.4 0.1 0.9 0.2 1.8 0.3 2.7 0.5 0.3 0.1 0.7 0.1 1 0.2 0.7 0.1 1.4 0.3 2.1 0.4 0.4 0.1 0.7 0.2 1.1 0.2 0.7 0.2 1.4 0.3 2 0.5 0.3 0.1 0.6 0.2 0.9 0.2 1 0.3 2 0.5 3 0.8h0.1c1 0.3 1.9 0.6 2.9 0.9l0.9 0.3c0.7 0.2 1.4 0.4 2.1 0.7 0.3 0.1 0.7 0.2 1 0.3 0.7 0.2 1.4 0.5 2.2 0.8 0.3 0.1 0.5 0.2 0.8 0.3 1 0.4 1.9 0.7 2.9 1.1 0.2 0.1 0.4 0.2 0.6 0.2 0.8 0.3 1.5 0.6 2.3 1 0.3 0.1 0.6 0.3 0.9 0.4 0.7 0.3 1.3 0.6 2 0.9 0.3 0.1 0.6 0.3 0.9 0.4 0.8 0.3 1.5 0.7 2.2 1.1 0.2 0.1 0.3 0.2 0.5 0.2 1.6 0.8 3.2 1.6 4.8 2.5l-182.3-99.2c-1.6-0.9-3.2-1.7-4.8-2.5h-0.1c-0.1-0.1-0.3-0.1-0.4-0.2-0.7-0.4-1.5-0.7-2.2-1.1-0.3-0.1-0.6-0.3-0.9-0.4-0.6-0.3-1.3-0.6-1.9-0.9-0.3-0.1-0.6-0.3-0.9-0.4-0.8-0.3-1.5-0.6-2.3-0.9-0.2-0.1-0.4-0.2-0.6-0.2-0.9-0.4-1.9-0.7-2.9-1.1-0.3-0.1-0.5-0.2-0.8-0.3-0.7-0.3-1.4-0.5-2.2-0.8-0.3-0.1-0.7-0.2-1-0.3-0.7-0.2-1.4-0.5-2.1-0.7l-0.9-0.3c-1-0.3-1.9-0.6-2.9-0.9h-0.1c-1-0.3-2-0.6-3-0.8-0.1 0-0.2-0.1-0.3-0.1-0.2-0.1-0.4-0.1-0.7-0.2-0.7-0.2-1.4-0.3-2-0.5-0.4-0.1-0.7-0.2-1.1-0.2-0.7-0.2-1.4-0.3-2.1-0.4-0.3-0.1-0.7-0.1-1-0.2-0.9-0.2-1.8-0.4-2.7-0.5-0.1 0-0.2 0-0.4-0.1-1-0.2-2-0.3-3-0.5-0.3 0-0.6-0.1-0.9-0.1-0.7-0.1-1.5-0.2-2.2-0.3-0.4 0-0.7-0.1-1.1-0.1-0.7-0.1-1.4-0.2-2.1-0.2-0.4 0-0.7-0.1-1.1-0.1-0.8-0.1-1.6-0.2-2.4-0.2-0.2 0-0.5 0-0.7-0.1-1-0.1-2.1-0.2-3.1-0.2h-0.8c-0.8 0-1.6-0.1-2.4-0.1H525.1c-1.1 0-2.2 0.1-3.2 0.1h-0.6c-0.9 0-1.8 0.1-2.7 0.2-0.4 0-0.7 0.1-1.1 0.1-0.7 0.1-1.5 0.1-2.2 0.2-0.4 0-0.8 0.1-1.2 0.1-0.8 0.1-1.5 0.2-2.3 0.2-0.3 0-0.7 0.1-1 0.1-1.1 0.1-2.2 0.3-3.3 0.4l-68.2 9.6-35.6 5-68.3 9.6c-1.2 0.2-2.5 0.4-3.7 0.6-0.4 0.1-0.7 0.1-1.1 0.2-0.9 0.2-1.9 0.3-2.8 0.5-0.3 0.1-0.6 0.1-1 0.2-1.2 0.2-2.4 0.5-3.6 0.8-0.2 0-0.4 0.1-0.6 0.1-1 0.2-2.1 0.5-3.1 0.7-0.4 0.1-0.7 0.2-1.1 0.3-1 0.2-1.9 0.5-2.9 0.8-0.3 0.1-0.5 0.1-0.8 0.2-1.2 0.3-2.4 0.7-3.5 1-0.3 0.1-0.6 0.2-0.8 0.3-0.9 0.3-1.8 0.6-2.8 0.9-0.4 0.1-0.7 0.2-1.1 0.4-1 0.3-2 0.7-3 1.1-0.2 0.1-0.3 0.1-0.5 0.2-1.2 0.4-2.3 0.9-3.5 1.3-0.3 0.1-0.6 0.2-0.9 0.4-0.9 0.3-1.7 0.7-2.6 1.1-0.3 0.1-0.7 0.3-1 0.4-1.1 0.5-2.3 1-3.4 1.5 0 0-0.1 0-0.1 0.1-0.9 0.4-1.7 0.8-2.6 1.2l-0.6 0.3c-0.5 0.2-1 0.5-1.5 0.7-0.7 0.3-1.4 0.7-2.1 1-0.5 0.3-1 0.5-1.5 0.8-0.7 0.4-1.4 0.7-2.1 1.1-0.5 0.3-1 0.5-1.5 0.8-0.7 0.4-1.4 0.8-2.1 1.1-0.5 0.3-1 0.5-1.4 0.8l-2.1 1.2c-0.5 0.3-0.9 0.5-1.4 0.8-0.8 0.5-1.5 0.9-2.2 1.4-0.4 0.2-0.8 0.5-1.1 0.7-1 0.6-2 1.3-3 1.9-0.1 0.1-0.2 0.1-0.3 0.2-1.1 0.7-2.1 1.4-3.2 2.1l-0.1 0.1c-1.5 1-3 2.1-4.4 3.2-0.4 0.3-0.7 0.6-1.1 0.8-1.3 0.9-2.5 1.9-3.7 2.8-0.2 0.2-0.5 0.4-0.7 0.6-1.4 1.1-2.8 2.3-4.2 3.5-0.3 0.3-0.7 0.6-1 0.9-1.2 1-2.3 2-3.5 3-0.2 0.2-0.4 0.3-0.6 0.5-0.1 0.1-0.2 0.2-0.3 0.2-1.3 1.2-2.6 2.3-3.8 3.5l-0.8 0.8c-1 1-2 2-3 2.9l-1.1 1.1c-1 1.1-2.1 2.1-3.1 3.2l-0.6 0.6c-1.2 1.3-2.4 2.6-3.5 3.9l-0.3 0.3c-0.2 0.2-0.4 0.5-0.6 0.7-0.9 1-1.8 2-2.6 3-0.3 0.4-0.7 0.8-1 1.2-1.1 1.3-2.2 2.7-3.3 4.1-1.1 1.4-2.1 2.8-3.2 4.2l-0.9 1.2-2.4 3.3c-0.2 0.3-0.4 0.5-0.5 0.8-0.1 0.1-0.2 0.2-0.3 0.4-1 1.5-2.1 3-3.1 4.5l-0.6 0.9c-0.8 1.3-1.7 2.6-2.5 3.9-0.3 0.4-0.5 0.8-0.8 1.2-1 1.6-1.9 3.2-2.8 4.8-0.1 0.2-0.2 0.3-0.3 0.5-0.8 1.5-1.7 3-2.5 4.4-0.1 0.2-0.2 0.4-0.4 0.7-0.2 0.4-0.4 0.7-0.6 1.1-0.2 0.5-0.5 0.9-0.7 1.4l-1.2 2.4c-0.2 0.4-0.4 0.9-0.6 1.3-0.5 0.9-0.9 1.9-1.4 2.9-0.1 0.3-0.3 0.5-0.4 0.8-0.6 1.2-1.1 2.5-1.7 3.7-0.1 0.3-0.3 0.7-0.4 1l-1.2 2.7c-0.2 0.5-0.4 0.9-0.6 1.4-0.3 0.8-0.7 1.6-1 2.4l-0.6 1.5-0.9 2.4-0.6 1.5c-0.1 0.2-0.2 0.5-0.3 0.7-0.2 0.5-0.3 1-0.5 1.4-0.2 0.7-0.5 1.3-0.7 2-0.2 0.7-0.5 1.4-0.7 2.1-0.2 0.7-0.4 1.3-0.7 2-0.2 0.7-0.5 1.4-0.7 2.1-0.2 0.7-0.4 1.3-0.6 2-0.2 0.7-0.4 1.4-0.6 2.2-0.2 0.7-0.4 1.3-0.6 2-0.2 0.7-0.4 1.5-0.6 2.2-0.2 0.7-0.4 1.3-0.5 2-0.2 0.7-0.4 1.5-0.5 2.2-0.2 0.7-0.3 1.3-0.5 2s-0.3 1.5-0.5 2.2c-0.1 0.7-0.3 1.3-0.4 2-0.2 0.8-0.3 1.5-0.5 2.3-0.1 0.7-0.3 1.3-0.4 2-0.1 0.8-0.3 1.5-0.4 2.3-0.1 0.7-0.2 1.3-0.3 2-0.1 0.8-0.2 1.5-0.4 2.3-0.1 0.7-0.2 1.3-0.3 2l-0.3 2.4c-0.1 0.7-0.2 1.3-0.3 2l-0.3 2.4c-0.1 0.7-0.1 1.3-0.2 2-0.1 0.8-0.1 1.7-0.2 2.5-0.1 0.6-0.1 1.3-0.2 1.9-0.1 0.9-0.1 1.7-0.2 2.6 0 0.6-0.1 1.2-0.1 1.8 0 1-0.1 2-0.1 3 0 0.5 0 1-0.1 1.4 0 1.5-0.1 2.9-0.1 4.4l-0.5 260.4c-0.2 94.2 45.8 171 114.7 208.5L471 942.9c-68.5-38-114.4-114.7-114.3-208.9l0.5-260.4c0-1.5 0-2.9 0.1-4.4 0-0.5 0-1 0.1-1.4 0-1 0.1-2 0.1-3 0-0.6 0.1-1.2 0.1-1.8 0.1-0.9 0.1-1.7 0.2-2.6 0-0.6 0.1-1.3 0.2-1.9 0.1-0.8 0.1-1.7 0.2-2.5 0.1-0.7 0.1-1.3 0.2-2l0.3-2.4c0.1-0.7 0.2-1.3 0.3-2l0.3-2.4c0.1-0.7 0.2-1.3 0.3-2 0.1-0.8 0.2-1.6 0.4-2.3 0.1-0.7 0.2-1.3 0.3-2 0.1-0.8 0.3-1.5 0.4-2.3 0.1-0.7 0.3-1.3 0.4-2 0.1-0.8 0.3-1.5 0.5-2.3 0.1-0.7 0.3-1.3 0.4-2 0.2-0.7 0.3-1.5 0.5-2.2 0.2-0.7 0.3-1.3 0.5-2s0.4-1.5 0.5-2.2c0.2-0.7 0.4-1.3 0.5-2 0.2-0.7 0.4-1.5 0.6-2.2 0.2-0.7 0.4-1.3 0.6-2 0.2-0.7 0.4-1.4 0.6-2.2 0.2-0.7 0.4-1.3 0.6-2 0.2-0.7 0.4-1.4 0.7-2.2 0.2-0.7 0.4-1.3 0.7-2 0.2-0.7 0.5-1.4 0.7-2.1 0.2-0.7 0.5-1.3 0.7-2 0.3-0.7 0.5-1.5 0.8-2.2l0.6-1.5 0.9-2.4 0.6-1.5c0.3-0.8 0.7-1.6 1-2.4 0.2-0.5 0.4-0.9 0.6-1.4l1.2-2.7c0.1-0.3 0.3-0.7 0.4-1 0.6-1.2 1.1-2.5 1.7-3.7 0.1-0.3 0.3-0.5 0.4-0.8 0.5-1 0.9-1.9 1.4-2.9 0.2-0.4 0.4-0.8 0.6-1.3l1.2-2.4c0.2-0.5 0.5-0.9 0.7-1.4 0.3-0.6 0.6-1.2 1-1.8 0.8-1.5 1.6-3 2.5-4.4 0.1-0.2 0.2-0.3 0.3-0.5 0.9-1.6 1.9-3.2 2.8-4.8 0.3-0.4 0.5-0.8 0.8-1.2 0.8-1.3 1.6-2.6 2.5-3.9l0.6-0.9c1-1.5 2-3 3.1-4.5 0.3-0.4 0.5-0.8 0.8-1.1l2.4-3.3 0.9-1.2c1.1-1.4 2.1-2.8 3.2-4.2 1.1-1.4 2.2-2.7 3.3-4.1 0.3-0.4 0.7-0.8 1-1.2 0.9-1 1.7-2 2.6-3 0.3-0.4 0.6-0.7 0.9-1.1 1.2-1.3 2.3-2.6 3.5-3.9l0.6-0.6c1-1.1 2-2.1 3.1-3.2l1.1-1.1c1-1 2-2 3-2.9l0.8-0.8c1.3-1.2 2.5-2.4 3.8-3.5 0.3-0.3 0.6-0.5 0.9-0.8 1.1-1 2.3-2 3.5-3 0.3-0.3 0.7-0.6 1-0.9 1.4-1.2 2.8-2.3 4.2-3.5 0.2-0.2 0.5-0.4 0.8-0.6 1.2-1 2.5-1.9 3.7-2.8 0.4-0.3 0.7-0.6 1.1-0.8 1.5-1.1 2.9-2.1 4.4-3.2 1.1-0.8 2.2-1.5 3.3-2.2 0.1-0.1 0.2-0.1 0.3-0.2 1-0.7 2-1.3 3-2 0.4-0.2 0.8-0.5 1.1-0.7 0.7-0.5 1.5-0.9 2.3-1.4 0.4-0.3 0.9-0.5 1.4-0.8l2.1-1.2c0.5-0.3 1-0.5 1.4-0.8 0.7-0.4 1.4-0.8 2.1-1.1 0.5-0.3 1-0.5 1.5-0.8 0.7-0.4 1.4-0.7 2.1-1.1 0.5-0.3 1-0.5 1.5-0.8 0.7-0.4 1.4-0.7 2.1-1 0.5-0.2 1-0.5 1.5-0.7 1.1-0.5 2.1-1 3.2-1.5 0 0 0.1 0 0.1-0.1 1.1-0.5 2.3-1 3.4-1.5 0.3-0.1 0.7-0.3 1-0.4 0.9-0.4 1.8-0.7 2.6-1.1 0.3-0.1 0.6-0.2 0.9-0.4 1.2-0.4 2.3-0.9 3.5-1.3 0.2-0.1 0.3-0.1 0.5-0.2 1-0.4 2-0.7 3-1.1 0.3-0.1 0.7-0.2 1-0.3 0.9-0.3 1.9-0.6 2.8-0.9 0.3-0.1 0.6-0.2 0.8-0.3 1.2-0.4 2.4-0.7 3.5-1 0.3-0.1 0.5-0.1 0.8-0.2 1-0.3 1.9-0.5 2.9-0.8 0.4-0.1 0.7-0.2 1.1-0.3 1-0.3 2-0.5 3.1-0.7 0.2 0 0.4-0.1 0.6-0.1 1.2-0.3 2.4-0.5 3.6-0.8 0.3-0.1 0.6-0.1 1-0.2 0.9-0.2 1.9-0.3 2.8-0.5 0.4-0.1 0.7-0.1 1.1-0.2 1.2-0.2 2.5-0.4 3.7-0.6l68.3-9.6 35.6-5 68.2-9.6c1.1-0.2 2.2-0.3 3.3-0.4-0.2 0.6 0.1 0.6 0.5 0.6z" fill="#FFA300" p-id="2423"></path><path d="M689.7 254c88.1-12.4 160 55.3 159.8 150.3l-0.5 260.5c-0.2 146.1-111.2 281.2-246.6 300.3-135.4 19-246-85-245.7-231.1l0.5-260.4c0.2-95.1 72.4-183 160.4-195.3l68.3-9.6 35.6-5 68.2-9.7z m63.8 515.7c4.9-9.8 2.1-21.2-6.4-25.3-2.8-1.4-5.9-1.8-8.9-1.3-6.1 0.9-12.1 5.1-15.4 11.8-12 24.1-29.3 45.2-49.9 61.2-21.2 16.5-45.5 27-70.3 30.5-24.7 3.5-49-0.3-70.2-10.8-20.5-10.3-37.8-26.6-49.7-47.2-3.3-5.7-9.2-8.3-15.3-7.4-3 0.4-6.1 1.7-8.9 3.8-8.6 6.5-11.4 18.6-6.5 27.1 15 25.9 36.5 46.4 62.4 59.2 26.6 13.3 57.1 17.9 88.2 13.5 31.2-4.4 61.7-17.7 88.3-38.3 25.9-20 47.5-46.6 62.6-76.8M561.4 398.6l-0.1 69.8c0 25 18.9 42.8 42 39.5s42.1-26.3 42.2-51.3l0.1-69.9c0-25-18.9-42.8-42-39.5-23.2 3.3-42.2 26.5-42.2 51.4" fill="#FDF17F" p-id="2424"></path><path d="M585.9 268.6l-182.3-99.2v-28L586 240.6z" fill="#AA0404" p-id="2425"></path><path d="M520.7 211.3l-182.3-99.2 100.9-14.2 182.3 99.2z" fill="#D30032" p-id="2426"></path><path d="M520.8 169.8l-0.1 41.5 100.9-14.2-0.1 66.5-35.6 5 0.1-28-101 14.1 0.2-79.9z" fill="#F77490" p-id="2427"></path><path d="M485 254.7l-182.3-99.2 0.1-79.9 182.4 99.2z" fill="#AA0404" p-id="2428"></path><path d="M485.2 174.8L302.8 75.6l35.6-5 182.4 99.2z" fill="#D30032" p-id="2429"></path></svg>