<?xml version="1.0" standalone="no"?><!DOCTYPE svg PUBLIC "-//W3C//DTD SVG 1.1//EN" "http://www.w3.org/Graphics/SVG/1.1/DTD/svg11.dtd"><svg t="1765879618665" class="icon" viewBox="0 0 1024 1024" version="1.1" xmlns="http://www.w3.org/2000/svg" p-id="33553" xmlns:xlink="http://www.w3.org/1999/xlink" width="128" height="128"><path d="M473.728 421.052h-5.749a168.525 168.525 0 0 0 3.915 4.194h4.246c-0.811-1.393-1.638-2.777-2.412-4.194zM460.001 398.614h3.463a175.646 175.646 0 0 1-1.724-4.855 103.615 103.615 0 0 1-1.739 4.855zM256.477 389.352a92.981 92.981 0 0 0 15.563 21.165 102.969 102.969 0 0 1-9.29-23.878 510.284 510.284 0 0 0-6.273 2.713z" fill="#ECDEFF" p-id="33554"></path><path d="M792.621 405.416a177.39 177.39 0 0 1-31.782 49.7c3.264 10.286 2.702 21.932-3.035 32.736L651.107 695.897l-46.292 80.062-48.058 90.503c-7.93 14.933-26.658 17.847-38.85 8.8-2.622 0.576-5.306 0.956-8.062 0.956h-0.002a37.408 37.408 0 0 1-33.106-19.906l-201.049-378.61c-6.438-12.125-7.94-25.783-4.625-38.582a115.665 115.665 0 0 1-34.903-40.233C130.002 451.658 61.563 534.581 61.563 627.851c0 159.425 199.896 288.665 446.48 288.665s446.48-129.24 446.48-288.665c0.001-89.503-63.007-169.487-161.902-222.435z" fill="#ECDEFF" p-id="33555"></path><path d="M305.962 456.153a114.006 114.006 0 0 1-14.095-5.128 31.276 31.276 0 0 0 3.64 16.152l201.049 378.61a14.933 14.933 0 0 0 6.1 6.171L309.309 487.853c-5.545-10.444-6.252-21.672-3.347-31.7z" fill="#ECDEFF" p-id="33556"></path><path d="M515.366 200.541a83.931 83.931 0 0 1 1.673 16.703c0 38.2-25.637 70.39-60.636 80.364a176.447 176.447 0 0 0-2.447 13.36c8.279 14.896 13.011 32.035 13.011 50.286 0 11.358-1.852 22.278-5.228 32.505 0.558 1.627 1.12 3.25 1.724 4.855h232.988c10.862 0 21.129 3.176 29.774 8.923 19.775-27.328 31.476-60.863 31.476-97.097 0-63.807-36.2-119.287-89.122-147.076-12.613-2.848-25.717-4.401-39.191-4.401-43.433-0.001-83.197 15.646-114.022 41.578z m151.738-27.675c5.893 0 10.669 4.777 10.669 10.67s-4.777 10.67-10.669 10.67c-5.893 0-10.669-4.777-10.669-10.67s4.777-10.67 10.669-10.67z m-12.521 12.568c-0.625 6.167-6.134 10.64-12.293 10.033a139.573 139.573 0 0 0-14.083-0.711c-31.888 0-62.966 11.156-87.509 31.413a11.177 11.177 0 0 1-7.136 2.567c-3.234 0-6.441-1.39-8.658-4.079-3.944-4.777-3.268-11.848 1.51-15.792 28.555-23.568 64.705-36.546 101.793-36.546 5.453 0 10.951 0.279 16.346 0.823 6.166 0.625 10.657 6.128 10.03 12.292z" fill="#FF43AA" p-id="33557"></path><path d="M742.058 423.884c0.174 0.279 0.364 0.544 0.534 0.827a54.736 54.736 0 0 1 4.824 10.366 43.257 43.257 0 0 1 13.423 20.039 177.376 177.376 0 0 0 31.782-49.7c9.025-21.262 14.022-44.647 14.022-69.2 0-52.94-23.237-100.426-60.035-132.906 21.115 30.444 33.532 67.356 33.532 107.129 0 42.562-14.197 81.86-38.082 113.445zM540.09 425.246h171.351l0.256-0.269a31.338 31.338 0 0 0-15.246-3.925H473.728c0.774 1.417 1.6 2.801 2.412 4.194h63.95z" fill="#FF43AA" p-id="33558"></path><path d="M667.104 183.536m-10.67 0a10.67 10.67 0 1 0 21.34 0 10.67 10.67 0 1 0-21.34 0Z" fill="#FFFFFF" p-id="33559"></path><path d="M526.415 208.864c-4.778 3.944-5.455 11.016-1.51 15.792a11.19 11.19 0 0 0 8.658 4.079c2.515 0 5.044-0.842 7.136-2.567 24.543-20.256 55.621-31.413 87.509-31.413 4.7 0 9.438 0.238 14.083 0.711 6.159 0.607 11.668-3.866 12.293-10.033 0.626-6.164-3.864-11.667-10.029-12.293a163.27 163.27 0 0 0-16.346-0.823c-37.089 0.001-73.24 12.979-101.794 36.547z" fill="#FFFFFF" p-id="33560"></path><path d="M259.606 361.253c0 8.76 1.098 17.261 3.143 25.386a103.03 103.03 0 0 0 9.29 23.878 93.255 93.255 0 0 0 9.215 8.221c10.144-12.715 25.371-20.124 41.983-20.124h90.651c10.451-14.978 16.605-33.166 16.605-52.774 0-16.94-4.6-32.817-12.586-46.486a83.033 83.033 0 0 1-11.72-3.108c-18.574-0.462-35.843-6.268-50.302-15.97-1.121 4.692-5.315 8.191-10.351 8.191-5.893 0-10.669-4.777-10.669-10.67 0-4.33 2.591-8.04 6.298-9.712a95.4 95.4 0 0 1-5.968-6.629c-43.606 12.252-75.589 52.276-75.589 99.797z m51.652-80.301c5.286-3.237 12.191-1.578 15.428 3.703 3.238 5.284 1.581 12.189-3.702 15.429-14.382 8.815-25.323 22.413-30.805 38.287-2.628 7.613-3.961 15.601-3.961 23.746 0 6.195-5.023 11.219-11.219 11.219s-11.219-5.024-11.219-11.219c0-10.643 1.747-21.095 5.192-31.071 7.175-20.776 21.482-38.565 40.286-50.094zM385.334 425.246a92.812 92.812 0 0 0 6.378-4.194h-68.475c-8.616 0-16.567 3.447-22.389 9.418a91.631 91.631 0 0 0 17.567 5.719c7.392-6.709 17.244-10.942 28.534-10.942h38.385zM466.967 361.253c0-18.251-4.732-35.39-13.011-50.286a103.789 103.789 0 0 0-7.203-11.209 82.998 82.998 0 0 1-3.298 0.448 114.214 114.214 0 0 1 9.475 45.634c0 19.02-4.673 36.958-12.888 52.774H460a103.506 103.506 0 0 0 6.967-37.361zM447.959 421.052h-23.175a115.881 115.881 0 0 1-3.825 4.194h23.871a105.17 105.17 0 0 0 3.129-4.194z" fill="#BF88FF" p-id="33561"></path><path d="M271.063 439.119c-3.314 12.799-1.812 26.457 4.625 38.582l201.049 378.61a37.408 37.408 0 0 0 33.106 19.906h0.002c2.756 0 5.44-0.38 8.062-0.956 10.57-2.323 19.761-9.062 24.997-18.856l94.308-170.489 106.79-208.215c7.12-13.411 8.215-28.699 3.413-42.623a54.646 54.646 0 0 0-4.824-10.366c-0.17-0.283-0.359-0.548-0.534-0.827 23.885-31.585 38.082-70.883 38.082-113.445 0-39.774-12.417-76.685-33.532-107.129-34.056-49.103-90.791-81.343-154.941-81.343-37.643 0-72.713 11.136-102.174 30.224-16.67-27.252-46.708-45.478-80.925-45.478-52.271 0-94.798 42.525-94.798 94.798a94.341 94.341 0 0 0 5.244 31.034c-54.333 9.092-95.882 56.421-95.882 113.295 0 19.129 4.724 37.165 13.028 53.046a115.692 115.692 0 0 0 34.904 40.232z m453.048 28.199l-106.618 207.89-94.264 170.411-0.092 0.169c-2.656 5.005-7.625 7.992-13.291 7.992-2.6 0-5.039-0.656-7.19-1.821a14.921 14.921 0 0 1-6.1-6.171l-201.049-378.61a31.274 31.274 0 0 1-3.64-16.152 114.065 114.065 0 0 0 14.095 5.128 43.284 43.284 0 0 1 12.454-19.965 91.586 91.586 0 0 1-17.567-5.719c5.822-5.97 13.773-9.418 22.389-9.418h68.475a92.812 92.812 0 0 1-6.378 4.194h35.625a115.881 115.881 0 0 0 3.825-4.194h23.175a105.17 105.17 0 0 1-3.129 4.194h27.064a168.525 168.525 0 0 1-3.915-4.194h228.472a31.335 31.335 0 0 1 15.246 3.925l-0.256 0.269h0.728a31.339 31.339 0 0 1 11.193 11.025c5.73 9.532 6.036 21.086 0.748 31.047zM408.568 129.151a71.99 71.99 0 0 1 25.165 4.521 71.948 71.948 0 0 1 10.079 4.676 72.82 72.82 0 0 1 16.041 12.171c13.017 13.091 21.075 31.117 21.075 50.992 0 39.899-32.461 72.357-72.36 72.357-19.667 0-37.517-7.897-50.573-20.673a82.938 82.938 0 0 1-6.839-21.481 115.307 115.307 0 0 0-8.615-0.658 71.91 71.91 0 0 1-6.333-29.545c0-39.899 32.461-72.36 72.36-72.36zM329.54 253.786a95.133 95.133 0 0 0 5.654 7.67 95.4 95.4 0 0 0 5.968 6.629 10.596 10.596 0 0 1 4.372-0.957c5.893 0 10.669 4.777 10.669 10.669 0 0.858-0.128 1.68-0.319 2.479 14.459 9.703 31.728 15.509 50.302 15.97 0.794 0.02 1.583 0.06 2.381 0.06 52.271 0 94.798-42.525 94.798-94.795a94.185 94.185 0 0 0-10.238-42.77 83.93 83.93 0 0 1 9.542 11.64c25.744-16.417 56.266-25.976 88.997-25.976 27.745 0 53.901 6.876 76.913 18.959 52.922 27.788 89.122 83.268 89.122 147.076 0 36.235-11.701 69.77-31.476 97.097-8.646-5.747-18.912-8.923-29.774-8.923H440.043a114.158 114.158 0 0 0 12.888-52.774c0-16.21-3.392-31.636-9.475-45.634-3.28 0.391-6.61 0.616-9.995 0.616a83.903 83.903 0 0 1-15.554-1.468c7.986 13.668 12.586 29.545 12.586 46.486 0 19.608-6.153 37.796-16.605 52.774h-90.651c-16.612 0-31.838 7.409-41.983 20.124a92.96 92.96 0 0 1-24.778-29.386 91.873 91.873 0 0 1-10.907-43.512c0.001-48.119 36.955-87.751 83.971-92.054z" fill="#231815" p-id="33562"></path><path d="M265.779 362.118c0 6.195 5.023 11.219 11.219 11.219s11.219-5.024 11.219-11.219a72.616 72.616 0 0 1 3.961-23.746c5.483-15.874 16.423-29.472 30.805-38.287 5.282-3.24 6.94-10.145 3.702-15.429-3.237-5.281-10.142-6.94-15.428-3.703-18.804 11.529-33.111 29.318-40.287 50.094-3.444 9.975-5.191 20.428-5.191 31.071z" fill="#FFFFFF" p-id="33563"></path><path d="M349.882 217.244c0 4.938 0.453 9.768 1.274 14.471a83.014 83.014 0 0 0 6.839 21.481c13.056 12.776 30.906 20.673 50.573 20.673 39.899 0 72.36-32.458 72.36-72.357 0-19.875-8.058-37.901-21.075-50.992-1.401 4.259-5.363 7.354-10.091 7.354-4.965 0-9.101-3.408-10.291-8-0.409 5.823-5.212 10.437-11.14 10.437-3.651 0-7.306 0.369-10.865 1.096-16.336 3.34-30.423 14.349-37.68 29.447-3.504 7.29-5.281 15.122-5.281 23.283 0 6.195-5.023 11.219-11.219 11.219s-11.219-5.024-11.219-11.219c0-11.554 2.521-22.657 7.497-33.006 10.274-21.377 30.24-36.969 53.409-41.708a76.814 76.814 0 0 1 15.357-1.549c5.251 0 9.624 3.623 10.847 8.493 0.264-3.335 2.01-6.25 4.635-8.017a72.168 72.168 0 0 0-10.079-4.676c-0.091 0-0.181-0.007-0.273-0.007-46.159-0.002-83.578 37.417-83.578 83.577z" fill="#7C3800" p-id="33564"></path><path d="M433.461 300.822c3.385 0 6.715-0.225 9.995-0.616a85.152 85.152 0 0 0 3.298-0.448 82.911 82.911 0 0 0 9.65-2.151c34.999-9.974 60.636-42.164 60.636-80.364 0-5.72-0.578-11.305-1.673-16.703a83.12 83.12 0 0 0-12.696-30.16 83.988 83.988 0 0 0-9.542-11.64 94.185 94.185 0 0 1 10.238 42.77c0 52.27-42.527 94.795-94.798 94.795-0.798 0-1.587-0.041-2.381-0.06a82.961 82.961 0 0 0 11.72 3.108 83.799 83.799 0 0 0 15.553 1.469z" fill="#7C3800" p-id="33565"></path><path d="M439.178 146.365c-1.223-4.871-5.596-8.493-10.847-8.493-5.154 0-10.319 0.52-15.357 1.549-23.169 4.739-43.136 20.331-53.409 41.708-4.976 10.349-7.497 21.452-7.497 33.006 0 6.195 5.023 11.219 11.219 11.219s11.219-5.024 11.219-11.219c0-8.161 1.776-15.993 5.281-23.283 7.256-15.097 21.344-26.107 37.68-29.447a54.472 54.472 0 0 1 10.865-1.096c5.929 0 10.731-4.614 11.14-10.437 1.191 4.593 5.326 8 10.291 8 4.727 0 8.69-3.095 10.091-7.354a72.82 72.82 0 0 0-16.041-12.171c-2.625 1.768-4.371 4.684-4.635 8.018z" fill="#FFFFFF" p-id="33566"></path><path d="M712.169 425.246H346.95c-11.29 0-21.142 4.233-28.534 10.942a43.3 43.3 0 0 0-12.454 19.965c-2.905 10.028-2.198 21.256 3.347 31.699l193.346 364.105a15.017 15.017 0 0 0 7.19 1.821c5.666 0 10.635-2.986 13.291-7.992l0.092-0.169 94.264-170.411 106.618-207.89c5.289-9.961 4.982-21.515-0.748-31.046a31.344 31.344 0 0 0-11.193-11.024zM497.058 672.245h-74.99c-8.45 0-15.3-6.85-15.3-15.3s6.85-15.3 15.3-15.3h74.99c8.45 0 15.3 6.85 15.3 15.3s-6.85 15.3-15.3 15.3z m12.183-61.155H388.76c-8.45 0-15.3-6.851-15.3-15.301s6.85-15.3 15.3-15.3h120.481c8.45 0 15.3 6.85 15.3 15.3 0 8.45-6.85 15.301-15.3 15.301z m8.315-60.635H355.424c-8.45 0-15.3-6.85-15.3-15.3 0-8.45 6.85-15.3 15.3-15.3h162.132c8.45 0 15.3 6.85 15.3 15.3 0 8.449-6.85 15.3-15.3 15.3zM747.416 435.078c4.802 13.925 3.707 29.212-3.413 42.623l-106.79 208.215-94.308 170.489c-5.236 9.794-14.426 16.533-24.997 18.856 12.191 9.047 30.92 6.133 38.85-8.8l48.058-90.503 46.292-80.062 106.697-208.044c5.737-10.805 6.299-22.45 3.035-32.736a43.271 43.271 0 0 0-13.424-20.038z" fill="#FFE05C" p-id="33567"></path><path d="M517.556 519.854H355.424c-8.45 0-15.3 6.85-15.3 15.3 0 8.45 6.85 15.3 15.3 15.3h162.132c8.45 0 15.3-6.85 15.3-15.3 0-8.45-6.85-15.3-15.3-15.3zM509.241 580.489H388.76c-8.45 0-15.3 6.85-15.3 15.3 0 8.45 6.85 15.301 15.3 15.301h120.481c8.45 0 15.3-6.851 15.3-15.301s-6.85-15.3-15.3-15.3zM497.058 641.645h-74.99c-8.45 0-15.3 6.85-15.3 15.3s6.85 15.3 15.3 15.3h74.99c8.45 0 15.3-6.85 15.3-15.3s-6.85-15.3-15.3-15.3z" fill="#D8AE00" p-id="33568"></path><path d="M334.864 277.797c0 5.893 4.777 10.67 10.669 10.67 5.035 0 9.229-3.499 10.351-8.191 0.191-0.799 0.319-1.621 0.319-2.479 0-5.892-4.777-10.669-10.669-10.669-1.562 0-3.035 0.354-4.372 0.957-3.707 1.671-6.298 5.381-6.298 9.712z" fill="#FFFFFF" p-id="33569"></path></svg>