<?xml version="1.0" standalone="no"?><!DOCTYPE svg PUBLIC "-//W3C//DTD SVG 1.1//EN" "http://www.w3.org/Graphics/SVG/1.1/DTD/svg11.dtd"><svg t="1765988899152" class="icon" viewBox="0 0 1024 1024" version="1.1" xmlns="http://www.w3.org/2000/svg" p-id="4301" xmlns:xlink="http://www.w3.org/1999/xlink" width="128" height="128"><path d="M505 41.22c-30.05 0-56.63 13-87.29 32.45l-0.75 0.48-0.73 0.51c-4.67 3.26-115.33 81-201.16 171.92C121.92 345.3 67.39 441.93 64.3 447.46 51.6 470 45.25 481.9 42 493.68c-5.47 19.7-0.19 33.79 3.31 43.12 1 2.66 1.94 5.18 2.91 8.36l0.36 1.16 0.43 1.14L182.51 905a105.7 105.7 0 0 0 100.68 73.52h441.16a105.7 105.7 0 0 0 100.52-73L968.2 548.37l0.63-1.58 0.5-1.63c4-13.24 7.49-29.32 2.31-48.17-3.57-13-10.14-23.9-19.24-39-2.79-4.63-5.95-9.87-9.44-15.86-2.29-3.91-57.24-97-152-194.85C698.47 151.71 596 78 591.64 74.91l-0.13-0.1-0.13-0.09c-15.69-11-29-18.68-41.92-24.07-15.21-6.34-29.74-9.43-44.44-9.43z" fill="#4A4A4A" p-id="4302"></path><path d="M439.18 107.43s-111 77.6-195 166.6c-91.57 97-145 193-145 193-26.94 47.75-20.72 40.31-12.73 66.44L220.36 892a65.7 65.7 0 0 0 62.83 46.5h441.16a65.7 65.7 0 0 0 62.83-46.5l143.9-358.56c8-26.13 1.11-30.44-22.67-71.19 0 0-53.72-91.69-146.23-187.25-91-94-193.83-167.6-193.83-167.6-53.16-37.4-78.16-32.4-129.17 0.03z" fill="#9EE59C" p-id="4303"></path><path d="M234.83 917.3l59.73-7.9a10.72 10.72 0 0 0 9.23-12l-60.53-457.77a36.94 36.94 0 0 0-14.49-24.73l-24.36-18.23a15.9 15.9 0 0 0-22 2.91L160.3 427.7a24.3 24.3 0 0 0-5 18.19L211 867l9.34 25a65.55 65.55 0 0 0 14.49 25.3z" fill="#FFBB14" p-id="4304"></path><path d="M294.57 909.4a10.73 10.73 0 0 0 9.23-12l-60.54-457.77a36.94 36.94 0 0 0-14.49-24.73l-24.36-18.23a15.86 15.86 0 0 0-11.61-3l68.78 520.14z" fill="#FFE255" p-id="4305"></path><path d="M603.85 770.95l-120 4c-10.68 0.36-19.54-5.22-19.78-12.45L445 192.1c-0.27-8 4.23-15.8 12.49-21.67l45.09-32.06c10.9-7.75 28.7-8.34 40.1-1.34l40.12 24.66c13.11 8.06 20.73 19.45 21.14 31.6l18.81 563.91c0.25 7.24-8.22 13.39-18.9 13.75z" fill="#FFBB14" p-id="4306"></path><path d="M603.85 770.95c10.68-0.36 19.15-6.51 18.91-13.75l-18.85-563.91c-0.41-12.15-8-23.54-21.14-31.6L542.66 137c-5.7-3.5-13-5.1-20.23-4.86L543.83 773z" fill="#FFE255" p-id="4307"></path><path d="M488.27 879.85l-105 5.06c-9.34 0.45-17.2-5.09-17.55-12.37l-27.66-574c-0.39-8 3.4-15.94 10.51-21.92l38.84-32.65c9.39-7.89 25-8.64 35.06-1.69l35.58 24.49c11.63 8 18.51 19.4 19.1 31.63l27.34 567.51c0.41 7.22-6.87 13.49-16.22 13.94z" fill="#FFBB14" p-id="4308"></path><path d="M488.27 879.85c9.34-0.45 16.63-6.72 16.28-14l-27.34-567.51c-0.59-12.22-7.48-23.62-19.1-31.63l-35.58-24.49a29.12 29.12 0 0 0-17.8-4.72l31.07 644.87z" fill="#FFE255" p-id="4309"></path><path d="M632.81 826.4l-111.42-17.63c-9.92-1.57-17.17-7.8-16.2-13.92l76.34-482.39c1.07-6.76 6.51-12.53 15.09-16l46.89-19c11.33-4.6 27.86-2 37.22 5.89l33 27.73c10.77 9.06 15.93 20 14.3 30.23l-75.51 476.86c-0.96 6.12-9.79 9.83-19.71 8.23z" fill="#FFBB14" p-id="4310"></path><path d="M632.81 826.4c9.92 1.57 18.74-2.12 19.71-8.24L728 341.28c1.63-10.27-3.53-21.17-14.3-30.23l-33-27.73c-4.68-3.94-11.15-6.56-17.87-7.62L577.1 817.59z" fill="#FFE255" p-id="4311"></path><path d="M768.89 870.24l-81.32-0.15c-7.24 0-13.1-4.82-13.09-10.74l0.85-466.78c0-6.54 3.25-12.8 9-17.35l31.29-24.91c7.56-6 19.63-6 27.17 0l26.56 21.3c8.68 7 13.56 16.49 13.54 26.43L782 859.55c0 5.92-5.87 10.71-13.11 10.69z" fill="#FFBB14" p-id="4312"></path><path d="M768.89 870.24c7.24 0 13.11-4.78 13.13-10.7l0.84-461.46c0-9.94-4.86-19.47-13.54-26.43l-26.56-21.3a21.83 21.83 0 0 0-13.58-4.55l-1 524.37z" fill="#FFE255" p-id="4313"></path><path d="M370 921.12l-92.48-0.17c-8.23 0-14.89-5-14.88-11.07l0.85-480.88c0-6.74 3.69-13.18 10.2-17.88l35.58-25.66c8.6-6.2 22.32-6.18 30.89 0.06l30.2 22c9.87 7.17 15.42 17 15.41 27.23l-0.87 475.35c-0.01 6.1-6.69 11.03-14.9 11.02z" fill="#FFBB14" p-id="4314"></path><path d="M370 921.12c8.23 0 14.91-4.92 14.92-11l0.86-475.37c0-10.24-5.54-20.05-15.4-27.23l-30.2-22a26.55 26.55 0 0 0-15.44-4.69l-1 540.17z" fill="#FFE255" p-id="4315"></path><path d="M720.61 904.8l-62.94-21.63a10.73 10.73 0 0 1-6.67-13.63l151.8-441.69a24.3 24.3 0 0 1 12.57-14.06l32.3-15.32a15.9 15.9 0 0 1 21 7.23l13.67 27.19a36.94 36.94 0 0 1 1.93 28.6L734.24 898.14a10.73 10.73 0 0 1-13.63 6.66z" fill="#FFBB14" p-id="4316"></path><path d="M720.61 904.8a10.73 10.73 0 0 0 13.63-6.66l150.05-436.66a36.94 36.94 0 0 0-1.93-28.6l-13.67-27.18a15.86 15.86 0 0 0-9-7.9L689.14 894z" fill="#FFE255" p-id="4317"></path><path d="M86.46 533.47L220.36 892a65.7 65.7 0 0 0 62.83 46.5h441.16a65.7 65.7 0 0 0 62.83-46.5l143.9-358.56S782.19 635 504.19 635c-274 0-417.73-101.53-417.73-101.53z" fill="#2BD670" p-id="4318"></path><path d="M86.46 533.47L220.36 892c8.44 27.63 27.83 52 103.83 46.5L178.58 579z" fill="#A0FFA4" p-id="4319"></path><path d="M180.93 786.44L220.36 892c8.44 27.63 27.83 52 103.83 46.5l-56.58-139.65z" fill="#52FFD2" p-id="4320"></path><path d="M86.46 533.47l50.02 133.95 84.56 16.45-42.46-104.85-92.12-45.55z" fill="#E1FF7F" p-id="4321"></path><path d="M258.68 933.78a65.55 65.55 0 0 0 24.51 4.75h441.16a65.58 65.58 0 0 0 23.31-4.27C714.59 904.57 639.06 855 503.19 855c-137.19 0-211.86 49-244.51 78.78z" fill="#1BB258" p-id="4322"></path><path d="M787.18 744a15 15 0 0 1-13.41-21.71c0.26-0.53 26.47-53.14 36-87.31a15 15 0 1 1 28.91 8c-10.27 37-36.91 90.44-38 92.69a15 15 0 0 1-13.5 8.33z" fill="#FFFFFF" p-id="4323"></path><path d="M769.69 776.53m-18.5 0a18.5 18.5 0 1 0 37 0 18.5 18.5 0 1 0-37 0Z" fill="#FFFFFF" p-id="4324"></path></svg>