<?xml version="1.0" standalone="no"?><!DOCTYPE svg PUBLIC "-//W3C//DTD SVG 1.1//EN" "http://www.w3.org/Graphics/SVG/1.1/DTD/svg11.dtd"><svg t="1765988846403" class="icon" viewBox="0 0 1024 1024" version="1.1" xmlns="http://www.w3.org/2000/svg" p-id="1877" xmlns:xlink="http://www.w3.org/1999/xlink" width="128" height="128"><path d="M514.41 67c-5.56 0-18.57 0-88.4 19.23-43.23 11.91-94.25 27.47-140 42.69-38.4 12.78-93 32-135.26 50.81C130 189 114.21 197.26 102.46 205a103.4 103.4 0 0 0-19.2 15.72C71 233.95 68.41 247.21 68.41 256v136a85.5 85.5 0 0 0 5.08 29 80.64 80.64 0 0 0-5.08 28c0 7-0.26 14.85-0.53 23.12-0.73 22.16-1.47 44.92 1.94 65.45A47.22 47.22 0 0 0 68.41 549v141.11a76.21 76.21 0 0 0 35.46 64.41c32.8 20.76 118.06 74.17 201.08 121.57C448.33 958 491.29 969 514.41 969s66.21-11.19 209.94-94.16c83.23-48 168.74-102.19 201.64-123.24a76.47 76.47 0 0 0 35.41-64.7V549a40.09 40.09 0 0 0-1.09-9.3c2-13.85 1.71-29.87 1.36-48.46-0.13-7-0.27-14.15-0.27-21.24 0-18.66-1.75-35.35-5.22-49.89a81.17 81.17 0 0 0 5.22-28.52V256a39.82 39.82 0 0 0-4.73-18.89c-6.93-14-20.27-23.33-32.93-30.78-11.56-6.81-26.82-14.38-46.65-23.13-42.75-18.88-95.09-38.11-131.48-50.92-47.94-16.87-96.92-32.75-137.94-44.7C537.11 67 520.62 67 514.41 67z" fill="#4A4A4A" p-id="1878"></path><path d="M108.41 549v141.11a36.21 36.21 0 0 0 16.85 30.61C194.75 764.7 458.11 929 514.41 929s320.23-166.44 390-211.09a36.8 36.8 0 0 0 17-31V549z" fill="#FFF3B6" p-id="1879"></path><path d="M514.41 323c47 0 407 198 407 227 0 21-343 226-407 226s-406-194-406-227c0-39 372-226 406-226z" fill="#FFA766" p-id="1880"></path><path d="M903.41 401s18 13 18 69c0 36.53 3.38 71.5-7 79s-43 35-103 42c-73.27 8.55-162 148-296 148-69.26 0-115-69-190-81s-153-71-200-97c-24.7-13.67-17-71-17-112 0-42 66-65 66-65z" fill="#7ABC53" p-id="1881"></path><path d="M108.41 256v136a45.47 45.47 0 0 0 21.19 38.45C205.08 478.13 459.22 636 514.41 636c55.77 0 315.44-163.41 388.08-209.84a41 41 0 0 0 18.92-34.56V256z" fill="#FFF3B6" p-id="1882"></path><path d="M108.41 549v141.11a36.21 36.21 0 0 0 16.85 30.61C194.75 764.7 458.11 929 514.41 929h1V549z" fill="#FFCF57" p-id="1883"></path><path d="M514.41 776h1V431l-122.92-57.32C282.23 427.2 135.12 508.32 111.63 541.33c-0.28 0.39-0.54 0.78-0.78 1.16l-0.23 0.38c-0.16 0.25-0.31 0.51-0.45 0.76l-0.23 0.43c-0.12 0.22-0.24 0.45-0.34 0.66l-0.2 0.43q-0.14 0.31-0.26 0.62l-0.16 0.41c-0.07 0.21-0.14 0.41-0.19 0.61s-0.08 0.25-0.11 0.38-0.09 0.42-0.13 0.63 0 0.21-0.06 0.31a6.69 6.69 0 0 0-0.06 0.88C108.41 582 450.41 776 514.41 776z" fill="#FF8E31" p-id="1884"></path><path d="M118.83 421q-0.58 0.75-1.14 1.52-0.56 0.77-1.09 1.55t-1 1.57-1 1.57v0.05q-0.45 0.77-0.86 1.55l-0.06 0.11c-0.27 0.51-0.53 1-0.78 1.53l-0.08 0.15c-0.24 0.5-0.47 1-0.7 1.5l-0.1 0.21c-0.21 0.49-0.41 1-0.61 1.47l-0.11 0.27c-0.19 0.48-0.36 1-0.53 1.45l-0.12 0.32c-0.16 0.46-0.3 0.93-0.44 1.4l-0.13 0.4c-0.13 0.45-0.25 0.91-0.37 1.36 0 0.15-0.08 0.3-0.12 0.46-0.11 0.45-0.2 0.9-0.3 1.36 0 0.17-0.08 0.33-0.11 0.49-0.09 0.44-0.16 0.89-0.23 1.34 0 0.18-0.07 0.36-0.09 0.54-0.07 0.46-0.12 0.92-0.17 1.38 0 0.18 0 0.35-0.06 0.53 0 0.49-0.08 1-0.11 1.47v14.21q0 1.2-0.06 2.4v2.54c-0.79 26.43-2.46 55.89 3.53 75.6 2.73 9 7.05 16 13.78 19.67 47 26 125 85 200 97s120.74 81 190 81V431l-88.14-41.1-253.22-5.9s-36.98 12.89-55.58 37z" fill="#7AA028" p-id="1885"></path><path d="M108.41 392c0 0.87 0 1.73 0.08 2.58v0.69q0.08 1.13 0.22 2.26v0.33c0.11 0.84 0.25 1.67 0.4 2.5 0 0.22 0.09 0.43 0.13 0.65q0.21 1 0.46 2c0 0.17 0.08 0.33 0.12 0.5q0.32 1.21 0.7 2.39l0.2 0.59q0.32 1 0.69 1.91l0.22 0.58q0.46 1.15 1 2.27l0.24 0.49q0.44 0.92 0.93 1.81l0.33 0.6c0.4 0.72 0.82 1.43 1.26 2.12l0.23 0.35q0.58 0.89 1.2 1.76l0.42 0.59c0.49 0.66 1 1.31 1.5 1.94a45.44 45.44 0 0 0 10.77 9.48C205.08 478.13 459.22 636 514.41 636h1V431L140.16 256h-31.75z" fill="#FFCF57" p-id="1886"></path><path d="M188.41 649c-32-131-58-378-58-378l-17.7-23.21c-2.8 3-4.3 5.75-4.3 8.21v136a45.47 45.47 0 0 0 10.42 29c-6.25 8.09-10.42 17.45-10.42 28 0 29.83-4.08 68.31 3.22 92.33-2.11 3-3.22 5.54-3.22 7.67v141.11a36.21 36.21 0 0 0 16.85 30.61c21.59 13.66 61.89 38.94 108.88 67.29-13.06-29.93-30.4-76.25-45.73-139.01z" fill="#B2FF72" p-id="1887"></path><path d="M188.41 649c-3.8-15.57-7.52-32.77-11.12-51-0.41-2.08-1.23-6.29-1.23-6.29l-64.43-50.38s-3.22 5.54-3.22 7.67v141.11a36.21 36.21 0 0 0 16.85 30.61c21.59 13.66 61.89 38.94 108.88 67.29-13.06-29.93-30.4-76.25-45.73-139.01z" fill="#7FFFB6" p-id="1888"></path><path d="M152.05 444.57l-0.84-6C138.5 347.86 130.41 271 130.41 271l-17.7-23.21c-2.8 3-4.3 5.75-4.3 8.21v136a44.8 44.8 0 0 0 10.42 29z" fill="#EFFF20" p-id="1889"></path><path d="M514.41 107c47 0 407 121 407 150 0 21-343 226-407 226s-406-194-406-227c0-39 372-149 406-149z" fill="#FFA766" p-id="1890"></path><path d="M828.4 560a10 10 0 0 1-0.67-20c6.24-0.43 24.53-2.94 34.13-9.34a185.67 185.67 0 0 0 33-28.26 10 10 0 0 1 15.05 13.17 204.22 204.22 0 0 1-37 31.74c-6.9 4.6-16.44 8.13-28.35 10.49a134.14 134.14 0 0 1-15.48 2.2z" fill="#FFFFFF" p-id="1891"></path><path d="M793.41 554m-9 0a9 9 0 1 0 18 0 9 9 0 1 0-18 0Z" fill="#FFFFFF" p-id="1892"></path></svg>