<?xml version="1.0" standalone="no"?><!DOCTYPE svg PUBLIC "-//W3C//DTD SVG 1.1//EN" "http://www.w3.org/Graphics/SVG/1.1/DTD/svg11.dtd"><svg t="1765988852617" class="icon" viewBox="0 0 1024 1024" version="1.1" xmlns="http://www.w3.org/2000/svg" p-id="2250" xmlns:xlink="http://www.w3.org/1999/xlink" width="128" height="128"><path d="M514.16 207.76c207.78 0.71 302.4 32.91 333.11 102.33S965 648.1 964.69 685.37c-0.42 42.86-82.05 167.74-452.73 166.47S58.75 724.82 58.88 684.91s108.64-350.36 121.51-388 125.99-89.86 333.77-89.15z" fill="#FBB03B" p-id="2251"></path><path d="M402.91 851.47l-205.59-0.71 156.33-619.22 118.7 0.4-69.44 619.53zM647.42 869.8l200.63-59.64-163.48-562.91-124.58 14.16 87.43 608.39z" fill="#F9C850" p-id="2252"></path><path d="M915.18 684.44c-15.16 0-30.58-3.66-46.45-11-27.58-12.65-52.35-34.44-76.31-55.44-30.07-26.43-58.49-51.41-84.89-51.41h-0.47c-30.33 0.34-55.61 9.72-84.87 20.59-42.92 15.93-95.35 35.39-184.64 35.39-9.28 0-19-0.21-29.06-0.66-41.57-1.91-88.49-17.19-132.17-43.16-44-26.15-82.05-61.67-107.26-100-17.26-26.26-28.4-53.35-33.1-80.53a164.41 164.41 0 0 1 8.29-87.65l28 10.67c-21.47 56.45 0 107.85 21.84 141 46.38 70.54 139.11 126.28 215.7 129.66 101.31 4.47 154.76-15.38 201.93-32.89 30.56-11.35 59.43-22.06 95-22.46h0.84c37.68 0 70.22 28.6 104.66 58.87 22.34 19.64 45.44 39.94 69 50.81 24.63 11.34 59.67 10.81 82.37-1.67l1.45 26.29c-16.43 9.06-32.99 13.59-49.86 13.59z" fill="#FBB03C" p-id="2253"></path><path d="M854.57 316c-0.1 28.25 142.3 310.24 103.3 331.67-101.67 55.88-172.22-107-251-106.15-83.67 0.94-125.69 62.93-297.74 55.34-105.54-4.63-240.36-101.36-258.64-212.6a149.46 149.46 0 0 1 7.76-78.38c26-68.37 165.16-124.12 354.3-123.48S854.82 242.88 854.57 316z" fill="#FFE171" p-id="2254"></path><path d="M414.15 286.57a100.21 37.94 0 1 0 200.42 0 100.21 37.94 0 1 0-200.42 0Z" fill="#E23BBF" p-id="2255"></path><path d="M181.06 303.59a331.56 110.43 0 1 0 663.12 0 331.56 110.43 0 1 0-663.12 0Z" fill="#FF61C8" p-id="2256"></path><path d="M844.18 303.72c0 61-148.49 110.37-331.6 110.29S181 364.45 181.06 303.46c0 0 105.43 63.06 333.31 28.46 186.56-28.32 262.11-95.11 262.11-95.11s6.14 2.75 9.07 4.16c36.98 17.83 58.64 39.46 58.63 62.75z" fill="#FF98A8" p-id="2257"></path><path d="M514.38 235.97m-72 0a72 72 0 1 0 144 0 72 72 0 1 0-144 0Z" fill="#D85039" p-id="2258"></path><path d="M534.12 216.24m-47.21 0a47.21 47.21 0 1 0 94.42 0 47.21 47.21 0 1 0-94.42 0Z" fill="#FE6E40" p-id="2259"></path><path d="M550.935184 206.414568a12.28 5.17 41.64 1 0 6.870394-7.727438 12.28 5.17 41.64 1 0-6.870394 7.727438Z" fill="#FFFFFF" p-id="2260"></path><path d="M564.594149 223.853687a4.4 3.4 71.85 1 0 6.461661-2.11824 4.4 3.4 71.85 1 0-6.461661 2.11824Z" fill="#FFFFFF" p-id="2261"></path><path d="M785.55 313.67m-18.24 0a18.24 18.24 0 1 0 36.48 0 18.24 18.24 0 1 0-36.48 0Z" fill="#FFFFFF" p-id="2262"></path><path d="M645.68 349.86s36-4.85 53.52-12.63 35.48-13.12 44.23-5.33 9.27 28.7-39.43 40.36c-40.86 9.79-83.68 10.67-80.75-5.87s22.43-16.53 22.43-16.53z" fill="#FFFFFF" p-id="2263"></path><path d="M514.38 164a72 72 0 0 1 66.83 45.29c161.54 7.09 238.84 39.37 266 100.82C878 379.5 965 648.1 964.69 685.37c-0.42 42.63-81.19 166.48-447.14 166.48H512c-370.68-1.27-453.21-127-453.07-166.93s91.69-303.1 121.51-388C199 243.79 283.78 214.2 447.75 208.7a72 72 0 0 1 66.63-44.7m0-38.92a111 111 0 0 0-89.67 45.63c-75.23 3.64-133.45 12.62-177.48 27.35-26.39 8.83-47.43 19.57-64.31 32.85C164 245.74 150.83 263.6 143.67 284 124.29 339.19 96 420.74 71.52 495.67c-15 45.85-26.84 83.86-35.2 113C22 658.7 20 675.22 20 684.78c-0.16 35.4 28.08 88.73 107.7 132.22 40.57 22.17 90.72 39.63 149.05 51.9 67.45 14.19 146.54 21.54 235.07 21.84h5.73c87.54 0 165.64-7 232.12-20.83 57.74-12 107.3-29.24 147.28-51.23 34.45-18.95 61.43-41.09 80.17-65.82 16.87-22.25 26.28-46.1 26.48-67.14 0.09-9.22-1.65-25.37-15.24-75.22C980 579.91 968.38 541 954.72 498c-23.1-72.73-54.28-163.91-71.86-203.66A154 154 0 0 0 842.43 240c-17.26-15-38.11-27.06-63.73-37-42.92-16.64-100-27-174.05-31.49a111 111 0 0 0-90.22-46.46z" fill="#4A4A4A" p-id="2264"></path></svg>