<?xml version="1.0" standalone="no"?><!DOCTYPE svg PUBLIC "-//W3C//DTD SVG 1.1//EN" "http://www.w3.org/Graphics/SVG/1.1/DTD/svg11.dtd"><svg t="1765879758483" class="icon" viewBox="0 0 1024 1024" version="1.1" xmlns="http://www.w3.org/2000/svg" p-id="40858" xmlns:xlink="http://www.w3.org/1999/xlink" width="128" height="128"><path d="M513 106.9c224.1 0 405.8 181.7 405.8 405.8 0 224.1-181.7 405.8-405.8 405.8-224.1 0-405.8-181.7-405.8-405.8 0-224.1 181.7-405.8 405.8-405.8z m0 245.7c-88.4 0-160.1 71.7-160.1 160.1 0 88.4 71.7 160.1 160.1 160.1 88.4 0 160.1-71.7 160.1-160.1 0-88.4-71.7-160.1-160.1-160.1z" fill="#FFC629" p-id="40859"></path><path d="M513 225.8c158.5 0 286.9 128.5 286.9 286.9 0 158.5-128.5 286.9-286.9 286.9-158.5 0-287-128.4-287-286.9 0.1-158.5 128.5-286.9 287-286.9z m0 126.8c-101.4 0-160.1 79.3-160.1 160.1S426.1 672.8 513 672.8c86.9 0 160.9-78.5 160.1-160.1-0.8-81.6-58.7-160.1-160.1-160.1z" fill="#FFEBB1" p-id="40860"></path><path d="M863.7 720.2c36.7-61 57.8-132.4 57.8-208.8 0-224.1-181.6-405.8-405.8-405.8-147.4 0-274.6 75.5-345.6 193.1 6.9 61.1 22 104.1 57.3 122.5 50.8 26.5 134.3-39.9 191.5-37.3 27.4-22 59-32.6 96.9-32.6 82.9 0 150.8 59.8 158.9 140.5 52.9 11.7 20.1 89.9 71.4 92.6 30.2 1.6 52-33.5 78.3-17.2 45 27.7-47.9 126.7 39.3 153z" fill="#FF9E99" p-id="40861"></path><path d="M517.2 222c158.5 0 287 128.4 287 286.9 0 158.5-128.5 286.9-287 286.9-158.4 0-286.9-128.5-286.9-286.9 0-158.5 128.4-286.9 286.9-286.9z m0 126.7c-101.3 0-160.1 79.3-160.1 160.1S430.3 669 517.2 669c87 0 160.9-78.6 160.1-160.1-0.8-81.6-58.7-160.2-160.1-160.2z" fill="#FFCDC7" p-id="40862"></path><path d="M513 944.4c-238 0-431.7-193.7-431.7-431.7 0-97 31.4-188.6 90.9-265 8.8-11.3 25-13.3 36.4-4.5 11.3 8.8 13.3 25.1 4.5 36.4-52.3 67.2-80 147.8-80 233.2 0 209.4 170.4 379.9 379.9 379.9 209.4 0 379.8-170.4 379.8-379.9 0-209.5-170.4-379.9-379.8-379.9-50.5 0-99.4 9.7-145.6 28.9-13.3 5.5-28.4-0.8-33.9-14s0.7-28.4 14-33.9C400 92.1 455.7 81 513 81c238 0 431.7 193.6 431.7 431.7 0 238-193.7 431.7-431.7 431.7zM260.2 221.1c-7.6 0-15.2-3.3-20.3-9.8-9-11.2-7.1-27.5 4.1-36.4 10.8-8.6 22-16.7 33.5-24.2 12-7.8 28.1-4.4 35.9 7.6 7.8 12 4.4 28-7.5 35.9-10.1 6.6-20.1 13.8-29.5 21.3-4.8 3.8-10.5 5.6-16.2 5.6z" fill="#231815" p-id="40863"></path><path d="M513 698.7c-102.6 0-186-83.5-186-186 0-102.6 83.4-186 186-186s186 83.5 186 186c0 102.6-83.4 186-186 186z m0-320.2c-74 0-134.2 60.2-134.2 134.2 0 74 60.2 134.2 134.2 134.2s134.2-60.2 134.2-134.2c0-74-60.2-134.2-134.2-134.2z" fill="#231815" p-id="40864"></path><path d="M252.4 446.1c-12.6 0-24.6-2.4-35.9-8.2-48-25-60.7-85.7-66.4-135.8-1.1-9.5 5.7-18 15.2-19.1 9.5-1.1 18.1 5.7 19.1 15.2 7.1 61.8 21.9 95.5 48.1 109.1 22.4 11.7 59.4-2.7 95.1-16.6 30.2-11.7 61.5-23.9 89.3-22.6 9.5 0.4 16.9 8.5 16.4 18-0.4 9.5-8.2 16.8-18 16.5-20.7-0.9-48.3 9.9-75.2 20.3-29.5 11.4-59.8 23.2-87.7 23.2zM859.4 736.4c-1.7 0-3.3-0.2-5-0.7-65.8-19.8-51.6-75.6-43.1-109.1 6.8-27 8.5-39 1.3-43.5-5.7-3.5-10.5-1.8-25.5 6.3-11.9 6.4-26.8 14.4-44.7 13.5-38.7-2-46.2-34.8-51.1-56.5-5.3-23.4-8.8-33.3-23.2-36.5-9.3-2.1-15.2-11.3-13.1-20.6 2-9.3 11.3-15.2 20.6-13.2 37.2 8.2 44.6 40.9 49.4 62.6 5.6 24.6 8.4 29 19.2 29.6 8.3 0.4 17.1-4.3 26.5-9.4 15.4-8.3 36.6-19.7 60-5.3 30 18.5 21.1 53.4 14 81.4-10.6 41.5-11.6 58.1 19.6 67.4 9.1 2.7 14.3 12.4 11.6 21.5-2.3 7.7-9.1 12.5-16.5 12.5zM790.6 377.6c-3.3 0-6.7-0.9-9.6-3l-74.7-50.5c-7.9-5.3-9.9-16-4.6-24 5.4-7.9 16.1-10 24-4.6l74.7 50.5c7.9 5.4 10 16.1 4.6 24-3.4 4.9-8.9 7.6-14.4 7.6z" fill="#231815" p-id="40865"></path><path d="M766.9 525.3c-7.6 0-14.5-5-16.6-12.7l-24-86.9c-2.5-9.2 2.9-18.7 12.1-21.2 9.1-2.5 18.7 2.9 21.2 12.1l23.9 86.9c2.5 9.2-2.9 18.7-12.1 21.2-1.4 0.4-2.9 0.6-4.5 0.6zM574.7 257.3c-7.9 0-15.1-5.5-16.9-13.6-2-9.3 3.9-18.5 13.2-20.6l88.1-19.3c9.3-2.1 18.5 3.9 20.6 13.2 2 9.3-3.9 18.5-13.2 20.6l-88.1 19.3c-1.2 0.2-2.4 0.4-3.7 0.4zM477.6 285.5c-3.9 0-7.8-1.3-11.1-4l-69.3-57.7c-7.3-6.1-8.3-17-2.2-24.3 6.1-7.3 17-8.3 24.3-2.2l69.3 57.7c7.3 6.1 8.3 17 2.2 24.3-3.4 4.1-8.3 6.2-13.2 6.2z" fill="#231815" p-id="40866"></path><path d="M801.7 363.9c-3.3 0-6.7-1-9.6-3l-74.7-50.5c-7.9-5.3-9.9-16.1-4.6-24 5.3-7.9 16-10 23.9-4.6l74.7 50.5c7.9 5.3 10 16.1 4.7 24-3.4 4.9-8.8 7.6-14.4 7.6z" fill="#009844" p-id="40867"></path><path d="M778.1 511.6c-7.6 0-14.5-5-16.6-12.7L737.6 412c-2.6-9.2 2.8-18.7 12.1-21.3 9.2-2.5 18.7 2.9 21.2 12.1l23.9 86.9c2.5 9.2-2.8 18.7-12.1 21.2-1.6 0.5-3.1 0.7-4.6 0.7z" fill="#EF8200" p-id="40868"></path><path d="M585.9 243.5c-7.9 0-15.1-5.5-16.8-13.6-2.1-9.3 3.9-18.5 13.2-20.6l88.1-19.3c9.3-2 18.5 3.9 20.6 13.2 2.1 9.3-3.9 18.5-13.2 20.6l-88.1 19.3c-1.4 0.3-2.6 0.4-3.8 0.4z" fill="#7BC17C" p-id="40869"></path><path d="M488.7 271.8c-3.9 0-7.8-1.3-11-4l-69.3-57.7c-7.4-6.1-8.3-17-2.2-24.3 6.1-7.3 17-8.3 24.3-2.2l69.3 57.7c7.3 6.1 8.3 17 2.2 24.3-3.4 4.1-8.3 6.2-13.3 6.2z" fill="#E51122" p-id="40870"></path></svg>