<?xml version="1.0" standalone="no"?><!DOCTYPE svg PUBLIC "-//W3C//DTD SVG 1.1//EN" "http://www.w3.org/Graphics/SVG/1.1/DTD/svg11.dtd"><svg t="1765879784450" class="icon" viewBox="0 0 1024 1024" version="1.1" xmlns="http://www.w3.org/2000/svg" p-id="45212" xmlns:xlink="http://www.w3.org/1999/xlink" width="128" height="128"><path d="M168.448 434.688v340.992C168.448 853.504 322.56 916.48 512 916.48c189.952 0 343.552-62.976 343.552-140.8V434.688H168.448z" fill="#FFE7B8" p-id="45213"></path><path d="M179.712 727.552s80.384-74.752 140.288 0 103.936 77.824 172.544 48.64c68.096-29.184 103.936-83.968 169.472-35.84 72.704 53.248 110.08 60.928 172.544-9.216v-48.64l-82.432 32.768-110.592-32.768-110.592 16.896-98.304 42.496-157.696-92.672-100.864 33.28 5.632 45.056z" fill="#F9CC91" p-id="45214"></path><path d="M512 942.08c-179.2 0-369.664-57.856-369.664-163.84V443.392c0-14.336 11.264-26.112 26.112-26.112h687.616c14.336 0 26.112 11.264 26.112 26.112v334.336C881.664 884.224 691.2 942.08 512 942.08zM194.048 469.504V778.24c0 52.736 136.192 112.128 317.952 112.128s317.952-59.392 317.952-112.128V469.504H194.048z" fill="#262626" p-id="45215"></path><path d="M168.448 686.592s86.016-72.192 148.48-25.088 72.704 103.424 147.968 77.312 124.416-118.784 253.44-22.528c66.56 49.664 137.216-74.24 137.216-114.176v-143.36H168.448v227.84z" fill="#FF6464" p-id="45216"></path><path d="M174.08 588.8a19.456 15.872 90 1 0 31.744 0 19.456 15.872 90 1 0-31.744 0Z" fill="#FFDEC7" p-id="45217"></path><path d="M430.08 771.584c-40.448 0-64-25.088-87.04-49.664-12.288-13.312-25.088-26.624-41.984-39.424-44.544-33.792-115.712 23.552-116.736 24.064-7.68 6.656-18.432 7.68-27.648 3.584-9.216-4.608-14.848-13.824-14.848-23.552V458.752c0-14.336 11.264-26.112 26.112-26.112h687.616c14.336 0 26.112 11.264 26.112 26.112v143.36c0 37.376-39.936 115.712-92.672 142.848-29.184 14.848-59.904 11.776-86.016-7.168-81.408-60.928-120.832-36.352-169.984-5.632-18.432 11.776-37.376 24.064-59.904 31.744-15.872 5.12-30.208 7.68-43.008 7.68z m-161.28-151.552c20.992 0 43.52 6.144 64 20.992 20.48 15.36 35.328 31.232 48.64 45.056 28.16 29.696 38.4 40.96 75.776 28.16 16.384-6.144 32.768-15.872 49.152-26.112 52.736-33.28 118.272-74.752 228.864 7.68 10.24 7.68 19.456 8.192 31.744 2.048 34.816-17.408 64-78.336 64-96.256V484.864H194.048V640c20.48-10.752 46.592-19.968 74.752-19.968z" fill="#262626" p-id="45218"></path><path d="M168.448 453.12a343.552 115.712 0 1 0 687.104 0 343.552 115.712 0 1 0-687.104 0Z" fill="#FF7171" p-id="45219"></path><path d="M512 594.944c-183.296 0-369.664-48.64-369.664-141.312S328.704 311.808 512 311.808s369.664 48.64 369.664 141.312-186.368 141.824-369.664 141.824z m0-231.936c-194.048 0-317.952 53.248-317.952 89.6S317.44 542.72 512 542.72c194.048 0 317.952-53.248 317.952-89.6 0-36.864-124.416-90.112-317.952-90.112z" fill="#262626" p-id="45220"></path><path d="M433.152 640m-19.456 0a19.456 19.456 0 1 0 38.912 0 19.456 19.456 0 1 0-38.912 0Z" fill="#FFDEC7" p-id="45221"></path><path d="M763.904 614.4m-19.456 0a19.456 19.456 0 1 0 38.912 0 19.456 19.456 0 1 0-38.912 0Z" fill="#FFDEC7" p-id="45222"></path><path d="M710.144 110.08L563.2 415.744l59.392 3.072 137.728-284.16c6.144-11.776-0.512-27.136-14.848-33.792-13.312-7.168-29.184-2.56-35.328 9.216z" fill="#7A4826" p-id="45223"></path><path d="M622.592 434.176h-1.024l-59.392-3.072c-5.632-0.512-9.728-3.072-12.288-7.68s-2.56-9.728-0.512-14.848L696.32 102.912c4.608-8.704 11.776-15.872 22.016-18.944 10.752-3.584 23.552-2.56 34.304 2.048 20.992 10.24 31.232 34.816 22.016 54.272L635.904 424.96c-2.048 6.144-7.168 9.216-13.312 9.216z m-35.328-33.28l25.6 1.536 133.632-274.944c1.536-3.584-0.512-9.728-7.168-13.312-3.584-1.536-7.68-2.048-10.752-1.024-1.024 0.512-3.072 1.536-3.584 3.072l-137.728 284.672z" fill="#262626" p-id="45224"></path><path d="M539.648 167.936l7.168 276.48 51.2-20.48-6.144-258.048c0-10.752-7.68-28.672-26.624-26.624-18.944 2.048-26.112 17.408-25.6 28.672z" fill="#7A4826" p-id="45225"></path><path d="M546.816 459.776c-2.56 0-6.144-1.024-8.704-2.56-4.608-2.56-7.168-7.68-7.168-12.288l-7.168-276.48c-0.512-19.456 12.288-41.472 39.424-44.032 10.752-1.024 20.992 1.536 28.672 8.704 10.24 9.216 14.848 23.552 14.848 33.28l6.144 258.048c0 6.656-3.584 12.288-9.728 14.848l-51.2 20.48c-1.536-0.512-3.584 0-5.12 0z m8.192-292.352l6.656 254.464 19.968-8.192-5.632-247.296c0-3.072-1.536-8.192-4.608-10.24-1.024-0.512-2.048-1.536-5.12-1.024-10.24 1.024-11.264 9.728-11.264 12.288z" fill="#262626" p-id="45226"></path><path d="M252.928 237.056l125.44 220.672h98.304L542.72 394.752 415.744 194.56z" fill="#6D5030" p-id="45227"></path><path d="M476.672 472.576H378.368c-5.632 0-10.752-2.56-13.824-7.68l-125.952-220.16c-2.048-4.608-2.56-9.216-1.024-13.824s5.632-7.68 10.24-9.216L411.136 179.2c6.656-1.536 13.824 1.024 16.896 6.656l127.488 200.192c3.584 6.144 2.56 14.848-2.048 19.456L487.424 468.48c-2.56 2.56-6.656 4.096-10.752 4.096z m-88.576-30.72H471.04l51.712-49.664-114.176-179.712L276.48 247.296l111.616 194.56z" fill="#262626" p-id="45228"></path><path d="M304.128 259.584l21.504 39.424 98.304-26.624-24.064-38.4z" fill="#562D20" p-id="45229"></path><path d="M325.632 309.248c-3.584 0-7.168-2.048-9.216-5.632l-22.016-39.936c-1.536-2.56-1.536-6.144-0.512-9.216 1.024-2.56 3.584-5.12 7.168-6.144l95.744-25.6c4.608-1.024 9.216 0.512 11.264 4.608l24.064 38.4c1.536 2.56 2.048 6.144 1.024 9.216-1.024 3.072-3.584 5.632-7.168 6.144l-97.28 26.624c-0.512 1.536-2.048 1.536-3.072 1.536z m-6.144-43.52l11.264 20.992 76.288-20.992L394.24 245.76l-74.752 19.968z" fill="#262626" p-id="45230"></path><path d="M348.16 330.24l22.528 39.424 97.28-26.624-24.064-38.4z" fill="#562D20" p-id="45231"></path><path d="M370.688 380.416c-3.584 0-7.168-2.048-9.216-5.632l-22.016-39.936c-1.536-2.56-1.536-6.656-0.512-9.216 1.024-2.56 3.584-5.12 7.168-6.144l95.232-25.6c4.608-1.024 9.216 0.512 11.264 4.608l24.064 38.4c1.536 2.56 2.048 6.144 1.024 9.216-1.024 3.072-3.584 5.632-7.168 6.144l-97.28 26.624c-1.024 1.536-2.048 1.536-2.56 1.536z m-6.656-43.52l11.264 20.992 76.288-20.992-12.288-19.968-75.264 19.968z" fill="#262626" p-id="45232"></path><path d="M385.024 398.336l22.528 39.936 97.28-27.136-24.064-37.888z" fill="#562D20" p-id="45233"></path><path d="M407.552 449.024c-3.584 0-7.168-2.048-9.216-5.632l-22.016-39.936c-1.536-2.56-1.536-6.144-0.512-9.216 1.024-2.56 3.584-5.12 7.168-6.144l95.744-25.6c4.608-1.024 9.216 0.512 11.264 4.608l24.064 38.4c1.536 2.56 2.048 6.144 1.024 9.216-1.024 3.072-3.584 5.632-7.168 6.144l-97.28 26.624c-1.536 1.536-2.56 1.536-3.072 1.536z m-6.656-43.52l11.264 20.992 76.288-20.992-12.288-20.48-75.264 20.48z" fill="#262626" p-id="45234"></path><path d="M707.072 431.616c0 58.368-47.616 53.76-105.472 53.76-58.368 0-105.472 4.608-105.472-53.76s47.616-105.472 105.472-105.472c57.856-0.512 105.472 47.104 105.472 105.472z" fill="#FBFFA6" p-id="45235"></path><path d="M579.584 501.248c-34.304 0-62.976-1.536-82.432-19.968-11.264-11.264-17.408-27.648-17.408-49.664 0-67.072 54.272-120.832 120.832-120.832 67.072 0 120.832 54.272 120.832 120.832 0 22.016-5.632 37.376-17.408 49.664-20.48 20.48-53.76 20.48-92.672 19.968h-31.744z m21.504-31.232h11.264c31.744 0 59.392 0.512 70.656-11.264 5.632-5.632 8.192-14.336 8.192-27.136 0-49.664-40.448-89.6-89.6-89.6S512 381.952 512 431.616c0 13.312 2.56 22.016 8.192 27.136 11.264 11.264 39.424 11.264 70.656 11.264h10.24z" fill="#262626" p-id="45236"></path><path d="M595.456 465.92c0 50.176-40.448 46.08-90.624 46.08s-90.112 3.584-90.112-46.08 40.448-90.624 90.624-90.624 90.112 40.448 90.112 90.624z" fill="#FF64A3" p-id="45237"></path><path d="M523.264 527.36h-27.648c-33.792 0-62.464 0.512-80.896-17.92-10.24-10.24-15.36-24.576-15.36-43.52 0-58.88 47.616-105.984 105.472-105.984s105.984 47.616 105.984 105.984c0 18.944-5.12 33.28-15.36 43.52-16.384 16.896-41.984 17.92-72.192 17.92z m-18.432-31.232h9.728c25.6 0 49.664 0 58.88-9.216 4.608-4.608 6.656-11.264 6.656-22.016 0-41.472-33.792-74.752-74.752-74.752-41.472 0-74.752 33.792-74.752 74.752 0 10.24 2.048 17.408 6.656 22.016 9.216 9.216 33.28 9.216 58.88 9.216h8.704z" fill="#262626" p-id="45238"></path><path d="M653.824 406.016m-20.992 0a20.992 20.992 0 1 0 41.984 0 20.992 20.992 0 1 0-41.984 0Z" fill="#FFFFFF" p-id="45239"></path><path d="M531.968 438.272m-19.968 0a19.968 19.968 0 1 0 39.936 0 19.968 19.968 0 1 0-39.936 0Z" fill="#FFFFFF" p-id="45240"></path></svg>