<?xml version="1.0" standalone="no"?><!DOCTYPE svg PUBLIC "-//W3C//DTD SVG 1.1//EN" "http://www.w3.org/Graphics/SVG/1.1/DTD/svg11.dtd"><svg t="1765988865242" class="icon" viewBox="0 0 1024 1024" version="1.1" xmlns="http://www.w3.org/2000/svg" p-id="2990" xmlns:xlink="http://www.w3.org/1999/xlink" width="128" height="128"><path d="M488.45 100.75a196.12 196.12 0 0 0-46.81 5.56l-5.82 1.55-5.07 3.26a65.43 65.43 0 0 0-20.5 21.12c-31.37 5.53-43.84 12.17-52.26 20.59A73.72 73.72 0 0 0 345.77 169c-66.73 12.74-130.7 31.8-182.28 54.44-29.06 12.76-52.47 26-69.58 39.27-10.44 8.12-18.46 16.16-24.51 24.58-8.72 12.14-13.14 24.9-13.14 37.92 0 13.42 4.27 33 24.61 50.31a94.76 94.76 0 0 0 9.8 7.25 98 98 0 0 0-0.74 12v14.69q-2.13 1.22-4.12 2.51c-20.88 13.51-27.36 30.4-29.12 42.18-2.46 16.48 1.24 33.1 10.7 48.05 7.13 11.27 17.7 21.8 31.42 31.3q7.05 4.88 15.39 9.54-6.7 4.13-12.63 8.29c-12.49 8.78-22.08 17.44-29.32 26.49-10.61 13.26-16 27.28-16 41.67 0 13.42 4.27 33 24.61 50.31a94.75 94.75 0 0 0 9.8 7.25 98 98 0 0 0-0.74 12v14.69q-2.13 1.23-4.12 2.51c-20.88 13.51-27.36 30.4-29.12 42.18-2.32 15.52 0.85 31.26 9.16 45.51 5.66 9.72 13.81 18.9 24.26 27.34-14.81 9.72-24.16 22.11-27.88 37a46.44 46.44 0 0 0 8 39.32c14.15 18.82 39.68 25.67 73.66 30.16 24.17 3.19 57 5.46 103.31 7.15 4.54 0.17 9 0.25 13.23 0.25 43.72 0 72-8.66 88.85-27.24a57.83 57.83 0 0 0 7-9.47 1394.06 1394.06 0 0 0 145.27 7.63 1337.33 1337.33 0 0 0 171.69-10.8c52.88-6.87 101-16.68 143-29.14 43.33-12.85 78.11-28 103.38-44.89 14.75-9.89 26.47-20.62 34.82-31.89 10.89-14.69 16.41-30.43 16.41-46.78a54.91 54.91 0 0 0-10.23-31.92A66.61 66.61 0 0 0 939.75 692a96.68 96.68 0 0 0-13.14-6.36 97.36 97.36 0 0 0-4.25-25.19 124.28 124.28 0 0 0 14.43-11.11c22.65-20.37 27.4-42.1 27.4-56.74 0-14.42-4.57-28.2-13.59-41-6.74-9.54-16.12-18.53-27.87-26.72q3.48-2.43 6.7-4.9c12.08-9.28 21.65-19.3 28.45-29.76 8.65-13.31 13-27.41 13-41.92a54.91 54.91 0 0 0-10.23-31.92 66.61 66.61 0 0 0-20.94-18.72 96.68 96.68 0 0 0-13.14-6.36 97.36 97.36 0 0 0-4.25-25.19A124.28 124.28 0 0 0 936.75 355c22.65-20.37 27.4-42.1 27.4-56.74 0-21.11-11.74-40.61-34.9-58-14.64-11-34.49-21.71-59-31.9C824.89 189.56 767.57 174.09 713 166c-46.25-6.85-92.68-10.07-114.07-11.3a45.92 45.92 0 0 0-8-12.75c-24-27-59.4-41.22-102.46-41.22z" fill="#4A4A4A" p-id="2991"></path><path d="M501.56 718.63c174.08-4.81 430.88-30.84 430.88 24 0 64.44-195.24 125-430.88 125-207.75 0-416.45-49.05-406.84-113.49s406.84-35.51 406.84-35.51z" fill="#FEE4B0" p-id="2992"></path><path d="M508.3 797.49c-207.75 0-379.91-18.27-379.91-93.63v-14.71a59 59 0 0 1 59-59H829.2a59 59 0 0 1 59 59v14.72c0 75.35-205.82 93.62-379.9 93.62z" fill="#8E2025" p-id="2993"></path><path d="M515 484.91c198.13 0 410.68 45.2 410.68 107.72C925.71 647.45 776.64 685 515 685S94.7 670.57 94.7 619.6 316.9 484.91 515 484.91z" fill="#DE6B31" p-id="2994"></path><path d="M925.71 592.63a27.79 27.79 0 0 0-0.53-5.34 53 53 0 0 1-15.82 11.11c-61.91 29.89-234.56 37.51-399.14 37.51-190.41 0-338.12 2.54-404.89-37.5-6.89 7.43-10.6 14.56-10.6 21.15 0 51 158.7 65.4 420.3 65.4s410.68-37.51 410.68-92.33zM501.56 424.32c174.08-4.81 430.88-30.84 430.88 24 0 64.44-195.24 125-430.88 125-207.75 0-416.45-49.05-406.84-113.49s406.84-35.51 406.84-35.51z" fill="#FEE4B0" p-id="2995"></path><path d="M508.3 503.19c-207.75 0-379.91-18.27-379.91-93.63v-14.72a59 59 0 0 1 59-59H829.2a59 59 0 0 1 59 59v14.72c0 75.35-205.82 93.63-379.9 93.63z" fill="#8E2025" p-id="2996"></path><path d="M515 190.6c198.13 0 410.68 45.2 410.68 107.72 0 54.82-149.08 92.33-410.68 92.33s-420.3-14.43-420.3-65.4S316.9 190.6 515 190.6z" fill="#DE6B31" p-id="2997"></path><path d="M925.71 298.32a27.79 27.79 0 0 0-0.53-5.34 53 53 0 0 1-15.82 11.11C847.45 334 674.8 341.6 510.22 341.6c-190.41 0-338.12 2.54-404.89-37.5-6.89 7.43-10.6 14.56-10.6 21.15 0 51 158.7 65.4 420.3 65.4s410.68-37.5 410.68-92.33z" fill="#FEE4B0" p-id="2998"></path><path d="M448.67 207.92c74.06 5.77 69.12 80.61 59.63 116.38-12.5 47.13-165.43 40.4-196.2 54.82s-56.75 41.36-55.78 63.48-4.18 88.49-3.53 106.76 8.34 78.87 7.38 95.22 1.92 111.57 11.54 133.69 51.94 69.25 53.86 89.45-24 30.78-76.94 28.85c-91.31-3.32-153.89-9.62-149.08-28.85 7.82-31.3 101.95-30.78 106.76-55.78s10.58-48.09 14.43-76-30.78-168.31-17.31-212.56 26-70.21 25-89.45-29.82-68.29-49.05-88.48c-33.5-35.16 195.23-143.3 269.29-137.53z" fill="#FF8E7B" p-id="2999"></path><path d="M263.43 729s0.51 5.63 0.79 8.36c1.82 18 4.27 33.47 7.48 40.85 9.62 22.12 51.94 69.25 53.86 89.45s-24 30.78-76.94 28.85c-91.31-3.32-153.89-9.62-149.08-28.85 7.82-31.3 101.95-30.78 106.76-55.78s10.58-48.09 14.43-76c0.61-4.4 0.26-11.61-0.71-20.8-0.23-2.18-0.79-6.87-0.79-6.87s6.73 6.62 19.49 12.62a112.32 112.32 0 0 0 24.71 8.17z" fill="#FF6AAF" p-id="3000"></path><path d="M448.67 207.92c74.06 5.77 69.12 80.61 59.63 116.38-12.5 47.13-165.43 40.4-196.2 54.82s-56.75 41.36-55.78 63.48-4.18 88.49-3.53 106.76-13.86-3.71-29.17-6.74a145.09 145.09 0 0 1-22.62-6.16s1.8-11 2.43-13.08c13.47-44.24 26-70.21 25-89.45s-29.82-68.29-49.05-88.48c-33.5-35.16 195.23-143.3 269.29-137.53z" fill="#FFD115" p-id="3001"></path><path d="M385.19 177.14c-15.39 20.2-12.5 37.51 11.54 38.47s75 4.81 83.68-6.73 25-45.2-13.47-44.24-81.75 12.5-81.75 12.5z" fill="#7D0809" p-id="3002"></path><path d="M451.55 143.48c-13.47 8.66-17.31 29.82-3.85 35.59s77.9 12.5 96.18 11.54 27.36-12.87 18.27-23.08c-38.47-43.29-110.6-24.05-110.6-24.05z" fill="#911218" p-id="3003"></path><path d="M448.67 207.92C460.21 173.29 576.58 181 592 196.38s11.54 49.05-26.93 51-127.95-4.84-116.4-39.46z" fill="#BA0617" p-id="3004"></path><path d="M237.06 324.33a11.55 11.55 0 0 1-8.18-19.71c1.21-1.22 12.55-12.26 38.62-25.28 20.7-10.34 33.43-16.25 34-16.5a11.54 11.54 0 1 1 9.71 20.94c-0.13 0.06-13 6-33.36 16.21-22.71 11.34-32.51 20.84-32.6 20.94a11.45 11.45 0 0 1-8.19 3.4z" fill="#FFFFFF" p-id="3005"></path><path d="M248.85 884.85a105.61 105.61 0 0 1-14.28-0.87 7.21 7.21 0 0 1 2.1-14.27c0.26 0 26.41 3.69 47.88-6.15a7.21 7.21 0 1 1 6 13.12c-14.63 6.7-30.55 8.17-41.7 8.17z" fill="#FFD9EB" p-id="3006"></path><path d="M210.14 337.76m-13.47 0a13.47 13.47 0 1 0 26.94 0 13.47 13.47 0 1 0-26.94 0Z" fill="#FFFFFF" p-id="3007"></path><path d="M214.51 873.11m-7.21 0a7.21 7.21 0 1 0 14.42 0 7.21 7.21 0 1 0-14.42 0Z" fill="#FFD9EB" p-id="3008"></path></svg>