<?xml version="1.0" standalone="no"?><!DOCTYPE svg PUBLIC "-//W3C//DTD SVG 1.1//EN" "http://www.w3.org/Graphics/SVG/1.1/DTD/svg11.dtd"><svg t="1765992342829" class="icon" viewBox="0 0 1024 1024" version="1.1" xmlns="http://www.w3.org/2000/svg" p-id="6767" xmlns:xlink="http://www.w3.org/1999/xlink" width="128" height="128"><path d="M958.836 447.08l-0.24 59.65-621.244 361.026 0.242-59.652L958.836 447.08z" fill="#F3B2A1" p-id="6768"></path><path d="M337.594 808.104l-0.242 59.652L65.164 710.6l0.24-59.644 272.19 157.148z" fill="#E99B8A" p-id="6769"></path><path d="M958.836 447.08L337.594 808.102 65.406 650.958l621.24-361.026 272.19 157.146z" fill="#FDC8B8" p-id="6770"></path><path d="M749.466 278.76L887.2 198.702c-4.42-2.54-8.424-2.782-11.32-1.098l-126.416 73.468v7.688z" fill="#CBDBF4" p-id="6771"></path><path d="M887.202 198.712l-137.728 80.048v44.266l148.992-86.594c2.86-1.656 4.636-5.184 4.656-10.202 0.02-10.12-7.112-22.436-15.91-27.52h-0.01z" fill="#DBE6FA" p-id="6772"></path><path d="M741.84 188.788c55.53 32.052 100.4 109.774 100.224 173.578-0.186 63.812-45.346 89.552-100.874 57.492-55.54-32.06-100.408-109.78-100.22-173.596 0.184-63.804 45.334-89.534 100.88-57.474h-0.008z" fill="#2A3134" p-id="6773"></path><path d="M670.292 181.78l32.256-18.75c18.292-10.62 43.612-9.122 71.56 7.01l-32.266 18.748c-27.956-16.132-53.276-17.632-71.56-7.01h0.01z" fill="#4F575F" p-id="6774"></path><path d="M844.986 408.11l-32.256 18.75c18.05-10.482 29.24-32.796 29.324-64.494 0.186-63.804-44.684-141.526-100.204-173.578l32.256-18.748c55.52 32.06 100.39 109.772 100.204 173.578-0.094 31.706-11.282 54.01-29.334 64.5l0.01-0.008z" fill="#3D4449" p-id="6775"></path><path d="M692.26 217.6c55.54 32.07 100.41 109.782 100.224 173.578-0.186 63.812-45.336 89.552-100.866 57.492-55.538-32.06-100.406-109.78-100.23-173.596 0.186-63.794 45.344-89.534 100.882-57.474h-0.008z" fill="#2A3134" p-id="6776"></path><path d="M620.712 210.59l32.256-18.74c18.282-10.63 43.604-9.12 71.55 7.01l-32.256 18.74c-27.946-16.132-53.268-17.632-71.55-7.01z" fill="#4F575F" p-id="6777"></path><path d="M795.396 436.93l-32.256 18.75c18.06-10.492 29.25-32.796 29.334-64.502 0.186-63.796-44.684-141.518-100.212-173.578l32.256-18.74c55.528 32.052 100.398 109.774 100.212 173.568-0.094 31.706-11.282 54.012-29.324 64.502h-0.01z" fill="#3D4449" p-id="6778"></path><path d="M636.984 321.48c-0.066 23.86 16.728 52.922 37.506 64.92l-32.266 18.74c-20.768-11.99-37.56-41.052-37.496-64.92l32.256-18.74zM647.96 297.36c-6.75 3.928-10.94 12.27-10.976 24.11l-32.256 18.75c0.038-11.842 4.216-20.182 10.976-24.112l32.256-18.748z" fill="#4F575F" p-id="6779"></path><path d="M625.432 332.846l32.256-18.748c-4.282 2.494-6.946 7.792-6.964 15.314-0.046 15.136 10.612 33.586 23.804 41.2l-32.256 18.75c-13.192-7.614-23.85-26.066-23.814-41.212 0.028-7.52 2.68-12.808 6.974-15.304z" fill="#FFB63C" p-id="6780"></path><path d="M674.49 386.4c10.446 6.034 19.912 6.592 26.746 2.618l-32.256 18.748c-6.842 3.976-16.3 3.408-26.756-2.626l32.266-18.74z" fill="#4F575F" p-id="6781"></path><path d="M691.508 372.28l-32.256 18.748c-4.34 2.514-10.344 2.16-16.98-1.666l32.256-18.748c6.636 3.834 12.64 4.188 16.98 1.666z" fill="#FFA20D" p-id="6782"></path><path d="M642.68 246.412c55.52 32.06 100.39 109.78 100.214 173.578-0.186 63.82-45.346 89.554-100.874 57.5-55.528-32.068-100.408-109.78-100.22-173.594 0.184-63.806 45.334-89.544 100.88-57.476v-0.008z m-0.456 158.73c20.76 11.99 37.656 2.364 37.72-21.486 0.066-23.86-16.708-52.94-37.468-64.922-20.778-12-37.682-2.364-37.748 21.486-0.066 23.86 16.728 52.93 37.496 64.92z" fill="#2A3134" p-id="6783"></path><path d="M642.476 318.734c20.76 11.98 37.534 41.054 37.47 64.92-0.066 23.852-16.952 33.478-37.72 21.488-20.77-11.992-37.564-41.054-37.5-64.922 0.068-23.85 16.972-33.486 37.75-21.486z m-0.204 70.628c13.18 7.606 23.896 1.5 23.942-13.638 0.038-15.146-10.612-33.606-23.784-41.212-13.192-7.614-23.924-1.508-23.972 13.64-0.036 15.144 10.614 33.596 23.814 41.21z" fill="#FFCA6C" p-id="6784"></path><path d="M571.122 239.412l32.266-18.75c18.282-10.62 43.604-9.122 71.55 7.01l-32.256 18.748c-27.956-16.14-53.276-17.64-71.56-7.008z" fill="#4F575F" p-id="6785"></path><path d="M745.816 465.742l-32.256 18.75c18.05-10.492 29.24-32.796 29.324-64.504 0.186-63.794-44.684-141.516-100.204-173.568l32.256-18.748c55.52 32.052 100.39 109.774 100.214 173.578-0.094 31.696-11.284 54.01-29.334 64.492z" fill="#3D4449" p-id="6786"></path><path d="M647.456 338.032l-29.994 17.436c-4.42-2.552-8.434-2.794-11.328-1.108l35.188-20.452c1.88 0.978 4.02 2.374 6.144 4.124h-0.01z" fill="#CBDBF4" p-id="6787"></path><path d="M665.972 371.544l-37.254 21.644c3.62-2.104 4.868-6.888 4.626-10.976-0.326-10.1-7.466-21.94-15.88-26.744l29.992-17.436c9.636 7.94 17.092 21.346 18.516 33.512z" fill="#DBE6FA" p-id="6788"></path><path d="M293.618 535.97l323.714-188.118c2.904-1.684 6.908-1.442 11.33 1.108l-323.714 188.12c-4.422-2.552-8.426-2.794-11.33-1.11z" fill="#CBDBF4" p-id="6789"></path><path d="M639.916 386.68L316.2 574.808c2.858-1.666 4.636-5.194 4.654-10.2 0.02-10.132-7.112-22.446-15.908-27.53L628.66 348.96c8.798 5.074 15.928 17.4 15.9 27.52-0.01 5.016-1.788 8.544-4.646 10.2z" fill="#DBE6FA" p-id="6790"></path><path d="M333.116 426.31c55.54 32.07 100.408 109.78 100.222 173.578-0.186 63.812-45.336 89.552-100.864 57.502-55.538-32.07-100.408-109.782-100.22-173.606 0.176-63.796 45.334-89.534 100.872-57.474h-0.01z" fill="#2A3134" p-id="6791"></path><path d="M261.566 419.31l32.256-18.75c18.284-10.63 43.604-9.122 71.56 7.01l-32.266 18.74c-27.946-16.132-53.266-17.632-71.55-7z" fill="#4F575F" p-id="6792"></path><path d="M436.26 645.64l-32.264 18.75c18.06-10.492 29.25-32.796 29.332-64.502 0.188-63.796-44.682-141.518-100.212-173.58l32.266-18.738c55.52 32.052 100.39 109.774 100.212 173.568-0.092 31.706-11.282 54.012-29.332 64.512v-0.01z" fill="#3D4449" p-id="6793"></path><path d="M283.536 455.12c55.52 32.062 100.39 109.784 100.214 173.588-0.186 63.814-45.346 89.554-100.866 57.494-55.538-32.06-100.408-109.784-100.23-173.598 0.186-63.804 45.344-89.544 100.882-57.474v-0.008z" fill="#2A3134" p-id="6794"></path><path d="M211.978 448.12l32.264-18.748c18.284-10.62 43.604-9.122 71.55 7.01l-32.256 18.748c-27.946-16.14-53.266-17.63-71.56-7.01z" fill="#4F575F" p-id="6795"></path><path d="M386.672 674.462l-32.256 18.74c18.05-10.48 29.24-32.796 29.324-64.494 0.186-63.804-44.684-141.526-100.204-173.578l32.256-18.748c55.53 32.06 100.4 109.774 100.212 173.578-0.092 31.706-11.282 54.01-29.322 64.502h-0.01z" fill="#3D4449" p-id="6796"></path><path d="M228.26 559.01c-0.066 23.85 16.718 52.924 37.496 64.914l-32.256 18.748c-20.778-12-37.572-41.062-37.498-64.92l32.256-18.75v0.008zM239.234 534.892c-6.758 3.92-10.938 12.26-10.984 24.11L196 577.75c0.028-11.85 4.218-20.192 10.968-24.11l32.264-18.748z" fill="#4F575F" p-id="6797"></path><path d="M216.698 570.368l32.264-18.74c-4.282 2.486-6.944 7.784-6.972 15.304-0.038 15.146 10.612 33.598 23.812 41.212l-32.256 18.748c-13.19-7.624-23.86-26.064-23.812-41.21 0.02-7.522 2.68-12.82 6.964-15.304v-0.01z" fill="#FFB63C" p-id="6798"></path><path d="M282.782 609.81l-32.256 18.74c-4.338 2.522-10.352 2.168-16.98-1.658l32.256-18.748c6.638 3.826 12.642 4.19 16.98 1.666z" fill="#FFA20D" p-id="6799"></path><path d="M233.956 483.942c55.52 32.06 100.388 109.774 100.202 173.578-0.176 63.812-45.334 89.552-100.862 57.492-55.54-32.06-100.408-109.78-100.222-173.596 0.186-63.794 45.334-89.534 100.882-57.474z m-0.456 158.72c20.76 12 37.656 2.374 37.72-21.484 0.066-23.86-16.71-52.932-37.48-64.922-20.766-11.99-37.672-2.366-37.738 21.494-0.074 23.86 16.72 52.922 37.498 64.912z" fill="#2A3134" p-id="6800"></path><path d="M233.752 556.256c20.76 11.99 37.534 41.06 37.468 64.92-0.064 23.86-16.952 33.486-37.72 21.496-20.778-12-37.572-41.062-37.498-64.92 0.066-23.86 16.972-33.486 37.74-21.496h0.01z m-0.206 70.636c13.182 7.606 23.896 1.5 23.934-13.646 0.046-15.146-10.602-33.606-23.776-41.212-13.2-7.614-23.924-1.5-23.97 13.648-0.046 15.146 10.612 33.586 23.812 41.21z" fill="#FFCA6C" p-id="6801"></path><path d="M162.398 476.932l32.256-18.74c18.282-10.63 43.602-9.12 71.558 7l-32.256 18.75c-27.956-16.132-53.276-17.632-71.56-7.01z" fill="#4F575F" p-id="6802"></path><path d="M337.082 703.274l-32.256 18.748c18.06-10.49 29.25-32.796 29.334-64.512 0.186-63.794-44.684-141.508-100.204-173.568l32.256-18.748c55.52 32.06 100.39 109.782 100.212 173.578-0.092 31.706-11.282 54.01-29.332 64.5h-0.01z" fill="#3D4449" p-id="6803"></path><path d="M238.732 575.554L153.46 625.124l-1.582 0.912c-4.412-2.55-8.424-2.792-11.33-1.108l12.354-7.168 79.694-46.33c0.374 0.186 0.736 0.4 1.108 0.614a36.792 36.792 0 0 1 5.028 3.51z" fill="#CBDBF4" p-id="6804"></path><path d="M257.238 609.076L173.428 657.78l-10.276 5.968c2.848-1.658 4.626-5.176 4.636-10.194l-0.01-0.772c-0.3-9.18-6.228-19.922-13.852-25.434-0.65-0.48-1.328-0.92-2.03-1.32l1.574-0.914 85.272-49.57c9.634 7.95 17.09 21.346 18.506 33.512l-0.01 0.02z" fill="#DBE6FA" p-id="6805"></path><path d="M151.878 626.036c8.806 5.084 15.936 17.408 15.9 27.528-0.028 10.11-7.206 14.168-16.002 9.086-8.78-5.074-15.9-17.38-15.872-27.49 0.028-10.128 7.196-14.188 15.974-9.124z" fill="#BBCFEF" p-id="6806"></path><path d="M891.178 730.67L867.086 765.6c-12.288 17.854-36.276 27.656-69.1 25.208-66.096-4.934-143.008-57.64-171.782-117.712-14.484-30.236-14.02-56.58-1.564-74.66l24.092-34.946c-12.456 18.088-12.92 44.432 1.564 74.66 28.764 60.08 105.696 112.788 171.78 117.722 32.826 2.448 56.814-7.354 69.1-25.208v0.008z" fill="#2A3134" p-id="6807"></path><path d="M650.26 638.14l-24.02 34.926c-14.53-30.218-14.056-56.516-1.628-74.62l24.11-34.93c-12.428 18.014-12.9 44.404 1.536 74.632v-0.01z" fill="#3D4449" p-id="6808"></path><path d="M822.086 755.87c-12.074-0.902-24.5-3.406-36.93-7.252l-23.952 34.984c12.38 3.816 24.762 6.302 36.78 7.206 32.824 2.448 56.804-7.354 69.102-25.21l24.092-34.936c-12.288 17.854-36.278 27.648-69.1 25.208h0.008z" fill="#2A3134" p-id="6809"></path><path d="M889.624 656.012c28.764 60.072-1.472 104.784-67.548 99.858-66.094-4.934-143.006-57.64-171.78-117.722-28.784-60.09 1.48-104.802 67.566-99.868 66.076 4.934 142.988 57.64 171.752 117.732h0.01z" fill="#4F575F" p-id="6810"></path><path d="M876.432 656.32c-26.046-53.528-95.018-100.81-154.038-105.576-58.74-4.784-85.884 34.472-59.718 88.25 26.066 53.51 95.046 100.8 154.094 105.584 58.648 4.766 85.896-34.434 59.672-88.25l-0.01-0.01z" fill="#2A3134" p-id="6811"></path><path d="M872.42 662.184c-26.038-53.528-95.018-100.808-154.038-105.574-27.554-2.254-48.08 5.166-59.484 19.176l-0.056 0.092c-8.992 15.808-8.426 37.916 3.834 63.116 26.066 53.51 95.046 100.8 154.094 105.584 27.528 2.234 48.054-5.184 59.448-19.176l0.056-0.094c8.992-15.816 8.406-37.934-3.854-63.116v-0.008z" fill="#3D4449" p-id="6812"></path><path d="M783.016 667.574c-14.14-1.07-30.562-12.334-36.724-25.172-6.2-12.902 0.38-22.464 14.428-21.374 14.15 1.052 30.58 12.344 36.724 25.2 6.172 12.846-0.326 22.398-14.428 21.346z" fill="#FFCA6C" p-id="6813"></path><path d="M770.364 623.18c-23.412-8.342-35.356 7.808-18.682 27.302l18.682-27.304z m24.186 18.124l-17.316 25.292c19.968 5.028 29.1-8.444 17.316-25.292z" fill="#FFB63C" p-id="6814"></path><path d="M812.702 672.46l-3.11 4.498c-4.14 6.012-12.22 9.308-23.272 8.488-22.276-1.666-48.174-19.418-57.864-39.656-4.88-10.184-4.73-19.064-0.532-25.162l3.12-4.496c-4.2 6.096-4.358 14.978 0.52 25.172 9.7 20.238 35.6 37.98 57.866 39.646 11.06 0.83 19.13-2.476 23.272-8.49z" fill="#FFCA6C" p-id="6815"></path><path d="M812.18 647.318c9.682 20.238-0.492 35.29-22.75 33.632-22.268-1.666-48.166-19.408-57.866-39.656-9.69-20.238 0.484-35.31 22.752-33.652 22.258 1.666 48.164 19.428 57.864 39.676z m-65.888-4.916c6.144 12.846 22.584 24.11 36.724 25.162 14.13 1.052 20.592-8.5 14.438-21.346-6.154-12.856-22.594-24.138-36.724-25.19-14.15-1.052-20.6 8.518-14.44 21.374z" fill="#FFDE9B" p-id="6816"></path></svg>