<?xml version="1.0" standalone="no"?><!DOCTYPE svg PUBLIC "-//W3C//DTD SVG 1.1//EN" "http://www.w3.org/Graphics/SVG/1.1/DTD/svg11.dtd"><svg t="1765879402272" class="icon" viewBox="0 0 1024 1024" version="1.1" xmlns="http://www.w3.org/2000/svg" p-id="20454" xmlns:xlink="http://www.w3.org/1999/xlink" width="128" height="128"><path d="M794.64 666c-123.18 123.16-235.92 96.79-259.14 94.93l-2.75-0.25c-17.94-51.57-50.18-103.43-95.43-148.68-47.18-47.17-101.45-80.17-155.09-97.62q-0.51-3.87-0.78-7.48c-1.82-23.18-28.18-135.92 95-259.1 127-127 331.43-168.91 459.24-41.1S921.63 539 794.64 666z" fill="#F25458" p-id="20455"></path><path d="M790.41 161.41c-6.53-6.54-13.26-12.59-20.07-18.41 129 150.32 93.56 361.31-33.39 488.25-91 91-181.24 99.24-235.56 95 0.76 1.83 1.64 3.66 2.37 5.49l2.94 0.45c24.85 3.49 146.62 38.88 269.8-84.3 126.99-127.04 158.36-342.03 13.91-486.48z" fill="#CE384A" p-id="20456"></path><path d="M387.42 278.57c127.09-127.09 328.78-172.14 462.2-56.78-4.37-5.07-8.89-10.07-13.75-14.92C708.06 79.06 503.61 121 376.62 248c-123.18 123.19-96.81 235.92-95 259.11 0.18 2.41 0.43 4.9 0.77 7.48 1 0.32 2 0.69 3 1-2.81-48.7 4.71-139.7 102.03-237.02z" fill="#FFFFFF" p-id="20457"></path><path d="M325.75 774.44c-53.84 61.68-107.58 131.09-115.35 131s-46.86-39.16-46.86-39.16l-3.91-3.91s-39-39-39.12-46.82 69.34-61.5 131-115.39c58.9-51.4 33.86-133.74 27.37-189.18 53.64 17.45 103.05 45.59 150.23 92.76C474.34 649 499 693.33 517 744.9c-55-5.16-138.28-31.02-191.25 29.54z" fill="#F7C781" p-id="20458"></path><path d="M184.7 870.33l240.08-257.65 11.71 17.57-226.89 274.4-24.9-34.32z" fill="#DDA35E" p-id="20459"></path><path d="M210.58 923h-0.32c-6 0-15-0.13-59.14-44.31l-3.91-3.92c-44.14-44.09-44.21-53.1-44.21-59.06-0.11-12.31 5.29-17.83 72.29-73.85 20.16-16.85 43-36 64.68-54.9 42.57-37.16 33.51-95 25.51-146-1.54-9.79-3-19-4-27.89l-3.19-27.23 26.07 8.49c60 19.52 111.44 51.26 157.22 97C484.6 634.44 513 680 533.57 739.12l9 25.82-27.22-2.55c-9.7-0.91-19.94-2.39-30.78-4C434 751.12 376.74 742.83 339 786c-18.83 21.57-37.82 44.3-54.57 64.35-55.8 66.76-61.73 72.65-73.85 72.65z m4.91-34.17zM141.75 817c6.8 8.44 19.35 22 30.3 33l3.92 3.92c11 11 24.56 23.54 33 30.34 10.57-11 30.48-34.86 48.46-56.38 16.88-20.2 36-43.09 55.09-65 50.33-57.54 123.57-47 177.06-39.21l0.42 0.06c-17.66-41.44-40.48-74.68-73.34-107.54-35.25-35.24-72.7-60.63-116.19-78.54 8.42 53.84 19 126.55-37.44 175.78-22 19.2-45 38.43-65.26 55.39-21.38 17.87-45.03 37.66-56.02 48.18z m-4.63-6.52" fill="#212144" p-id="20460"></path><path d="M209.7 922.22h-0.18c-6 0-15-0.07-58.9-44l-3.88-3.89c-43.95-43.94-44-52.94-44-58.9 0-12.27 5.38-17.81 72.61-74.07 20-16.78 42.77-35.79 64.33-54.64 41-35.84 31-94 22.22-145.24-2.52-14.72-4.91-28.64-5.86-41.14-0.12-1.68-0.4-3.87-0.73-6.56C250.86 457.52 237.4 347.2 356.63 228 485.71 98.9 701.58 47.72 839.4 185.54s86.65 353.69-42.4 482.77C677.75 787.54 567.42 774.09 531.17 769.66c-2.68-0.33-4.88-0.61-6.55-0.74-12.51-0.94-26.42-3.33-41.14-5.86-51.28-8.82-109.4-18.8-145.25 22.22-18.82 21.53-37.82 44.23-54.58 64.26-56.04 66.97-61.8 72.68-73.95 72.68z m5-34.17z m-73.14-71.26c6.76 8.39 19.2 21.84 30.05 32.69l3.88 3.89c10.86 10.85 24.3 23.29 32.69 30 10.59-11 30.54-34.88 48.56-56.42 16.87-20.16 36-43 55.07-64.83 48.81-55.86 123.27-43.07 177.64-33.72 13.89 2.38 27 4.63 37.84 5.45 2.09 0.16 4.82 0.48 8.17 0.89 32.05 3.92 129.57 15.8 236.69-91.31C889 526.6 936.82 332.65 814.56 210.38S498.34 136 381.47 252.82c-107.11 107.12-95.22 204.65-91.3 236.7 0.4 3.34 0.73 6.08 0.88 8.16 0.82 10.85 3.07 24 5.46 37.84 9.34 54.37 22.13 128.83-33.73 177.64-21.84 19.1-44.72 38.24-64.9 55.13-21.51 18-45.31 37.92-56.35 48.5z m-4.63-6.52" fill="#212144" p-id="20461"></path><path d="M221.83 725.36l179.53-153.67" fill="#DDB06F" p-id="20462"></path><path d="M210.38 712.063l179.53-153.659 22.85 26.697L233.229 738.76z" fill="#212144" p-id="20463"></path><path d="M300.5 804.03l153.56-179.64" fill="#DDB06F" p-id="20464"></path><path d="M287.173 792.565l153.546-179.653 26.705 22.825L313.878 815.39z" fill="#212144" p-id="20465"></path><path d="M400.93 207.92m-95.09 0a95.09 95.09 0 1 0 190.18 0 95.09 95.09 0 1 0-190.18 0Z" fill="#F2A75E" p-id="20466"></path><path d="M332.09 233.35c0-57.14 46.67-103.45 104.24-103.45 25.52 0 37.17 19 55.29 34.17-19.11-23.22-36.46-48-69-48-57.56 0-104.23 46.32-104.23 103.46a102.88 102.88 0 0 0 37.23 79.19 102.53 102.53 0 0 1-23.53-65.37z" fill="#FFFFFF" p-id="20467"></path><path d="M443.64 111.37a101.2 101.2 0 0 1 25 66.35c0 58-49.58 105-110.74 105-27.12 0-28.51-15.44-47.76-30.78 20.3 23.56 27.76 44.77 62.35 44.77 61.16 0 110.74-47 110.74-105-0.04-32.26-15.43-61.09-39.59-80.34z" fill="#DD853C" p-id="20468"></path><path d="M400.93 320.58a112.66 112.66 0 1 1 112.66-112.66 112.79 112.79 0 0 1-112.66 112.66z m0-190.19a77.53 77.53 0 1 0 77.52 77.53 77.62 77.62 0 0 0-77.52-77.53z" fill="#212144" p-id="20469"></path></svg>