<?xml version="1.0" standalone="no"?><!DOCTYPE svg PUBLIC "-//W3C//DTD SVG 1.1//EN" "http://www.w3.org/Graphics/SVG/1.1/DTD/svg11.dtd"><svg t="1765880288685" class="icon" viewBox="0 0 1024 1024" version="1.1" xmlns="http://www.w3.org/2000/svg" p-id="32595" xmlns:xlink="http://www.w3.org/1999/xlink" width="128" height="128"><path d="M898.66752 862.57152c0 56.83712-45.8496 102.912-102.4 102.912h-593.92c-56.56064 0-102.4-46.07488-102.4-102.912V351.5904c0-56.83712 45.83936-102.912 102.4-102.912h593.92c56.5504 0 102.4 46.07488 102.4 102.912v510.98112z" fill="#3E3A39" p-id="32596"></path><path d="M161.38752 801.6384c0 56.55552 45.84448 102.4 102.4 102.4h471.04c56.55552 0 102.4-45.84448 102.4-102.4v-389.12c0-56.55552-45.84448-102.4-102.4-102.4h-471.04c-56.55552 0-102.4 45.84448-102.4 102.4v389.12z" fill="#6094CE" p-id="32597"></path><path d="M898.57536 390.4v144.90112c0 78.27968-138.21952 141.76768-346.56768 141.76768H446.58176c-168.60672 0-346.5216-63.488-346.5216-141.76768V390.4c0-78.22848 63.4368-141.7216 141.7216-141.7216h515.02592c78.27968 0 141.76768 63.49312 141.76768 141.7216z" opacity=".1" p-id="32598"></path><path d="M837.22752 412.5184c0-56.55552-45.84448-102.4-102.4-102.4h-471.04c-56.55552 0-102.4 45.84448-102.4 102.4v199.7568c66.54976 38.97344 177.72544 64.7936 285.19424 64.7936h105.42592c125.50144 0 225.48992-23.05536 285.21984-58.48576V412.5184z" fill="#1E6BA7" opacity=".6" p-id="32599"></path><path d="M898.57536 325.61152v144.90112c0 78.27968-138.21952 141.76768-346.56768 141.76768H446.58176c-168.60672 0-346.5216-63.488-346.5216-141.76768V325.61152c0-78.22848 63.4368-141.7216 141.7216-141.7216h515.02592c78.27968 0 141.76768 63.488 141.76768 141.7216z" fill="#EAB44F" p-id="32600"></path><path d="M680.36096 183.88992h-52.0704c-12.3392-57.7536-63.7952-101.12-125.12768-101.12h-7.68c-61.3888 0-112.7936 43.3664-125.1328 101.12h-52.0704c13.056-86.1184 87.552-152.32 177.2032-152.32h7.68c89.64608 0 164.14208 66.2016 177.19808 152.32z" fill="#6094CE" p-id="32601"></path><path d="M362.47552 807.24992a10.24 10.24 0 0 1-10.24 10.24h-39.25504a10.24 10.24 0 0 1-10.24-10.24V653.1584a10.24 10.24 0 0 1 10.24-10.24h39.25504a10.24 10.24 0 0 1 10.24 10.24v154.09152zM721.24928 807.24992a10.24 10.24 0 0 1-10.24 10.24h-39.25504a10.24 10.24 0 0 1-10.24-10.24V653.1584a10.24 10.24 0 0 1 10.24-10.24h39.25504a10.24 10.24 0 0 1 10.24 10.24v154.09152z" fill="#3E3A39" p-id="32602"></path><path d="M386.14528 647.42912a20.48 20.48 0 0 1-20.48 20.48H299.55584a20.48 20.48 0 0 1-20.48-20.48v-80.70656a20.48 20.48 0 0 1 20.48-20.48h66.10944a20.48 20.48 0 0 1 20.48 20.48v80.70656zM744.91904 647.42912a20.48 20.48 0 0 1-20.48 20.48H658.3296a20.48 20.48 0 0 1-20.48-20.48v-80.70656a20.48 20.48 0 0 1 20.48-20.48h66.10944a20.48 20.48 0 0 1 20.48 20.48v80.70656z" fill="#EFEFEF" p-id="32603"></path><path d="M628.28032 183.88992h52.0704a178.14016 178.14016 0 0 0-25.16992-67.84h-66.17088c19.4816 17.67424 33.57696 41.18528 39.2704 67.84zM409.58976 116.04992H343.43424a178.05312 178.05312 0 0 0-25.16992 67.84h52.0704c5.69344-26.65472 19.77856-50.16576 39.25504-67.84z" fill="#1E6BA7" opacity=".4" p-id="32604"></path></svg>