<?xml version="1.0" standalone="no"?><!DOCTYPE svg PUBLIC "-//W3C//DTD SVG 1.1//EN" "http://www.w3.org/Graphics/SVG/1.1/DTD/svg11.dtd"><svg t="1765987899623" class="icon" viewBox="0 0 1024 1024" version="1.1" xmlns="http://www.w3.org/2000/svg" p-id="27831" xmlns:xlink="http://www.w3.org/1999/xlink" width="128" height="128"><path d="M148 786v32l348 204v-32L148 786z" fill="#CC3A2F" p-id="27832"></path><path d="M148 786l198-110 346 204-196 110-348-204z" fill="#FF5542" p-id="27833"></path><path d="M496 1022l196-112v-30L496 990v32z" fill="#9E2319" p-id="27834"></path><path d="M178 784l318 186V346L178 165.06V784z" fill="#FFE571" p-id="27835"></path><path d="M148 116v32l30 17.06L496 346v-32L148 116z" fill="#CC3A2F" p-id="27836"></path><path d="M496 970l174-102V248.34L496 346v624z" fill="#D67240" p-id="27837"></path><path d="M692 204L496 314v32l174-97.66L692 236v-32z" fill="#9E2319" p-id="27838"></path><path d="M704 590l-26 14 26 16-34 19.68v227.34L692 880v30l40-22-20-12 218-120 24 14 26-16-276-164z" opacity=".2" p-id="27839"></path><path d="M358 296l-28-16-10-6-14-8-38-22-14-8-38-22-14-8v150l270 156V362l-10-6-38-22-66-38z" fill="#FFB230" p-id="27840"></path><path d="M202 356l128-76-10-6-14-8-38-22-14-8-38-22-14-8v150z" fill="#D67240" p-id="27841"></path><path d="M216 350V214l38 22v136l-38-22z" fill="#FF5542" p-id="27842"></path><path d="M254 372l14-8V244l-14-8v136z" fill="#CC3A2F" p-id="27843"></path><path d="M268 378V244l-14-8 14 8 38 22v134l-38-22z" fill="#85BDC4" p-id="27844"></path><path d="M306 400l14-8V274l-14-8v134z" fill="#609AA3" p-id="27845"></path><path d="M320 408V274l10 6 28 16v134l-38-22z" fill="#63D2E3" p-id="27846"></path><path d="M358 430l66-40v-56l-66-38v134z" fill="#609AA3" p-id="27847"></path><path d="M462 490l10-6V362l-10-6v134z" fill="#2CA7C7" p-id="27848"></path><path d="M424 468V334l38 22v134l-38-22z" fill="#63D2E3" p-id="27849"></path><path d="M372 482l-14-8-28-16-10-6-14-8-38-22-14-8-38-22-14-8v150l270 154V540l-10-6-38-22-14-8-38-22z" fill="#FFB230" p-id="27850"></path><path d="M202 534l128-76-10-6-14-8-38-22-14-8-38-22-14-8v150z" fill="#D67240" p-id="27851"></path><path d="M268 556V422l-14-8 14 8 38 22v134l-38-22z" fill="#63D2E3" p-id="27852"></path><path d="M306 578l14-8V452l-14-8v134z" fill="#2CA7C7" p-id="27853"></path><path d="M320 586V452l10 6 28 16v134l-38-22z" fill="#FF5542" p-id="27854"></path><path d="M358 608l14-8V482l-14-8v134z" fill="#CC3A2F" p-id="27855"></path><path d="M372 616V482l38 22v134l-38-22z" fill="#85BDC4" p-id="27856"></path><path d="M410 638l14-8V512l-14-8v134z" fill="#609AA3" p-id="27857"></path><path d="M424 646V512l38 22v134l-38-22z" fill="#63D2E3" p-id="27858"></path><path d="M462 668l10-6V540l-10-6v134z" fill="#2CA7C7" p-id="27859"></path><path d="M372 658l-42-24-24-14-38-22-14-8-38-22-14-8v150l270 156V716l-10-6-38-22-14-8-38-22z" fill="#FFB230" p-id="27860"></path><path d="M202 710l128-76-24-14-38-22-14-8-38-22-14-8v150z" fill="#D67240" p-id="27861"></path><path d="M216 704V568l38 22v136l-38-22z" fill="#63D2E3" p-id="27862"></path><path d="M254 726l14-8V598l-14-8v136z" fill="#609AA3" p-id="27863"></path><path d="M268 732V598l-14-8 14 8 38 22v134l-38-22z" fill="#63D2E3" p-id="27864"></path><path d="M306 754l66-38v-58l-66-38v134z" fill="#609AA3" p-id="27865"></path><path d="M372 792V658l38 22v134l-38-22z" fill="#63D2E3" p-id="27866"></path><path d="M410 814l14-8V688l-14-8v134z" fill="#2CA7C7" p-id="27867"></path><path d="M424 822V688l38 22v134l-38-22z" fill="#FF5542" p-id="27868"></path><path d="M462 844l10-6V716l-10-6v134z" fill="#CC3A2F" p-id="27869"></path><path d="M148 116L346 6l346 198-196 110-348-198z" fill="#FF5542" p-id="27870"></path><path d="M202 736v40l120 68v-40l-86-48-34-20z m142 80v40l128 76v-42l-94-54-34-20z" fill="#FFB230" p-id="27871"></path><path d="M202 776l34-20-34-20v40z m142 80l34-20-34-20v40z" fill="#D67240" p-id="27872"></path></svg>