<?xml version="1.0" standalone="no"?><!DOCTYPE svg PUBLIC "-//W3C//DTD SVG 1.1//EN" "http://www.w3.org/Graphics/SVG/1.1/DTD/svg11.dtd"><svg t="1765992315054" class="icon" viewBox="0 0 1024 1024" version="1.1" xmlns="http://www.w3.org/2000/svg" p-id="5340" xmlns:xlink="http://www.w3.org/1999/xlink" width="128" height="128"><path d="M794.066 659.084v20.48c0 12.1-7.448 23.272-23.274 32.58-31.65 17.688-81.92 17.688-113.57 0-15.826-9.308-23.272-21.41-23.272-33.512v-20.48c0 12.102 7.446 24.204 23.272 33.514 31.65 17.686 81.92 17.686 113.57 0 14.896-9.31 23.274-20.48 23.274-32.582z" fill="#F04343" p-id="5341"></path><path d="M770.792 691.666c-15.824 9.308-37.236 13.964-57.716 13.964v20.48c20.48 0 41.892-4.656 57.716-13.964 15.826-9.31 23.274-20.48 23.274-32.582v-20.48c0 12.1-8.38 23.272-23.274 32.58z" fill="#E22525" p-id="5342"></path><path d="M769.86 625.57c31.652 17.688 31.652 47.478 0 66.096-31.65 17.686-81.92 17.686-113.57 0-31.65-17.688-31.65-47.476 0-66.096 31.652-17.686 82.852-17.686 113.572 0z" fill="#FF6161" p-id="5343"></path><path d="M769.86 643.26v13.03c0 8.38-5.584 16.758-15.824 22.342-21.41 13.034-56.786 13.034-79.126 0-11.172-6.516-16.758-14.894-16.758-23.272v-13.032c0 8.378 5.586 16.756 16.758 23.272 22.34 13.032 57.716 13.032 79.126 0 10.24-5.586 15.826-13.964 15.826-22.34z" fill="#FFA20D" p-id="5344"></path><path d="M753.106 619.986c22.34 13.032 22.34 33.512 0 45.614-21.412 13.032-56.786 13.032-79.128 0-22.34-13.032-22.34-33.512 0-45.614 21.412-12.102 56.786-12.102 79.128 0z" fill="#FFCA6C" p-id="5345"></path><path d="M741.004 80.99V643.26c0 3.72-2.794 8.378-7.448 11.17-10.24 6.516-27.926 6.516-38.166 0-5.586-2.792-8.38-7.448-8.38-11.17V80.99c0 3.722 2.794 8.378 8.38 11.17 10.24 6.516 27.926 6.516 38.166 0 4.654-3.724 7.448-7.448 7.448-11.17z" fill="#70444D" p-id="5346"></path><path d="M732.626 69.82c10.24 6.514 10.24 15.824 0 22.34s-27.928 6.516-38.168 0c-10.24-6.516-10.24-15.826 0-22.34 10.24-6.52 27.928-6.52 38.168 0z" fill="#804F59" p-id="5347"></path><path d="M561.34 187.112l121.948-70.748c2.792-0.932 5.584-0.932 9.308 0.93l-121.948 70.75c-3.724-1.862-7.448-1.862-9.31-0.932z m140.566-39.098l-121.95 70.75c1.862-0.932 3.724-4.654 3.724-8.38 0-8.376-5.586-18.616-13.032-22.34l121.948-70.75c7.448 3.724 13.032 13.964 13.032 22.342 0 3.724-1.86 6.516-3.722 8.38z" fill="#613941" p-id="5348"></path><path d="M570.648 188.044c7.446 3.724 13.032 13.964 13.032 22.34 0 8.38-5.586 11.172-13.032 7.448-7.448-3.724-13.034-13.962-13.034-22.34 0-8.38 5.586-11.172 13.034-7.448z" fill="#613941" p-id="5349"></path><path d="M588.334 214.11l34.444-20.48-10.24 120.086-34.444 20.48 10.24-120.086z" fill="#DBE6FA" p-id="5350"></path><path d="M585.54 306.27l-1.86 18.618 24.204-13.964-14.894-8.38-7.448 3.726z" fill="#EBF2FF" p-id="5351"></path><path d="M595.78 270.894l-2.79 31.652 14.894 8.378 4.654-50.27-16.756 10.24z" fill="#BBCFEF" p-id="5352"></path><path d="M595.78 270.894l-7.446 4.656-2.792 30.72 7.448-3.724 2.792-31.652z" fill="#FFFFFF" p-id="5353"></path><path d="M558.546 177.804l34.444-19.55c2.792-1.86 7.446-1.86 12.1 0.932l-34.442 19.548c-4.656-1.86-9.31-2.792-12.102-0.93z m12.1 1.86l34.444-19.548c10.24 5.586 17.688 19.55 17.688 30.72v3.724l-34.444 19.55v-3.724c0-12.102-7.446-25.136-17.686-30.72z" fill="#DBE6FA" p-id="5354"></path><path d="M614.4 387.26l-13.964 8.376c-7.446 3.724-16.756 3.724-27.926-2.792l13.962-8.38c11.172 6.518 21.412 7.448 27.928 2.794z" fill="#FF6161" p-id="5355"></path><path d="M546.444 300.684l13.964-8.38c-7.448 3.726-11.172 13.034-11.172 25.136 0 24.204 17.688 54.924 39.1 67.026l-13.966 8.378c-21.41-12.102-39.098-42.822-39.098-67.026-0.93-12.1 3.724-21.41 11.172-25.134z" fill="#FF6161" p-id="5356"></path><path d="M540.86 292.306l13.96-8.38c8.38-4.654 19.55-4.654 32.584 2.794l-13.964 8.38c-12.1-7.45-24.204-8.38-32.58-2.794z m79.126 104.26l-13.964 8.38c8.378-4.656 13.032-14.896 13.032-29.79 0-28.858-20.48-65.164-45.614-79.126l13.964-8.38c25.134 14.896 45.614 50.27 45.614 79.128 0 13.964-4.654 24.204-13.032 29.79z" fill="#FF6161" p-id="5357"></path><path d="M573.44 295.1c25.134 14.892 45.614 50.268 45.614 79.126 0 28.858-20.48 40.96-46.544 26.064-25.136-14.894-45.616-50.268-45.616-79.126 0.932-28.86 21.412-40.96 46.546-26.066z m0 97.744c21.41 12.1 39.1 2.792 39.1-22.342s-17.69-54.924-39.1-67.026c-21.41-12.1-39.1-2.792-39.1 22.342 0 24.204 17.69 54.924 39.1 67.026z" fill="#F04343" p-id="5358"></path><path d="M570.648 179.666c10.24 5.584 17.686 19.548 17.686 30.72v3.724l-10.24 120.086-14.894-8.378c0-0.93-9.31-134.98-9.31-135.912-0.93-12.102 7.448-16.756 16.758-10.24z" fill="#CBDBF4" p-id="5359"></path><path d="M588.334 275.55l-4.654 49.338-5.586 4.654 4.656-52.132 5.584-1.86z" fill="#DBE6FA" p-id="5360"></path><path d="M414.254 272.756l144.292-83.78c2.792-0.932 5.584-0.932 9.308 0.93l-144.29 83.78c-3.724-1.86-7.448-1.86-9.31-0.93z m162.91-52.13l-144.292 83.78c1.862-0.93 3.724-4.654 3.724-8.376 0-8.38-5.586-18.62-13.032-22.342l144.29-83.782c11.172 6.516 17.688 25.134 9.31 30.72z" fill="#613941" p-id="5361"></path><path d="M423.564 273.688c7.446 3.722 13.032 13.962 13.032 22.34 0 8.38-5.586 11.172-13.032 7.448-7.448-3.724-13.034-13.964-13.034-22.34 0-8.38 5.586-11.172 13.034-7.448z" fill="#613941" p-id="5362"></path><path d="M441.25 299.752l34.444-20.48-10.24 120.088-34.444 19.55 10.24-119.158z" fill="#DBE6FA" p-id="5363"></path><path d="M438.46 391.912l-1.864 18.62 24.204-13.964-14.894-9.31-7.448 4.654z" fill="#EBF2FF" p-id="5364"></path><path d="M448.7 356.54l-2.794 30.72 14.894 9.308 4.654-50.27-16.756 10.24z" fill="#BBCFEF" p-id="5365"></path><path d="M448.7 356.54l-7.45 3.72-2.792 31.652 7.448-4.654 2.792-30.72z" fill="#FFFFFF" p-id="5366"></path><path d="M411.46 263.448l34.446-19.55c2.792-1.86 7.446-1.86 12.1 0.932l-34.442 19.548c-4.654-2.792-9.31-2.792-12.102-0.93zM423.564 264.38l34.444-19.55c10.24 5.584 17.686 19.548 17.686 30.72v3.722l-34.444 19.55v-3.724c0-11.17-7.446-25.134-17.686-30.72z" fill="#DBE6FA" p-id="5367"></path><path d="M467.316 472.9l-13.964 8.38c-7.446 3.724-16.756 3.724-27.926-2.792l13.964-8.38c11.17 6.518 21.41 6.518 27.926 2.794z" fill="#FF6161" p-id="5368"></path><path d="M399.36 386.328l13.964-8.38c-7.448 3.724-11.172 13.034-11.172 25.136 0 24.204 17.688 54.924 39.1 67.026l-13.964 8.378c-21.412-12.102-39.1-42.822-39.1-67.026 0-13.032 3.724-21.412 11.172-25.134z" fill="#FF6161" p-id="5369"></path><path d="M393.774 377.02l13.964-8.38c8.38-4.654 19.55-4.654 32.582 2.792l-13.964 8.38c-12.1-6.518-24.204-7.448-32.58-2.794z m79.128 104.26l-13.964 8.38c8.38-4.656 13.032-14.896 13.032-29.79 0-28.86-20.48-65.164-45.614-79.128l13.964-8.38c25.134 14.896 45.614 50.27 45.614 79.128 0 14.896-4.654 25.136-13.032 29.79z" fill="#FF6161" p-id="5370"></path><path d="M426.356 380.74c25.134 14.896 45.614 50.27 45.614 79.13 0 28.858-20.48 40.96-46.544 26.064-25.136-14.894-45.616-50.268-45.616-79.126 0.932-28.86 21.412-40.96 46.546-26.066z m0 97.748c21.412 12.1 39.1 2.792 39.1-22.342 0-25.136-17.688-54.924-39.1-67.026-21.41-12.1-39.098-2.792-39.098 22.34 0 24.206 17.688 53.994 39.1 67.028z" fill="#F04343" p-id="5371"></path><path d="M423.564 264.38c10.24 5.584 17.686 19.548 17.686 30.72v3.72l-10.24 120.09-14.894-8.38c0-0.93-9.308-134.98-9.308-135.912-0.932-11.17 7.446-15.826 16.756-10.24z" fill="#CBDBF4" p-id="5372"></path><path d="M441.25 360.26l-4.654 50.272-5.586 3.722 4.656-51.2 5.584-2.792z" fill="#DBE6FA" p-id="5373"></path><path d="M311.854 332.334l99.608-57.716c2.792-0.93 5.586-0.93 9.308 0.932l-99.606 57.716c-3.724-1.862-6.516-2.794-9.31-0.932z" fill="#613941" p-id="5374"></path><path d="M430.08 305.34l-99.608 57.714c1.862-0.93 3.724-4.654 3.724-8.378 0-8.378-5.586-18.618-13.032-22.34l99.606-57.718c11.172 6.516 17.688 26.066 9.31 30.72z" fill="#613941" p-id="5375"></path><path d="M321.164 333.266c7.446 3.724 13.032 13.964 13.032 22.34 0 8.38-5.586 11.172-13.032 7.448-7.448-3.724-13.034-13.964-13.034-22.34 0-8.38 5.586-12.104 13.034-7.448z" fill="#613941" p-id="5376"></path><path d="M390.98 891.81v20.48c0 12.102-7.446 23.274-23.27 32.582-31.652 17.688-81.92 17.688-113.572 0-15.826-9.308-23.272-21.41-23.272-33.512v-20.48c0 12.1 7.446 24.204 23.272 33.512 31.652 17.688 81.92 17.688 113.572 0 14.894-9.308 23.272-20.48 23.272-32.58z" fill="#F04343" p-id="5377"></path><path d="M367.71 924.392c-17.688 10.24-42.822 14.896-66.096 13.034v20.48c23.274 1.86 48.408-2.794 66.096-13.034 15.824-9.308 23.272-20.48 23.272-32.58v-20.48c0 12.1-8.38 23.272-23.272 32.58z" fill="#E22525" p-id="5378"></path><path d="M366.778 858.3c31.652 17.686 31.652 47.474 0 66.092-31.65 17.688-81.92 17.688-113.57 0-31.652-17.686-31.652-47.476 0-66.094 31.65-17.688 81.92-17.688 113.57 0z" fill="#FF6161" p-id="5379"></path><path d="M365.848 875.986v13.032c0 8.38-5.586 16.756-15.826 22.342-21.412 13.032-56.786 13.032-79.128 0-11.17-6.516-16.756-14.894-16.756-23.272v-13.034c0 8.38 5.586 16.756 16.756 23.274 22.342 13.032 57.716 13.032 79.128 0 11.17-5.586 15.826-13.964 15.826-22.342z" fill="#FFA20D" p-id="5380"></path><path d="M350.02 852.712c22.344 13.034 22.344 33.514 0 45.616-21.41 13.032-56.784 13.032-79.126 0-22.34-13.034-22.34-33.514 0-45.616 21.412-12.1 56.786-12.1 79.128 0z" fill="#FFCA6C" p-id="5381"></path><path d="M340.712 313.716v562.27c0 3.722-2.792 8.38-7.446 11.17-10.24 6.516-27.928 6.516-38.168 0-5.586-2.792-8.378-7.448-8.378-11.17V313.716c0 3.724 2.792 8.38 8.38 11.172 10.24 6.516 27.926 6.516 38.166 0 4.654-2.794 7.446-6.518 7.446-11.172z" fill="#70444D" p-id="5382"></path><path d="M340.712 539.928v190.836c0 3.724-2.792 8.378-7.446 11.172-10.24 6.516-27.928 6.516-38.168 0-5.586-2.794-8.378-7.448-8.378-11.172v-190.836c0 3.724 2.792 8.378 8.38 11.172 10.24 6.516 27.926 6.516 38.166 0 4.654-3.724 7.446-7.448 7.446-11.172z m400.292-233.66v190.838c0 3.724-2.794 8.378-7.448 11.172-10.24 6.516-27.926 6.516-38.166 0-5.586-2.794-8.38-7.448-8.38-11.172v-190.836c0 3.722 2.794 8.378 8.38 11.17 10.24 6.516 27.926 6.516 38.166 0 4.654-2.792 7.448-6.516 7.448-11.17z" fill="#512E35" p-id="5383"></path><path d="M332.334 302.546c10.24 6.516 10.24 15.824 0 22.34-10.24 6.518-27.926 6.518-38.166 0-10.24-6.516-10.24-15.824 0-22.34 11.17-5.586 27.926-5.586 38.166 0z" fill="#804F59" p-id="5384"></path></svg>