<?xml version="1.0" standalone="no"?><!DOCTYPE svg PUBLIC "-//W3C//DTD SVG 1.1//EN" "http://www.w3.org/Graphics/SVG/1.1/DTD/svg11.dtd"><svg t="1765987921996" class="icon" viewBox="0 0 1024 1024" version="1.1" xmlns="http://www.w3.org/2000/svg" p-id="28939" xmlns:xlink="http://www.w3.org/1999/xlink" width="128" height="128"><path d="M126 479.82L98 463.6V534l28 16 30 16 118 70 28 16 28 16 178 104 28 16v-70.64l-30-17.38-380-220.16z" fill="#FFB230" p-id="28940"></path><path d="M566 1004l230-132 30-18 194-108-214-138v222l-38 24-202 114v36z" opacity=".2" p-id="28941"></path><path d="M40 394l504 290 150-90 132-76-216-124-56-32-228-130-132 72-154 90z" fill="#FF5542" p-id="28942"></path><path d="M536 717.36V788l30-18 110-62 92-52 28-18 30-18v-64L544 722l-8-4.64zM826 518V300l-132 76v218l132-76z" fill="#D67240" p-id="28943"></path><path d="M326 232V14L194 90v214l132-72z" fill="#63D2E3" p-id="28944"></path><path d="M694 376L194 90l132-76 500 286-132 76z" fill="#FFE571" p-id="28945"></path><path d="M194 304V90l500 286v218L194 304z" fill="#FFB230" p-id="28946"></path><path d="M218 130v160l206 116 24 14 228 130V398l-66-38-66-40-30-16-8-4-30-18-28-16-24-14-148-88-58-34z" fill="#FF5542" p-id="28947"></path><path d="M424 252v154l24 14V266l-24-14z" fill="#FFB230" p-id="28948"></path><path d="M448 420l96-52v-48l-30-16-8-4-30-18-28-16v154z" fill="#9E2319" p-id="28949"></path><path d="M98 534v232l28 18V550l-28-16z" fill="#FF5542" p-id="28950"></path><path d="M126 784l30-18V566l-30-16v234z" fill="#9E2319" p-id="28951"></path><path d="M508 772v232l28 18V788l-28-16z" fill="#FF5542" p-id="28952"></path><path d="M536 1022l30-18V770l-30 18v234z" fill="#9E2319" p-id="28953"></path><path d="M768 656v198l28 18V638l-28 18z" fill="#FF5542" p-id="28954"></path><path d="M796 872l30-18V620l-30 18v234z" fill="#9E2319" p-id="28955"></path><path d="M274 636v30l28 18v-32l-28-16z" fill="#CC3A2F" p-id="28956"></path><path d="M302 684l28-16-28-16v32z" fill="#9E2319" p-id="28957"></path><path d="M126 522l380 222v-44.02L126 479.82V522z" fill="#FFE571" p-id="28958"></path><path d="M544 684L40 394v36l58 33.6 28 16.22 380 220.16 30 17.38 8 4.64v-38z" fill="#CC3A2F" p-id="28959"></path><path d="M544 722l282-166v-38l-132 76-150 90v38z" fill="#9E2319" p-id="28960"></path><path d="M218 196v26l60 34 146 86v-26L218 196z" fill="#FFB230" p-id="28961"></path><path d="M218 196l58-32-58-34v66z m0 94l60-34-60-34v68z" fill="#9E2319" p-id="28962"></path><path d="M610 394v-34l66 38v34l-66-38z" fill="#CC3A2F" p-id="28963"></path><path d="M768 762l-92-54 92-52v106z" opacity=".2" p-id="28964"></path><path d="M84 381.9l77.36 44.2 110.54-64L192 318 84 381.9z" fill="#FDFFCC" p-id="28965"></path><path d="M84 381.9V402l78 44v-19.9l-78-44.2z" fill="#609AA3" p-id="28966"></path><path d="M162 446l110-64v-19.9l-110 64V446z" fill="#344D5C" p-id="28967"></path><path d="M462 289.5v132l30 18v-132l-30-18z" fill="#2CA7C7" p-id="28968"></path><path d="M492 307.5l14-7.5 8 4v122l-22 13.5v-132z" fill="#344D5C" p-id="28969"></path><path d="M462 289.5l14-7.5 30 18-14 7.5-30-18z" fill="#63D2E3" p-id="28970"></path><path d="M500 312v130l30 18V328l-30-16z" fill="#2CA7C7" p-id="28971"></path><path d="M530 328l14-8 66 40v56l-80 44V328z" fill="#344D5C" p-id="28972"></path><path d="M500 312l14-8 30 16-14 8-30-16z" fill="#63D2E3" p-id="28973"></path></svg>