<?xml version="1.0" standalone="no"?><!DOCTYPE svg PUBLIC "-//W3C//DTD SVG 1.1//EN" "http://www.w3.org/Graphics/SVG/1.1/DTD/svg11.dtd"><svg t="1765880245699" class="icon" viewBox="0 0 1024 1024" version="1.1" xmlns="http://www.w3.org/2000/svg" p-id="26545" xmlns:xlink="http://www.w3.org/1999/xlink" width="128" height="128"><path d="M380.9 162.6H245.8c-4.4 0-8-3.6-8-8s3.6-8 8-8H381c4.4 0 8 3.6 8 8-0.1 4.4-3.7 8-8.1 8zM579.7 162.6H444.5c-4.4 0-8-3.6-8-8s3.6-8 8-8h135.2c4.4 0 8 3.6 8 8s-3.6 8-8 8zM778 162.6H642.9c-4.4 0-8-3.6-8-8s3.6-8 8-8H778c4.4 0 8 3.6 8 8s-3.6 8-8 8zM759.7 162.6v588.7c0 13.1-5.1 25.4-14.5 34.8s-21.7 14.5-34.8 14.5c-13.1 0-25.4-5.1-34.8-14.5-9.3-9.3-14.5-21.7-14.5-34.8V162.6h-16v588.7c0 35.9 29.4 65.2 65.2 65.2s65.2-29.4 65.2-65.2V162.6h-15.8z" fill="#581166" p-id="26546"></path><path d="M661.2 219v532.3c0 13.1 5.1 25.4 14.5 34.8 9.3 9.3 21.7 14.5 34.8 14.5 13.1 0 25.4-5.1 34.8-14.5s14.5-21.7 14.5-34.8V219h-98.6z" fill="#FFC86B" p-id="26547"></path><path d="M561.1 162.6v588.7c0 13.1-5.1 25.4-14.5 34.8-9.3 9.3-21.7 14.5-34.8 14.5s-25.4-5.1-34.8-14.5c-9.3-9.3-14.5-21.7-14.5-34.8V162.6h-16v588.7c0 35.9 29.4 65.2 65.2 65.2 35.9 0 65.2-29.4 65.2-65.2V162.6h-15.8z" fill="#581166" p-id="26548"></path><path d="M462.6 420v331.3c0 13.1 5.1 25.4 14.5 34.8 9.3 9.3 21.7 14.5 34.8 14.5s25.4-5.1 34.8-14.5c9.3-9.3 14.5-21.7 14.5-34.8V420h-98.6z" fill="#FC7A7A" p-id="26549"></path><path d="M362.6 162.6v588.7c0 13.1-5.1 25.4-14.5 34.8-9.3 9.3-21.7 14.5-34.8 14.5s-25.4-5.1-34.8-14.5c-9.3-9.3-14.5-21.7-14.5-34.8V162.6h-16v588.7c0 35.9 29.4 65.2 65.2 65.2s65.2-29.4 65.2-65.2V162.6h-15.8z" fill="#581166" p-id="26550"></path><path d="M264.1 332.5v418.8c0 13.1 5.1 25.4 14.5 34.8 9.3 9.3 21.7 14.5 34.8 14.5s25.4-5.1 34.8-14.5c9.3-9.3 14.5-21.7 14.5-34.8V332.5h-98.6z" fill="#FF5855" p-id="26551"></path><path d="M931.6 831c6.9 0 12.5 5.6 12.5 12.5V931c0 6.9-5.6 12.5-12.5 12.5h-839c-6.9 0-12.5-5.6-12.5-12.5v-87.5c0-6.9 5.6-12.5 12.5-12.5h839m0-16h-839C76.8 815 64 827.8 64 843.5V931c0 15.8 12.8 28.5 28.5 28.5h839.1c15.8 0 28.5-12.8 28.5-28.5v-87.5c0.1-15.7-12.7-28.5-28.5-28.5zM944.2 255v20H80v-20h864.2m16-16H64v52h896.2v-52z" fill="#581166" p-id="26552"></path><path d="M190 85.9V815h-20V85.9h20m16-16h-52V831h52V69.9zM853.7 85.7v729.1h-20V85.7h20m16-16h-52v761.1h52V69.7z" fill="#581166" p-id="26553"></path><path d="M931.6 831c6.9 0 12.5 5.6 12.5 12.5V931c0 6.9-5.6 12.5-12.5 12.5h-839c-6.9 0-12.5-5.6-12.5-12.5v-87.5c0-6.9 5.6-12.5 12.5-12.5h839M190 85.9v729.2h-20V85.9h20M853.7 85.7v729.1h-20V85.7h20" fill="#5EAAEF" p-id="26554"></path><path d="M944.2 255v20H80v-20h864.2" fill="#5EAAEF" p-id="26555"></path><path d="M503.5 553m-13.5 0a13.5 13.5 0 1 0 27 0 13.5 13.5 0 1 0-27 0Z" fill="#581166" p-id="26556"></path><path d="M538.2 741.4m-13.5 0a13.5 13.5 0 1 0 27 0 13.5 13.5 0 1 0-27 0Z" fill="#581166" p-id="26557"></path><path d="M492.8 708.6m-13.5 0a13.5 13.5 0 1 0 27 0 13.5 13.5 0 1 0-27 0Z" fill="#581166" p-id="26558"></path><path d="M736.6 722.1m-13.5 0a13.5 13.5 0 1 0 27 0 13.5 13.5 0 1 0-27 0Z" fill="#D38D26" p-id="26559"></path><path d="M689.4 430.1m-13.5 0a13.5 13.5 0 1 0 27 0 13.5 13.5 0 1 0-27 0Z" fill="#D38D26" p-id="26560"></path><path d="M736.6 332.5m-13.5 0a13.5 13.5 0 1 0 27 0 13.5 13.5 0 1 0-27 0Z" fill="#D38D26" p-id="26561"></path><path d="M292.1 670.5m-13.5 0a13.5 13.5 0 1 0 27 0 13.5 13.5 0 1 0-27 0Z" fill="#FFFFFF" p-id="26562"></path><path d="M334.3 727.9m-13.5 0a13.5 13.5 0 1 0 27 0 13.5 13.5 0 1 0-27 0Z" fill="#FFFFFF" p-id="26563"></path><path d="M292.1 763.9m-13.5 0a13.5 13.5 0 1 0 27 0 13.5 13.5 0 1 0-27 0Z" fill="#FFFFFF" p-id="26564"></path><path d="M338.1 385.2m-13.5 0a13.5 13.5 0 1 0 27 0 13.5 13.5 0 1 0-27 0Z" fill="#FFFFFF" p-id="26565"></path></svg>