<?xml version="1.0" standalone="no"?><!DOCTYPE svg PUBLIC "-//W3C//DTD SVG 1.1//EN" "http://www.w3.org/Graphics/SVG/1.1/DTD/svg11.dtd"><svg t="1765880885950" class="icon" viewBox="0 0 1024 1024" version="1.1" xmlns="http://www.w3.org/2000/svg" p-id="114749" xmlns:xlink="http://www.w3.org/1999/xlink" width="128" height="128"><path d="M888.561509 508.077887L313.034868 840.356226l0.386415 135.341887 575.507321-332.278339-0.386415-135.341887zM628.156377 738.091472l-43.761509 25.252226a10.182038 10.182038 0 0 1-10.162717-17.639849l43.742189-25.252226a10.162717 10.162717 0 1 1 10.182037 17.639849zM887.55683 156.826566L312.030189 489.085585l0.386415 135.361207 575.526641-332.278339-0.386415-135.341887zM628.156377 386.801509l-43.761509 25.271548a10.182038 10.182038 0 0 1-10.162717-17.639849l43.742189-25.252227a10.182038 10.182038 0 1 1 10.182037 17.639849zM135.399849 398.278038c0.135245 49.731623-0.52166-180.204679 1.352453 486.496604l156.304906 90.807547-1.391095-486.496604-156.266264-90.807547z" p-id="114750" fill="#6e2d24"></path><path d="M720.992604 48.301887L145.465962 380.580226l156.382189 90.884831L877.374792 139.186717 720.992604 48.301887zM888.001208 315.623849L312.493887 647.921509l0.463698 168.979321 575.526641-332.29766-0.483018-168.979321z m-259.864151 246.822642l-43.742189 25.252226a10.182038 10.182038 0 0 1-10.162717-17.639849l43.742189-25.232906a10.182038 10.182038 0 0 1 10.182037 17.620529z" p-id="114751" fill="#6e2d24"></path></svg>