<?xml version="1.0" standalone="no"?><!DOCTYPE svg PUBLIC "-//W3C//DTD SVG 1.1//EN" "http://www.w3.org/Graphics/SVG/1.1/DTD/svg11.dtd"><svg t="1765992267770" class="icon" viewBox="0 0 1024 1024" version="1.1" xmlns="http://www.w3.org/2000/svg" p-id="4503" xmlns:xlink="http://www.w3.org/1999/xlink" width="128" height="128"><path d="M956.956 737.932l-0.046 49.244-295.396 171.66 0.046-49.244 295.396-171.66z" fill="#F3B2A1" p-id="4504"></path><path d="M661.56 909.592l-0.048 49.246L67.034 615.61l0.056-49.244L661.56 909.592z" fill="#E99B8A" p-id="4505"></path><path d="M956.956 737.932l-295.396 171.66L67.08 566.366l295.416-171.66 594.46 343.226z" fill="#FDC8B8" p-id="4506"></path><path d="M885.314 411.48l-0.484 324.934c0 2.738-1.798 5.5-5.4 7.598-7.308 4.244-19.148 4.216-26.448 0-3.704-2.124-5.566-4.926-5.54-7.728l0.458-324.924c0 2.764 1.834 5.594 5.53 7.726 11.356 6.544 31.772 2.234 31.884-7.606z" fill="#EBF2FF" p-id="4507"></path><path d="M884.866 720.71l-0.036 15.704c0 2.738-1.798 5.5-5.4 7.596-7.308 4.246-19.148 4.218-26.448 0-3.704-2.122-5.566-4.924-5.54-7.726l0.04-15.212c0.186 2.636 2.02 5.28 5.492 7.244 7.308 4.208 19.148 4.208 26.456 0 3.602-2.096 5.4-4.86 5.4-7.596h0.036v-0.01z" fill="#4F575F" p-id="4508"></path><path d="M385.89 123.14l-0.484 324.934c0 2.736-1.796 5.502-5.4 7.596-7.308 4.246-19.148 4.22-26.446 0-3.706-2.12-5.568-4.924-5.54-7.726l0.456-324.934c0 2.774 1.834 5.604 5.53 7.726 11.358 6.554 31.772 2.244 31.884-7.596z" fill="#EBF2FF" p-id="4509"></path><path d="M385.442 432.38l-0.036 15.694c0 2.738-1.796 5.502-5.4 7.596-7.308 4.246-19.148 4.218-26.446 0-3.706-2.12-5.568-4.924-5.54-7.726l0.038-15.21c0.186 2.634 2.02 5.268 5.492 7.232 7.308 4.218 19.148 4.218 26.456 0 3.604-2.086 5.4-4.86 5.4-7.586h0.036z" fill="#4F575F" p-id="4510"></path><path d="M289.01 89.554c0 4.076 1.46 7 3.836 8.396L920.018 457.6a2.832 2.832 0 0 1-0.736-0.55 5.112 5.112 0 0 1-1.034-1.024 3.842 3.842 0 0 1-0.856-1.35 3.6 3.6 0 0 1-0.604-1.396c0-0.064-0.066-0.12-0.066-0.242a12.158 12.158 0 0 1-0.54-3.836c0-8.34 5.772-18.376 13.024-22.574 2.122-1.22 4.132-1.768 5.902-1.768 0.968 0 1.824 0.12 2.606 0.484a0.46 0.46 0 0 1 0.316 0.12L311.35 66.066c-2.38-1.396-5.668-1.22-9.316 0.912-7.178 4.134-13.024 14.244-13.024 22.576z" fill="#DBE6FA" p-id="4511"></path><path d="M886.02 431.71c0 4.076 1.342 7.26 3.724 8.666l30.282 17.222a2.904 2.904 0 0 1-0.734-0.55 5.06 5.06 0 0 1-1.034-1.024 3.842 3.842 0 0 1-0.856-1.35 3.634 3.634 0 0 1-0.606-1.396c0-0.064-0.064-0.12-0.064-0.242a12.1 12.1 0 0 1-0.54-3.836c0-8.34 5.77-18.376 13.022-22.574 2.124-1.22 4.134-1.768 5.902-1.768 0.968 0 1.826 0.12 2.608 0.484a0.46 0.46 0 0 1 0.316 0.12l-29.798-16.97c-2.374-1.396-5.66-1.22-9.31 0.912-7.186 4.134-12.912 13.964-12.912 22.306zM289.01 89.554c0 4.076 1.46 7 3.836 8.396l30.6 17.372a7.304 7.304 0 0 1-1.77-1.584 3.86 3.86 0 0 1-0.84-1.34 3.63 3.63 0 0 1-0.612-1.396c0-0.056-0.066-0.12-0.066-0.242-3.286-9.868 7.708-28.18 18.386-28.18 0.968 0 1.824 0.122 2.606 0.486a0.466 0.466 0 0 1 0.308 0.13l-30.116-17.13c-2.374-1.396-5.66-1.22-9.308 0.912-7.178 4.134-13.024 14.244-13.024 22.576z" fill="#4F575F" p-id="4512"></path><path d="M916.192 449.2c0 1.462 0.186 2.738 0.54 3.836 0 0.12 0.064 0.186 0.064 0.242 0.186 0.55 0.372 0.968 0.606 1.396 0.226 0.482 0.514 0.932 0.856 1.34 0.298 0.43 0.67 0.736 1.034 1.034 2.43 1.956 6.022 1.956 10.044-0.362 7.178-4.2 13.024-14.3 13.024-22.576 0-4.384-1.648-7.306-4.2-8.582q-0.064-0.066-0.12-0.066a0.466 0.466 0 0 0-0.308-0.12 7.168 7.168 0 0 0-2.616-0.484c-1.768 0-3.78 0.548-5.9 1.768-7.244 4.19-13.034 14.244-13.034 22.574h0.01z" fill="#3D4449" p-id="4513"></path><path d="M677.934 531.996c-0.046 32.908 0.186-119.8-0.474 324.932 0 2.74-1.806 5.502-5.408 7.6-7.3 4.242-19.14 4.204-26.44 0-3.704-2.126-5.574-4.928-5.538-7.73l0.028-15.21 0.42-309.714c0 2.766 1.834 5.586 5.54 7.718 11.356 6.554 31.76 2.244 31.872-7.596z" fill="#EBF2FF" p-id="4514"></path><path d="M677.488 841.234l-0.028 15.696c0 2.736-1.806 5.5-5.408 7.596-7.3 4.244-19.14 4.208-26.44 0-3.704-2.122-5.574-4.924-5.538-7.726l0.028-15.212c0.186 2.634 2.03 5.27 5.502 7.234 7.308 4.216 19.148 4.216 26.448 0 3.6-2.086 5.4-4.86 5.4-7.588h0.036z" fill="#4F575F" p-id="4515"></path><path d="M178.52 243.656l-0.484 324.934c0 2.736-1.806 5.492-5.4 7.588-7.306 4.254-19.148 4.216-26.456 0-3.696-2.124-5.566-4.916-5.528-7.72l0.446-324.932c0 2.764 1.834 5.594 5.54 7.726 11.356 6.554 31.76 2.244 31.882-7.596z" fill="#EBF2FF" p-id="4516"></path><path d="M178.064 552.886l-0.028 15.704c0 2.736-1.806 5.492-5.4 7.586-7.306 4.256-19.148 4.218-26.456 0-3.696-2.12-5.566-4.914-5.528-7.716l0.026-15.22c0.196 2.644 2.03 5.278 5.502 7.24 7.308 4.22 19.15 4.22 26.448 0 3.602-2.092 5.4-4.858 5.4-7.594h0.036z" fill="#4F575F" p-id="4517"></path><path d="M81.64 210.068c0 4.08 1.462 6.992 3.826 8.398l627.182 359.648a7.336 7.336 0 0 1-1.77-1.582 3.86 3.86 0 0 1-0.846-1.34 3.656 3.656 0 0 1-0.606-1.4c0-0.062-0.064-0.128-0.064-0.248-3.296-9.868 7.708-28.17 18.376-28.17 0.976 0 1.824 0.12 2.616 0.484a0.458 0.458 0 0 1 0.306 0.12L103.982 186.574c-2.374-1.396-5.66-1.21-9.308 0.914-7.188 4.14-13.034 14.242-13.034 22.582z" fill="#DBE6FA" p-id="4518"></path><path d="M678.652 552.216c0 4.078 1.34 7.27 3.714 8.676l30.28 17.22c0.478 0.26 18.184-31.994 17.708-32.254a0.464 0.464 0 0 1 0.308 0.12l-29.79-16.98c-7.764-4.56-22.22 9.14-22.22 23.218zM81.64 210.068c0 4.08 1.462 6.992 3.826 8.398l30.61 17.37a7.312 7.312 0 0 1-1.77-1.582 3.862 3.862 0 0 1-0.846-1.34 3.63 3.63 0 0 1-0.616-1.396c0-0.066-0.054-0.122-0.054-0.242-2.394-7.168 3.072-20.964 12.474-26.42 2.54-1.452 6.04-2.42 8.518-1.276 0.112 0.002 0.222 0.044 0.306 0.12l-30.114-17.128c-2.374-1.396-5.66-1.21-9.31 0.914-7.186 4.14-13.032 14.242-13.032 22.582h0.008z m230.494 132.656c0 4.076 1.472 7 3.846 8.396l166.166 94.33a2.91 2.91 0 0 1-0.736-0.54c-0.362-0.306-0.726-0.614-1.024-1.042a3.896 3.896 0 0 1-0.856-1.34 3.67 3.67 0 0 1-0.614-1.4c0-0.054-0.056-0.12-0.056-0.24a12.088 12.088 0 0 1-0.548-3.834c0-10.902 9.95-24.344 18.924-24.344 0.978 0 1.824 0.12 2.616 0.494a0.46 0.46 0 0 1 0.308 0.12l-165.684-94.088c-2.374-1.396-5.66-1.22-9.308 0.914-7.188 4.132-13.034 14.24-13.034 22.574z m207.38-120.516c0 4.078 1.46 7 3.834 8.406l166.168 94.33c-1.472-0.746-3.286-3.528-3.286-4.562-3.286-9.868 7.726-28.18 18.384-28.18 0.97 0 1.826 0.122 2.608 0.486 0.114 0 0.22 0.044 0.306 0.12l-165.682-94.086c-2.374-1.398-5.66-1.212-9.31 0.912-7.176 4.142-13.022 14.242-13.022 22.574z" fill="#4F575F" p-id="4519"></path><path d="M709.362 573.542c0 0.12 0.066 0.186 0.066 0.252 1.842 5.548 7.046 6.562 12.53 3.406 7.186-4.198 13.032-14.308 13.032-22.584 0-4.374-1.648-7.298-4.208-8.572q-0.056-0.066-0.12-0.066a0.466 0.466 0 0 0-0.308-0.12c-2.792-1.08-5.902-0.216-8.518 1.274-7.242 4.2-14.876 19.224-12.474 26.41z" fill="#3D4449" p-id="4520"></path><path d="M677.936 673.644l-0.028 82.004c0 2.784-1.826 5.604-5.474 7.726-11.73 6.88-32.47 2.012-32.36-7.856l0.03-81.51c0.194 2.68 2.048 5.37 5.566 7.372 11.59 6.73 32.238 2.196 32.238-7.736h0.028zM178.288 354.1l-0.028 81.994c0 2.794-1.824 5.604-5.474 7.736-11.74 6.87-32.48 2-32.36-7.866l0.03-81.512c0.196 2.692 2.048 5.38 5.566 7.374 11.59 6.73 32.238 2.206 32.238-7.726h0.028z m706.8 157.268l-0.034 82.012c0 2.776-1.826 5.596-5.466 7.728-11.748 6.87-32.488 2-32.366-7.866l0.036-81.512c0.186 2.692 2.048 5.372 5.568 7.374 11.59 6.73 32.228 2.206 32.228-7.726l0.036-0.01zM385.446 191.824l-0.04 82.002c0 2.784-1.822 5.604-5.462 7.728-11.748 6.87-32.488 2.01-32.368-7.858l0.028-81.51c0.196 2.68 2.048 5.372 5.568 7.372 11.588 6.732 32.236 2.198 32.236-7.734h0.038z" fill="#CBDBF4" p-id="4521"></path></svg>