<?xml version="1.0" standalone="no"?><!DOCTYPE svg PUBLIC "-//W3C//DTD SVG 1.1//EN" "http://www.w3.org/Graphics/SVG/1.1/DTD/svg11.dtd"><svg t="1765992269883" class="icon" viewBox="0 0 1024 1024" version="1.1" xmlns="http://www.w3.org/2000/svg" p-id="4687" xmlns:xlink="http://www.w3.org/1999/xlink" width="128" height="128"><path d="M359.016 487.144L122.992 624.24c8.526-4.692 3.62-26.44-10.278-34.398-3.946-2.374-7.632-2.644-10.276-1.06l235.892-137.086c2.626-1.582 6.32-1.322 10.408 0.93 12.24 7.02 19.698 28.86 10.278 34.52z" fill="#DBE6FA" p-id="4688"></path><path d="M112.76 589.778c8.016 4.636 14.524 15.9 14.504 25.144-0.028 9.244-6.58 12.976-14.596 8.34-8.044-4.636-14.55-15.908-14.522-25.152 0.028-9.244 6.572-12.978 14.616-8.332z" fill="#DBE6FA" p-id="4689"></path><path d="M148.536 609.466l-55.138 31.968c8.528-4.684 3.62-26.428-10.278-34.398-3.946-2.374-7.632-2.634-10.276-1.052l55.008-31.966c2.634-1.584 6.33-1.322 10.406 0.92 12.242 7.02 19.7 28.878 10.278 34.538v-0.01z m257.86-149.736l-55.136 31.966c2.634-1.452 4.218-4.746 4.218-9.354 0.204-14.272-15.65-31.578-24.772-26.104l54.998-31.958c2.634-1.582 6.33-1.32 10.416 0.922 12.24 7.02 19.698 28.876 10.278 34.528z" fill="#4F575F" p-id="4690"></path><path d="M83.168 606.98c8.014 4.628 14.52 15.9 14.504 25.136-0.02 9.234-6.582 12.976-14.598 8.35-8.042-4.646-14.55-15.92-14.52-25.154 0.016-9.244 6.57-12.976 14.614-8.332z" fill="#3D4449" p-id="4691"></path><path d="M352.042 307.294c-31.344 12.482-63.3 31.64-95.688 55.51 10.324-5.67 4.374-31.978-12.438-41.63-4.784-2.868-9.252-3.194-12.446-1.276 35.682-16.292 68.004-34.52 95.52-55.52 3.194-1.908 7.662-1.592 12.606 1.118 14.792 8.49 23.794 34.982 12.446 41.798z" fill="#4F575F" p-id="4692"></path><path d="M243.964 321.1c9.708 5.602 17.594 19.25 17.556 30.44-0.036 11.18-7.96 15.694-17.668 10.09-9.738-5.614-17.614-19.26-17.586-30.44 0.038-11.19 7.96-15.704 17.698-10.092z" fill="#3D4449" p-id="4693"></path><path d="M382.678 109.92c-31.344 12.486-63.3 31.644-95.688 55.512 10.324-5.67 4.376-31.986-12.436-41.63-4.786-2.876-9.254-3.194-12.438-1.276 35.672-16.29 67.994-34.518 95.512-55.52 3.192-1.908 7.66-1.592 12.604 1.118 14.8 8.49 23.794 34.984 12.446 41.798z" fill="#4F575F" p-id="4694"></path><path d="M274.6 123.728c9.708 5.604 17.594 19.25 17.556 30.44-0.028 11.18-7.96 15.694-17.668 10.09-9.738-5.62-17.612-19.26-17.576-30.44 0.038-11.18 7.96-15.714 17.688-10.09z" fill="#3D4449" p-id="4695"></path><path d="M292.94 83.288L227.96 545.18c-0.408 2.878-1.954 5.624-4.68 7.848-13.09 10.696-39.034 1.21-36.96-13.694l64.988-461.9c-0.68 4.86 1.88 10.074 7.448 13.806 12.66 8.472 32.488 4.19 34.182-7.95z" fill="#EBF2FF" p-id="4696"></path><path d="M256.01 69.54c7.354-6.006 20.544-6.052 29.434-0.094 8.89 5.958 10.184 15.686 2.82 21.69-7.362 6.004-20.61 6.05-29.508 0.094-8.89-5.96-10.1-15.686-2.746-21.692z" fill="#CBDBF4" p-id="4697"></path><path d="M751.478 877.624L220.794 431.252c-2.402-1.638-4.19-4.234-4.98-7.67-3.808-16.476 16.132-35.56 28.578-27.1l530.692 446.372c-12.51-8.498-32.366 10.724-28.58 27.1 0.794 3.444 2.572 6.04 4.974 7.67z" fill="#DBE6FA" p-id="4698"></path><path d="M780.092 850.572c2.14 9.252-3.64 21.104-12.9 26.438-9.264 5.352-18.554 2.206-20.696-7.056-2.14-9.254 3.678-21.17 12.94-26.514 9.252-5.342 18.516-2.13 20.656 7.132z" fill="#CBDBF4" p-id="4699"></path><path d="M268.27 175.97c-31.344 12.492-63.302 31.64-95.688 55.52 10.332-5.68 4.374-31.986-12.438-41.64-4.784-2.868-9.252-3.184-12.436-1.276 35.68-16.29 68.002-34.518 95.51-55.51 3.194-1.918 7.662-1.6 12.614 1.118 14.784 8.48 23.794 34.982 12.438 41.796v-0.008z" fill="#4F575F" p-id="4700"></path><path d="M160.2 189.784c9.7 5.604 17.586 19.242 17.548 30.432-0.028 11.19-7.96 15.704-17.668 10.1-9.74-5.622-17.614-19.27-17.576-30.45 0.028-11.19 7.96-15.704 17.686-10.08h0.01z" fill="#3D4449" p-id="4701"></path><path d="M237.634 373.34c-31.344 12.494-63.302 31.652-95.69 55.52 10.324-5.678 4.376-31.986-12.436-41.64-4.784-2.866-9.254-3.182-12.436-1.274 35.672-16.292 67.992-34.52 95.51-55.51 3.194-1.92 7.66-1.6 12.604 1.116 14.802 8.48 23.794 34.984 12.448 41.8v-0.01z" fill="#4F575F" p-id="4702"></path><path d="M129.554 387.156c9.71 5.604 17.594 19.24 17.558 30.44-0.038 11.2-7.96 15.696-17.67 10.092-9.736-5.624-17.612-19.27-17.574-30.44 0.028-11.2 7.96-15.714 17.686-10.092z" fill="#3D4449" p-id="4703"></path><path d="M431.662 396.446c-31.344 12.494-63.3 31.64-95.688 55.52 10.324-5.68 4.376-31.986-12.436-41.64-4.786-2.868-9.254-3.184-12.446-1.276 35.68-16.29 68.002-34.518 95.52-55.51 3.192-1.918 7.66-1.6 12.604 1.118 14.792 8.48 23.794 34.984 12.446 41.798v-0.01z" fill="#4F575F" p-id="4704"></path><path d="M323.584 410.252c9.71 5.614 17.594 19.25 17.556 30.44-0.036 11.19-7.96 15.704-17.668 10.1-9.738-5.622-17.612-19.27-17.584-30.45 0.036-11.188 7.96-15.704 17.696-10.08v-0.01z" fill="#3D4449" p-id="4705"></path><path d="M317.254 462.504c-31.344 12.484-63.302 31.632-95.688 55.51 10.324-5.67 4.374-31.986-12.438-41.63-4.784-2.878-9.252-3.194-12.436-1.276 35.672-16.29 67.994-34.528 95.51-55.52 3.194-1.908 7.662-1.592 12.606 1.118 14.792 8.49 23.794 34.984 12.446 41.798z" fill="#4F575F" p-id="4706"></path><path d="M209.176 476.308c9.708 5.606 17.594 19.252 17.556 30.44-0.036 11.192-7.96 15.696-17.668 10.092-9.738-5.622-17.614-19.26-17.576-30.44 0.038-11.18 7.96-15.714 17.688-10.092z" fill="#3D4449" p-id="4707"></path><path d="M251.16 500.81l-4.72 23.274c-0.81 4.04 0.986 8.564 5.426 12.24l4.72-23.272c-4.45-3.678-6.236-8.192-5.426-12.24z" fill="#49E4A3" p-id="4708"></path><path d="M849.8 786.292l4.71-23.272c-0.588 2.876-2.514 5.5-5.79 7.392l-4.712 23.272c3.278-1.88 5.204-4.516 5.792-7.392z" fill="#28AF6E" p-id="4709"></path><path d="M697.726 857.59l-4.71 23.274 150.992-87.17 4.712-23.274-150.994 87.17z" fill="#28AF6E" p-id="4710"></path><path d="M256.586 513.052l-4.72 23.272 413.016 341.318 4.72-23.272-413.016-341.318z" fill="#49E4A3" p-id="4711"></path><path d="M669.602 854.37l-4.72 23.272c7.644 6.312 20.266 7.764 28.134 3.23l4.71-23.272c-7.858 4.534-20.48 3.08-28.124-3.23z" fill="#28AF6E" p-id="4712"></path><path d="M256.978 493.364c-7.858 4.532-8.034 13.366-0.392 19.688l413.018 341.32c7.632 6.308 20.266 7.762 28.12 3.22l150.996-87.18c7.866-4.534 7.968-13.332 0.326-19.644L436.038 409.442c-7.634-6.32-20.2-7.81-28.048-3.268l-151.012 87.19z" fill="#39C988" p-id="4713"></path><path d="M271.798 483.84c-7.8 4.506-7.98 13.274-0.392 19.55L672.76 835.072c7.586 6.264 20.106 7.7 27.926 3.192l135.644-78.316c7.8-4.506 7.912-13.238 0.324-19.504l-401.36-331.68c-7.588-6.276-20.052-7.748-27.854-3.24L271.8 483.84z" fill="#49E4A3" p-id="4714"></path><path d="M903.82 803.692l-236.032 137.084c2.634-1.452 4.216-4.746 4.216-9.354 0.206-14.272-15.648-31.568-24.77-26.094l235.884-137.096c2.634-1.58 6.33-1.312 10.406 0.932 12.24 7.02 19.698 28.868 10.278 34.528h0.018z" fill="#DBE6FA" p-id="4715"></path><path d="M657.556 906.324c8.026 4.626 14.524 15.9 14.504 25.134-0.028 9.254-6.572 12.978-14.596 8.35-8.044-4.644-14.55-15.918-14.522-25.152 0.028-9.244 6.572-12.978 14.614-8.332z" fill="#DBE6FA" p-id="4716"></path><path d="M693.34 926.012l-55.136 31.968c8.526-4.692 3.612-26.428-10.278-34.398-3.956-2.372-7.642-2.642-10.278-1.06l55-31.968c2.634-1.582 6.33-1.312 10.416 0.932 12.24 7.018 19.698 28.866 10.278 34.526z m257.862-149.746l-55.148 31.968c2.644-1.444 4.22-4.748 4.22-9.356 0.202-14.27-15.64-31.566-24.764-26.094l55-31.966c2.632-1.584 6.328-1.322 10.406 0.93 12.24 7.02 19.7 28.868 10.276 34.52h0.01z" fill="#4F575F" p-id="4717"></path><path d="M627.964 923.518c8.024 4.636 14.52 15.908 14.502 25.144-0.028 9.244-6.572 12.976-14.596 8.35-8.042-4.654-14.55-15.92-14.522-25.162 0.028-9.244 6.572-12.968 14.616-8.332z" fill="#3D4449" p-id="4718"></path><path d="M129.518 397.87c4.57 2.644 8.284 9.068 8.266 14.336-0.02 5.26-3.742 7.392-8.314 4.748-4.588-2.644-8.294-9.066-8.284-14.336 0.02-5.26 3.752-7.38 8.332-4.748z m30.644-197.36c4.562 2.632 8.276 9.056 8.26 14.326-0.02 5.268-3.744 7.39-8.314 4.746-4.59-2.642-8.286-9.066-8.286-14.336 0.02-5.26 3.752-7.39 8.34-4.746v0.008z m48.976 286.524c4.57 2.644 8.286 9.056 8.266 14.336-0.018 5.258-3.752 7.38-8.32 4.746-4.58-2.652-8.286-9.066-8.268-14.336 0.008-5.268 3.742-7.39 8.322-4.746z" fill="#4F575F" p-id="4719"></path></svg>