<?xml version="1.0" standalone="no"?><!DOCTYPE svg PUBLIC "-//W3C//DTD SVG 1.1//EN" "http://www.w3.org/Graphics/SVG/1.1/DTD/svg11.dtd"><svg t="1765992257833" class="icon" viewBox="0 0 1024 1024" version="1.1" xmlns="http://www.w3.org/2000/svg" p-id="3835" xmlns:xlink="http://www.w3.org/1999/xlink" width="128" height="128"><path d="M660.732 192.094l60.23-34.956c-3.418-1.974-6.518-2.16-8.752-0.856l-51.48 29.872v5.94z" fill="#CBDBF4" p-id="3836"></path><path d="M720.96 157.138l-60.228 34.956v34.2l68.924-40.01c2.206-1.284 3.574-4.002 3.594-7.884 0.018-7.82-5.494-17.344-12.288-21.262z" fill="#DBE6FA" p-id="3837"></path><path d="M629.276 152.324c34.732 20.052 62.8 68.664 62.688 108.572-0.112 39.918-28.366 56.014-63.098 35.96-34.732-20.05-62.8-68.662-62.688-108.588 0.112-39.9 28.366-56.004 63.098-35.944z" fill="#2A3134" p-id="3838"></path><path d="M584.518 147.94l20.182-11.73c11.432-6.646 27.276-5.706 44.758 4.386l-20.182 11.728c-17.482-10.1-33.326-11.03-44.76-4.384z m109.27 141.572l-20.172 11.73c11.292-6.562 18.292-20.516 18.338-40.346 0.12-39.908-27.946-88.528-62.678-108.572l20.182-11.728c34.724 20.052 62.8 68.664 62.68 108.572-0.058 19.828-7.06 33.792-18.34 40.344h-0.01z" fill="#4F575F" p-id="3839"></path><path d="M594.646 157.574c42.896 24.764 77.564 84.806 77.424 134.1-0.14 49.308-35.04 69.192-77.936 44.42-42.906-24.77-77.572-84.814-77.432-134.124 0.14-49.292 35.03-69.166 77.944-44.404v0.008z m-0.354 122.63c16.05 9.262 29.092 1.824 29.138-16.608 0.056-18.432-12.902-40.894-28.952-50.158-16.048-9.27-29.1-1.824-29.156 16.608-0.056 18.432 12.92 40.886 28.97 50.158z" fill="#181E1E" p-id="3840"></path><path d="M594.48 213.44c16.048 9.26 29.006 31.724 28.95 50.156-0.046 18.432-13.088 25.87-29.138 16.608-16.048-9.272-29.026-31.726-28.97-50.158 0.056-18.432 13.108-25.88 29.166-16.608h-0.01z m-0.15 54.568c10.184 5.884 18.46 1.164 18.496-10.538 0.028-11.7-8.192-25.962-18.376-31.836-10.192-5.884-18.488-1.164-18.524 10.538-0.028 11.7 8.21 25.954 18.404 31.836z" fill="#FFCA6C" p-id="3841"></path><path d="M539.368 152.158l24.912-14.486c14.132-8.21 33.7-7.046 55.286 5.418l-24.92 14.484c-21.596-12.474-41.156-13.628-55.286-5.416h0.008z" fill="#4F575F" p-id="3842"></path><path d="M674.322 327.028l-24.92 14.476c13.946-8.1 22.594-25.33 22.668-49.832 0.14-49.292-34.536-109.334-77.424-134.098l24.92-14.484c42.896 24.762 77.564 84.806 77.424 134.098-0.074 24.5-8.714 41.732-22.668 49.84z" fill="#3D4449" p-id="3843"></path><path d="M837.426 714.23l-0.12 56.246c0 3.724-2.4 7.448-7.326 10.296l-299.08 173.754c-9.916 5.744-25.966 5.744-35.88 0L194 780.772c-4.988-2.914-7.446-6.702-7.446-10.492l0.12-56.106c0 3.724 2.534 7.514 7.448 10.296l301.04 173.82c9.912 5.744 25.952 5.744 35.874 0l299.056-173.82c4.868-2.848 7.326-6.516 7.326-10.24h0.008z" fill="#E99B8A" p-id="3844"></path><path d="M830.1 724.47l-299.062 173.82c-1.436 0.814-2.94 1.5-4.498 2.048v56.188a27.87 27.87 0 0 0 4.376-2l299.064-173.754c4.932-2.848 7.326-6.572 7.326-10.296l0.12-56.246c0 3.724-2.458 7.392-7.326 10.24z" fill="#DF8573" p-id="3845"></path><path d="M829.952 703.748c9.924 5.726 10.016 15.016 0.16 20.75l-299.084 173.8c-9.896 5.754-25.936 5.736-35.85 0l-301.036-173.8c-9.924-5.724-10.018-15.014-0.12-20.768l299.08-173.8c9.86-5.736 25.9-5.716 35.812 0.018l301.04 173.8z" fill="#F3B2A1" p-id="3846"></path><path d="M813.448 694.504c9.4 5.428 9.494 14.244 0.148 19.67l-283.554 164.78c-9.374 5.456-24.576 5.428-33.988 0l-285.418-164.78c-9.4-5.426-9.494-14.242-0.1-19.688l283.554-164.8c9.338-5.426 24.548-5.398 33.95 0.03l285.408 164.788z" fill="#FDC8B8" p-id="3847"></path><path d="M660.732 439.016l60.23-34.954c-3.418-1.974-6.518-2.152-8.752-0.858l-51.48 29.882v5.94-0.01z" fill="#CBDBF4" p-id="3848"></path><path d="M720.96 404.06l-60.228 34.966v34.192l68.924-40.01c2.206-1.284 3.574-4.004 3.594-7.884 0.018-7.82-5.494-17.334-12.288-21.262z" fill="#DBE6FA" p-id="3849"></path><path d="M629.276 399.248c34.732 20.052 62.8 68.664 62.688 108.572-0.112 39.918-28.366 56.022-63.098 35.97-34.732-20.06-62.8-68.672-62.688-108.59 0.112-39.908 28.366-56.004 63.098-35.952z" fill="#2A3134" p-id="3850"></path><path d="M584.518 394.864l20.182-11.73c11.432-6.638 27.276-5.706 44.758 4.384l-20.182 11.73c-17.482-10.09-33.326-11.03-44.76-4.374v-0.01z m109.27 141.58l-20.172 11.732c11.292-6.574 18.292-20.528 18.338-40.356 0.12-39.908-27.946-88.52-62.678-108.572l20.182-11.73c34.724 20.052 62.8 68.674 62.68 108.572-0.058 19.83-7.06 33.792-18.34 40.356h-0.01z" fill="#4F575F" p-id="3851"></path><path d="M594.646 404.5c42.896 24.76 77.564 84.804 77.424 134.106-0.14 49.3-35.04 69.184-77.936 44.422-42.906-24.78-77.572-84.824-77.432-134.126 0.14-49.29 35.03-69.174 77.944-44.404z m-0.354 122.628c16.05 9.26 29.092 1.834 29.138-16.608 0.056-18.432-12.902-40.896-28.952-50.158-16.048-9.262-29.1-1.824-29.156 16.608-0.056 18.432 12.92 40.894 28.97 50.158z" fill="#181E1E" p-id="3852"></path><path d="M594.48 460.362c16.048 9.264 29.006 31.726 28.95 50.158-0.046 18.432-13.088 25.88-29.138 16.608-16.048-9.264-29.026-31.726-28.97-50.158 0.056-18.432 13.108-25.88 29.166-16.608h-0.01z m-0.15 54.58c10.184 5.874 18.46 1.154 18.496-10.548 0.028-11.692-8.192-25.954-18.376-31.836-10.192-5.884-18.488-1.154-18.524 10.538-0.028 11.7 8.21 25.952 18.404 31.846z" fill="#FFCA6C" p-id="3853"></path><path d="M539.368 399.08l24.912-14.484c14.132-8.2 33.7-7.048 55.286 5.418l-24.92 14.484c-21.596-12.474-41.156-13.62-55.286-5.418h0.008z" fill="#4F575F" p-id="3854"></path><path d="M674.322 573.952l-24.92 14.476c13.946-8.1 22.594-25.34 22.668-49.832 0.14-49.292-34.536-109.344-77.424-134.106l24.92-14.486c42.896 24.762 77.564 84.806 77.424 134.108-0.074 24.492-8.714 41.722-22.668 49.83v0.01z" fill="#3D4449" p-id="3855"></path><path d="M621.736 127.88l-1.75 601.86-103.526 60.164 1.75-601.852 103.526-60.174z" fill="#F3B2A1" p-id="3856"></path><path d="M518.21 188.044l-1.75 601.85-104.244-60.18 1.75-601.854 104.244 60.184z" fill="#E99B8A" p-id="3857"></path><path d="M621.736 127.88l-103.518 60.164-104.252-60.184 103.526-60.164 104.244 60.182z" fill="#FDC8B8" p-id="3858"></path><path d="M422.28 504.87c43.23 24.948 78.168 85.456 78.02 135.13-0.14 49.682-35.3 69.724-78.524 44.768-43.24-24.968-78.178-85.476-78.038-135.16 0.14-49.672 35.31-69.706 78.54-44.74z" fill="#181E1E" p-id="3859"></path><path d="M366.574 499.404l25.116-14.586c14.232-8.276 33.95-7.112 55.704 5.454l-25.116 14.598c-21.754-12.568-41.47-13.732-55.704-5.466z" fill="#4F575F" p-id="3860"></path><path d="M502.58 675.626l-25.116 14.596c14.056-8.172 22.77-25.534 22.834-50.222 0.15-49.674-34.788-110.172-78.01-135.13l25.106-14.598c43.232 24.95 78.16 85.458 78.02 135.132-0.064 24.688-8.78 42.058-22.834 50.22z" fill="#3D4449" p-id="3861"></path><path d="M381.506 582.32c-0.056 18.58 13.014 41.212 29.192 50.55l-25.116 14.596c-16.17-9.346-29.248-31.976-29.192-50.548l25.116-14.598z" fill="#4F575F" p-id="3862"></path><path d="M372.504 591.174l25.116-14.596c-3.342 1.944-5.4 6.06-5.428 11.914-0.028 11.796 8.266 26.16 18.544 32.09l-25.116 14.596c-16.03-9.254-25.032-37.08-13.116-44.004z" fill="#FFB63C" p-id="3863"></path><path d="M410.7 632.87c8.134 4.692 15.5 5.128 20.822 2.038l-25.116 14.596c-5.324 3.092-12.688 2.654-20.824-2.048l25.116-14.586z" fill="#4F575F" p-id="3864"></path><path d="M423.954 621.876l-25.116 14.596c-3.38 1.954-8.052 1.684-13.22-1.304l25.118-14.586c5.156 2.98 9.84 3.258 13.22 1.302v-0.008z" fill="#FFA20D" p-id="3865"></path><path d="M388.282 539.62c34.994 20.2 63.274 69.194 63.162 109.41-0.12 40.224-28.58 56.45-63.58 36.24-35.002-20.2-63.294-69.194-63.18-109.42 0.12-40.214 28.578-56.44 63.588-36.23h0.01z m-0.288 100.054c13.088 7.55 23.738 1.49 23.774-13.554 0.04-15.034-10.536-33.364-23.626-40.922-13.088-7.56-23.738-1.49-23.784 13.554-0.046 15.034 10.538 33.354 23.636 40.922z" fill="#2A3134" p-id="3866"></path><path d="M385.768 580.19c16.17 9.326 29.232 31.966 29.184 50.548-0.056 18.56-13.2 26.064-29.37 16.728-16.17-9.346-29.248-31.976-29.192-50.548 0.046-18.572 13.208-26.066 29.388-16.728h-0.01z m-0.148 54.988c10.26 5.92 18.6 1.164 18.636-10.62 0.028-11.796-8.256-26.16-18.524-32.09-10.268-5.93-18.62-1.164-18.656 10.62-0.028 11.796 8.266 26.16 18.544 32.09z" fill="#FFCA6C" p-id="3867"></path><path d="M343.17 535.208l20.34-11.822c11.526-6.704 27.48-5.754 45.104 4.42l-20.34 11.824c-17.614-10.176-33.58-11.126-45.104-4.422z" fill="#4F575F" p-id="3868"></path><path d="M453.288 677.87l-20.332 11.822c11.376-6.61 18.432-20.676 18.488-40.662 0.112-40.216-28.168-89.2-63.172-109.41l20.34-11.822c34.994 20.21 63.276 69.204 63.164 109.42-0.056 19.976-7.112 34.042-18.488 40.652z" fill="#3D4449" p-id="3869"></path><path d="M390.554 596.386l-60.184 35.086c-3.444-1.982-6.404-1.936-8.658-0.632l9.692-6.06 54.364-31.604c1.472 0.754 3.128 1.842 4.786 3.21z" fill="#CBDBF4" p-id="3870"></path><path d="M404.964 622.48l-65.256 37.926-0.3 0.576c2.766-1.6 3.754-5.77 3.566-8.936-0.232-7.14-5.538-14.876-11.478-19.176-0.512-0.374-0.586-1.09-1.116-1.398l60.174-35.094c7.494 6.19 13.302 16.626 14.41 26.102z" fill="#DBE6FA" p-id="3871"></path><path d="M330.874 631.492c6.85 3.946 12.4 13.544 12.38 21.43-0.028 7.866-5.614 11.02-12.464 7.074-6.834-3.956-12.38-13.536-12.354-21.41 0.02-7.876 5.594-11.05 12.438-7.094z" fill="#BBCFEF" p-id="3872"></path><path d="M422.28 257.936c43.23 24.958 78.168 85.468 78.02 135.14-0.14 49.684-35.3 69.726-78.524 44.768-43.24-24.968-78.178-85.476-78.038-135.168 0.14-49.664 35.31-69.698 78.54-44.74z" fill="#181E1E" p-id="3873"></path><path d="M366.574 252.48l25.116-14.596c14.232-8.266 33.95-7.102 55.704 5.456l-25.116 14.596c-21.754-12.566-41.47-13.73-55.704-5.454z" fill="#4F575F" p-id="3874"></path><path d="M502.58 428.692l-25.116 14.606c14.056-8.164 22.77-25.534 22.834-50.212 0.15-49.674-34.788-110.182-78.01-135.14l25.106-14.598c43.232 24.96 78.16 85.468 78.02 135.14-0.064 24.688-8.78 42.05-22.834 50.214v-0.01z" fill="#3D4449" p-id="3875"></path><path d="M372.504 344.25l25.116-14.596c-3.342 1.936-5.4 6.06-5.428 11.916-0.028 11.794 8.266 26.158 18.544 32.088l-25.116 14.586c-10.278-5.928-18.572-20.292-18.544-32.08 0.02-5.862 2.086-9.978 5.428-11.914z" fill="#FFB63C" p-id="3876"></path><path d="M423.954 374.952l-25.116 14.596c-3.38 1.956-8.052 1.676-13.22-1.304l25.118-14.586c5.156 2.98 9.84 3.258 13.22 1.294z" fill="#FFA20D" p-id="3877"></path><path d="M388.282 292.696c34.994 20.2 63.274 69.194 63.162 109.41-0.12 40.216-28.58 56.44-63.58 36.24-35.002-20.21-63.294-69.204-63.18-109.428 0.12-40.216 28.578-56.432 63.588-36.22h0.01z m-0.288 100.046c13.088 7.56 23.738 1.488 23.774-13.546 0.04-15.042-10.536-33.364-23.626-40.922-13.088-7.56-23.738-1.49-23.784 13.544-0.046 15.044 10.538 33.364 23.636 40.924z" fill="#2A3134" p-id="3878"></path><path d="M385.768 333.266c16.17 9.328 29.232 31.958 29.184 50.54-0.056 18.57-13.2 26.064-29.37 16.726-16.17-9.336-29.248-31.966-29.192-50.548 0.046-18.572 13.208-26.064 29.388-16.728l-0.01 0.01z m-0.148 54.98c10.26 5.928 18.6 1.172 18.636-10.614 0.028-11.794-8.256-26.158-18.524-32.088s-18.62-1.172-18.656 10.612c-0.028 11.796 8.266 26.16 18.544 32.088z" fill="#FFCA6C" p-id="3879"></path><path d="M343.17 288.274l20.34-11.822c11.526-6.694 27.48-5.744 45.104 4.42l-20.34 11.824c-17.614-10.174-33.58-11.114-45.104-4.42z" fill="#4F575F" p-id="3880"></path><path d="M453.288 430.946l-20.332 11.822c11.376-6.62 18.432-20.684 18.488-40.662 0.112-40.216-28.168-89.208-63.172-109.41l20.34-11.822c34.994 20.21 63.276 69.194 63.164 109.41-0.056 19.986-7.112 34.042-18.488 40.66z" fill="#3D4449" p-id="3881"></path><path d="M390.554 349.464L331.84 383.58l-1.472 0.958c-3.444-1.982-6.404-1.936-8.658-0.624l9.692-6.07 54.364-31.604 0.866 0.476c1.34 0.78 2.654 1.694 3.91 2.736l0.01 0.01z" fill="#CBDBF4" p-id="3882"></path><path d="M404.964 375.548l-65.256 37.924-0.3 0.578c2.236-1.284 3.566-4.422 3.576-8.322v-0.606c-0.242-7.14-5.548-14.884-11.488-19.176-0.512-0.372-0.586-1.09-1.116-1.396l1.46-0.968 58.714-34.128c7.494 6.19 13.302 16.626 14.41 26.094z" fill="#DBE6FA" p-id="3883"></path><path d="M330.874 384.56c6.85 3.954 12.4 13.544 12.38 21.428-0.028 7.876-5.614 11.032-12.464 7.074-6.834-3.946-12.38-13.534-12.354-21.41 0.02-7.876 5.594-11.04 12.438-7.094z" fill="#BBCFEF" p-id="3884"></path><path d="M582.842 177.972l-42.486 24.688v528.476l42.496-24.714-0.01-528.45z" fill="#DF8573" p-id="3885"></path><path d="M597.8 169.286l-14.948 8.686V706.42l14.95 8.696V169.286z" fill="#E99B8A" p-id="3886"></path><path d="M582.842 706.42l-42.486 24.716v17.4l57.436-33.42-14.95-8.696z" fill="#FDC8B8" p-id="3887"></path><path d="M585.002 112.146l-0.066 20.666-67.286 39.108 0.056-20.666 67.296-39.108z" fill="#DF8573" p-id="3888"></path><path d="M517.706 151.254l-0.056 20.666-67.732-39.098 0.056-20.666 67.732 39.1z" fill="#E99B8A" p-id="3889"></path><path d="M585.002 112.146l-67.296 39.1-67.732-39.1 67.294-39.098 67.734 39.1z" fill="#F3B2A1" p-id="3890"></path><path d="M569.028 95.028l-0.048 15.778-51.386 29.864 0.056-15.788 51.378-29.854z" fill="#DF8573" p-id="3891"></path><path d="M517.65 124.88l-0.046 15.79-51.72-29.864 0.046-15.78 51.72 29.856z" fill="#E99B8A" p-id="3892"></path><path d="M569.028 95.028L517.64 124.88l-51.712-29.854 51.386-29.864 51.712 29.864z" fill="#F3B2A1" p-id="3893"></path></svg>