<?xml version="1.0" standalone="no"?><!DOCTYPE svg PUBLIC "-//W3C//DTD SVG 1.1//EN" "http://www.w3.org/Graphics/SVG/1.1/DTD/svg11.dtd"><svg t="1765880146210" class="icon" viewBox="0 0 1024 1024" version="1.1" xmlns="http://www.w3.org/2000/svg" p-id="14905" xmlns:xlink="http://www.w3.org/1999/xlink" width="128" height="128"><path d="M620.6976 137.216c-1.4848 9.6256-0.3584 20.6848 0.768 31.6416 2.9184 28.416-41.1648 56.8832-72.5504 53.9136s-42.1376-2.9184-42.1376 15.6672c0 18.6368-11.776 27.4432-28.416 35.2768-16.6912 7.8336-13.7216 38.2464-10.8032 75.4688 2.9184 37.2736-14.6944 47.0528-30.4128 33.3312-15.6672-13.7216-30.4128-3.9424-34.304-23.552-3.9424-19.6096-14.6944-41.1648-38.2464-45.1072-23.552-3.9424-52.9408 18.6368-52.9408-46.2848 0-7.9872-1.1264-14.8992-3.0208-20.8896a296.40704 296.40704 0 0 0-59.6992 178.8416c0 164.4032 133.2736 297.6768 297.6768 297.6768s297.6768-133.2736 297.6768-297.6768c0-138.752-95.0272-255.3856-223.5904-288.3072z m41.2672 556.1856c-9.8304-17.2032-8.5504-46.1824-7.2192-62.5664 1.9456-23.3472-8.8064-41.3696-50.0224-64.9216-41.1648-23.552-33.3312-60.7744-15.6672-93.3376 17.664-32.512 5.888-16.4864 7.8336-56.6784 1.9456-40.192 16.6912-23.552 51.968-33.3312 35.2768-9.7792 70.6048 22.528 78.4384 44.1344s19.6096 37.2736 49.152 45.9264c29.5424 8.6528 30.2592 12.9024 43.1616 38.4 1.1776 2.3552 2.816 4.4032 4.7616 6.144-28.9792 77.8752-87.7056 141.1584-162.4064 176.2304z" fill="#84DDFD" p-id="14906"></path><path d="M653.6192 888.6272H435.3536c-35.84 0-64.8704 29.0304-64.8704 64.8704h348.0576c-0.0512-35.7888-29.0816-64.8704-64.9216-64.8704z" fill="#FFA750" p-id="14907"></path><path d="M572.1088 876.3904v-68.5568s-20.992 2.7136-31.7952 2.7136-31.232-2.7136-31.232-2.7136v68.5568h63.0272z" fill="#FBC07C" p-id="14908"></path><path d="M546.56 127.8976c-97.28 0-183.6544 46.6944-237.9776 118.8864 1.9456 5.9904 3.0208 12.9024 3.0208 20.8896 0 64.9216 29.3888 42.3936 52.9408 46.2848 23.552 3.9424 34.304 25.4976 38.2464 45.1072 3.9424 19.6096 18.6368 9.7792 34.304 23.552 15.6672 13.7216 33.3312 3.9424 30.4128-33.3312-2.9184-37.2736-5.888-67.6352 10.8032-75.4688 16.6912-7.8336 28.416-16.6912 28.416-35.2768 0-18.6368 10.8032-18.6368 42.1376-15.6672s75.4688-25.4976 72.5504-53.9136c-1.1264-10.9568-2.2016-22.016-0.768-31.6416a292.06016 292.06016 0 0 0-74.0864-9.4208zM819.6608 511.0272c-12.9024-25.4976-13.568-29.7472-43.1616-38.4-29.5424-8.6528-41.3184-24.32-49.152-45.9264s-34.816-31.8464-70.0928-22.0672c-35.2768 9.7792-32.1536 10.2912-32.3584 21.0944-0.7168 40.2432 11.264 29.7472-6.3488 62.2592-17.664 32.512-25.1904 46.592 15.9744 70.0928 41.1648 23.552 22.272 49.408 20.2752 72.7552-1.3824 16.384-2.6112 45.3632 7.2192 62.5664 74.7008-35.072 133.4272-98.4064 162.4576-176.2304-1.9968-1.7408-3.6352-3.7888-4.8128-6.144z" fill="#81BDA4" p-id="14909"></path><path d="M819.6608 615.4752c-32.256 0-58.5216 26.2656-58.5216 58.5216 0 12.544 4.0448 24.1664 10.8032 33.7408a387.47648 387.47648 0 0 1-244.992 87.0912c-214.016 0-388.1472-174.1312-388.1472-388.1472 0-90.7776 31.488-177.92 89.0368-247.3984 8.7552 5.2224 18.944 8.2944 29.8496 8.2944 32.256 0 58.5216-26.2656 58.5216-58.5216S289.9456 50.5344 257.6896 50.5344 199.2192 76.8 199.2192 109.056c0 10.1888 2.6112 19.7632 7.2192 28.0576a417.6384 417.6384 0 0 0-98.304 269.5168c0 210.8928 156.672 385.792 359.7312 414.6176v39.7824H401.664c-44.2368 0-80.2304 35.9936-80.2304 80.2304v27.5968h412.416v-27.5968c0-44.2368-35.9936-80.2304-80.2304-80.2304h-66.1504v-39.936a417.8944 417.8944 0 0 0 208.6912-93.5936c7.2192 3.1744 15.1552 4.9664 23.5008 4.9664 32.256 0 58.5216-26.2656 58.5216-58.5216s-26.2656-58.4704-58.5216-58.4704zM257.6896 81.2544c15.3088 0 27.8016 12.4416 27.8016 27.7504 0 15.3088-12.4416 27.8016-27.8016 27.8016s-27.8016-12.4416-27.8016-27.8016c0.0512-15.2576 12.4928-27.7504 27.8016-27.7504z m395.9296 810.496c26.2656 0 47.8208 20.5312 49.408 46.3872H352.256c1.6384-25.856 23.1424-46.3872 49.408-46.3872h251.9552z m-155.0848-30.72v-36.5056c9.3696 0.6656 20.6848 1.3824 28.672 1.3824 8.1408 0 19.8656-0.7168 29.4912-1.3824v36.5568H498.5344z m321.1264-159.2832c-15.3088 0-27.8016-12.4416-27.8016-27.8016s12.4416-27.8016 27.8016-27.8016 27.8016 12.4416 27.8016 27.8016-12.4928 27.8016-27.8016 27.8016z" fill="#333333" p-id="14910"></path><path d="M617.0624 86.9888c-3.5328-0.9728-7.0144-1.9456-10.5984-2.816-3.5328-0.8704-7.1168-1.7408-10.7008-2.4576-2.2016-0.4608-4.4032-0.8192-6.5536-1.2288-2.8672-0.5632-5.7344-1.0752-8.6528-1.536-2.2016-0.3584-4.352-0.6656-6.5536-0.9728-3.0208-0.4096-6.0416-0.8192-9.0624-1.1776-2.048-0.256-4.1472-0.4608-6.2464-0.6656-3.3792-0.3072-6.8096-0.5632-10.24-0.768-1.7408-0.1024-3.4816-0.256-5.2224-0.3072-5.1712-0.256-10.3936-0.4096-15.616-0.4096-5.9904 0-11.9808 0.2048-17.92 0.512-1.9968 0.1024-3.9424 0.3072-5.888 0.4608-3.9424 0.256-7.8848 0.5632-11.776 0.9728-2.4576 0.256-4.864 0.6144-7.3216 0.9216-3.3792 0.4096-6.7072 0.8704-10.0352 1.3824-2.7648 0.4608-5.4784 0.9728-8.192 1.4848-2.9184 0.5632-5.8368 1.0752-8.704 1.7408-3.0208 0.6656-5.9904 1.3312-9.0112 2.0992-2.4576 0.6144-4.9152 1.2288-7.3728 1.8944a315.89376 315.89376 0 0 0-15.6672 4.608c-3.7376 1.1776-7.424 2.4576-11.1104 3.7888-1.1264 0.4096-2.2528 0.8704-3.4304 1.28-54.272 20.2752-102.9632 54.7328-140.8 101.0688-0.256 0.3072-0.4608 0.7168-0.6656 1.0752-46.2848 57.088-74.0352 129.6896-74.0352 208.6912 0 183.04 148.9408 331.9808 331.9808 331.9808 45.312 0 88.4736-9.1648 127.8464-25.6512l0.1536 0.3072 12.8512-6.0416c0.768-0.3584 1.4848-0.768 2.2016-1.1264 1.1264-0.5632 2.2528-1.1264 3.4304-1.6896 3.7376-1.8432 7.424-3.6864 11.0592-5.6832 1.024-0.5632 1.9968-1.1264 2.9696-1.6896 3.6352-2.048 7.2704-4.096 10.8032-6.2464 1.3312-0.768 2.56-1.6384 3.8912-2.4576 3.1232-1.9456 6.2464-3.9424 9.3184-5.9904 1.9456-1.3312 3.84-2.6624 5.7344-4.0448 2.3552-1.6384 4.6592-3.2768 6.9632-4.9664 2.7136-1.9968 5.3248-4.096 7.936-6.144 1.4336-1.1264 2.9184-2.2528 4.352-3.4304 3.3792-2.7648 6.656-5.5808 9.8816-8.448 0.6656-0.5632 1.3312-1.1264 1.9456-1.6896 3.7888-3.4304 7.5264-6.912 11.1616-10.496l0.3072-0.3072c11.3152-11.1616 21.8112-23.0912 31.488-35.7888a1.3824 1.3824 0 0 1 0.3584-0.4096c2.7648-3.6352 5.376-7.3216 7.9872-11.0592 0.512-0.768 1.0752-1.4848 1.6384-2.2528 2.048-2.9696 3.9424-6.0416 5.888-9.0624 1.024-1.5872 2.0992-3.1744 3.072-4.7616 1.3312-2.1504 2.56-4.4032 3.84-6.6048 1.4848-2.56 3.0208-5.12 4.4544-7.7312 0.7168-1.3312 1.3824-2.6624 2.048-3.9424 1.8944-3.5328 3.7376-7.0656 5.4784-10.6496 0.3072-0.5632 0.5632-1.1776 0.8192-1.792 2.048-4.3008 4.0448-8.6528 5.888-13.056 0.1536-0.3072 0.256-0.6144 0.3584-0.9216 1.7408-4.096 3.4304-8.2432 4.9664-12.4416l3.6352-9.8304-0.256-0.2048c11.2128-33.28 17.408-68.8128 17.408-105.8304 0-144.7936-93.184-268.1344-222.6688-313.4464-0.3072-0.1024-0.5632-0.256-0.8192-0.3584-1.4848-0.512-3.0208-0.9728-4.5056-1.4336-2.5088-0.8192-5.0176-1.6896-7.5776-2.4576-2.2528-0.512-4.608-1.1264-6.912-1.792z m-10.9056 83.456c0.512 5.0688-2.7136 11.5712-8.8576 17.7664-12.2368 12.3392-32.4608 20.6336-46.9504 19.2512-21.6576-2.048-38.7072-3.6352-49.7664 6.4512-9.1648 8.3456-9.1648 20.5312-9.1648 24.5248 0 8.2432-2.9184 13.568-19.6096 21.4016-25.8048 12.1344-23.04 46.9504-19.8144 87.296l0.256 3.2768c1.024 13.2608-1.1264 19.968-2.5088 22.3232-0.6144-0.3072-1.4336-0.8704-2.4576-1.7408-9.3696-8.192-18.7392-10.5472-24.8832-12.0832-1.3312-0.3072-3.0208-0.768-3.9936-1.0752-0.1536-0.3584-0.3072-0.9216-0.4608-1.792-6.4-32.0512-24.9344-52.9408-50.7904-57.2416-7.4752-1.2288-14.6432-0.5632-20.992 0-5.376 0.512-12.032 1.0752-13.7216-0.4096-0.9216-0.8192-5.4272-6.1952-5.4272-30.72 0-30.208-13.2608-47.9232-26.9312-58.112 1.3312-1.4848 2.56-3.0208 3.9424-4.5056l1.6896-1.8432c2.9184-3.1744 5.888-6.3488 8.96-9.4208l0.1536-0.1536a303.36 303.36 0 0 1 82.176-58.4192c0.0512-0.0512 0.1536-0.0512 0.2048-0.1024 4.0448-1.9456 8.0896-3.7888 12.2368-5.5296 0.6656-0.256 1.3312-0.5632 1.9456-0.8192 3.6864-1.536 7.424-3.0208 11.2128-4.4544 1.1776-0.4096 2.304-0.8704 3.4816-1.28 3.4304-1.2288 6.8608-2.4064 10.2912-3.4816 1.6384-0.512 3.2256-0.9728 4.864-1.4848 3.1232-0.9216 6.2464-1.8432 9.4208-2.6624 2.048-0.5632 4.096-1.024 6.1952-1.536 2.816-0.6656 5.6832-1.3824 8.5504-1.9968 2.4576-0.512 4.9664-0.9728 7.4752-1.4336 2.56-0.4608 5.0688-0.9728 7.6288-1.3824 2.9184-0.4608 5.8368-0.8192 8.8064-1.1776 2.2016-0.3072 4.4544-0.6144 6.656-0.8704 3.4816-0.3584 6.9632-0.6144 10.4448-0.8704 1.7408-0.1024 3.5328-0.3072 5.2736-0.4096 5.2736-0.256 10.5984-0.4096 15.9744-0.4096 4.608 0 9.1648 0.1536 13.7216 0.3584 1.28 0.0512 2.5088 0.1024 3.7888 0.2048 3.7888 0.2048 7.5776 0.512 11.3152 0.8704 0.8192 0.1024 1.6896 0.1536 2.5088 0.2048 4.3008 0.4608 8.5504 1.024 12.8 1.6384 1.4848 0.2048 2.9696 0.4608 4.5056 0.7168 2.9696 0.4608 5.9392 1.024 8.9088 1.5872 1.536 0.3072 3.1232 0.5632 4.6592 0.9216 3.9424 0.8192 7.8848 1.7408 11.7248 2.7136 1.6384 0.4096 3.2768 0.8704 4.9152 1.3312 1.5872 0.4608 3.1744 0.9216 4.8128 1.3824-9.0112 15.8208-6.912 36.096-5.1712 53.1968z m63.9488 461.6704c2.6624-31.5392-14.08-54.5792-57.7024-79.5136-18.5856-10.5984-34.2528-27.5456-9.8304-72.6528 11.0592-20.3776 13.2096-26.0096 10.8544-39.3216-0.768-4.3008-1.8432-10.24-1.1776-23.9104 0.4608-9.0112 1.4848-12.6464 2.048-13.9776 1.8432-0.4096 5.7856-0.6656 8.7552-0.8192 7.424-0.4608 17.6128-1.0752 29.952-4.5056 26.7264-7.424 54.7328 20.3776 59.904 34.56 7.6288 21.0432 20.6848 44.0832 59.2896 55.3984 21.504 6.2976 21.504 6.2976 31.6928 26.5728l2.048 4.0448 0.9216 1.6896c-0.4608 1.0752-0.8704 2.2016-1.28 3.2768l-1.0752 2.4576c-1.4848 3.4816-3.072 6.912-4.6592 10.3424-0.512 1.0752-1.024 2.0992-1.536 3.1744-1.4848 3.0208-3.0208 6.0416-4.6592 9.0112l-2.1504 3.9936c-1.4336 2.56-2.8672 5.0688-4.352 7.5776l-2.9184 4.9152c-1.2288 1.9968-2.56 3.9936-3.84 5.9904-1.28 1.9968-2.6112 3.9936-3.9424 5.9904-0.8192 1.1776-1.6896 2.3552-2.5088 3.5328a306.01728 306.01728 0 0 1-29.6448 35.84c-0.512 0.512-1.024 1.0752-1.536 1.5872-2.3552 2.4064-4.7616 4.7104-7.168 7.0144-0.9216 0.8704-1.792 1.7408-2.7136 2.6112-2.2016 2.048-4.4032 4.0448-6.656 6.0416-1.28 1.1264-2.56 2.2528-3.84 3.328-1.9968 1.6896-4.0448 3.3792-6.0928 5.0688-1.6896 1.3824-3.4304 2.7136-5.12 4.0448-1.7408 1.3312-3.5328 2.7136-5.2736 3.9936-2.2528 1.6896-4.608 3.328-6.912 4.9152l-3.9936 2.7648c-3.2256 2.1504-6.5024 4.2496-9.8304 6.2976-0.512 0.3072-1.024 0.6656-1.5872 0.9728-4.1984 2.56-8.448 4.9664-12.7488 7.3216-1.6384-8.8064-2.2528-21.4528-0.7168-39.6288z m158.8224-225.4336c0 25.2928-3.1744 49.92-9.0624 73.4208-7.6288-10.2912-17.2032-15.8208-39.0144-22.1696-24.1664-7.0656-32.6144-18.688-39.0656-36.4032-10.8544-29.8496-54.0672-65.5872-96.9728-53.6576-9.1648 2.56-16.7936 3.0208-23.552 3.4304-24.9344 1.4848-37.9392 8.704-39.6288 43.9808-0.8192 17.152 0.6656 25.7024 1.5872 30.8224 0.2048 1.0752 0.4096 2.4064 0.4608 2.6624-0.3584 2.5088-6.144 13.1584-8.0384 16.64-36.608 67.5328-2.2016 100.4032 21.5552 113.9712 41.0112 23.4496 43.4176 37.1712 42.3424 50.2784-1.9456 22.9888-0.9216 41.3184 2.9184 55.6544a299.40224 299.40224 0 0 1-114.7392 22.784c-166.144 0-301.2608-135.168-301.2608-301.2608 0-64.3072 20.3264-123.904 54.7328-172.8512 10.1888 7.3728 15.1552 18.4832 15.1552 33.8944 0 27.1872 4.7616 43.6736 15.4624 53.4016 11.6736 10.6496 26.4192 9.3184 37.2224 8.3456 4.9152-0.4608 9.5744-0.8704 13.1072-0.3072 17.2032 2.8672 23.5008 21.8624 25.7024 32.9728 4.1984 20.8896 18.5344 24.4736 27.0848 26.6752 4.6592 1.1776 8.3456 2.0992 12.1344 5.4272 7.3216 6.4 15.5648 9.728 23.5008 9.728 4.352 0 8.6016-0.9728 12.5952-2.9696 8.5504-4.3008 22.528-16.896 19.712-52.8384l-0.256-3.2768c-1.5872-20.1728-4.3008-54.016 2.2528-57.088 18.432-8.6528 37.2736-21.2992 37.2736-49.2032 0-0.6144 0-1.1264 0.0512-1.5872 5.4784-0.7168 18.1248 0.512 25.344 1.1776 23.552 2.2016 53.0432-9.4208 71.68-28.2112 12.8512-12.9536 19.0976-28.1088 17.6128-42.5472-1.9968-19.1488-2.816-33.1264 4.5056-38.4 0.3584-0.256 0.6144-0.512 0.9728-0.768 109.3632 44.8512 186.624 152.6784 186.624 278.272z" fill="#333333" p-id="14911"></path></svg>