<?xml version="1.0" standalone="no"?><!DOCTYPE svg PUBLIC "-//W3C//DTD SVG 1.1//EN" "http://www.w3.org/Graphics/SVG/1.1/DTD/svg11.dtd"><svg t="1765987919547" class="icon" viewBox="0 0 1024 1024" version="1.1" xmlns="http://www.w3.org/2000/svg" p-id="28763" xmlns:xlink="http://www.w3.org/1999/xlink" width="128" height="128"><path d="M642 424L78 756l84-20 150-88.54 318 181.7L528 892l-76 48 84-20 312-180 46-28 128-72z m164 306l-98 56-311.24-183.24 98-56z" opacity=".2" p-id="28764"></path><path d="M938 562v36l-100 60v-38l36-22 30-16 34-20z" fill="#D67240" p-id="28765"></path><path d="M838 620L410 378v34l428 246v-38z" fill="#FFE571" p-id="28766"></path><path d="M938 562L508 324l-32 16-28 16-38 22 428 242 36-22 30-16 34-20z" fill="#FFB230" p-id="28767"></path><path d="M448 356l426 242 30-16-428-242-28 16z" fill="#FFE571" p-id="28768"></path><path d="M248 444l-86 292-62 36 94-296 54-32z" fill="#D67240" p-id="28769"></path><path d="M100 772l-22-16 84-258 32-22-94 296z" fill="#FFB230" p-id="28770"></path><path d="M486 666L58 424v34l428 246v-38z" fill="#FFE571" p-id="28771"></path><path d="M790 486L358 248l-68 40-26 16-94 54-24 14-88 52 428 242 86-50 28-16 90-52 26-16 74-46zM474 956l-22-16 86-266 30-18-94 300z m342-234l32 18-66-58-32-26-72-64-10 6 58 46 90 78z" fill="#FFB230" p-id="28772"></path><path d="M728 562l62-36v-40l-74 46-26 16-90 52-28 16-86 50v38l52-30 30-18-94 300 62-36 34.2-118v-0.14L782 682l66 58 46-28zM584 752l10-30 28-98 46-26 10-5.9 72 64z" fill="#D67240" p-id="28773"></path><path d="M750 656l-24-12-132 78-10 30 166-96z" fill="#FFB230" p-id="28774"></path><path d="M146 372l24-14 430 242-28 16-426-244z m118-68l26-16 426 244-26 16-426-244z" fill="#FFE571" p-id="28775"></path><path d="M540 794v36l-100 58v-38l36-20 30-18 34-18z" fill="#D67240" p-id="28776"></path><path d="M440 850L12 608v34l428 246v-38z" fill="#FFE571" p-id="28777"></path><path d="M540 794L114 548l-36 22-28 16-38 22 428 242 36-20 30-18 34-18z" fill="#FFB230" p-id="28778"></path><path d="M50 586l426 244 30-18L78 570l-28 16z" fill="#FFE571" p-id="28779"></path></svg>