<?xml version="1.0" standalone="no"?><!DOCTYPE svg PUBLIC "-//W3C//DTD SVG 1.1//EN" "http://www.w3.org/Graphics/SVG/1.1/DTD/svg11.dtd"><svg t="1765880387798" class="icon" viewBox="0 0 1024 1024" version="1.1" xmlns="http://www.w3.org/2000/svg" p-id="43619" xmlns:xlink="http://www.w3.org/1999/xlink" width="128" height="128"><path d="M819.02 206.77c-0.04-0.04-0.13-0.09-0.18-0.13L608.09 81c-9.13-5.43-20-6.9-30.2-4.1-10.15 2.81-18.84 9.71-24.14 19.15L184.63 756.23c-11.22 19.64-4.9 44.94 14.12 56.47 0.04 0.04 0.13 0.09 0.18 0.09l210.75 125.69c9.13 5.43 20 6.9 30.15 4.05 10.2-2.76 18.88-9.66 24.14-19.11L833.14 263.2c11.18-19.59 4.85-44.89-14.12-56.43zM213 788.52c-6.06-3.65-8.11-11.62-4.68-17.9l369.17-660.23c3.52-6.28 11.27-8.46 17.37-4.81l37.63 22.67-381.77 682.81L213 788.52z m596.8-539.44l-15.54 27.79-79.95-47.66c-5.79-4.9-14.3-4.05-19.02 1.92-4.72 5.97-3.87 14.79 1.92 19.64 1.11 0.98 2.4 1.74 3.79 2.27l79.95 47.66-18.88 33.85-44.85-26.77c-5.79-4.85-14.3-4.01-19.02 1.96-4.72 5.97-3.87 14.79 1.87 19.64 1.16 0.98 2.45 1.74 3.79 2.27l44.85 26.72-18.88 33.8-44.85-26.72c-5.79-4.85-14.3-4.01-19.02 1.96-4.72 5.97-3.87 14.79 1.87 19.69 1.16 0.94 2.41 1.69 3.79 2.23l44.85 26.72-18.88 33.8-79.99-47.66c-6.99-2.72-14.79 0.89-17.41 8.11-2.05 5.61-0.4 11.94 4.1 15.77l79.95 47.66-18.88 33.8-44.85-26.72c-6.99-2.72-14.79 0.89-17.41 8.15-2.05 5.57-0.4 11.94 4.05 15.72L652 531.4l-18.88 33.8-44.85-26.72c-5.79-4.9-14.3-4.01-19.02 1.96-4.72 5.97-3.87 14.74 1.87 19.64 1.16 0.94 2.45 1.74 3.79 2.27l44.85 26.72-18.88 33.8-79.99-47.66c-6.99-2.76-14.79 0.89-17.41 8.11-2.05 5.61-0.4 11.94 4.1 15.72l79.95 47.66-18.88 33.85-44.85-26.77c-6.99-2.72-14.79 0.94-17.41 8.15-2.05 5.61-0.4 11.94 4.05 15.72l44.85 26.77-18.88 33.76-44.85-26.72c-6.99-2.72-14.79 0.94-17.41 8.15-2.05 5.61-0.4 11.94 4.05 15.72l44.85 26.72-18.88 33.8-79.99-47.66c-6.99-2.72-14.79 0.94-17.41 8.15-2.05 5.57-0.4 11.94 4.1 15.72l79.95 47.66-21.11 37.77-44.85-26.72c-5.79-4.85-14.3-4.01-19.02 1.96-4.72 5.97-3.87 14.79 1.87 19.69 1.16 0.94 2.45 1.69 3.79 2.23l44.85 26.72-15.45 27.7a12.686 12.686 0 0 1-7.7 6.01c-3.21 0.89-6.68 0.45-9.58-1.25L273.93 824.8l381.78-682.81 149.51 89.12c5.96 3.72 8.06 11.69 4.58 17.97z" p-id="43620"></path><path d="M632.5 128.25L250.72 811.06 213 788.52c-6.06-3.65-8.11-11.62-4.68-17.9l369.17-660.23c3.52-6.28 11.27-8.46 17.37-4.81l37.64 22.67z" fill="#80D8FF" p-id="43621"></path><path d="M809.8 249.08l-15.54 27.79-79.95-47.66c-5.79-4.9-14.3-4.05-19.02 1.92-4.72 5.97-3.87 14.79 1.92 19.64 1.11 0.98 2.4 1.74 3.79 2.27l79.95 47.66-18.88 33.85-44.85-26.77c-5.79-4.85-14.3-4.01-19.02 1.96-4.72 5.97-3.87 14.79 1.87 19.64 1.16 0.98 2.45 1.74 3.79 2.27l44.85 26.72-18.88 33.8-44.85-26.72c-5.79-4.85-14.3-4.01-19.02 1.96-4.72 5.97-3.87 14.79 1.87 19.69 1.16 0.94 2.41 1.69 3.79 2.23l44.85 26.72-18.88 33.8-79.99-47.66c-6.99-2.72-14.79 0.89-17.41 8.11-2.05 5.61-0.4 11.94 4.1 15.77l79.95 47.66-18.88 33.8-44.85-26.72c-6.99-2.72-14.79 0.89-17.41 8.15-2.05 5.57-0.4 11.94 4.05 15.72L652 531.4l-18.88 33.8-44.85-26.72c-5.79-4.9-14.3-4.01-19.02 1.96-4.72 5.97-3.87 14.74 1.87 19.64 1.16 0.94 2.45 1.74 3.79 2.27l44.85 26.72-18.88 33.8-79.99-47.66c-6.99-2.76-14.79 0.89-17.41 8.11-2.05 5.61-0.4 11.94 4.1 15.72l79.95 47.66-18.88 33.85-44.85-26.77c-6.99-2.72-14.79 0.94-17.41 8.15-2.05 5.61-0.4 11.94 4.05 15.72l44.85 26.77-18.88 33.76-44.85-26.72c-6.99-2.72-14.79 0.94-17.41 8.15-2.05 5.61-0.4 11.94 4.05 15.72l44.85 26.72-18.88 33.8-79.99-47.66c-6.99-2.72-14.79 0.94-17.41 8.15-2.05 5.57-0.4 11.94 4.1 15.72l79.95 47.66-21.11 37.77-44.85-26.72c-5.79-4.85-14.3-4.01-19.02 1.96-4.72 5.97-3.87 14.79 1.87 19.69 1.16 0.94 2.45 1.69 3.79 2.23l44.85 26.72-15.45 27.7a12.686 12.686 0 0 1-7.7 6.01c-3.21 0.89-6.68 0.45-9.58-1.25L273.93 824.8l381.78-682.81 149.51 89.12c5.96 3.72 8.06 11.69 4.58 17.97z" fill="#FFEA8F" p-id="43622"></path></svg>