<?xml version="1.0" standalone="no"?><!DOCTYPE svg PUBLIC "-//W3C//DTD SVG 1.1//EN" "http://www.w3.org/Graphics/SVG/1.1/DTD/svg11.dtd"><svg t="1765987927981" class="icon" viewBox="0 0 1024 1024" version="1.1" xmlns="http://www.w3.org/2000/svg" p-id="29133" xmlns:xlink="http://www.w3.org/1999/xlink" width="128" height="128"><path d="M86 630v22l78 44v-22l-78-44z" fill="#609AA3" p-id="29134"></path><path d="M556 434l-48-26-118 32 54 28-228 126-26-12-15.02 8.2L242 628v22l34-20-38-24 318-172z" opacity=".2" p-id="29135"></path><path d="M242 628l-67.02-37.8L164 584l-78 46 78 44 78-46z" fill="#85BDC4" p-id="29136"></path><path d="M164 674v22l78-46v-22l-78 46z" fill="#344D5C" p-id="29137"></path><path d="M82 72l84-50 80 54-82 46-82-50z" fill="#FF5542" p-id="29138"></path><path d="M82 72L34 214.56 146 280l18 9.32V122L82 72z" fill="#CC3A2F" p-id="29139"></path><path d="M246 76l50 136-114 66-18 11.32V122l82-46z m-138-4l58-34 56 36-56 32-58-34z" fill="#9E2319" p-id="29140"></path><path d="M166 106V38l56 36-56 32z" fill="#CC3A2F" p-id="29141"></path><path d="M146 280v345.34L164 636V289.32L146 280z" fill="#FFE571" p-id="29142"></path><path d="M164 289.32V636l18-10V278l-18 11.32z" fill="#D67240" p-id="29143"></path><path d="M582 1002l138-80 34 20 190-110-42-24 122-66-312-180-300 176 272 164-102 60v40z" opacity=".2" p-id="29144"></path><path d="M452 502L256 610l36 22 284-158-36-18-88 46z" fill="#FFE571" p-id="29145"></path><path d="M256 610v20l36 22v-20l-36-22z" fill="#FFB230" p-id="29146"></path><path d="M292 652l284-158v-20L292 632v20z" fill="#D67240" p-id="29147"></path><path d="M432 614l20-112 38-204 266 146-58 316-266-146z" fill="#CC3A2F" p-id="29148"></path><path d="M490 298l90-50 266 148-90 48-266-146z" fill="#FF5542" p-id="29149"></path><path d="M846 396l-62 314-86 50 58-316 90-48z" fill="#9E2319" p-id="29150"></path><path d="M432 614L240 726l262 148 196-114-266-146z" fill="#FF5542" p-id="29151"></path><path d="M240 726l-16 74 266 150 12-76-262-148z" fill="#CC3A2F" p-id="29152"></path><path d="M490 950l18 28 20-12 54-32.18V894l84-48 14-8 34-22v38l54-32 16-112-282 164-12 76z" fill="#9E2319" p-id="29153"></path><path d="M224 800l22 34 12 6 32 18 28 16 176 96 14 8-18-28-266-150z" fill="#9E2319" p-id="29154"></path><path d="M714 854l-34-16 34-22v38z" fill="#CC3A2F" p-id="29155"></path><path d="M528 966l24 56 30-20v-68.18L528 966z" fill="#D67240" p-id="29156"></path><path d="M528 966l-20 12-14-8 16 26 42 26-24-56z" fill="#FFB230" p-id="29157"></path><path d="M290 858l12 26.18L318 874l-28-16z" fill="#D67240" p-id="29158"></path><path d="M290 858l-32-18-12-6 14 24.18 42 26L290 858z" fill="#FFB230" p-id="29159"></path><path d="M768 822l-12 78-36 22-6-68 54-32z" fill="#D67240" p-id="29160"></path><path d="M720 922l-36-20-18-56 14-8 34 16 6 68z" fill="#FFB230" p-id="29161"></path><path d="M716 658L526 764l36 22 284-158-36-20-94 50z" fill="#FFE571" p-id="29162"></path><path d="M526 764v20l36 22v-20l-36-22z" fill="#FFB230" p-id="29163"></path><path d="M562 806l284-158v-20L562 786v20z" fill="#D67240" p-id="29164"></path></svg>