<?xml version="1.0" standalone="no"?><!DOCTYPE svg PUBLIC "-//W3C//DTD SVG 1.1//EN" "http://www.w3.org/Graphics/SVG/1.1/DTD/svg11.dtd"><svg t="1765992305112" class="icon" viewBox="0 0 1024 1024" version="1.1" xmlns="http://www.w3.org/2000/svg" p-id="5122" xmlns:xlink="http://www.w3.org/1999/xlink" width="128" height="128"><path d="M585.384 66.598c-3.872-2.254-9.244-1.928-15.174 1.488-11.748 6.796-21.252 23.254-21.216 36.79 0.02 6.702 2.392 11.432 6.21 13.656l18.952 11.004c-3.816-2.224-6.19-6.944-6.208-13.648-0.046-13.544 9.458-30.002 21.206-36.788 5.94-3.426 11.3-3.742 15.174-1.49l-18.944-11.012z" fill="#4F91FF" p-id="5123"></path><path d="M589.154 79.1c11.794-6.796 21.354-1.35 21.392 12.194 0.038 13.5-9.468 29.956-21.252 36.76-11.748 6.788-21.32 1.334-21.346-12.166-0.046-13.544 9.458-30.002 21.206-36.788z" fill="#3A63DF" p-id="5124"></path><path d="M228.576 271.928c-3.882-2.252-9.244-1.928-15.174 1.49-11.758 6.794-21.254 23.254-21.226 36.788 0.028 6.712 2.394 11.432 6.22 13.658l18.944 11.002c-3.818-2.224-6.192-6.944-6.21-13.646-0.038-13.546 9.468-30.004 21.226-36.79 5.92-3.426 11.29-3.742 15.172-1.49l-18.952-11.012z" fill="#4F91FF" p-id="5125"></path><path d="M232.354 284.43c11.776-6.796 21.346-1.35 21.384 12.194 0.038 13.5-9.468 29.958-21.252 36.762-11.748 6.786-21.32 1.332-21.356-12.166-0.038-13.546 9.468-30.004 21.224-36.79z" fill="#3A63DF" p-id="5126"></path><path d="M591.75 368.136l11.19 7.104c0.652 0.42 1.508 0.28 2.356-0.26 1.238-0.792 2.448-2.44 2.98-4.516 11.886-48.11-5.214-219.694-7.412-241.188l-11.188-7.104c2.206 21.504 19.296 193.072 7.41 241.19-0.532 2.076-1.74 3.722-2.98 4.514-0.838 0.54-1.694 0.67-2.356 0.26z" fill="#4F575F" p-id="5127"></path><path d="M598.64 378.61c0.308 0.726 0.82 1.346 1.47 1.788l-11.17-7.094c-0.66-0.44-1.176-1.06-1.49-1.786-15.612-34.25-8.006-237.122-7.66-245.79l11.18 7.094c-0.346 8.676-7.95 211.55 7.67 245.788z m-7.606-248.172l-11.18-7.1-0.084 2.372 11.19 7.102 0.074-2.374z m13.266-8.47l-13.9-8.834-10.546 10.202 11.19 7.102 13.256-8.47z" fill="#4F575F" p-id="5128"></path><path d="M591.034 130.44l13.266-8.472c5.074 48.128 19.214 201.31 7.634 248.152-1.024 4.032-3.482 7.736-6.47 9.644-2.98 1.91-5.586 1.444-6.852-1.136-14.672-32.208-8.9-212.842-7.568-248.188h-0.01z m11.172 243.898c0.622 1.358 1.87 1.424 3.09 0.652 1.238-0.802 2.448-2.45 2.98-4.526 11.886-48.108-5.214-219.694-7.412-241.188l-6.08 3.88c-0.826 23.44-6.914 209.772 7.42 241.18z m-74.808 185.67l22.34-12.98 24.094 13.91-22.342 12.986-24.092-13.916z" fill="#3D4449" p-id="5129"></path><path d="M569.084 551.098l22.34-12.976 218.096 125.924-22.342 12.986-218.094-125.934z m213.904-305.264l22.332-12.976 47.076 499.936-22.332 12.976-47.076-499.936z" fill="#4F575F" p-id="5130"></path><path d="M744.504 223.614l22.332-12.978 38.484 22.22-22.34 12.98-38.476-22.222z" fill="#444B52" p-id="5131"></path><path d="M782.988 245.834l47.076 499.936L527.36 571l0.038-10.986 24.092 13.908 17.594-22.816 218.112 125.924-42.692-453.42 38.484 22.222z" fill="#2A3134" p-id="5132"></path><path d="M806.846 624.194l11.172-6.49 12.064 128.056-11.17 6.49-12.066-128.056z" fill="#4178D2" p-id="5133"></path><path d="M687.7 676.492l11.17-6.48 119.156-52.308-11.17 6.49-119.156 52.298z" fill="#3A63DF" p-id="5134"></path><path d="M806.846 624.194l12.066 128.054-131.212-75.748 119.146-52.306z" fill="#4F91FF" p-id="5135"></path><path d="M604.504 82.032c-3.35-1.946-7.978-1.666-13.098 1.294-10.146 5.856-18.348 20.06-18.32 31.754 0.02 5.79 2.066 9.866 5.362 11.784l53.668 31.186c-3.306-1.918-5.354-5.996-5.362-11.786-0.038-11.692 8.164-25.898 18.31-31.762 5.12-2.952 9.756-3.23 13.098-1.284l-53.658-31.186z" fill="#4F575F" p-id="5136"></path><path d="M633.754 93.52c-3.874-2.254-9.244-1.928-15.174 1.488-11.748 6.796-21.252 23.246-21.224 36.79 0.028 6.702 2.4 11.432 6.218 13.648l123.904 71.978c-3.818-2.216-6.192-6.936-6.21-13.648-0.038-13.544 9.468-30.004 21.224-36.78 5.92-3.426 11.292-3.752 15.174-1.49L633.754 93.52z" fill="#4F91FF" p-id="5137"></path><path d="M742.494 166.996c11.776-6.806 21.344-1.36 21.382 12.186 0.038 13.498-9.468 29.956-21.252 36.77-11.748 6.778-21.32 1.332-21.356-12.176-0.036-13.544 9.468-30.004 21.226-36.78z" fill="#3A63DF" p-id="5138"></path><path d="M758.662 171.586c-3.35-1.946-7.978-1.676-13.096 1.284-10.148 5.864-18.35 20.07-18.312 31.762 0.01 5.79 2.058 9.868 5.362 11.786l53.658 31.186c-3.306-1.92-5.344-5.996-5.362-11.786-0.038-11.692 8.174-25.908 18.31-31.762 5.12-2.952 9.756-3.232 13.108-1.286L758.66 171.586z" fill="#4F575F" p-id="5139"></path><path d="M799.222 204.056c10.176-5.866 18.432-1.164 18.47 10.52 0.028 11.662-8.174 25.878-18.34 31.742-10.146 5.866-18.412 1.154-18.44-10.5-0.038-11.692 8.174-25.908 18.31-31.762z" fill="#3D4449" p-id="5140"></path><path d="M625.274 412.346l-7.244 4.218c-6.236 3.62-14.866 3.118-24.38-2.374l7.242-4.208c9.514 5.492 18.154 5.994 24.39 2.364h-0.008z" fill="#FF6161" p-id="5141"></path><path d="M569.512 333.004l7.242-4.206c-6.162 3.574-9.988 11.188-10.016 22.016-0.066 21.718 15.258 48.248 34.164 59.168l-7.252 4.208c-18.898-10.91-34.22-37.44-34.164-59.17 0.036-10.816 3.862-18.432 10.026-22.016z m-4.496-7.652l7.252-4.206c7.39-4.292 17.62-3.696 28.876 2.792l-7.252 4.216c-11.254-6.496-21.476-7.092-28.876-2.792v-0.01zM629.722 420.016l-7.24 4.208c7.28-4.234 11.802-13.236 11.84-26 0.074-25.73-18.032-57.14-40.43-70.07l7.252-4.206c22.388 12.93 40.494 44.328 40.42 70.068-0.038 12.764-4.56 21.766-11.84 26z" fill="#FF6161" p-id="5142"></path><path d="M593.892 328.154c22.398 12.932 40.494 44.34 40.43 70.07-0.076 25.694-18.292 36.12-40.69 23.19-22.352-12.904-40.54-44.36-40.468-70.042 0.066-25.74 18.376-36.12 40.728-23.218z m-0.242 86.036c18.898 10.91 34.322 2.132 34.38-19.596 0.064-21.774-15.25-48.306-34.156-59.216-18.898-10.91-34.324-2.132-34.38 19.642-0.064 21.728 15.25 48.26 34.156 59.17z" fill="#F04343" p-id="5143"></path><path d="M577.928 273.204c0.558 31.324 1.98 60.74 4.98 80.076h10.202c-2.54-20.684-3.704-49.786-4.106-80.076h-11.076z" fill="#4F575F" p-id="5144"></path><path d="M588.986 273.204c0.4 30.29 1.564 59.392 4.096 80.076h4.282c-2.68-19.876-3.91-49.2-4.356-80.076h-4.02z" fill="#3D4449" p-id="5145"></path><path d="M493.084 914.814l-17.874-10.38-6.106-60.026 17.874 10.38 6.106 60.026z" fill="#802424" p-id="5146"></path><path d="M486.968 854.788l-17.864-10.38 316.444-182.7 17.874 10.38-316.454 182.7z" fill="#4F575F" p-id="5147"></path><path d="M803.412 672.088l6.116 60.026-316.444 182.7-6.116-60.026 316.444-182.7z" fill="#3D4449" p-id="5148"></path><path d="M235.986 574.716l11.188 7.1c0.652 0.42 1.52 0.28 2.366-0.248 1.228-0.792 2.44-2.44 2.98-4.526 11.876-48.108-5.214-219.684-7.42-241.18l-11.19-7.102c2.216 21.504 19.306 193.07 7.42 241.18-0.54 2.076-1.752 3.724-2.98 4.514-0.848 0.55-1.704 0.68-2.364 0.26z" fill="#4F575F" p-id="5149"></path><path d="M242.874 585.196c0.308 0.726 0.82 1.346 1.47 1.788-10.556-6.944-11.738-6.832-12.66-8.88-15.61-34.258-8.006-237.12-7.66-245.798l11.18 7.104c-0.344 8.666-7.95 211.54 7.67 245.786z" fill="#4F575F" p-id="5150"></path><path d="M235.278 337.026l-11.19-7.112-0.084 2.384 11.19 7.102 0.084-2.374z" fill="#4F575F" p-id="5151"></path><path d="M248.544 328.546l-13.908-8.826-10.548 10.194 11.19 7.112 13.266-8.48z" fill="#4F575F" p-id="5152"></path><path d="M235.278 337.026l13.266-8.47c5.064 48.128 19.204 201.3 7.624 248.152-1.016 4.032-3.482 7.728-6.47 9.644-2.98 1.91-5.586 1.444-6.842-1.134-14.68-32.21-8.91-212.844-7.578-248.192z m11.16 243.9c0.634 1.35 1.872 1.424 3.1 0.64 1.23-0.79 2.44-2.44 2.98-4.522 11.88-48.11-5.212-219.686-7.42-241.18l-6.078 3.88c-0.82 23.44-6.916 209.764 7.42 241.18z m-74.806 185.67l22.34-12.986 24.094 13.916-22.342 12.978-24.092-13.908z" fill="#3D4449" p-id="5153"></path><path d="M213.328 757.686l22.332-12.976 218.112 125.924-22.342 12.976-218.102-125.924zM427.22 452.42l22.34-12.986 47.078 499.936-22.34 12.976-47.08-499.926z" fill="#4F575F" p-id="5154"></path><path d="M388.748 430.2l22.322-12.976 38.484 22.212-22.332 12.986-38.474-22.22z" fill="#444B52" p-id="5155"></path><path d="M427.22 452.42l47.078 499.928-302.694-174.76 0.028-10.992 24.1 13.908 17.596-22.808 218.112 125.914L388.738 430.2l38.484 22.22z" fill="#2A3134" p-id="5156"></path><path d="M451.09 830.78l11.172-6.488 12.054 128.056-11.17 6.488-12.056-128.056z" fill="#4178D2" p-id="5157"></path><path d="M331.934 883.08l11.172-6.49 119.156-52.298-11.172 6.488-119.156 52.3z" fill="#3A63DF" p-id="5158"></path><path d="M451.09 830.78l12.056 128.056-131.212-75.758 119.156-52.298z" fill="#4F91FF" p-id="5159"></path><path d="M371.36 883.274c2.466 1.424 4.476 4.888 4.466 7.754 0 2.83-2.028 3.994-4.496 2.56-2.514-1.442-4.506-4.934-4.506-7.762 0.01-2.86 2.02-4.004 4.534-2.552z m35.382 20.424c2.468 1.424 4.488 4.898 4.478 7.754 0 2.84-2.04 4.004-4.506 2.57-2.514-1.442-4.506-4.934-4.496-7.764 0-2.858 2.02-4.002 4.524-2.56z m35.384 20.434c2.476 1.424 4.486 4.896 4.478 7.754 0 2.84-2.04 3.994-4.506 2.57-2.514-1.452-4.506-4.934-4.496-7.764 0.01-2.868 2.02-4.002 4.524-2.56z m-3.76-63.256c2.456 1.426 4.468 4.888 4.468 7.746 0 2.84-2.04 4.002-4.506 2.57-2.486-1.434-4.488-4.916-4.468-7.756 0-2.858 2.01-4.002 4.496-2.56h0.01z" fill="#2A2F33" p-id="5160"></path><path d="M248.74 288.62c-3.344-1.956-7.98-1.676-13.1 1.284-10.146 5.864-18.338 20.07-18.31 31.762 0.02 5.79 2.058 9.868 5.362 11.786l53.658 31.186c-3.296-1.928-5.344-5.996-5.362-11.786-0.038-11.692 8.172-25.908 18.31-31.762 5.12-2.96 9.756-3.232 13.108-1.286l-53.668-31.184z" fill="#4F575F" p-id="5161"></path><path d="M277.988 300.106c-3.872-2.252-9.244-1.936-15.174 1.49-11.748 6.786-21.252 23.244-21.216 36.79 0.02 6.702 2.394 11.42 6.21 13.646l123.904 71.98c-3.816-2.226-6.18-6.946-6.2-13.648-0.038-13.546 9.46-30.004 21.206-36.79 5.94-3.426 11.3-3.742 15.174-1.49l-123.904-71.978z" fill="#4F91FF" p-id="5162"></path><path d="M386.72 373.574c11.792-6.796 21.354-1.35 21.39 12.194 0.038 13.5-9.458 29.958-21.252 36.762-11.748 6.786-21.318 1.332-21.346-12.166-0.038-13.546 9.46-30.004 21.206-36.79z" fill="#3A63DF" p-id="5163"></path><path d="M402.898 378.172c-3.342-1.954-7.98-1.676-13.1 1.286-10.146 5.864-18.338 20.07-18.31 31.76 0.02 5.792 2.058 9.87 5.362 11.778l53.66 31.186c-3.298-1.92-5.346-5.996-5.364-11.786-0.028-11.692 8.174-25.898 18.312-31.754 5.12-2.96 9.756-3.23 13.106-1.294l-53.666-31.176z" fill="#4F575F" p-id="5164"></path><path d="M443.458 410.642c10.184-5.874 18.432-1.172 18.468 10.52 0.038 11.654-8.174 25.87-18.34 31.744-10.146 5.864-18.402 1.154-18.43-10.51-0.038-11.692 8.164-25.898 18.3-31.754z" fill="#3D4449" p-id="5165"></path><path d="M269.508 618.934l-7.242 4.208c-6.238 3.63-14.868 3.128-24.38-2.366l7.25-4.216c9.514 5.492 18.144 5.994 24.372 2.374zM213.736 539.592l7.26-4.216c-6.17 3.584-9.986 11.198-10.024 22.016-0.056 21.726 15.266 48.258 34.164 59.168l-7.252 4.216c-18.896-10.92-34.22-37.45-34.164-59.168 0.038-10.826 3.864-18.432 10.026-22.016h-0.01z m-4.476-7.652l7.24-4.208c7.392-4.3 17.624-3.704 28.88 2.794l-7.244 4.216c-11.264-6.498-21.486-7.094-28.876-2.792v-0.01z" fill="#FF6161" p-id="5166"></path><path d="M273.966 626.594l-7.26 4.218c7.298-4.236 11.822-13.238 11.85-26 0.074-25.74-18.032-57.14-40.42-70.07l7.242-4.216c22.398 12.94 40.494 44.34 40.43 70.068-0.038 12.772-4.56 21.766-11.85 26h0.008z" fill="#FF6161" p-id="5167"></path><path d="M238.126 534.742c22.4 12.93 40.496 44.33 40.43 70.07-0.074 25.684-18.292 36.12-40.68 23.18-22.36-12.904-40.552-44.36-40.476-70.042 0.074-25.73 18.376-36.12 40.736-23.208h-0.01z m-0.24 86.034c18.906 10.91 34.32 2.124 34.386-19.594 0.056-21.774-15.258-48.306-34.164-59.216-18.898-10.92-34.322-2.132-34.38 19.642-0.064 21.72 15.26 48.25 34.156 59.168z" fill="#F04343" p-id="5168"></path><path d="M222.16 479.79c0.56 31.326 1.984 60.734 4.98 80.078h10.204c-2.54-20.694-3.704-49.786-4.104-80.078h-11.08z" fill="#4F575F" p-id="5169"></path><path d="M233.22 479.79c0.41 30.282 1.574 59.392 4.106 80.078h4.282c-2.68-19.876-3.92-49.2-4.366-80.078h-4.02z" fill="#3D4449" p-id="5170"></path></svg>