<?xml version="1.0" standalone="no"?><!DOCTYPE svg PUBLIC "-//W3C//DTD SVG 1.1//EN" "http://www.w3.org/Graphics/SVG/1.1/DTD/svg11.dtd"><svg t="1765880177485" class="icon" viewBox="0 0 1024 1024" version="1.1" xmlns="http://www.w3.org/2000/svg" p-id="21601" xmlns:xlink="http://www.w3.org/1999/xlink" width="128" height="128"><path d="M157 860m45 0l620 0q45 0 45 45l0 0q0 45-45 45l-620 0q-45 0-45-45l0 0q0-45 45-45Z" fill="#FBFBFB" p-id="21602"></path><path d="M822 860c24.853 0 45 20.147 45 45s-20.147 45-45 45H202c-24.853 0-45-20.147-45-45 0-2.933 0.28-5.801 0.817-8.578 3.114 12.953 14.774 22.578 28.683 22.578h615.938c16.293 0 29.5-13.207 29.5-29.5 0-16.292-13.207-29.5-29.5-29.5H822z" fill="#000000" fill-opacity=".05" p-id="21603"></path><path d="M758.46 314c43.552 55.907 67.54 124.06 67.54 195.68 0 134.478-84.94 253.274-211.096 301.87l-3.836 1.45L586 745.855c100.615-37.376 168.17-130.787 168.17-236.176 0-54.952-18.192-107.184-51.418-150.409l-1.011-1.307 56.72-43.963z" fill="#FBFBFB" p-id="21604"></path><path d="M758.462 314C802.012 369.907 826 438.06 826 509.68c0 134.478-84.938 253.274-211.092 301.87l-3.836 1.45L603 791.373c114.119-52.168 189.42-162.39 189.42-286.2 0-63.085-19.466-123.421-55.163-174.736l21.205-16.437z" fill="#000000" fill-opacity=".05" p-id="21605"></path><path d="M764.772 309.083l-4.905-6.295-69.345 53.75 5.903 7.628c32.366 42.107 49.744 92.696 49.744 145.513 0 101.48-64.927 192.262-162.955 228.676l-7.511 2.79 30.68 82.18 11.351-4.293C747.908 768.89 834 646.552 834 509.679c0-72.911-24.277-142.891-69.228-200.595z m-7.798 16.19l0.213 0.287C796.731 379.15 818 443.12 818 509.68l-0.025 3.9c-1.602 127.303-81.527 240.892-202.24 289.05l-19.481-52.18 1.816-0.736c99.022-40.887 164.1-135.028 164.1-240.035l-0.006-1.69c-0.353-53.499-17.426-104.817-49.004-148.162l-0.277-0.379 44.091-34.175z" fill="#202020" p-id="21606"></path><path d="M600.156498 156.586225l91.826549 48.825043c15.604333 8.296971 21.528204 27.67308 13.231233 43.277413l-132.390981 248.991221L424.488104 418.808679 556.879085 169.817458c8.296971-15.604333 27.67308-21.528204 43.277413-13.231233z" fill="#C2F1FF" p-id="21607"></path><path d="M692.262382 205.582444c15.604333 8.296971 21.527734 27.673963 13.231233 43.277413l-132.254834 248.735166-34.840643-18.526231L670.633724 230.369827c8.214344-15.448934 2.491767-34.592298-12.765149-43.025061l-0.466084-0.252352L598.938999 156.006824a32.53 32.53 0 0 1 1.445622 0.723348l91.878644 48.852741z" fill="#000000" fill-opacity=".1" p-id="21608"></path><path d="M656.649573 186.646778c15.604333 8.296971 21.527734 27.673963 13.231233 43.277413l-132.254834 248.735166-38.79713-20.629933L631.064427 209.330459c8.214344-15.448934 2.490002-34.593237-12.765148-43.025061l-0.466085-0.252352-18.895078-10.046692a32.53 32.53 0 0 1 1.445622 0.723349l56.265835 29.917075z" fill="#000000" fill-opacity=".05" p-id="21609"></path><path d="M694.360439 271.231842l51.21096 27.229351a8 8 0 0 1 3.307808 10.819353l-45.06927 84.762969c-17.112238 32.18344-57.076225 44.401656-89.259664 27.289418L694.360439 271.231842z" fill="#FBFBFB" p-id="21610"></path><path d="M626.82296 399.2248c20.1079 10.27704 44.815858 2.555951 55.456431-17.456056l44.635478-83.947125a8 8 0 0 0-3.307808-10.819353l21.762892 11.571535a8 8 0 0 1 3.307808 10.819353l-44.635478 83.947125c-16.967641 31.911492-56.36586 44.224405-88.429676 27.837192l-0.968818-0.506069 11.571535-21.762892z" fill="#000000" fill-opacity=".05" p-id="21611"></path><path d="M691.05263 260.412489l-87.352226 164.285644 8.119009 4.233143C647.815659 447.328986 691.900764 433.481848 710.873518 397.799287l45.06927-84.762969c4.14872-7.802608 1.186991-17.489986-6.615616-21.638706l-58.274542-30.985123z m-65.425264 157.127897L697.668247 282.051195l44.14738 23.473578-45.06927 84.762969c-13.680401 25.729093-44.02114 36.974252-70.719158 27.39955l-0.399833-0.146906z" fill="#202020" p-id="21612"></path><path d="M399.765571 405.663476m21.190742 11.267317l155.398777 82.626995q21.190742 11.267318 9.923425 32.45806l0 0q-11.267318 21.190742-32.45806 9.923425l-155.398777-82.626995q-21.190742-11.267318-9.923424-32.45806l0 0q11.267318-21.190742 32.458059-9.923425Z" fill="#C2F1FF" p-id="21613"></path><path d="M580.09157 501.050709c9.753039 5.185783 13.454834 17.296227 8.26952 27.048383l-3.755772 7.063581c-5.185783 9.753039-17.295344 13.455303-27.048383 8.269521L395.094578 457.049426c-9.753039-5.185783-13.455303-17.295344-8.269521-27.048383l3.755773-7.063581c0.396703-0.746091 0.833687-1.457174 1.307775-2.131538-2.550371 7.054409 0.407919 15.093202 7.223391 18.717053l153.06956 81.388529c7.469737 3.971729 16.74598 1.135697 20.718179-6.334923 3.971729-7.469737 1.135697-16.74598-6.334922-20.718178L580.09157 501.050709z" fill="#000000" fill-opacity=".05" p-id="21614"></path><path d="M705.167194 71.982717c16.57999 8.815737 22.873922 29.402261 14.058185 45.982251l-42.252441 79.465283L616.932502 165.506185 659.184942 86.040902c8.815737-16.57999 29.402261-22.873922 45.982252-14.058185z" fill="#FFECCD" p-id="21615"></path><path d="M705.234815 71.962043c16.57999 8.815737 22.873922 29.402261 14.058185 45.982251l-42.252441 79.465283-60.040436-31.924066 0.414543-0.779643 35.785866 19.027683 48.590307-91.385076c4.046845-7.611008 2.813794-16.623867-2.419835-22.837192a34.112 34.112 0 0 1 5.863811 2.45076z" fill="#F5C999" p-id="21616"></path><path d="M446.983796 485.133214l60.040436 31.924066-19.717805 37.083799c-8.815737 16.57999-29.402261 22.873922-45.982252 14.058185s-22.873922-29.402261-14.058185-45.982252l19.717806-37.083798z" fill="#FFECCD" p-id="21617"></path><path d="M506.72403 516.897659l-19.717805 37.083799c-8.815268 16.579107-29.403144 22.873453-45.982252 14.058185-2.16587-1.151614-4.155818-2.504156-5.959093-4.022464 9.154203 2.107303 18.93916-2.071021 23.558759-10.759225l25.673992-48.285755 22.426869 11.924577z m-60.017479-31.91186l-20.339856 38.253705c0.190674-0.396947 0.391117-0.790966 0.599563-1.182995l19.717805-37.083799 0.022957 0.012206z" fill="#F5C999" p-id="21618"></path><path d="M517.843586 513.749472L443.675988 474.31386l-23.473578 44.14738c-10.889862 20.480852-3.114859 45.911742 17.365993 56.801604s45.911742 3.114859 56.801604-17.365993l23.473579-44.147379z m-67.551982-17.796905l45.913275 24.412521-15.962033 30.020218c-6.741612 12.679127-22.483771 17.491988-35.162898 10.750377l-0.378259-0.204522C432.306246 554.079897 427.655563 538.524768 434.329571 525.972785l15.962033-30.020218z" fill="#202020" p-id="21619"></path><path d="M580.110862 492.494207L424.712086 409.867212c-15.604333-8.296971-34.980442-2.3731-43.277413 13.231233-8.296971 15.604333-2.3731 34.980442 13.231233 43.277413l155.398776 82.626995c15.604333 8.296971 34.980442 2.3731 43.277413-13.231233 8.296971-15.604333 2.3731-34.980442-13.231233-43.277413zM417.200541 423.994374l155.398776 82.626995c7.802608 4.14872 10.764337 13.836099 6.615617 21.638706s-13.836099 10.764337-21.638707 6.615617L402.177451 452.248697c-7.802608-4.14872-10.764337-13.836099-6.615617-21.638707s13.836099-10.764337 21.638707-6.615616zM708.481492 64.6844C688.244334 53.924112 663.116386 61.606496 652.356097 81.843655L606.113149 168.813993l73.28465 38.96614L725.640748 120.809795C736.401036 100.572636 728.718651 75.444688 708.481492 64.6844z m-7.140349 14.327927C713.496949 85.732777 718.058959 100.988195 711.513586 113.29825l-38.732287 72.842707-45.030327-23.94305L666.483259 89.3552C673.094827 76.920649 688.535396 72.199993 700.969947 78.811561l0.371196 0.200766z" fill="#202020" p-id="21620"></path><path d="M695.943509 197.962722L604.11696 149.137679c-19.505195-10.371096-43.72567-2.966154-54.096767 16.539042l-136.146753 256.054801 162.462357 86.382768 136.146753-256.054802c10.371096-19.505195 2.966154-43.72567-16.539041-54.096766z m-7.511545 14.127161l0.348653 0.189912c11.442363 6.324117 15.735178 20.682109 9.574772 32.268148l-128.635208 241.92764L435.512147 415.115906l128.635208-241.92764c6.222376-11.702587 20.754589-16.14627 32.45806-9.923425l91.826549 48.825042z" fill="#202020" p-id="21621"></path><path d="M289.018 569.976l284.918 138.964c15.388 7.505 21.779 26.064 14.273 41.452l-0.877 1.797c-7.505 15.389-26.064 21.779-41.452 14.274L260.963 627.499c-15.885-7.747-22.481-26.905-14.734-42.79 7.748-15.884 26.905-22.48 42.79-14.733z" fill="#FFECCD" p-id="21622"></path><path d="M288.33 569.657l0.076 0.037 288.54 141.202c13.37 6.542 18.922 22.669 12.416 36.055l-4.153 8.543c-6.519 13.412-22.676 18.999-36.087 12.48l-0.064-0.031-288.412-141.14c-15.762-7.713-22.31-26.727-14.638-42.51a31.708 31.708 0 0 1 4.563-6.922c-0.494 6.477 2.929 12.896 9.116 15.922l305.648 149.492 0.04 0.019c8.072 3.921 17.795 0.556 21.717-7.517 3.935-8.1 0.572-17.859-7.518-21.816L279.988 566.944c2.827 0.5 5.633 1.396 8.342 2.713z" fill="#F5C999" p-id="21623"></path><path d="M581.038 703.503L292.525 562.786c-19.855-9.684-43.802-1.439-53.486 18.417-9.684 19.855-1.439 43.802 18.417 53.486l288.513 140.717c17.373 8.474 38.327 1.26 46.8-16.114l4.384-8.988c8.474-17.374 1.259-38.327-16.115-46.801zM285.511 577.166l288.513 140.718c9.432 4.6 13.348 15.974 8.748 25.406l-4.383 8.988c-4.6 9.431-15.975 13.348-25.406 8.748L264.47 620.309c-11.914-5.811-16.861-20.179-11.05-32.092 5.81-11.914 20.178-16.861 32.091-11.05z" fill="#202020" p-id="21624"></path><path d="M740 355m-66 0a66 66 0 1 0 132 0 66 66 0 1 0-132 0Z" fill="#FFECCD" p-id="21625"></path><path d="M740 289c36.45 0 66 29.55 66 66s-29.55 66-66 66-66-29.55-66-66c0-3.167 0.223-6.283 0.654-9.33 3.82 23.064 23.86 40.652 48.007 40.652 26.875 0 48.661-21.786 48.661-48.66 0-24.148-17.588-44.187-40.653-48.006a66.352 66.352 0 0 1 9.331-0.656z" fill="#F5C999" p-id="21626"></path><path d="M740 289c36.45 0 66 29.55 66 66s-29.55 66-66 66-66-29.55-66-66 29.55-66 66-66z m0 16c-27.614 0-50 22.386-50 50s22.386 50 50 50 50-22.386 50-50-22.386-50-50-50z" fill="#202020" p-id="21627"></path><path d="M592.03 703h6.94c17.86 0 33.555 11.84 38.462 29.011L674 860.001H517l36.568-127.99c4.907-17.172 20.602-29.01 38.461-29.01z" fill="#FBFBFB" p-id="21628"></path><path d="M598.97 703c17.86 0 33.555 11.84 38.462 29.011L674 860.001H517l2.884-10.094h119.352L610.369 728.483c-3.028-12.74-13.18-22.283-25.625-24.817a40.089 40.089 0 0 1 7.285-0.666h6.942z" fill="#000000" fill-opacity=".05" p-id="21629"></path><path d="M595 754m-26 0a26 26 0 1 0 52 0 26 26 0 1 0-52 0Z" fill="#FFECCD" p-id="21630"></path><path d="M595 728c14.36 0 26 11.64 26 26s-11.64 26-26 26-26-11.64-26-26 11.64-26 26-26z m0 16c-5.523 0-10 4.477-10 10s4.477 10 10 10 10-4.477 10-10-4.477-10-10-10zM817.5 852h-615c-29.547 0-53.5 23.953-53.5 53.5s23.953 53.5 53.5 53.5h615c29.547 0 53.5-23.953 53.5-53.5s-23.953-53.5-53.5-53.5z m-615 16h615c20.71 0 37.5 16.79 37.5 37.5s-16.79 37.5-37.5 37.5h-615c-20.71 0-37.5-16.79-37.5-37.5s16.79-37.5 37.5-37.5z" fill="#202020" p-id="21631"></path><path d="M598.97 695h-6.94c-21.432 0-40.266 14.207-46.154 34.814l-39.482 138.186h178.212l-39.482-138.186c-5.888-20.607-24.722-34.814-46.153-34.814z m0 16l0.429 0.003c14.11 0.187 26.455 9.606 30.34 23.206l33.654 117.79H527.606l33.654-117.79c3.925-13.738 16.482-23.209 30.77-23.209h6.94z" fill="#202020" p-id="21632"></path></svg>