<?xml version="1.0" standalone="no"?><!DOCTYPE svg PUBLIC "-//W3C//DTD SVG 1.1//EN" "http://www.w3.org/Graphics/SVG/1.1/DTD/svg11.dtd"><svg t="1765992330809" class="icon" viewBox="0 0 1024 1024" version="1.1" xmlns="http://www.w3.org/2000/svg" p-id="5951" xmlns:xlink="http://www.w3.org/1999/xlink" width="128" height="128"><path d="M461.842 90.252v524.724c0 3.072-2.02 6.144-6.05 8.49-8.108 4.71-21.3 4.692-29.436 0-4.114-2.374-6.172-5.492-6.162-8.61V90.13c-0.01 3.12 2.048 6.238 6.162 8.612 8.136 4.7 21.32 4.71 29.436 0 4.03-2.346 6.05-5.41 6.05-8.49z" fill="#DBE6FA" p-id="5952"></path><path d="M455.718 81.678c8.136 4.692 8.182 12.354 0.074 17.064-8.108 4.71-21.3 4.7-29.436 0-8.164-4.71-8.228-12.354-0.12-17.064 8.1-4.71 21.318-4.71 29.48 0z" fill="#804F59" p-id="5953"></path><path d="M468.564 81.194l-0.01 21.858c-0.018 4.06-2.68 8.1-8.006 11.2-10.724 6.236-28.16 6.236-38.948 0-5.428-3.13-8.136-7.244-8.128-11.36l0.02-21.856c-0.038 12.968 55.034 13.126 55.072 0.158z" fill="#3D4449" p-id="5954"></path><path d="M460.436 69.836c10.79 6.238 10.846 16.328 0.132 22.556-10.724 6.238-28.16 6.238-38.95 0-10.8-6.228-10.846-16.328-0.13-22.556 10.724-6.236 28.16-6.236 38.948 0z" fill="#4F575F" p-id="5955"></path><path d="M784.44 702.268v148.62c-0.01 3.072-2.03 6.144-6.06 8.49-8.1 4.71-21.3 4.692-29.436 0-4.114-2.374-6.172-5.492-6.162-8.61v-148.62c0 3.108 2.048 6.236 6.162 8.6 8.136 4.702 21.328 4.712 29.436 0 4.03-2.336 6.05-5.408 6.05-8.48h0.01z" fill="#DBE6FA" p-id="5956"></path><path d="M778.314 693.686c8.128 4.7 8.174 12.352 0.066 17.064-8.1 4.71-21.3 4.7-29.436 0-8.154-4.712-8.228-12.354-0.12-17.064 8.108-4.71 21.318-4.71 29.49 0z" fill="#804F59" p-id="5957"></path><path d="M791.16 693.2l-0.018 21.86c-0.008 4.058-2.68 8.108-8.006 11.198-10.714 6.238-28.15 6.238-38.94 0-5.436-3.128-8.144-7.242-8.136-11.356l0.02-21.86c-0.04 14.28 29.88 21.356 47.076 11.36 5.324-3.092 7.986-7.14 8.006-11.2z" fill="#3D4449" p-id="5958"></path><path d="M783.024 681.844c10.8 6.238 10.846 16.328 0.132 22.556-10.724 6.238-28.16 6.238-38.95 0-10.79-6.228-10.846-16.328-0.12-22.556 10.714-6.236 28.15-6.236 38.94 0z" fill="#4F575F" p-id="5959"></path><path d="M199.336 288.312l224.936-130.738c2.168-1.256 5.176-1.08 8.49 0.83L207.826 289.14c-3.314-1.908-6.312-2.084-8.49-0.828z m241.812-101.702l-224.936 130.736c2.142-1.238 3.474-3.88 3.482-7.632 0.02-7.55-5.306-16.784-11.868-20.574L432.76 158.404c10.258 5.93 15.984 23.794 8.378 28.206h0.008z" fill="#CBDBF4" p-id="5960"></path><path d="M207.826 289.14c6.562 3.79 11.888 13.024 11.868 20.574-0.018 7.54-5.39 10.612-11.944 6.814-6.58-3.8-11.914-13.034-11.896-20.574 0.028-7.56 5.39-10.612 11.972-6.814z m-8.49 147.056l224.936-130.736c2.168-1.266 5.176-1.09 8.49 0.82l-224.936 130.736c-3.314-1.91-6.312-2.086-8.49-0.82z" fill="#CBDBF4" p-id="5961"></path><path d="M441.15 334.494l-224.938 130.738c2.142-1.248 3.474-3.882 3.482-7.634 0.02-7.56-5.306-16.794-11.868-20.574l224.936-130.754c10.258 5.928 15.984 23.794 8.378 28.206l0.01 0.02z" fill="#CBDBF4" p-id="5962"></path><path d="M207.826 437.016c6.562 3.788 11.888 13.022 11.868 20.58-0.018 7.542-5.39 10.596-11.944 6.816-6.58-3.808-11.914-13.032-11.896-20.574 0.028-7.56 5.39-10.612 11.972-6.822z m-8.49 147.056l224.936-130.738c2.168-1.266 5.176-1.09 8.49 0.828l-224.936 130.728c-3.314-1.918-6.312-2.086-8.49-0.828v0.01z m241.812-101.702l-224.936 130.736c2.142-1.248 3.474-3.882 3.482-7.634 0.02-7.56-5.306-16.784-11.868-20.572L432.76 454.16c10.258 5.92 15.982 23.794 8.378 28.208h0.008z" fill="#CBDBF4" p-id="5963"></path><path d="M207.826 584.89c6.562 3.8 11.888 13.032 11.868 20.592-0.018 7.54-5.39 10.594-11.944 6.804-6.58-3.798-11.914-13.032-11.896-20.572 0.028-7.56 5.39-10.612 11.972-6.814v-0.01z" fill="#CBDBF4" p-id="5964"></path><path d="M232.774 222.31v524.726c-0.01 3.072-2.03 6.144-6.052 8.48-8.116 4.712-21.308 4.7-29.434 0-4.116-2.372-6.172-5.492-6.164-8.6V222.19c-0.008 3.108 2.048 6.236 6.164 8.61 8.126 4.692 21.318 4.71 29.426 0 4.03-2.346 6.05-5.418 6.05-8.49h0.01z" fill="#DBE6FA" p-id="5965"></path><path d="M191.116 704.056v42.86c0 3.108 2.048 6.236 6.172 8.6 8.126 4.7 21.318 4.71 29.426 0 4.03-2.336 6.05-5.408 6.05-8.48v-42.99h-41.64l-0.008 0.01z" fill="#3D4449" p-id="5966"></path><path d="M232.774 206.754v524.728c-0.01 3.072-2.03 6.144-6.052 8.49-8.116 4.71-21.308 4.69-29.434 0-4.116-2.374-6.172-5.494-6.164-8.612V206.644c-0.008 3.108 2.048 6.226 6.164 8.6 8.126 4.7 21.318 4.712 29.426 0 4.03-2.346 6.05-5.408 6.05-8.49h0.01z" fill="#DBE6FA" p-id="5967"></path><path d="M239.494 213.252l-0.018 21.86c0 4.048-2.672 8.098-8.006 11.198-10.704 6.236-28.15 6.236-38.94 0-5.426-3.138-8.144-7.252-8.126-11.358l0.01-21.858c-0.028 9.748 55.054 9.906 55.08 0.16z" fill="#3D4449" p-id="5968"></path><path d="M231.368 201.896c10.79 6.228 10.846 16.328 0.12 22.556-10.714 6.228-28.15 6.228-38.94 0-10.798-6.238-10.854-16.328-0.13-22.566 10.716-6.228 28.16-6.228 38.95 0v0.01z" fill="#4F575F" p-id="5969"></path><path d="M395.794 440.766c0-0.036 0.028-0.056 0.056-0.064 4.56-2.012 8.024-2.3 9.588-0.912-3.388-2.812-6.944-4.45-10.592-4.86a19.642 19.642 0 0 0-12.336 2.272c2.794-1.62 7.736-0.354 13.228 3.48 0.028 0.028 0.056 0.04 0.056 0.084z m-162.564 90.112c-0.41 1.872-1.024 4.702 0.344 8.808a17.688 17.688 0 0 0 5.064 7.512c-0.894-0.792-1.164-2.14-0.67-4.004-4.216-3.77-5.79-8.35-4.748-12.316h0.01z" fill="#E99B8A" p-id="5970"></path><path d="M233.946 528.14l-0.716 2.74c-1.052 3.964 0.52 8.544 4.748 12.306l0.716-2.738c-4.216-3.75-5.79-8.34-4.748-12.306zM833.694 821.14L405.43 439.79c-1.984-1.77-7.028-0.83-13.536 2.932l428.264 381.348c6.518-3.762 11.554-4.702 13.536-2.932z" fill="#E99B8A" p-id="5971"></path><path d="M382.51 437.2q-68.156 41.704-141.126 81.474c3.446-1.992 10.194 0.41 17.186 6.638l141.126-81.482c-6.982-6.22-13.732-8.63-17.186-6.628z" fill="#E99B8A" p-id="5972"></path><path d="M254.696 522.24c-5.52-3.892-10.51-5.186-13.312-3.566-1.89 1.192-5.826 3.678-7.438 9.468-1.04 3.966 0.532 8.556 4.748 12.306 1.36-5.148 8.062-12.68 15.854-18.17 0.056-0.028 0.112-0.056 0.168-0.038h-0.02z" fill="#E99B8A" p-id="5973"></path><path d="M830.986 849.632c1.88-1.192 5.79-3.66 7.39-9.44-0.67 2.55-2.42 4.84-5.26 6.48a4.608 4.608 0 0 1-2.13 2.96z" fill="#DF8573" p-id="5974"></path><path d="M838.376 840.192l0.726-2.736c-0.67 2.55-2.428 4.84-5.26 6.48l-0.724 2.736c2.83-1.64 4.588-3.93 5.26-6.48z" fill="#DF8573" p-id="5975"></path><path d="M824.022 822.058h-0.02a0.24 0.24 0 0 1 0.104 0.066c6.888 7.568 11.096 16.654 9.738 21.81 2.83-1.638 4.588-3.928 5.26-6.48 0.758-2.896 0.64-5.954-0.336-8.786-0.932-2.794-2.634-5.334-5.074-7.54-1.564-1.38-5.008-1.1-9.58 0.912a0.23 0.23 0 0 1-0.092 0.018z m-134.162 109.046l141.126-81.472c1.024-0.596 1.768-1.584 2.132-2.96l-141.126 81.472a4.608 4.608 0 0 1-2.14 2.96h0.008z m2.848-5.688l-0.726 2.728 141.126-81.472 0.736-2.738-141.136 81.482z" fill="#DF8573" p-id="5976"></path><path d="M238.64 547.188c116.92 104.114 311.322 277.244 428.264 381.348-0.894-0.792-1.164-2.132-0.672-4.004L237.968 543.186c-0.494 1.88-0.224 3.22 0.67 4.002z" fill="#E99B8A" p-id="5977"></path><path d="M679.192 899.844c9.058 8.072 15.118 19.52 13.516 25.572l141.126-81.48c1.6-6.052-4.45-17.502-13.516-25.574l-141.126 81.482z" fill="#DF8573" p-id="5978"></path><path d="M258.68 519.634c-9.44 5.446-18.384 14.772-19.986 20.814L666.96 921.796c1.592-6.05 10.548-15.37 19.988-20.824l-428.264-381.34z" fill="#F3B2A1" p-id="5979"></path><path d="M395.646 446.092C510.1 547.98 702.018 718.8 816.37 820.69c-44.5 25.656-88.902 51.312-133.306 76.864-114.352-101.784-306.158-272.71-420.51-374.504 44.292-25.646 88.696-51.2 133.092-76.96z" fill="#E99B8A" p-id="5980"></path><path d="M824.524 821.852c-45.968 26.494-91.72 52.988-137.588 79.268l-3.88-3.556 80.32-50.894q42.614-29.74 42.726-30.254c0-0.53 17.064 0.41 17.902 0.84q0.836 0.408 0.52 4.596z m-585.84-281.404l-0.716 2.738 428.264 381.346 0.726-2.738-428.272-381.346z" fill="#E99B8A" p-id="5981"></path><path d="M666.904 928.536c3.37 2.82 6.934 4.46 10.574 4.868a19.736 19.736 0 0 0 12.38-2.3c1.026-0.586 1.77-1.572 2.124-2.96-7.26 4.2-18.804 2.57-25.748-3.612-0.494 1.872-0.224 3.212 0.66 4.004h0.01z" fill="#DF8573" p-id="5982"></path><path d="M666.96 921.786l-0.728 2.746c6.946 6.18 18.488 7.82 25.75 3.612l0.726-2.728c-7.26 4.19-18.804 2.56-25.748-3.63z" fill="#DF8573" p-id="5983"></path><path d="M682.886 903.494c0.01 0.066-0.026 0.092-0.074 0.13-7.792 5.492-14.494 13.014-15.852 18.172 6.944 6.18 18.478 7.82 25.748 3.62 2.32-8.75-10.444-22.854-9.82-21.922z" fill="#DF8573" p-id="5984"></path><path d="M576.28 920.92v25.786c0 3.11 2.048 6.228 6.162 8.602 8.136 4.7 21.318 4.71 29.436 0 4.03-2.346 6.05-5.408 6.05-8.49V920.92H576.28z" fill="#3D4449" p-id="5985"></path><path d="M617.938 782.644v148.628c-0.02 3.072-2.03 6.144-6.06 8.49-8.11 4.71-21.3 4.692-29.436 0-4.114-2.384-6.172-5.492-6.162-8.61V782.52c0 3.12 2.048 6.238 6.16 8.612 8.138 4.69 21.32 4.71 29.438 0 4.03-2.346 6.05-5.42 6.05-8.49h0.01z" fill="#DBE6FA" p-id="5986"></path><path d="M611.802 789.616c8.138 4.7 8.184 12.352 0.076 17.064-8.108 4.71-21.3 4.7-29.436 0-8.164-4.712-8.23-12.354-0.12-17.064 8.098-4.71 21.316-4.71 29.48 0z" fill="#804F59" p-id="5987"></path><path d="M624.65 789.132l-0.01 21.858c-0.01 4.06-2.68 8.108-8.006 11.208-10.714 6.228-28.16 6.228-38.95 0-5.426-3.138-8.136-7.252-8.126-11.358l0.02-21.866c-0.048 14.28 29.88 21.354 47.074 11.356 5.326-3.09 7.988-7.14 8.006-11.2h-0.008z" fill="#3D4449" p-id="5988"></path><path d="M616.522 777.774c10.79 6.238 10.846 16.328 0.13 22.556-10.724 6.238-28.16 6.238-38.948 0-10.8-6.228-10.846-16.328-0.13-22.556 10.724-6.228 28.16-6.228 38.948 0z" fill="#4F575F" p-id="5989"></path></svg>