<?xml version="1.0" standalone="no"?><!DOCTYPE svg PUBLIC "-//W3C//DTD SVG 1.1//EN" "http://www.w3.org/Graphics/SVG/1.1/DTD/svg11.dtd"><svg t="1765987046506" class="icon" viewBox="0 0 1024 1024" version="1.1" xmlns="http://www.w3.org/2000/svg" p-id="27654" xmlns:xlink="http://www.w3.org/1999/xlink" width="128" height="128"><path d="M244 268L14 390l76 42 226-128-72-36z" fill="#FF5542" p-id="27655"></path><path d="M90 432l226-128v182L140 586l-50 28V432z" fill="#9E2319" p-id="27656"></path><path d="M14 390v180l76 44V432l-76-42z m564 448l-150-88-22-12-148-86-26.24-14-62.02-36.16L140 586l-50-30v-82l146 82 22 12 148 86 22 14 150 84v86z" fill="#CC3A2F" p-id="27657"></path><path d="M724 666L404 482l-20-12-140-82-154 86 146 82 22 12 148 86 22 14 150 84 146-86z" fill="#FF5542" p-id="27658"></path><path d="M724 666v88l-146 84v-86l146-86z" fill="#609AA3" p-id="27659"></path><path d="M724 666l36-176 48-28v242l-84 50v-88z" fill="#9E2319" p-id="27660"></path><path d="M760 490l-132-76-20-12-150-86-20-12-142-82-52 166 140 82 20 12 320 184 36-176z" fill="#CC3A2F" p-id="27661"></path><path d="M808 462l-138-78-20-12-150-84-20-12-138-80-46 26 142 82 20 12 150 86 20 12 132 76 48-28z m0 120l-74 40-156 88 80 40 226-128-76-40z" fill="#FF5542" p-id="27662"></path><path d="M658 750l226-128v180L658 930V750z" fill="#9E2319" p-id="27663"></path><path d="M578 710v174l80 46V750l-80-40z m-4-130l-146 88-22-14 148-86 20 12z m-170-98l-146 86-22-12 148-86 20 12z" fill="#CC3A2F" p-id="27664"></path><path d="M384 470l54-166 20 12-54 166-20-12z m170 98l54-166 20 12-54 166-20-12z" fill="#9E2319" p-id="27665"></path><path d="M438 304l42-28 20 12-42 28-20-12z m170 98l42-30 20 12-42 30-20-12z" fill="#CC3A2F" p-id="27666"></path><path d="M258 568l-22-12v84l22 12v-84z m170 100l-22-14v84l22 12v-82z" fill="#9E2319" p-id="27667"></path><path d="M884 836l136-78-82-48 74-44-204-116v32l76 40v214z" opacity=".2" p-id="27668"></path><path d="M14 570v30l76 46v-32l-76-44z m564 314v30l80 48v-32l-80-46z" fill="#FFB230" p-id="27669"></path><path d="M90 646l80-44-30-16-50 28v32z m794 156L658 930v32l226-128v-32z" fill="#D67240" p-id="27670"></path><path d="M190 722l208 120-130 74L66 792l124-70z" fill="#FFE571" p-id="27671"></path></svg>