<?xml version="1.0" standalone="no"?><!DOCTYPE svg PUBLIC "-//W3C//DTD SVG 1.1//EN" "http://www.w3.org/Graphics/SVG/1.1/DTD/svg11.dtd"><svg t="1765987913273" class="icon" viewBox="0 0 1024 1024" version="1.1" xmlns="http://www.w3.org/2000/svg" p-id="28391" xmlns:xlink="http://www.w3.org/1999/xlink" width="128" height="128"><path d="M520 954l232-132 22-14 222-126-208-112 144-80-182-102-142 82-82-50-282 172 170 94 148-84 108 58-34 18 14 8v14l46-26 130 72-96 60-218 122-36 26h44z" opacity=".2" p-id="28392"></path><path d="M496.66 693L546 722v-26l-16-8-13.34-7-20 12z" fill="#609AA3" p-id="28393"></path><path d="M586 624v98l-20 12v-98l20-12z" fill="#D67240" p-id="28394"></path><path d="M566 734l-20-12v-74l20-12v98z" fill="#FFB230" p-id="28395"></path><path d="M586 722l64-36-14-8-6-4-44 26v22z m-84 50l64-38-20-12-12 6-32 20v24z m64-38l72 42 22-12-60-34-14-8-20 12z" fill="#609AA3" p-id="28396"></path><path d="M502 786l64-38v-14l-64 38v14z" fill="#344D5C" p-id="28397"></path><path d="M566 748l72 42v-14l-72-42v14z" fill="#597378" p-id="28398"></path><path d="M600 730l10-6 40-24v-14l-64 36 14 8z" fill="#344D5C" p-id="28399"></path><path d="M496 693v13l37.66 22 11.84-6-49.5-29z" fill="#597378" p-id="28400"></path><path d="M22 354l234 138 104 60 138 82v40l-22-14-62-36-200-114-164-96-28-16v-44z" fill="#2CA7C7" p-id="28401"></path><path d="M22 354l270-154 210 122 176 102 96 54-276 156-138-82-104-60L22 354z" fill="#63D2E3" p-id="28402"></path><path d="M498 674l22-12 26-14 20-12 20-12 144-82 22-12 22-14v-38L498 634v40z" fill="#344D5C" p-id="28403"></path><path d="M50 414v296l164 96V510L50 414z" fill="#FFB230" p-id="28404"></path><path d="M214 806l200-120v-62L214 510v296z" fill="#D67240" p-id="28405"></path><path d="M498 674v294l-22-14V660l22 14z" fill="#FFB230" p-id="28406"></path><path d="M498 674l22-12v292l-22 14V674z" fill="#D67240" p-id="28407"></path><path d="M752 530v292l-22-16V542l22-12z" fill="#FFB230" p-id="28408"></path><path d="M752 530l22-14v292l-22 14V530z" fill="#D67240" p-id="28409"></path><path d="M502 322l32-172 168 100-24 174-176-102z" fill="#597378" p-id="28410"></path><path d="M534 150l30-20 174 102-36 18-168-100z" fill="#609AA3" p-id="28411"></path><path d="M710 442l28-210-36 18-24 174 32 18z m-72 348l22-12v-14l-22 12v14z" fill="#344D5C" p-id="28412"></path><path d="M232 270v126.26L304 444l8 4 28 16 22 12 50 28 16 10 12 6V394L232 270z" fill="#597378" p-id="28413"></path><path d="M440 520l24-16V378l-24 16v126z" fill="#344D5C" p-id="28414"></path><path d="M232 270l26-14 206 122-24 16-208-124z" fill="#609AA3" p-id="28415"></path><path d="M256 472c4 2 104 62 104 62v18l-104-60z" fill="#597378" p-id="28416"></path><path d="M360 534l52-30 16 10-68 38v-18z" fill="#344D5C" p-id="28417"></path><path d="M256 472l48-28 8 4 28 16 22 12 50 28-52 30-104-62z" fill="#609AA3" p-id="28418"></path><path d="M72 450v246l120 68V522L72 450z" fill="#FFE571" p-id="28419"></path><path d="M312 448l-8 36 30 16 6-36-28-16z" fill="#597378" p-id="28420"></path><path d="M334 500l30-16-2-8-22-12-6 36z" fill="#344D5C" p-id="28421"></path><path d="M530 498l70 40 100-56-70-40-100 56z" fill="#FFE571" p-id="28422"></path><path d="M530 498v16l70 42v-18l-70-40z" fill="#609AA3" p-id="28423"></path><path d="M600 556l100-56v-18l-100 56v18z" fill="#344D5C" p-id="28424"></path><path d="M610 724l74 42-24 12v-14l-60-34 10-6z m-80-36l12-6 4 2v12l-16-8z" opacity=".2" p-id="28425"></path><path d="M72 696l120-72V522L72 450v246z" fill="#D67240" p-id="28426"></path></svg>