<?xml version="1.0" standalone="no"?><!DOCTYPE svg PUBLIC "-//W3C//DTD SVG 1.1//EN" "http://www.w3.org/Graphics/SVG/1.1/DTD/svg11.dtd"><svg t="1765992339837" class="icon" viewBox="0 0 1024 1024" version="1.1" xmlns="http://www.w3.org/2000/svg" p-id="6557" xmlns:xlink="http://www.w3.org/1999/xlink" width="128" height="128"><path d="M958.836 382.26l-0.102 37.664c-0.01 2.886-0.912 5.8-2.812 8.658l0.112-37.666c1.89-2.848 2.792-5.772 2.802-8.656z" fill="#FFCA6C" p-id="6558"></path><path d="M157.734 786.246l0.11-37.656c-0.018 6.396 4.432 12.56 12.234 17.054 3.984 2.3 8.842 4.172 14.428 5.42l-0.092 37.664a51.16 51.16 0 0 1-14.448-5.42c-7.792-4.504-12.252-10.658-12.232-17.052v-0.01z" fill="#FFA20D" p-id="6559"></path><path d="M956.034 390.916l-0.112 37.666-303.56 458.964 0.112-37.664 303.56-458.966z" fill="#FFCA6C" p-id="6560"></path><path d="M598.798 863.576l-0.112 37.666-414.282-92.514 0.112-37.666 414.28 92.514z" fill="#FFA20D" p-id="6561"></path><path d="M652.474 849.882l-0.112 37.666c-8.164 12.4-32.116 18.524-53.676 13.684l0.112-37.656c21.55 4.84 45.502-1.302 53.676-13.694z" fill="#FFA20D" p-id="6562"></path><path d="M946.586 365.16c11.34 6.542 15.564 16.54 9.448 25.756L652.464 849.882c-8.164 12.4-32.116 18.526-53.666 13.684-434.1-97.726-417.42-91.396-428.72-97.92-11.312-6.528-15.584-16.554-9.384-25.72L464.15 281.04c8.286-12.474 32.24-18.6 53.68-13.834l414.28 92.514a51.68 51.68 0 0 1 14.484 5.446l-0.008-0.01z" fill="#FFDE9B" p-id="6563"></path><path d="M850.702 179.08l64.912-37.72c4.142-2.412 9.878-2.068 16.2 1.58L866.9 180.66c-6.32-3.648-12.056-3.982-16.198-1.58z" fill="#CBDBF4" p-id="6564"></path><path d="M947.916 196.896l-64.912 37.73c4.088-2.374 6.62-7.42 6.638-14.596 0.046-14.476-10.148-32.1-22.742-39.368l64.92-37.72c12.578 7.26 22.78 24.882 22.744 39.368-0.028 7.168-2.56 12.212-6.648 14.586z" fill="#DBE6FA" p-id="6565"></path><path d="M866.9 180.66c12.586 7.262 22.788 24.894 22.742 39.38-0.038 14.456-10.306 20.256-22.892 12.994-12.566-7.26-22.74-24.854-22.694-39.32 0.036-14.486 10.286-20.294 22.844-13.052z" fill="#CBDBF4" p-id="6566"></path><path d="M927.92 211.56c-0.036 11.03-3.966 18.784-10.248 22.452l-183.288 106.514c6.294-3.668 10.186-11.42 10.222-22.49 0.066-22.22-15.584-49.33-34.928-60.49-9.756-5.624-18.6-6.144-24.976-2.42L868.016 148.6c6.35-3.696 15.184-3.176 24.95 2.42 19.334 11.2 34.982 38.26 34.954 60.528v0.008z" fill="#4F575F" p-id="6567"></path><path d="M892.966 151.002l-183.24 106.544c-9.822-5.652-18.62-6.116-25.014-2.412l183.342-106.542c6.302-3.706 15.192-3.146 24.92 2.41h-0.008z" fill="#3D4449" p-id="6568"></path><path d="M709.66 257.564c19.354 11.17 35.02 38.26 34.956 60.49-0.066 22.268-15.826 31.204-35.188 20.024-19.326-11.16-34.994-38.24-34.928-60.508 0.064-22.23 15.824-31.168 35.16-20.016v0.01z" fill="#2A3134" p-id="6569"></path><path d="M631.994 306.1l51.908-30.16c4.142-2.42 9.876-2.076 16.198 1.582l-51.908 30.162c-6.33-3.65-12.056-3.994-16.198-1.582z" fill="#CBDBF4" p-id="6570"></path><path d="M716.204 331.478l-51.916 30.16c4.096-2.372 6.628-7.408 6.646-14.586 0.038-14.484-10.156-32.098-22.742-39.368l51.916-30.16c12.578 7.26 22.78 24.88 22.742 39.366-0.028 7.168-2.56 12.214-6.646 14.588z" fill="#DBE6FA" p-id="6571"></path><path d="M634.536 471.646c0 9.568-0.922 18.328-2.746 26.27-8.146-2.448-16.6-6.21-25.256-11.2-60.788-35.03-110.182-120.46-109.876-190.324 0-9.57 0.912-18.33 2.746-26.27 8.146 2.448 16.6 6.21 25.256 11.2 60.788 35.028 110.182 120.46 109.876 190.324z" fill="#FFFFFF" p-id="6572"></path><path d="M644.236 169.24c-51.852-39.006-121.764-63.954-180.504-36.586 8.564-3.536-6.776 2.272-20.014 10.706 34.444-17.688 80.896-13.964 131.91 15.546 105.564 60.974 190.93 208.618 190.556 330.008-0.186 60.23-21.41 102.68-55.76 122.6 41.118-23.876 70.87-53.266 80.8-120.18 14.99-102.772-43.564-243.9-146.988-322.094z" fill="#39C988" p-id="6573"></path><path d="M524.66 278.332c61.524 35.514 111.336 121.782 111.132 192.466-0.204 70.61-50.334 99.254-111.848 63.74-61.45-35.48-111.328-121.856-111.124-192.466 0.196-70.684 50.4-99.216 111.85-63.74h-0.01z m-7.298 88.772l0.224-76.298c-48.082-23.738-86.64-1.768-90.28 51.452l66.328 38.298c2.764-11.916 11.99-17.166 23.728-13.452z m-0.42 146.758l0.216-76.298c-11.73-9.83-20.89-25.712-23.58-40.764l-66.328-38.298c3.324 57.252 41.63 123.598 89.694 155.36z m14.71-214.928l-0.214 76.296c11.72 9.832 20.944 25.74 23.57 40.766l66.336 38.296c-3.268-57.212-41.64-123.596-89.692-155.36z m-0.634 223.046c48.082 23.756 86.696 1.816 90.28-51.442l-66.336-38.3c-2.7 11.946-11.99 17.168-23.73 13.454l-0.214 76.288z" fill="#457AEF" p-id="6574"></path><path d="M575.656 158.88c-53.108-30.656-101.246-33.514-136.006-13.314-115.62 71.29-76 266.568 23.58 382.52 48.89 56.936 117.256 103.974 192.716 100.018 7.588-0.4 17.688-2.06 24.968-4.282 19.14-5.82 24.036-9.496 29.52-12.316 34.302-19.93 55.574-62.334 55.742-122.628 0.344-121.326-84.938-269.034-190.52-330z m-51.704 375.78c-60.768-35.022-110.116-120.404-109.874-190.316 0.148-69.894 49.84-98.166 110.592-63.024 60.816 35.06 110.126 120.46 109.874 190.316-0.158 69.978-49.756 98.194-110.592 63.024z" fill="#49E4A3" p-id="6575"></path><path d="M485.19 558.434c0 9.57-0.922 18.33-2.756 26.27-11.096 50.204-55.296 67.11-107.836 36.772-60.788-35.04-110.07-120.47-109.876-190.326 0.102-59.876 36.66-89.208 85.338-74.23 8.144 2.44 16.598 6.21 25.254 11.2 60.79 35.028 110.174 120.46 109.876 190.314z" fill="#39C988" p-id="6576"></path><path d="M485.19 558.434c0 9.57-0.92 18.33-2.756 26.27-67.66-20.294-135.484-118.672-135.12-201.514 0-9.58 0.912-18.34 2.746-26.27 8.144 2.44 16.598 6.208 25.254 11.2 60.79 35.028 110.174 120.46 109.876 190.314z" fill="#FFFFFF" p-id="6577"></path><path d="M398.104 210.85c-30.2-6.562-66.468-1.526-89.554 11.172 1.974-0.968-2.82 1.378-5.586 2.98l-12.66 7.354c34.722-20.2 82.85-17.316 136.006 13.312 105.564 60.974 190.836 208.71 190.556 330.006-0.186 60.324-21.504 102.68-55.76 122.6 5.604-5.612 66.708-24.082 80.802-120.18 20.536-142.484-96.888-337.24-243.804-367.244z" fill="#39C988" p-id="6578"></path><path d="M277.904 445.3l14-8.136c3.334 57.252 41.64 123.588 89.694 155.35l-14 8.136c-48.054-31.762-86.36-98.108-89.694-155.35z" fill="#4F91FF" p-id="6579"></path><path d="M381.896 532.48l14-8.126-0.214 76.288-14 8.136 0.214-76.298z" fill="#3A63DF" p-id="6580"></path><path d="M277.95 429.046l14-8.136 66.34 38.3-14.002 8.134-66.338-38.298z" fill="#4F91FF" p-id="6581"></path><path d="M306.082 374.654l14.012-8.136c-15.92 9.252-26.328 27.974-28.142 54.392l-14 8.136c1.814-26.42 12.22-45.148 28.14-54.392h-0.01z" fill="#3A63DF" p-id="6582"></path><path d="M457.868 603.592l-14 8.136c-16.152 9.384-37.972 9.012-62.186-2.95l14-8.136c24.214 11.96 46.034 12.334 62.186 2.95z m-46.564-80.188l-14 8.136c4.048-2.346 6.98-6.61 8.32-12.502l14-8.136c-1.33 5.892-4.27 10.146-8.32 12.5z m-58.648-68.56l14-8.148c4.144-2.4 9.432-2.82 15.36-0.94l-14 8.136c-5.93-1.88-11.218-1.46-15.36 0.94v0.01z m29.436 7.176l14-8.136c11.73 9.83 20.956 25.748 23.58 40.774l-14 8.126c-2.626-15.016-11.85-30.934-23.58-40.764z" fill="#4F91FF" p-id="6583"></path><path d="M405.672 502.784l14-8.136 66.336 38.298-14 8.136-66.336-38.298z" fill="#4F91FF" p-id="6584"></path><path d="M382.316 385.732l14-8.136-0.224 76.288-14 8.136 0.224-76.288z" fill="#3A63DF" p-id="6585"></path><path d="M375.324 365.12c61.506 35.516 111.32 121.792 111.112 192.466-0.194 70.62-50.334 99.254-111.84 63.74-61.456-35.468-111.326-121.856-111.12-192.466 0.194-70.684 50.39-99.216 111.848-63.74z m-7.308 88.772l0.214-76.296c-48.08-23.74-86.63-1.77-90.28 51.45l66.338 38.3c2.764-11.918 11.99-17.168 23.728-13.454z m-0.42 146.76l0.224-76.3c-11.728-9.83-20.888-25.7-23.58-40.754l-66.336-38.298c3.332 57.252 41.64 123.588 89.694 155.35z m14.71-214.92l-0.214 76.288c11.73 9.83 20.954 25.748 23.58 40.774l66.336 38.288c-3.268-57.214-41.64-123.598-89.702-155.35z m-0.634 223.046c48.082 23.74 86.696 1.814 90.28-51.44l-66.336-38.3c-2.7 11.944-11.99 17.156-23.73 13.452l-0.214 76.288z" fill="#457AEF" p-id="6586"></path><path d="M252.788 266.008c-59.336 77.898-29.248 201.634 18.126 287.93 54.02 98.444 173.688 194.058 279.234 149.998 48.716-20.332 66.524-74.762 66.672-128.28 0.606-213.066-248.682-461.126-364.032-309.648z m121.82 355.44c-60.77-35.022-110.128-120.404-109.876-190.306 0.14-69.894 49.84-98.174 110.592-63.024 60.816 35.05 110.126 120.46 109.876 190.308-0.16 69.976-49.758 98.2-110.592 63.02z" fill="#49E4A3" p-id="6587"></path><path d="M290.528 504.608l64.912-37.73c4.142-2.4 9.876-2.066 16.198 1.584l-64.912 37.73c-6.33-3.65-12.056-3.994-16.2-1.584z" fill="#CBDBF4" p-id="6588"></path><path d="M387.742 522.426l-64.912 37.72c4.086-2.374 6.61-7.42 6.638-14.586 0.046-14.486-10.156-32.108-22.742-39.38l64.912-37.72c12.586 7.262 22.788 24.894 22.74 39.38-0.016 7.166-2.55 12.212-6.636 14.586z" fill="#DBE6FA" p-id="6589"></path><path d="M306.734 506.192c12.568 7.26 22.78 24.882 22.734 39.368-0.038 14.456-10.306 20.266-22.892 12.994-12.566-7.252-22.74-24.854-22.704-39.32 0.046-14.486 10.286-20.294 22.854-13.042h0.008z" fill="#CBDBF4" p-id="6590"></path><path d="M367.738 537.08c-0.028 11.03-3.96 18.784-10.24 22.452l-183.288 106.534c6.284-3.668 10.184-11.432 10.212-22.492 0.066-22.23-15.574-49.338-34.928-60.49-9.746-5.632-18.59-6.154-24.966-2.42l183.314-106.534c6.35-3.696 15.184-3.164 24.94 2.42 19.344 11.2 34.992 38.27 34.956 60.528z" fill="#4F575F" p-id="6591"></path><path d="M332.734 476.56l-183.248 106.542c-9.728-5.65-18.62-6.208-24.92-2.41l183.248-106.542c6.396-3.706 15.202-3.148 24.92 2.41z" fill="#3D4449" p-id="6592"></path><path d="M149.486 583.084c19.352 11.172 35.01 38.26 34.956 60.5-0.066 22.258-15.826 31.194-35.19 20.014-19.326-11.152-35-38.24-34.928-60.5 0.056-22.24 15.826-31.176 35.16-20.014z" fill="#2A3134" p-id="6593"></path><path d="M71.81 631.62l51.918-30.16c4.14-2.41 9.876-2.066 16.196 1.582L88.02 633.204c-6.33-3.64-12.066-3.984-16.2-1.582h-0.008z" fill="#CBDBF4" p-id="6594"></path><path d="M156.02 657l-51.908 30.17c4.096-2.374 6.628-7.42 6.648-14.588 0.036-14.486-10.156-32.108-22.742-39.378l51.906-30.16c12.586 7.26 22.79 24.882 22.744 39.368-0.02 7.168-2.552 12.212-6.64 14.586h-0.008z" fill="#DBE6FA" p-id="6595"></path><path d="M88.018 633.204c12.586 7.27 22.78 24.892 22.74 39.378-0.046 14.456-10.304 20.266-22.9 12.996-12.556-7.26-22.732-24.856-22.694-39.322 0.036-14.486 10.286-20.294 22.854-13.042v-0.01z" fill="#BBCFEF" p-id="6596"></path><path d="M296.234 578.652c0 11.032-3.928 18.74-10.174 22.37l-40.448 23.496c6.33-3.63 10.174-11.338 10.258-22.368 0-22.128-15.66-49.274-34.938-60.454-9.718-5.558-18.646-6.172-25.05-2.468l40.746-23.718c6.32-3.696 15.034-2.94 24.668 2.69 19.364 11.17 35.02 38.242 34.938 60.452z m560.25-325.482c0 11.032-3.93 18.74-10.176 22.36l-40.448 23.496c6.32-3.62 10.176-11.328 10.258-22.36 0-22.128-15.66-49.272-34.936-60.454-9.72-5.556-18.646-6.172-25.052-2.466l40.746-23.72c6.32-3.696 15.036-2.94 24.67 2.69 19.36 11.172 35.02 38.242 34.938 60.454z" fill="#CBDBF4" p-id="6597"></path></svg>