<?xml version="1.0" standalone="no"?><!DOCTYPE svg PUBLIC "-//W3C//DTD SVG 1.1//EN" "http://www.w3.org/Graphics/SVG/1.1/DTD/svg11.dtd"><svg t="1765880347492" class="icon" viewBox="0 0 1024 1024" version="1.1" xmlns="http://www.w3.org/2000/svg" p-id="38965" xmlns:xlink="http://www.w3.org/1999/xlink" width="128" height="128"><path d="M150.262 123.485h679.625v801.196H150.262z" fill="#384244" p-id="38966"></path><path d="M216.815 172.111H767.13v109.978H216.815z" fill="#696F6F" p-id="38967"></path><path d="M216.815 323.058h116.889V439.95H216.815zM361.291 323.058h116.885V439.95H361.291zM505.768 323.058h116.884V439.95H505.768zM650.239 323.058h116.892V439.95H650.239zM216.815 468.18h116.889v116.89H216.815zM361.291 468.18h116.885v116.89H361.291zM505.768 468.18h116.884v116.89H505.768zM650.239 468.18h116.892v116.89H650.239zM216.815 613.296h116.889v116.895H216.815z" fill="#FFFFFF" p-id="38968"></path><path d="M361.291 613.296h116.885v116.895H361.291z" fill="#FFFFFF" p-id="38969"></path><path d="M505.768 613.296h116.884v116.895H505.768z" fill="#FFFFFF" p-id="38970"></path><path d="M650.239 613.296h116.892v262.011H650.239z" fill="#21A4D4" p-id="38971"></path><path d="M216.815 758.42h116.889v116.887H216.815z" fill="#FFFFFF" p-id="38972"></path><path d="M361.291 758.42h116.885v116.887H361.291z" fill="#FFFFFF" p-id="38973"></path><path d="M505.768 758.42h116.884v116.887H505.768z" fill="#FFFFFF" p-id="38974"></path></svg>