<?xml version="1.0" standalone="no"?><!DOCTYPE svg PUBLIC "-//W3C//DTD SVG 1.1//EN" "http://www.w3.org/Graphics/SVG/1.1/DTD/svg11.dtd"><svg t="1765992250787" class="icon" viewBox="0 0 1024 1024" version="1.1" xmlns="http://www.w3.org/2000/svg" p-id="3417" xmlns:xlink="http://www.w3.org/1999/xlink" width="128" height="128"><path d="M75.572 651.32l-10.408 27.22 46.824 27.21-0.092-33.308-36.324-21.122z" fill="#A46EF2" p-id="3418"></path><path d="M111.896 672.432l0.092 33.308 32.9-18.99-0.094-33.318-32.9 19z" fill="#9156E5" p-id="3419"></path><path d="M75.572 651.32l36.324 21.112 32.898-18.99-36.324-21.112-32.9 18.99z" fill="#B785FF" p-id="3420"></path><path d="M336.618 802.1L115.834 673.84l0.082 29.136 220.766 128.26-0.064-29.136z" fill="#CBDBF4" p-id="3421"></path><path d="M361.966 787.456L141.2 659.196l-25.358 14.642 220.766 128.26 25.36-14.642z" fill="#EBF2FF" p-id="3422"></path><path d="M336.616 802.1l0.076 29.136 25.358-14.634-0.084-29.136-25.35 14.634z" fill="#CBDBF4" p-id="3423"></path><path d="M326.088 799.372l0.094 33.308 45.148 26.24-8.918-38.444-36.324-21.104z" fill="#A46EF2" p-id="3424"></path><path d="M362.402 820.476l8.928 38.446 32.9-18.99-8.92-38.448-32.908 18.992z" fill="#9156E5" p-id="3425"></path><path d="M326.088 799.372l36.324 21.104 32.9-18.992-36.326-21.112-32.898 19z" fill="#B785FF" p-id="3426"></path><path d="M630.18 330.724l-10.408 27.21 46.824 27.22-0.094-33.326-36.324-21.104z" fill="#A46EF2" p-id="3427"></path><path d="M666.502 351.838l0.094 33.316 32.9-19-0.094-33.316-32.9 19z" fill="#9156E5" p-id="3428"></path><path d="M630.18 330.724l36.322 21.114 32.9-18.992-36.324-21.112-32.9 18.99z" fill="#B785FF" p-id="3429"></path><path d="M891.224 481.504l-220.784-128.26 0.084 29.136 220.764 128.26-0.064-29.136z" fill="#CBDBF4" p-id="3430"></path><path d="M916.574 466.87L695.818 338.6l-25.36 14.642 220.776 128.26 25.34-14.632z" fill="#EBF2FF" p-id="3431"></path><path d="M891.224 481.504l0.074 29.136 25.36-14.634-0.076-29.136-25.358 14.634z" fill="#CBDBF4" p-id="3432"></path><path d="M880.696 478.776l0.092 33.318 45.15 26.232-8.92-38.446-36.322-21.104z" fill="#A46EF2" p-id="3433"></path><path d="M917.02 499.888l8.918 38.438 32.9-18.99-8.92-38.446-32.9 19z" fill="#9156E5" p-id="3434"></path><path d="M880.696 478.776l36.324 21.112 32.9-18.99-36.326-21.122-32.9 19z" fill="#B785FF" p-id="3435"></path><path d="M789.894 422.68l-36.62-21.32-0.234-80.188c-0.112-32.748-11.73-55.854-30.44-66.718l36.678 21.254c18.71 10.864 30.328 33.978 30.384 66.782l0.232 80.19z" fill="#DBE6FA" p-id="3436"></path><path d="M740.054 224.498l36.64 21.29c-23.42-13.61-55.844-11.72-91.554 8.9l-36.64-21.29c35.708-20.63 68.132-22.51 91.554-8.9z" fill="#EBF2FF" p-id="3437"></path><path d="M234.896 743.108l-36.64-21.3-0.242-80.18 36.64 21.3 0.242 80.18z" fill="#DBE6FA" p-id="3438"></path><path d="M362.96 440.692L326.32 419.4 648.5 233.4l36.64 21.29-322.18 186.004z" fill="#EBF2FF" p-id="3439"></path><path d="M234.654 662.928l-36.64-21.3c-0.234-81.584 57.306-181.238 128.306-222.226l36.64 21.29c-71 40.998-128.53 140.652-128.306 222.236z" fill="#DBE6FA" p-id="3440"></path><path d="M685.14 254.696c70.962-40.978 128.912-8.006 129.144 73.59l0.232 80.168-24.594 14.206-0.24-80.18c-0.188-65.98-47.04-92.718-104.468-59.568l-322.16 186.014c-57.436 33.15-104.01 113.832-103.824 179.814l0.242 80.18-24.566 14.186-0.242-80.178c-0.224-81.586 57.306-181.248 128.306-222.236l322.168-185.996z" fill="#CBDBF4" p-id="3441"></path><path d="M678.168 166.66a0.894 0.894 0 0 0-0.95 0.01c-2.98-1.74-7.95-1.74-10.958 0a0.876 0.876 0 0 0-0.93-0.01c2.98-1.72 8.276-2.456 12.846 0h-0.008z m159.482 138.614c1.704-1.072 3.482-2.506 4.934-7.03 1.164-3.612 1.816-8.704 1.806-13.962 0 1.964-1.294 3.936-3.88 5.436 0.026 8.32-1.194 14.596-2.86 15.546v0.01z" fill="#70444D" p-id="3442"></path><path d="M844.39 284.272l-0.01-4.44c0 1.972-1.292 3.946-3.88 5.446l0.008 4.44c2.588-1.49 3.882-3.472 3.882-5.446z m-6.804-25.36c-170.682-98.58-159.438-92.782-160.368-92.242l159.418 92.252a0.896 0.896 0 0 1 0.95-0.008z" fill="#70444D" p-id="3443"></path><path d="M844.38 279.832c-0.092-5.68-0.688-10.26-1.786-13.648-1.416-4.356-2.904-5.958-5.008-7.27a0.894 0.894 0 0 0-0.95 0c2.998 1.74 2.98 4.618-0.028 6.348 2.114 1.24 3.864 10.194 3.892 20.016 2.588-1.5 3.88-3.474 3.88-5.446z" fill="#70444D" p-id="3444"></path><path d="M128.4 498.204c0.26 17.072 5.186 19.968 6.806 20.918-1.676-0.978-2.942-7.244-2.97-15.546-2.54-1.49-3.826-3.426-3.836-5.372z" fill="#613941" p-id="3445"></path><path d="M128.39 493.754l0.01 4.45c0.01 1.946 1.294 3.88 3.836 5.362l-0.01-4.44c-2.55-1.48-3.826-3.426-3.836-5.372z" fill="#613941" p-id="3446"></path><path d="M665.33 166.66L135.14 472.76a0.88 0.88 0 0 1 0.93 0.012L666.26 166.67a0.874 0.874 0 0 0-0.93-0.01z" fill="#70444D" p-id="3447"></path><path d="M135.14 472.762c-2.18 1.368-3.63 2.924-4.99 7.186-0.42 1.294-1.778 6.116-1.76 13.806 0 1.956 1.286 3.892 3.836 5.372-0.028-9.812 1.676-18.776 3.818-20.006-3-1.74-3.008-4.59 0.036-6.348a0.876 0.876 0 0 0-0.93-0.01h-0.01z m0.066 46.36l159.418 92.252c-1.676-0.976-2.942-7.24-2.97-15.546l-159.42-92.252c0.03 8.302 1.286 14.568 2.972 15.546z" fill="#613941" p-id="3448"></path><path d="M307.46 611.376l530.19-306.102c1.666-0.96 2.886-7.234 2.86-15.556l-530.192 306.1c0.028 8.324-1.192 14.598-2.858 15.558z" fill="#70444D" p-id="3449"></path><path d="M132.226 499.126l0.01 4.44 159.418 92.254v-4.44l-159.428-92.254z" fill="#613941" p-id="3450"></path><path d="M310.31 591.38l0.008 4.44 530.2-306.102-0.008-4.44-530.2 306.1z" fill="#70444D" p-id="3451"></path><path d="M294.624 611.374c0.884 0.466 2.94 1.584 6.404 1.584 1.554 0 2.83-0.26 3.314-0.374a11.378 11.378 0 0 0 3.12-1.21c1.664-0.96 2.884-7.232 2.856-15.546-5.184 2.98-13.544 2.97-18.664 0 0.028 8.304 1.284 14.56 2.97 15.546z" fill="#613941" p-id="3452"></path><path d="M291.654 591.38v4.44c5.12 2.978 13.48 2.996 18.664 0l-0.008-4.44c-5.186 2.986-13.546 2.978-18.666 0h0.01z m-155.61-112.26c-2.142 1.23-3.846 10.194-3.818 20.014l159.42 92.244c-0.03-9.82 1.674-18.776 3.816-20.014L136.04 479.12z" fill="#613941" p-id="3453"></path><path d="M306.418 571.372c2.122 1.23 3.864 10.194 3.892 20.006L840.5 285.28c-0.028-9.822-1.77-18.778-3.892-20.016L306.418 571.372z" fill="#70444D" p-id="3454"></path><path d="M136.08 472.772c-3.044 1.76-3.034 4.608-0.036 6.348 90.316 52.484 69.1 39.768 159.418 92.252 2.988 1.742 7.912 1.752 10.956 0l530.19-306.11c3.006-1.732 3.026-4.608 0.028-6.34-90.316-52.484-69.102-39.768-159.418-92.252-2.98-1.74-7.95-1.74-10.958 0L136.08 472.772z" fill="#804F59" p-id="3455"></path><path d="M300.962 542.376c-75.868-44.068-60.5-34.908-114.818-66.364L671.706 195.678c75.404 43.78 60.64 34.964 114.828 66.354L300.962 542.376z" fill="#70444D" p-id="3456"></path><path d="M295.46 571.374c-2.14 1.228-3.844 10.184-3.816 20.004 5.12 2.98 13.48 2.988 18.666 0-0.028-9.812-1.77-18.776-3.892-20.014-3.044 1.768-7.968 1.75-10.956 0v0.01z" fill="#613941" p-id="3457"></path></svg>