<?xml version="1.0" standalone="no"?><!DOCTYPE svg PUBLIC "-//W3C//DTD SVG 1.1//EN" "http://www.w3.org/Graphics/SVG/1.1/DTD/svg11.dtd"><svg t="1765990081957" class="icon" viewBox="0 0 1280 1024" version="1.1" xmlns="http://www.w3.org/2000/svg" p-id="16516" xmlns:xlink="http://www.w3.org/1999/xlink" width="160" height="128"><path d="M640.125031 241.496459v23.505739H358.212454V157.81978H556.385836a83.645421 83.645421 0 0 1 83.645422 83.676679z m0 0" fill="#E6E6E6" p-id="16517"></path><path d="M358.212454 157.81978v107.182418H190.42149V22.661783h167.790964z m0 0" fill="#F95428" p-id="16518"></path><path d="M249.467155 157.81978v107.182418H190.42149V22.661783h59.045665z m0 0" fill="#E54728" p-id="16519"></path><path d="M971.018315 157.81978v107.182418H640.156288v-25.818804a81.269841 81.269841 0 0 1 81.269841-81.269841h249.529671z m0 0" fill="#E6E6E6" p-id="16520"></path><path d="M640.156288 264.97094h617.494506v107.213675H22.661783v-107.213675z m0 0" fill="#F7B239" p-id="16521"></path><path d="M61.046154 264.97094h38.415629v107.213675H22.661783v-107.213675z m0 0" fill="#E09B2D" p-id="16522"></path><path d="M171.916972 800.945543v200.392674H101.899878V372.184615H171.916972z m0 0M1108.520635 372.184615H1178.412698v629.153602h-69.892063z" fill="#F7B239" p-id="16523"></path><path d="M171.791941 372.215873h936.728694v428.72967H171.791941z" fill="#F7B239" p-id="16524"></path><path d="M101.899878 372.215873h1076.544078v68.110379H101.899878z" fill="#E09B2D" p-id="16525"></path><path d="M1032.877167 755.99707a22.661783 22.661783 0 0 1-22.661782-22.661783v-205.425153a22.661783 22.661783 0 0 1 45.323565 0v205.393895a22.661783 22.661783 0 0 1-22.661783 22.661783z m0 0M292.758974 222.804396a22.661783 22.661783 0 0 1-22.661782-22.661783v-36.258852a22.661783 22.661783 0 0 1 45.323565 0V200.04884a22.661783 22.661783 0 0 1-22.661783 22.661783z m0 0" fill="#FFFFFF" p-id="16526"></path><path d="M1257.650794 242.340415h-263.939439v-84.395604a22.661783 22.661783 0 0 0-22.661782-22.661783h-249.560928a103.837851 103.837851 0 0 0-81.926252 40.072283A106.275946 106.275946 0 0 0 556.385836 135.12674h-175.542857v-112.527473A22.661783 22.661783 0 0 0 358.212454 0H190.42149a22.661783 22.661783 0 0 0-22.661783 22.661783v28.600732h-9.377289A79.394383 79.394383 0 0 0 79.081807 130.563126v3.125763a79.363126 79.363126 0 0 0 79.300611 79.30061h9.377289v29.257143H22.661783A22.661783 22.661783 0 0 0 0 264.908425v107.182417a22.661783 22.661783 0 0 0 22.661783 22.661783h56.576312v606.398047a22.661783 22.661783 0 0 0 22.661783 22.661782H171.916972a22.661783 22.661783 0 0 0 22.661783-22.661782v-177.543346h891.280097v177.730891a22.661783 22.661783 0 0 0 22.661783 22.661783H1178.412698a22.661783 22.661783 0 0 0 22.661783-22.661783v-606.398046h56.576313a22.661783 22.661783 0 0 0 22.661782-22.661783V265.002198a22.661783 22.661783 0 0 0-22.661782-22.661783z m-594.863981-3.125763a58.733089 58.733089 0 0 1 58.670574-58.670574h226.899145v61.89011H662.661783z m-106.275946-58.701831a61.077411 61.077411 0 0 1 60.983638 61.014896v0.875213h-236.620268v-61.890109zM158.538706 167.85348a34.008303 34.008303 0 0 1-33.977045-33.977045v-3.125763a34.008303 34.008303 0 0 1 33.977045-33.977046h9.377289v71.204884z m54.575824-122.467399h122.467399v196.923077H213.083272zM149.130159 978.676435h-24.599756V394.846398h24.599756z m45.323565-200.361417V394.846398h891.405128V778.315018z m961.328449 200.361417h-24.599755V394.846398h24.599755z m79.238096-629.153602H45.323565V287.570208h1189.696704z m0 0" fill="#333333" p-id="16527"></path><path d="M315.420757 95.960928a22.661783 22.661783 0 1 1-22.661783-22.661783 22.661783 22.661783 0 0 1 22.661783 22.661783z m0 0M1055.507692 455.423687a22.661783 22.661783 0 1 1-22.661782-22.661782 22.661783 22.661783 0 0 1 22.661782 22.661782z m0 0" fill="#FFFFFF" p-id="16528"></path></svg>