<?xml version="1.0" standalone="no"?><!DOCTYPE svg PUBLIC "-//W3C//DTD SVG 1.1//EN" "http://www.w3.org/Graphics/SVG/1.1/DTD/svg11.dtd"><svg t="1765992985736" class="icon" viewBox="0 0 1024 1024" version="1.1" xmlns="http://www.w3.org/2000/svg" p-id="16761" xmlns:xlink="http://www.w3.org/1999/xlink" width="128" height="128"><path d="M909.038187 622.130347a409.184584 409.184584 0 1 1-299.370315-495.157598 409.184584 409.184584 0 0 1 299.370315 495.157598z m0 0" fill="#FFFFFF" p-id="16762"></path><path d="M512.135462 942.813299a420.202134 420.202134 0 0 1-100.512568-12.64309 418.486286 418.486286 0 0 1-36.123114-801.933151 415.415822 415.415822 0 0 1 136.184143-22.938178 420.202134 420.202134 0 0 1 100.422259 12.281859 418.486286 418.486286 0 0 1 36.123115 801.933151 415.415822 415.415822 0 0 1-136.184143 22.938178z m-0.632155-818.549784a400.605344 400.605344 0 1 0 95.997178 11.740013 398.889496 398.889496 0 0 0-95.997178-11.740013z m0 0" fill="#0F1010" p-id="16763"></path><path d="M604.971867 135.551989L477.09604 657.801923" fill="#FFFFFF" p-id="16764"></path><path d="M596.031396 133.294294l18.061558 4.425082-127.966135 522.249933-18.061558-4.425081z m0 0" fill="#0F1010" p-id="16765"></path><path d="M497.144369 531.280713L211.952377 796.966223" fill="#FFFFFF" p-id="16766"></path><path d="M490.822824 524.507629l12.64309 13.636475L218.273922 803.739307l-12.64309-13.636476z m0 0" fill="#0F1010" p-id="16767"></path><path d="M919.242967 539.318106l-543.65288-29.169416" fill="#FFFFFF" p-id="16768"></path><path d="M376.131934 500.846988l543.562572 29.169416-0.993386 18.603404-543.562572-29.169416z m0 0" fill="#0F1010" p-id="16769"></path><path d="M634.502513 908.49634L476.734809 410.087662" fill="#FFFFFF" p-id="16770"></path><path d="M485.584972 407.378428l157.858012 498.408678-18.061557 5.599083L467.794338 412.977511z m0 0" fill="#0F1010" p-id="16771"></path><path d="M159.302937 355.451451L636.6699 575.621836" fill="#FFFFFF" p-id="16772"></path><path d="M163.186172 347.052827l477.366963 220.170385-7.76647 16.887556L155.419702 363.940383z m0 0" fill="#0F1010" p-id="16773"></path><path d="M279.954141 411.893818l-23.29941-198.677132-9.030778-1.896464a407.288121 407.288121 0 0 0-133.113679 215.022842 411.713202 411.713202 0 0 0-10.746626 66.647147z m0 0M319.418644 700.427198l-192.084664-36.123115a409.274892 409.274892 0 0 0 217.461152 233.535938z m0 0M465.26572 925.383896l3.792927 5.870006A408.823353 408.823353 0 0 0 772.402505 839.862422l-181.518653-69.536996z m0 0M774.840815 537.692565l103.312109 168.875563a410.087662 410.087662 0 0 0 20.951406-314.180792z m0 0M442.508158 120.922127l128.778904 150.452774L754.973102 195.064821A410.17797 410.17797 0 0 0 442.508158 120.922127z m0 0M569.842138 695.369962l105.389188-169.959256-128.778905-152.710468L361.231149 448.10724l14.449246 199.218979z m0 0" fill="#0F1010" p-id="16774"></path></svg>