<?xml version="1.0" standalone="no"?><!DOCTYPE svg PUBLIC "-//W3C//DTD SVG 1.1//EN" "http://www.w3.org/Graphics/SVG/1.1/DTD/svg11.dtd"><svg t="1765992272855" class="icon" viewBox="0 0 1024 1024" version="1.1" xmlns="http://www.w3.org/2000/svg" p-id="4885" xmlns:xlink="http://www.w3.org/1999/xlink" width="128" height="128"><path d="M952.526 733.984l-0.186 30.096c-0.01 2.85-1.88 5.68-5.614 7.86-11.832 6.876-33.14 2.232-33.104-7.972l0.188-30.086c0 2.886 1.888 5.772 5.678 7.96 7.614 4.394 19.92 4.374 27.434 0 3.724-2.16 5.604-5.01 5.604-7.858z m-283.136 180.662l-0.186 30.086c-0.01 2.85-1.88 5.688-5.614 7.86-11.832 6.886-33.14 2.232-33.104-7.96l0.188-30.098c0 2.886 1.888 5.772 5.678 7.968 7.614 4.394 19.92 4.376 27.434 0 3.724-2.168 5.604-5.008 5.604-7.856zM104.756 582.5l-0.196 30.086c-0.01 2.85-1.88 5.7-5.614 7.866-11.832 6.87-33.14 2.234-33.102-7.968l0.186-30.096c0 2.886 1.89 5.772 5.688 7.968 7.604 4.394 19.912 4.376 27.424 0 3.724-2.168 5.604-5.008 5.614-7.856z m-31.986-31.232l309.9-180.094c4.672-2.72 11.152-2.346 18.3 1.788l-309.9 180.094c-7.148-4.134-13.628-4.506-18.3-1.788z" fill="#4F575F" p-id="4886"></path><path d="M648.936 904.722l309.9-180.094-0.092 34.668-309.9 180.092 0.092-34.666z" fill="#FFCA6C" p-id="4887"></path><path d="M91.07 553.054l309.9-180.094 532.24 307.284-309.9 180.094-532.24-307.284z" fill="#4F575F" p-id="4888"></path><path d="M623.308 860.346l309.9-180.102c14.196 8.192 25.674 28.084 25.628 44.386l-309.9 180.094c0.048-16.292-11.43-36.186-25.628-44.388v0.01z" fill="#2A3134" p-id="4889"></path><path d="M623.31 860.346c14.196 8.192 25.674 28.086 25.628 44.378l-0.094 34.666L65.164 602.4l0.092-34.658c0.056-16.29 11.62-22.89 25.814-14.688l532.24 307.292z" fill="#FFB63C" p-id="4890"></path><path d="M648.908 904.76L65.266 567.704c0-16.254 11.646-22.826 25.832-14.652l532.164 307.272c14.28 8.174 25.74 28.086 25.646 44.432z" fill="#3D4449" p-id="4891"></path><path d="M305.264 629.798l38.568-22.416c4.216 13.134 13.544 25.46 23.766 31.36l-38.568 22.418c-10.22-5.912-19.55-18.228-23.766-31.372v0.01z" fill="#EBF2FF" p-id="4892"></path><path d="M230.754 397.126l38.568-22.408 74.51 232.662-38.568 22.416-74.51-232.67z" fill="#DBE6FA" p-id="4893"></path><path d="M236.05 366.712l38.568-22.416a13.014 13.014 0 0 0-3.426 2.924c-4.82 5.808-5.53 16.086-1.87 27.5l-38.568 22.406c-3.66-11.414-2.952-21.69 1.86-27.49a12.92 12.92 0 0 1 3.446-2.924h-0.01z" fill="#DBE6FA" p-id="4894"></path><path d="M371.972 376.766l-38.566 22.418-78.83-45.494c-10.548-6.088-20.424-6.982-27.658-2.784l38.568-22.388c7.234-4.226 17.11-3.332 27.648 2.756l78.84 45.492z" fill="#EBF2FF" p-id="4895"></path><path d="M333.396 399.184l38.568-22.418-0.038 14.876-38.568 22.408 0.038-14.866z" fill="#DBE6FA" p-id="4896"></path><path d="M329.03 661.16l38.568-22.416 302.126 174.434-38.568 22.406-302.126-174.424z" fill="#EBF2FF" p-id="4897"></path><path d="M333.396 399.184l-0.038 14.866-78.84-45.504c-19.016-10.984-31.5 4.432-23.764 28.58l74.51 232.672c4.208 13.134 13.544 25.45 23.766 31.36l302.126 174.426-0.038 14.876-302.134-174.434c-15.286-8.824-29.232-27.228-35.524-46.87L218.95 396.5c-11.674-36.436 7.316-59.15 35.608-42.82l78.838 45.5z" fill="#CBDBF4" p-id="4898"></path><path d="M631.156 835.584l38.568-22.406-0.038 14.866-38.566 22.416 0.036-14.876z" fill="#DBE6FA" p-id="4899"></path><path d="M572.546 474.466l38.568-22.416c4.208 13.144 13.544 25.46 23.766 31.372l-38.568 22.406c-10.22-5.902-19.558-18.218-23.766-31.362z" fill="#EBF2FF" p-id="4900"></path><path d="M498.036 241.804l38.56-22.416 74.518 232.66-38.568 22.418-74.51-232.662zM503.334 211.38l38.566-22.406a13.004 13.004 0 0 0-3.424 2.914c-4.824 5.81-5.53 16.086-1.88 27.5l-38.56 22.416c-3.648-11.414-2.94-21.69 1.88-27.5a12.868 12.868 0 0 1 3.426-2.922h-0.008z" fill="#DBE6FA" p-id="4901"></path><path d="M639.256 221.436l-38.578 22.424-78.83-45.492c-10.536-6.088-20.414-6.982-27.648-2.784l38.56-22.398c7.24-4.226 17.12-3.332 27.656 2.756l78.84 45.494z" fill="#EBF2FF" p-id="4902"></path><path d="M600.68 243.86l38.566-22.416-0.046 14.868-38.568 22.416 0.046-14.868z" fill="#DBE6FA" p-id="4903"></path><path d="M596.312 505.828l38.568-22.406 302.126 174.432-38.568 22.418-302.126-174.444z" fill="#EBF2FF" p-id="4904"></path><path d="M600.68 243.86l-0.048 14.868-78.83-45.504c-19.018-10.984-31.5 4.432-23.774 28.58l74.52 232.662c4.206 13.144 13.544 25.46 23.764 31.37l302.126 174.426-0.046 14.866-302.126-174.434c-15.276-8.816-29.23-27.22-35.514-46.87L486.24 241.17c-11.684-36.436 7.316-59.15 35.608-42.82l78.828 45.512z" fill="#CBDBF4" p-id="4905"></path><path d="M898.44 680.26l38.566-22.414-0.046 14.866-38.568 22.416 0.046-14.866z" fill="#DBE6FA" p-id="4906"></path><path d="M708.646 284.58l-0.056 19.586-82.908-42.48 0.056-19.594 82.908 42.486z" fill="#2A3134" p-id="4907"></path><path d="M741.096 276.35l-0.064 19.586c0 2.086-0.968 4.152-3.016 5.968-6.778 5.892-20.76 6.73-29.426 2.26l0.054-19.594c8.66 4.468 22.65 3.63 29.42-2.254 2.054-1.814 3.024-3.89 3.024-5.966h0.008zM271.22 375.62l0.056-19.586c0 2.14 0.978 3.844 3.054 5.046l-0.046 19.586c-2.086-1.2-3.072-2.906-3.064-5.036v-0.01z m98.546 12.408l0.056-19.594c0.01-4.45 2.104-8.9 6.33-12.848 47.476-44.292 124.24-89.618 199.336-116.196 15.872-5.584 36.306-4.468 50.25 2.7l-0.056 19.596c-13.954-7.178-34.378-8.286-50.25-2.7-75.096 26.568-151.86 71.894-199.326 116.188-4.236 3.946-6.33 8.406-6.33 12.846l-0.01 0.008zM425.24 448.204l-0.056 19.588-150.9-87.124 0.046-19.586 150.91 87.122z" fill="#2A3134" p-id="4908"></path><path d="M458.9 440.218l-0.054 19.586c-0.028 10.51-21.654 14.922-33.662 7.988l0.056-19.588c7.744 4.47 20.21 4.516 27.982 0 3.77-2.196 5.68-5.092 5.68-7.986z" fill="#2A3134" p-id="4909"></path><path d="M734.628 267.432c6.82 3.938 8.694 10.24 3.444 14.886-6.78 5.892-20.76 6.73-29.426 2.252l-82.908-42.478c-13.954-7.168-34.38-8.284-50.25-2.7-75.096 26.578-151.86 71.904-199.326 116.198-9.896 9.216-8.072 21.214 4.524 29.36l73.216 47.66c6.908 4.434 6.638 11.34-0.68 15.596-7.772 4.514-20.238 4.468-27.982 0l-150.9-87.134c-36.064-20.806 274.16-201.096 310.224-180.28l150.064 86.64zM460.772 68.404l15.974 4.338c-2.01-0.55-4.282-0.242-6.534 1.06l-15.974-4.338c2.252-1.302 4.524-1.61 6.534-1.06z" fill="#3D4449" p-id="4910"></path><path d="M339.642 149.188l-15.974-4.34 130.57-75.384 15.974 4.34-130.57 75.384z m14.15 158.366l-16.96-10.678-20.946-133.836 15.974 4.338 21.932 140.176z" fill="#3D4449" p-id="4911"></path><path d="M331.86 167.378l-15.974-4.34c-1.118-7.046 2.326-15.032 7.78-18.188l15.976 4.338c-5.454 3.156-8.908 11.142-7.782 18.19z" fill="#3D4449" p-id="4912"></path><path d="M470.212 73.802c5.52-3.184 11.124-0.42 12.846 6.284l33.94 133.25-163.206 94.218-21.922-140.176c-1.118-7.048 2.326-15.034 7.78-18.19l130.56-75.386z" fill="#4F575F" p-id="4913"></path><path d="M455.074 200.508l-3.126-0.856 12.772-7.364 3.118 0.84-12.764 7.38z" fill="#CBDBF4" p-id="4914"></path><path d="M464.72 192.288l3.118 0.848c0.314-0.2 0.698-0.264 1.06-0.178l-3.126-0.846v-0.01a1.378 1.378 0 0 0-1.052 0.186z m-12.772 7.364c-0.948 0.626-1.426 1.76-1.212 2.876l3.342 16.17c0.132 0.606 0.512 1.034 0.996 1.164l3.12 0.856v-0.008c-0.476-0.132-0.866-0.55-0.988-1.164l-3.34-16.17a2.812 2.812 0 0 1 1.208-2.868l-3.126-0.856z" fill="#CBDBF4" p-id="4915"></path><path d="M467.838 193.136c0.884-0.512 1.788-0.094 2.02 1.006l3.34 16.168c0.206 1.024-0.334 2.366-1.208 2.878l-12.772 7.362c-0.876 0.512-1.806 0.01-2.012-1.004l-3.35-16.17a2.812 2.812 0 0 1 1.22-2.868l12.76-7.372z" fill="#EBF2FF" p-id="4916"></path><path d="M448.93 170.756l-3.126-0.856 12.76-7.364 3.13 0.84-12.764 7.38z" fill="#CBDBF4" p-id="4917"></path><path d="M459.618 162.35l3.128 0.856a1.378 1.378 0 0 0-1.052 0.178l-3.128-0.848a1.378 1.378 0 0 1 1.052-0.186z m-7.55 28.608l-3.128-0.84c-0.494-0.138-0.894-0.584-1.024-1.264l3.12 0.846c0.14 0.68 0.54 1.128 1.022 1.258h0.01z" fill="#CBDBF4" p-id="4918"></path><path d="M451.034 189.7l-3.128-0.846-3.322-16.078 3.128 0.848 3.322 16.076z" fill="#CBDBF4" p-id="4919"></path><path d="M447.712 173.624l-3.128-0.848a2.812 2.812 0 0 1 1.21-2.876l3.136 0.856c-0.942 0.626-1.42 1.756-1.21 2.868h-0.008z" fill="#CBDBF4" p-id="4920"></path><path d="M461.694 163.374c0.884-0.502 1.788-0.092 2.01 1.024l3.324 16.068c0.232 1.118-0.308 2.458-1.192 2.97l-12.762 7.364c-0.884 0.512-1.806 0.008-2.04-1.1l-3.322-16.076a2.812 2.812 0 0 1 1.21-2.868l12.772-7.38z" fill="#EBF2FF" p-id="4921"></path><path d="M442.778 141.004l-3.128-0.846 12.762-7.374 3.128 0.848-12.762 7.372z" fill="#CBDBF4" p-id="4922"></path><path d="M453.474 132.608l3.128 0.848a1.378 1.378 0 0 0-1.06 0.186l-3.13-0.858a1.378 1.378 0 0 1 1.06-0.186v0.01z m-7.56 28.598l-3.128-0.84c-0.484-0.138-0.884-0.584-1.024-1.264l3.128 0.846c0.14 0.68 0.54 1.128 1.024 1.258z" fill="#CBDBF4" p-id="4923"></path><path d="M444.88 159.948l-3.118-0.838-3.322-16.086 3.128 0.848 3.314 16.076z" fill="#CBDBF4" p-id="4924"></path><path d="M441.568 143.872l-3.128-0.838c-0.22-1.12 0.26-2.258 1.21-2.886l3.128 0.856c-0.944 0.626-1.42 1.756-1.21 2.868z" fill="#CBDBF4" p-id="4925"></path><path d="M455.54 133.632c0.884-0.512 1.788-0.094 2.02 1.006l3.324 16.076c0.224 1.118-0.316 2.458-1.2 2.97l-12.754 7.372c-0.884 0.504-1.816 0-2.048-1.108l-3.314-16.076a2.812 2.812 0 0 1 1.21-2.868l12.762-7.372z" fill="#EBF2FF" p-id="4926"></path><path d="M480.46 185.846l-3.128-0.838 12.764-7.38 3.128 0.856-12.764 7.362z" fill="#CBDBF4" p-id="4927"></path><path d="M490.096 177.626l3.128 0.858c0.314-0.2 0.698-0.264 1.06-0.178l-3.136-0.856h0.008a1.378 1.378 0 0 0-1.06 0.176z m-12.764 7.374c-0.874 0.502-1.368 1.712-1.134 2.83l3.128 0.846c-0.234-1.108 0.26-2.318 1.134-2.83l-3.128-0.846z m-1.144 2.83L479.54 204c0.13 0.624 0.512 1.08 0.976 1.21l3.128 0.846c-0.474-0.13-0.846-0.576-0.976-1.21l-3.342-16.17-3.14-0.846z" fill="#CBDBF4" p-id="4928"></path><path d="M493.224 178.484c0.884-0.512 1.786-0.104 2.02 1.004l3.34 16.17c0.206 1.016-0.334 2.364-1.208 2.868l-12.772 7.372c-0.876 0.512-1.732-0.036-1.936-1.052l-3.352-16.17c-0.224-1.108 0.27-2.326 1.144-2.83l12.764-7.362z" fill="#EBF2FF" p-id="4929"></path><path d="M474.316 156.094l-3.128-0.836 12.754-7.384 3.138 0.858-12.764 7.362z m10.688-8.396l3.128 0.856a1.378 1.378 0 0 0-1.052 0.178l-3.128-0.858a1.378 1.378 0 0 1 1.052-0.176z m-7.494 28.606l-3.128-0.856c-0.484-0.13-0.866-0.596-1.014-1.294l3.128 0.848c0.14 0.698 0.53 1.164 1.024 1.302h-0.01z" fill="#CBDBF4" p-id="4930"></path><path d="M476.496 175.01l-3.128-0.856-3.324-16.076 3.128 0.846 3.324 16.086z m-3.314-16.086l-3.138-0.846c-0.224-1.108 0.26-2.328 1.144-2.83l3.12 0.846c-0.876 0.512-1.36 1.724-1.136 2.83h0.01z" fill="#CBDBF4" p-id="4931"></path><path d="M487.08 148.732c0.874-0.512 1.786-0.104 2.01 1.004l3.324 16.078c0.232 1.108-0.308 2.458-1.192 2.96l-12.762 7.372c-0.886 0.512-1.732-0.036-1.956-1.144l-3.332-16.078c-0.224-1.106 0.26-2.326 1.144-2.83l12.764-7.362z" fill="#EBF2FF" p-id="4932"></path><path d="M468.164 126.342l-3.128-0.836 12.762-7.382 3.128 0.856-12.762 7.362z" fill="#CBDBF4" p-id="4933"></path><path d="M478.86 117.946l3.128 0.856a1.378 1.378 0 0 0-1.06 0.178l-3.13-0.848a1.378 1.378 0 0 1 1.06-0.186z m-7.494 28.608l-3.128-0.848c-0.484-0.14-0.876-0.606-1.024-1.304l3.138 0.848c0.14 0.698 0.53 1.172 1.014 1.304z" fill="#CBDBF4" p-id="4934"></path><path d="M470.352 145.25l-3.128-0.838-3.324-16.086 3.128 0.846 3.324 16.078z" fill="#CBDBF4" p-id="4935"></path><path d="M467.028 129.172l-3.128-0.836c-0.232-1.118 0.26-2.328 1.136-2.84l3.128 0.846c-0.884 0.512-1.368 1.724-1.136 2.83z" fill="#CBDBF4" p-id="4936"></path><path d="M480.926 118.97c0.884-0.502 1.788-0.092 2.02 1.014l3.324 16.078c0.224 1.108-0.316 2.458-1.2 2.96l-12.754 7.372c-0.886 0.512-1.74-0.036-1.964-1.144l-3.324-16.078c-0.232-1.106 0.252-2.326 1.136-2.83l12.762-7.372z" fill="#EBF2FF" p-id="4937"></path><path d="M429.69 215.16l-3.128-0.846 12.772-7.372 3.118 0.846-12.762 7.374z" fill="#CBDBF4" p-id="4938"></path><path d="M440.32 206.774l3.128 0.838a1.294 1.294 0 0 0-0.996 0.186l-3.12-0.856a1.294 1.294 0 0 1 0.988-0.168z m-7.512 28.596l-3.12-0.846c-0.484-0.13-0.864-0.56-0.996-1.174l3.128 0.848c0.12 0.614 0.512 1.042 0.988 1.172z" fill="#CBDBF4" p-id="4939"></path><path d="M431.82 234.2l-3.128-0.84-3.34-16.18 3.126 0.858 3.342 16.16z" fill="#CBDBF4" p-id="4940"></path><path d="M428.48 218.038l-3.13-0.856a2.812 2.812 0 0 1 1.212-2.868l3.128 0.848c-0.948 0.626-1.426 1.76-1.212 2.876z" fill="#CBDBF4" p-id="4941"></path><path d="M442.46 207.788c0.876-0.502 1.704-0.056 1.938 1.052l3.34 16.17c0.216 1.024-0.26 2.328-1.134 2.83l-12.772 7.372c-0.876 0.504-1.806 0-2.012-1.014l-3.35-16.16a2.812 2.812 0 0 1 1.22-2.876l12.772-7.374z" fill="#EBF2FF" p-id="4942"></path><path d="M423.546 185.41l-3.128-0.848 12.762-7.372 3.128 0.846-12.762 7.374z" fill="#CBDBF4" p-id="4943"></path><path d="M434.176 177.02l3.12 0.84a1.294 1.294 0 0 0-0.988 0.186l-3.128-0.856a1.294 1.294 0 0 1 0.986-0.168h0.01z m-7.494 28.6l-3.128-0.848c-0.494-0.14-0.894-0.586-1.024-1.266l3.12 0.856c0.14 0.67 0.54 1.118 1.022 1.258h0.01z" fill="#CBDBF4" p-id="4944"></path><path d="M425.648 204.362l-3.128-0.856-3.314-16.076 3.12 0.856 3.322 16.076z" fill="#CBDBF4" p-id="4945"></path><path d="M422.326 188.286l-3.12-0.856a2.812 2.812 0 0 1 1.212-2.868l3.128 0.848c-0.948 0.626-1.426 1.76-1.212 2.876h-0.008z" fill="#CBDBF4" p-id="4946"></path><path d="M436.308 178.036c0.884-0.502 1.712-0.056 1.936 1.052l3.324 16.078c0.232 1.116-0.234 2.42-1.118 2.922l-12.762 7.372c-0.884 0.504-1.806 0-2.04-1.098l-3.322-16.076a2.812 2.812 0 0 1 1.21-2.876l12.772-7.374z" fill="#EBF2FF" p-id="4947"></path><path d="M417.392 155.658l-3.128-0.848 12.772-7.372 3.12 0.846-12.764 7.374z" fill="#CBDBF4" p-id="4948"></path><path d="M428.022 147.27l3.128 0.846a1.294 1.294 0 0 0-0.996 0.168l-3.118-0.838a1.294 1.294 0 0 1 0.986-0.186v0.01z m-7.494 28.598l-3.126-0.848c-0.486-0.14-0.886-0.586-1.024-1.256l3.126 0.838c0.14 0.68 0.54 1.134 1.024 1.266z" fill="#CBDBF4" p-id="4949"></path><path d="M419.504 174.61l-3.126-0.846-3.324-16.086 3.128 0.856 3.322 16.076z" fill="#CBDBF4" p-id="4950"></path><path d="M416.18 158.534l-3.126-0.856a2.812 2.812 0 0 1 1.21-2.868l3.128 0.848c-0.948 0.626-1.426 1.76-1.21 2.876z" fill="#CBDBF4" p-id="4951"></path><path d="M430.154 148.294c0.884-0.512 1.714-0.066 1.946 1.042l3.324 16.078c0.232 1.116-0.242 2.42-1.118 2.922l-12.772 7.374c-0.874 0.5-1.806 0-2.03-1.1l-3.322-16.076a2.812 2.812 0 0 1 1.21-2.876l12.762-7.364z" fill="#EBF2FF" p-id="4952"></path><path d="M390.842 178.976l3.128 0.84c-5.744-1.556-12.204-0.69-18.6 2.996l-3.118-0.848c6.386-3.686 12.846-4.552 18.59-2.988z" fill="#CBDBF4" p-id="4953"></path><path d="M372.14 260.19l-3.128-0.858c-8.88-2.41-16.058-10.612-18.636-23.068-4.254-20.6 5.584-44.898 21.876-54.3l3.12 0.848c-16.292 9.402-26.122 33.7-21.868 54.31 2.578 12.454 9.746 20.646 18.636 23.058v0.01z" fill="#CBDBF4" p-id="4954"></path><path d="M375.37 182.812c16.292-9.402 33.01-0.438 37.264 20.164 4.246 20.516-5.594 44.814-21.886 54.216-16.29 9.4-33.008 0.438-37.236-20.07-4.262-20.612 5.576-44.908 21.86-54.31z" fill="#EBF2FF" p-id="4955"></path><path d="M778.036 647.466l-54.18 5.976-43.612-25.18 54.18-5.978 43.612 25.182z m-52.392-30.246l-54.18 5.978-29.426-17 54.208-5.958 29.398 16.98z m-38.28-22.1l-54.18 5.968-12.956-7.476 54.18-5.976 12.956 7.484z m131.92 76.16l-54.18 5.976-29.434-17 54.18-5.966 29.434 16.988z m21.8 12.594l-54.178 5.966-12.948-7.474 54.198-5.96 12.93 7.468z" fill="#FFCA6C" p-id="4956"></path></svg>