<?xml version="1.0" standalone="no"?><!DOCTYPE svg PUBLIC "-//W3C//DTD SVG 1.1//EN" "http://www.w3.org/Graphics/SVG/1.1/DTD/svg11.dtd"><svg t="1765992266086" class="icon" viewBox="0 0 1024 1024" version="1.1" xmlns="http://www.w3.org/2000/svg" p-id="4260" xmlns:xlink="http://www.w3.org/1999/xlink" width="128" height="128"><path d="M625.208 355.44l15.798 9.18c-10-5.81-25.144-4.452-42.088 5.332l-15.796-9.18c16.942-9.782 32.088-11.14 42.086-5.332zM544.694 453.148l-15.788-9.18c-0.094-28.634 24.202-65.87 54.216-83.194l15.798 9.18c-30.014 17.322-54.3 54.568-54.226 83.194z" fill="#FFCA6C" p-id="4261"></path><path d="M309.564 588.902l-15.798-9.18 235.14-135.752 15.786 9.178-235.128 135.754z" fill="#FFDE9B" p-id="4262"></path><path d="M302.08 632.46l-15.788-9.188 7.474-43.548 15.8 9.18-7.486 43.556z" fill="#FFCA6C" p-id="4263"></path><path d="M598.92 369.952c30.04-17.342 54.43-8.21 54.504 20.424l0.112 39.164-351.446 202.92 7.474-43.548 235.13-135.754c-0.074-28.626 24.204-65.872 54.226-83.196v-0.01z" fill="#FFB63C" p-id="4264"></path><path d="M81.184 814.704l-15.806-9.188 24.976-81.52 15.806 9.188-24.976 81.52z" fill="#CBDBF4" p-id="4265"></path><path d="M106.16 733.184l-15.806-9.188 546.35-315.43 15.798 9.188-546.34 315.43z" fill="#EBF2FF" p-id="4266"></path><path d="M652.5 417.754l0.188 66.988-571.494 329.96 24.976-81.518 546.332-315.43z" fill="#DBE6FA" p-id="4267"></path><path d="M328.06 922.81L111.712 797.082l20.04-65.444 216.364 125.73-20.052 65.442z" fill="#2A3134" p-id="4268"></path><path d="M348.114 857.368L131.752 731.64l501.666-287.67 216.344 125.728-501.648 287.67z" fill="#4F575F" p-id="4269"></path><path d="M396.25 829.766l-216.36-125.72 50.064-28.708 216.35 125.728-50.054 28.7z m100.11-57.408L280.02 646.61l50.054-28.7 216.352 125.728-50.064 28.72z m100.128-57.42l-216.352-125.728 50.054-28.71 216.362 125.728-50.064 28.712z m100.12-57.41l-216.344-125.736 50.056-28.7 216.352 125.728-50.064 28.708z" fill="#3D4449" p-id="4270"></path><path d="M849.772 569.698l0.148 53.78-521.86 299.332 20.054-65.442 501.658-287.67z" fill="#DBE6FA" p-id="4271"></path><path d="M322.56 954.974l-15.806-9.188 24.966-81.512 15.806 9.18-24.966 81.52z" fill="#CBDBF4" p-id="4272"></path><path d="M347.526 873.454l-15.806-9.18 546.35-315.438 15.808 9.188-546.352 315.43z" fill="#EBF2FF" p-id="4273"></path><path d="M893.878 558.024l0.186 66.988-571.504 329.96 24.966-81.518L893.88 558.024z" fill="#DBE6FA" p-id="4274"></path><path d="M930.294 532.74l15.8 9.18c-10-5.82-25.146-4.46-42.098 5.324l-15.788-9.18c16.942-9.774 32.088-11.14 42.078-5.324h0.008zM849.78 630.44l-15.798-9.18c-0.074-28.624 24.204-65.86 54.226-83.194l15.788 9.18c-30.012 17.332-54.3 54.568-54.216 83.194z" fill="#FFCA6C" p-id="4275"></path><path d="M614.652 766.194l-15.8-9.18 235.132-135.754 15.796 9.18-235.128 135.754z" fill="#FFDE9B" p-id="4276"></path><path d="M607.166 809.752l-15.796-9.18 7.484-43.556 15.798 9.178-7.486 43.558z" fill="#FFCA6C" p-id="4277"></path><path d="M904.006 547.244c30.04-17.342 54.42-8.2 54.504 20.424l0.112 39.174-351.456 202.91 7.486-43.56L849.78 630.44c-0.084-28.626 24.204-65.862 54.216-83.196h0.01z" fill="#FFB63C" p-id="4278"></path><path d="M752.77 639.562l-13.126-7.634-0.372-262.766 13.126 7.632 0.372 262.768z m26.988-316.052l-13.126-7.634 98.424-76.186 13.126 7.634-98.424 76.186z m-27.36 53.276l-13.126-7.624c-0.046-18.572 11.496-40.98 27.36-53.276l13.126 7.624c-15.864 12.296-27.406 34.704-27.36 53.276z" fill="#DBE6FA" p-id="4279"></path><path d="M878.182 247.324l2.234 13.684-98.36 76.148c-9.57 7.448-16.43 20.854-16.402 31.978l0.372 262.776-13.256 7.652-0.372-262.776c-0.046-18.572 11.496-40.98 27.36-53.276l98.424-76.186z" fill="#CBDBF4" p-id="4280"></path><path d="M524.41 506.414l-13.126-7.624-0.364-262.768 13.126 7.624 0.364 262.768z m26.986-316.044l-13.126-7.632 98.434-76.186 13.126 7.634-98.434 76.184z" fill="#DBE6FA" p-id="4281"></path><path d="M524.046 243.646l-13.126-7.632c-0.056-18.572 11.496-40.97 27.35-53.276l13.126 7.632c-15.862 12.3-27.406 34.696-27.35 53.276z" fill="#DBE6FA" p-id="4282"></path><path d="M649.82 114.176l2.244 13.684-98.368 76.158c-9.56 7.438-16.432 20.844-16.404 31.976l0.374 262.778-13.256 7.652-0.374-262.778c-0.046-18.58 11.498-40.978 27.37-53.284l98.416-76.186z" fill="#CBDBF4" p-id="4283"></path><path d="M532.722 164.418l-4.06-15.342c0.522 1.982 1.9 3.76 4.126 5.046l4.058 15.34c-2.234-1.284-3.602-3.072-4.124-5.044z" fill="#457AEF" p-id="4284"></path><path d="M888.87 201.364l4.058 15.342c5.548 20.982-2.792 45.29-25.2 65.248l-4.05-15.34c22.408-19.96 30.74-44.266 25.192-65.25z" fill="#3A63DF" p-id="4285"></path><path d="M799.996 308.392l4.058 15.34-267.208-154.27-4.06-15.34 267.21 154.27z" fill="#457AEF" p-id="4286"></path><path d="M863.68 266.612l4.048 15.34-43.808 39.006-4.06-15.35 43.82-38.996z" fill="#3A63DF" p-id="4287"></path><path d="M819.86 305.618l4.06 15.332c-5.38 4.794-14.216 6.05-19.866 2.782l-4.06-15.34c5.652 3.258 14.486 2.01 19.866-2.784v0.01z" fill="#3A63DF" p-id="4288"></path><path d="M860.878 167.006c38.426 22.174 39.656 66.782 2.792 99.606L819.86 305.62c-5.382 4.784-14.216 6.04-19.866 2.774L532.788 154.12c-5.652-3.26-5.828-9.72-0.448-14.514l43.808-39.004c36.864-32.816 97.924-41.464 136.352-19.27l148.378 85.672z m-185.644 240.48l60.184-34.974c1.806-1.05 4.292-0.902 7.02 0.66l-60.184 34.986c-2.728-1.584-5.214-1.722-7.02-0.67z" fill="#4F91FF" p-id="4289"></path><path d="M749.336 396.53l-60.194 34.974c6.518-3.788 1.38-18.572-6.888-23.346l60.184-34.984c8.47 4.896 13.172 19.706 6.888 23.356h0.01z" fill="#457AEF" p-id="4290"></path><path d="M682.254 408.158c5.4 3.108 9.794 10.732 9.774 16.998-0.02 6.264-4.45 8.796-9.84 5.678-5.4-3.12-9.858-10.77-9.84-17.036 0.02-6.264 4.506-8.76 9.906-5.64z" fill="#3A63DF" p-id="4291"></path><path d="M447.06 277.02l60.182-34.974c1.806-1.052 4.292-0.904 7.02 0.67l-60.184 34.974c-2.726-1.574-5.212-1.712-7.02-0.67z" fill="#4F91FF" p-id="4292"></path><path d="M521.16 266.054l-60.192 34.984c1.768-1.024 2.886-3.22 2.886-6.34 0.018-6.266-4.376-13.89-9.776-17.008l60.184-34.974c8.472 4.896 13.172 19.698 6.888 23.348l0.01-0.01z" fill="#457AEF" p-id="4293"></path><path d="M454.08 277.69c5.398 3.12 9.792 10.742 9.774 17.008-0.02 6.266-4.45 8.788-9.84 5.68-5.4-3.13-9.86-10.78-9.84-17.046 0.02-6.266 4.506-8.752 9.904-5.64z" fill="#3A63DF" p-id="4294"></path><path d="M583.912 155.312c-5.852-3.38-6.68-11.5-1.628-15.992l20.5-18.246c29.136-25.944 76.11-30.786 102.9-15.314l47.068 27.174c10.808 6.236 17.072 14.876 18.106 24.966 1.256 12.316-5.436 25.974-18.358 37.488l-33.67 29.976a9.914 9.914 0 0 1-11.544 1.172l-123.374-71.224z" fill="#4F575F" p-id="4295"></path><path d="M773.688 198.944l-0.772-2.95c0.148 0.586 0.558 1.116 1.21 1.49l0.78 2.95a2.466 2.466 0 0 1-1.208-1.49h-0.01z m29.026-8.164l0.78 2.96c0.234 0.894-0.12 1.928-1.05 2.766l-0.782-2.96c0.93-0.84 1.284-1.862 1.052-2.766z" fill="#DBE6FA" p-id="4296"></path><path d="M785.148 203.85l0.78 2.952-11.02-6.368-0.782-2.95 11.02 6.366z m16.514-10.304l0.78 2.96-10.676 9.494-0.78-2.95 10.676-9.504z" fill="#DBE6FA" p-id="4297"></path><path d="M790.984 203.05l0.782 2.96c-1.554 1.378-4.17 1.75-5.836 0.792l-0.782-2.952c1.666 0.96 4.28 0.586 5.836-0.8z" fill="#DBE6FA" p-id="4298"></path><path d="M801.494 189.292c1.666 0.958 1.714 2.884 0.168 4.254l-10.678 9.504c-1.554 1.386-4.17 1.76-5.836 0.8l-11.022-6.366c-1.658-0.96-1.714-2.878-0.16-4.256l10.67-9.504c1.554-1.378 4.18-1.75 5.836-0.792l11.022 6.36z" fill="#FFFFFF" p-id="4299"></path><path d="M798.682 213.392l-0.78-2.95c0.18 0.62 0.602 1.14 1.172 1.442l0.78 2.96a2.392 2.392 0 0 1-1.172-1.452z m28.99-8.22l0.78 2.96c0.234 0.894-0.12 1.936-1.06 2.774l-0.782-2.95c0.95-0.838 1.304-1.88 1.06-2.774v-0.01z" fill="#DBE6FA" p-id="4300"></path><path d="M810.152 218.28l0.772 2.95-11.068-6.386-0.782-2.96 11.078 6.396z m16.46-10.324l0.78 2.95-10.678 9.506-0.78-2.952 10.676-9.504z" fill="#DBE6FA" p-id="4301"></path><path d="M815.94 217.46l0.774 2.952c-1.544 1.378-4.17 1.75-5.79 0.82l-0.772-2.952c1.61 0.93 4.236 0.56 5.78-0.82h0.01z" fill="#DBE6FA" p-id="4302"></path><path d="M826.5 203.73c1.608 0.93 1.664 2.848 0.11 4.226l-10.678 9.494c-1.544 1.398-4.17 1.77-5.78 0.83l-11.08-6.396c-1.608-0.93-1.664-2.84-0.11-4.226l10.678-9.496c1.544-1.396 4.17-1.76 5.78-0.828l11.08 6.396z" fill="#FFFFFF" p-id="4303"></path><path d="M823.64 227.784l-0.78-2.95c0.156 0.586 0.556 1.116 1.208 1.488l0.792 2.952a2.466 2.466 0 0 1-1.21-1.49h-0.01z m29.026-8.182l0.782 2.96c0.232 0.894-0.112 1.936-1.06 2.774l-0.782-2.952c0.948-0.836 1.302-1.88 1.06-2.774v-0.008z" fill="#DBE6FA" p-id="4304"></path><path d="M835.146 232.708l0.782 2.96-11.078-6.394-0.772-2.952 11.068 6.386z m16.46-10.314l0.78 2.94-10.676 9.506-0.782-2.95 10.678-9.496z" fill="#DBE6FA" p-id="4305"></path><path d="M840.928 231.89l0.78 2.95c-1.544 1.388-4.17 1.76-5.78 0.828l-0.78-2.96c1.608 0.932 4.234 0.56 5.78-0.82z" fill="#DBE6FA" p-id="4306"></path><path d="M851.494 218.16c1.61 0.93 1.666 2.848 0.11 4.224l-10.676 9.506c-1.546 1.386-4.172 1.75-5.78 0.82l-11.08-6.388c-1.656-0.96-1.702-2.876-0.158-4.254l10.678-9.504c1.554-1.378 4.17-1.75 5.836-0.792l11.07 6.386z" fill="#FFFFFF" p-id="4307"></path><path d="M751.392 218.764l-0.78-2.952c0.156 0.596 0.566 1.118 1.228 1.508l0.78 2.952a2.494 2.494 0 0 1-1.228-1.5v-0.008z m29.036-8.146l0.772 2.952c0.242 0.902-0.12 1.954-1.09 2.81l-0.78-2.95c0.968-0.866 1.33-1.908 1.098-2.812z" fill="#DBE6FA" p-id="4308"></path><path d="M762.87 223.688l0.782 2.952-11.03-6.368-0.782-2.952 11.03 6.368z m16.46-10.26l0.78 2.952-10.63 9.468-0.78-2.96 10.63-9.46z" fill="#DBE6FA" p-id="4309"></path><path d="M768.7 222.888l0.78 2.96c-1.592 1.414-4.17 1.75-5.828 0.792l-0.78-2.952c1.656 0.96 4.234 0.624 5.826-0.8z" fill="#DBE6FA" p-id="4310"></path><path d="M779.218 209.128c1.656 0.96 1.712 2.886 0.112 4.3l-10.632 9.46c-1.592 1.424-4.17 1.76-5.828 0.8l-11.03-6.368c-1.658-0.96-1.75-2.84-0.16-4.254l10.632-9.466c1.592-1.416 4.218-1.788 5.874-0.84l11.032 6.368z" fill="#FFFFFF" p-id="4311"></path><path d="M776.38 233.212l-0.774-2.952c0.182 0.628 0.612 1.156 1.192 1.46l0.78 2.962a2.42 2.42 0 0 1-1.19-1.47h-0.01z m28.996-8.212l0.782 2.96c0.242 0.904-0.12 1.956-1.09 2.82l-0.78-2.95c0.966-0.866 1.33-1.926 1.088-2.82v-0.01z" fill="#DBE6FA" p-id="4312"></path><path d="M787.866 238.118l0.78 2.95-11.076-6.386-0.772-2.96 11.068 6.396z m16.42-10.288l0.782 2.952-10.64 9.468-0.772-2.952 10.63-9.468z" fill="#DBE6FA" p-id="4313"></path><path d="M793.656 237.288l0.772 2.96c-1.582 1.426-4.17 1.752-5.78 0.82l-0.782-2.95c1.61 0.93 4.188 0.596 5.79-0.82v-0.01z" fill="#DBE6FA" p-id="4314"></path><path d="M804.212 223.568c1.61 0.93 1.666 2.848 0.074 4.262l-10.63 9.468c-1.6 1.414-4.18 1.75-5.79 0.82l-11.08-6.396c-1.608-0.932-1.7-2.802-0.11-4.226l10.632-9.468c1.6-1.414 4.216-1.788 5.836-0.856l11.068 6.396z" fill="#FFFFFF" p-id="4315"></path><path d="M801.346 247.612l-0.782-2.96c0.148 0.596 0.558 1.118 1.228 1.508l0.782 2.952a2.494 2.494 0 0 1-1.228-1.5z m29.024-8.172l0.792 2.95c0.232 0.904-0.12 1.956-1.1 2.83l-0.78-2.96c0.978-0.866 1.33-1.918 1.1-2.82h-0.012zM812.87 252.556l0.772 2.95-11.068-6.394-0.782-2.952 11.078 6.396z m16.412-10.296l0.78 2.96-10.63 9.46-0.78-2.952 10.63-9.468z" fill="#DBE6FA" p-id="4316"></path><path d="M818.64 251.728l0.792 2.95c-1.6 1.424-4.17 1.76-5.79 0.828l-0.78-2.96c1.62 0.932 4.188 0.606 5.788-0.82h-0.008z" fill="#DBE6FA" p-id="4317"></path><path d="M829.208 237.996c1.62 0.932 1.674 2.848 0.074 4.264l-10.632 9.468c-1.592 1.424-4.17 1.75-5.79 0.82l-11.068-6.388c-1.658-0.96-1.76-2.84-0.16-4.254l10.632-9.468c1.592-1.424 4.218-1.786 5.874-0.838l11.07 6.396z" fill="#FFFFFF" p-id="4318"></path><path d="M729.088 238.658l-0.782-2.952c0.148 0.586 0.56 1.118 1.21 1.49l0.782 2.95a2.468 2.468 0 0 1-1.21-1.488z m29.016-8.164l0.782 2.96c0.234 0.894-0.12 1.926-1.052 2.764l-0.78-2.95c0.93-0.84 1.284-1.872 1.05-2.766v-0.008z m-17.566 13.07l0.782 2.95-11.02-6.368-0.784-2.95 11.022 6.368zM757.052 233.268l0.782 2.95-10.678 9.496-0.78-2.942 10.676-9.504zM746.376 242.772l0.78 2.95c-1.554 1.38-4.18 1.75-5.836 0.792l-0.78-2.95c1.664 0.958 4.28 0.586 5.836-0.792z" fill="#DBE6FA" p-id="4319"></path><path d="M756.884 229.004c1.668 0.96 1.714 2.886 0.168 4.264l-10.678 9.494c-1.554 1.388-4.17 1.76-5.836 0.8l-11.02-6.366c-1.66-0.96-1.714-2.876-0.16-4.254l10.668-9.506c1.554-1.376 4.18-1.75 5.836-0.79l11.022 6.358z" fill="#FFFFFF" p-id="4320"></path><path d="M754.074 253.104l-0.782-2.95c0.178 0.622 0.6 1.146 1.172 1.452l0.782 2.952a2.392 2.392 0 0 1-1.172-1.454z m28.988-8.21l0.782 2.952c0.232 0.892-0.12 1.936-1.06 2.774l-0.784-2.952c0.95-0.838 1.304-1.88 1.062-2.774z" fill="#DBE6FA" p-id="4321"></path><path d="M765.542 257.992l0.774 2.952-11.07-6.386-0.78-2.952 11.076 6.386z m16.46-10.324l0.78 2.952-10.676 9.504-0.782-2.952 10.676-9.504z" fill="#DBE6FA" p-id="4322"></path><path d="M771.324 257.172l0.78 2.952c-1.554 1.386-4.17 1.75-5.788 0.82l-0.774-2.952c1.61 0.932 4.236 0.56 5.78-0.82z" fill="#DBE6FA" p-id="4323"></path><path d="M781.89 243.432c1.61 0.94 1.666 2.86 0.11 4.236l-10.676 9.506c-1.546 1.376-4.172 1.75-5.78 0.82l-11.08-6.388c-1.61-0.93-1.666-2.848-0.112-4.236l10.68-9.494c1.544-1.388 4.168-1.76 5.78-0.83l11.078 6.386z" fill="#FFFFFF" p-id="4324"></path><path d="M779.032 267.496l-0.782-2.95c0.158 0.586 0.558 1.116 1.21 1.49l0.79 2.95a2.468 2.468 0 0 1-1.21-1.49h-0.008z m29.026-8.172l0.78 2.95c0.234 0.904-0.11 1.936-1.06 2.784l-0.782-2.96c0.95-0.84 1.304-1.88 1.06-2.774z" fill="#DBE6FA" p-id="4325"></path><path d="M790.528 272.42l0.792 2.96-11.08-6.394-0.772-2.95 11.06 6.386z m16.478-10.322l0.772 2.96-10.678 9.496-0.78-2.952 10.686-9.504z" fill="#DBE6FA" p-id="4326"></path><path d="M796.32 271.602l0.78 2.96c-1.546 1.378-4.17 1.75-5.78 0.82l-0.782-2.96c1.61 0.93 4.234 0.558 5.78-0.82z" fill="#DBE6FA" p-id="4327"></path><path d="M806.884 257.872c1.61 0.93 1.666 2.848 0.112 4.226l-10.678 9.504c-1.546 1.386-4.17 1.76-5.78 0.82l-11.08-6.386c-1.656-0.96-1.702-2.878-0.156-4.256l10.676-9.504c1.556-1.378 4.172-1.75 5.838-0.79l11.068 6.386z" fill="#FFFFFF" p-id="4328"></path><path d="M927.52 565.854l6.564 3.816c-3.5-2.04-8.36-1.74-13.722 1.36l-6.564-3.818c5.364-3.09 10.222-3.398 13.722-1.36z" fill="#2A3134" p-id="4329"></path><path d="M906.8 616.616l-6.564-3.818c-3.464-2.01-5.614-6.292-5.624-12.334-0.036-12.288 8.556-27.108 19.186-33.252l6.564 3.816c-10.632 6.144-19.224 20.946-19.196 33.244 0.02 6.05 2.17 10.332 5.632 12.344z" fill="#2A3134" p-id="4330"></path><path d="M906.63151 616.002877a15.724 27.146 30.13 1 0 27.252611-46.956538 15.724 27.146 30.13 1 0-27.252611 46.956538Z" fill="#3D4449" p-id="4331"></path><path d="M405.82 863.064l4.264 2.486c-2.28-1.332-5.436-1.136-8.928 0.884l-4.262-2.486c3.48-2.01 6.646-2.206 8.926-0.884zM392.332 896.094l-4.274-2.478c-2.252-1.302-3.648-4.096-3.658-8.032-0.028-7.998 5.568-17.632 12.494-21.636l4.262 2.486c-6.916 4.004-12.51 13.64-12.492 21.634 0.02 3.94 1.414 6.72 3.668 8.026z" fill="#2A3134" p-id="4332"></path><path d="M392.504815 895.555358a10.23 17.668 30.13 1 0 17.737388-30.561707 10.23 17.668 30.13 1 0-17.737388 30.561707Z" fill="#3D4449" p-id="4333"></path><path d="M570.918 767.748l4.262 2.476c-2.28-1.32-5.436-1.116-8.926 0.886l-4.264-2.478c3.48-2.01 6.646-2.214 8.928-0.884z m-13.49 33.03l-4.272-2.486c-2.254-1.304-3.65-4.096-3.66-8.024-0.026-8.006 5.568-17.64 12.494-21.636l4.264 2.478c-6.918 4.002-12.512 13.636-12.494 21.642 0.02 3.93 1.416 6.712 3.668 8.026z" fill="#2A3134" p-id="4334"></path><path d="M557.483812 800.215088a10.23 17.668 30.13 1 0 17.737387-30.561707 10.23 17.668 30.13 1 0-17.737387 30.561707Z" fill="#3D4449" p-id="4335"></path></svg>