<?xml version="1.0" standalone="no"?><!DOCTYPE svg PUBLIC "-//W3C//DTD SVG 1.1//EN" "http://www.w3.org/Graphics/SVG/1.1/DTD/svg11.dtd"><svg t="1765990479969" class="icon" viewBox="0 0 1024 1024" version="1.1" xmlns="http://www.w3.org/2000/svg" p-id="30735" xmlns:xlink="http://www.w3.org/1999/xlink" width="128" height="128"><path d="M625.14 240.47l-67.89 67.88-181.01 181.02-147.08 147.08-22.63 181.02 181.02-22.63 147.08-147.08 248.9-248.9z" fill="#F7CD68" p-id="30736"></path><path d="M817.47 364.92l-33.94 33.94-22.63-22.63 33.94-33.94c39.82-39.82 43.22-102.5 10.41-146.17 4.3 2.94 8.37 6.56 12.22 10.41 43.67 43.67 43.67 114.72 0 158.39z" fill="#C96151" p-id="30737"></path><path d="M794.84 342.29l-33.94 33.94-135.76-135.76 33.94-33.94c39.82-39.82 102.5-43.22 146.17-10.41 32.81 43.67 29.42 106.35-10.41 146.17z" fill="#DF7867" p-id="30738"></path><path d="M659.08 206.53l-33.94 33.94 22.63 22.63 33.94-33.94c39.82-39.82 102.5-43.22 146.17-10.41-2.94-4.3-6.56-8.37-10.41-12.22-43.67-43.67-114.72-43.67-158.39 0z" fill="#EB9789" p-id="30739"></path><path d="M591.197 274.406l22.627 22.627-345.2 345.2-22.627-22.628z" fill="#F6D499" p-id="30740"></path><path d="M805.25 196.12c-43.67-32.81-106.35-29.42-146.17 10.41 43.67-43.67 92.09-66.3 135.76-22.63 3.85 3.85 7.47 7.92 10.41 12.22z" fill="#DF7867" p-id="30741"></path><path d="M466.75 398.86l-45.26 45.26" fill="#F7CD68" p-id="30742"></path><path d="M421.48 460.12c-4.09 0-8.19-1.56-11.31-4.69-6.25-6.25-6.25-16.38 0-22.62l45.27-45.27c6.25-6.25 16.38-6.25 22.62 0s6.25 16.38 0 22.62l-45.27 45.27a15.905 15.905 0 0 1-11.31 4.69z" fill="#353D42" p-id="30743"></path><path d="M760.894 376.23l11.314 11.314-399.49 399.49-11.314-11.313z" fill="#E7B03C" p-id="30744"></path><path d="M383.05 789.02l-165.21 17.14 19.74-162.61z" fill="#E1C698" p-id="30745"></path><path d="M361.41 775.73L224.6 799.4l12.98-155.85z" fill="#F6D499" p-id="30746"></path><path d="M387.55 810.84c-4.09 0-8.19-1.56-11.31-4.69-6.25-6.25-6.25-16.38 0-22.62l429.92-429.92c18.12-18.14 28.12-42.23 28.12-67.89 0-25.64-10-49.73-28.12-67.88-36.28-36.27-99.5-36.23-135.75 0L517.66 370.58c-6.25 6.25-16.38 6.25-22.62 0s-6.25-16.38 0-22.62l152.75-152.73c24.16-24.17 56.31-37.48 90.5-37.48s66.31 13.31 90.5 37.48 37.5 56.31 37.5 90.5c0 34.2-13.31 66.34-37.5 90.52L398.86 806.16a15.97 15.97 0 0 1-11.31 4.68z" fill="#353D42" p-id="30747"></path><path d="M215.67 832.25c-6.31 0-12.34-2.47-16.89-7.03-5.28-5.28-7.78-12.56-6.84-19.97l19.98-159.88c1.3-10.53 6.16-20.47 13.69-28L370.58 472.4c6.25-6.25 16.38-6.25 22.62 0s6.25 16.38 0 22.62L248.23 640c-2.5 2.5-4.12 5.81-4.56 9.31l-18.7 149.72 160.59-20.06c8.8-1.28 16.77 5.12 17.86 13.91 1.09 8.75-5.12 16.75-13.89 17.84l-170.81 21.34c-1.02 0.13-2.05 0.19-3.05 0.19z" fill="#353D42" p-id="30748"></path><path d="M647.763 240.465l135.764 135.763-45.255 45.254L602.51 285.72z" fill="#C7C7C7" p-id="30749"></path><path d="M772.207 364.914l11.313 11.313-45.254 45.255-11.314-11.314z" fill="#9AA6AE" p-id="30750"></path><path d="M647.756 240.466l11.313 11.313-45.254 45.255L602.5 285.72z" fill="#E6E6E6" p-id="30751"></path><path d="M219.15 807.46V762.2l45.25 45.26z" fill="#353D42" p-id="30752"></path><path d="M437.7 503.98c-2.05 0-4.09-0.78-5.66-2.34-3.12-3.12-3.12-8.19 0-11.31L535.58 386.8c3.12-3.12 8.2-3.12 11.33 0 3.09 3.12 3.09 8.19 0 11.31L443.36 501.64a7.98 7.98 0 0 1-5.66 2.34zM569 372.69a7.98 7.98 0 0 1-5.66-2.34c-3.12-3.12-3.12-8.19 0-11.31l22.31-22.3c3.16-3.16 8.22-3.09 11.31 0 3.12 3.12 3.12 8.19 0 11.31l-22.31 22.3a7.99 7.99 0 0 1-5.65 2.34z" fill="#F3F3F3" p-id="30753"></path><path d="M327.09 735.53c-4.09 0-8.19-1.56-11.31-4.69l-90.52-90.5c-6.25-6.25-6.25-16.38 0-22.62s16.38-6.25 22.62 0l90.52 90.5c6.25 6.25 6.25 16.38 0 22.62a15.905 15.905 0 0 1-11.31 4.69zM394.97 803.41c-4.09 0-8.19-1.56-11.31-4.69l-33.94-33.94c-6.25-6.25-6.25-16.38 0-22.62s16.38-6.25 22.62 0l33.94 33.94c6.25 6.25 6.25 16.38 0 22.62a15.964 15.964 0 0 1-11.31 4.69zM794.84 403.55c-4.09 0-8.19-1.56-11.31-4.69L625.12 240.47c-6.25-6.25-6.25-16.38 0-22.62s16.38-6.25 22.62 0l158.41 158.39c6.25 6.25 6.25 16.38 0 22.62a15.947 15.947 0 0 1-11.31 4.69z" fill="#353D42" p-id="30754"></path><path d="M738.28 460.12c-4.09 0-8.19-1.56-11.31-4.69l-158.41-158.4c-6.25-6.25-6.25-16.38 0-22.62s16.38-6.25 22.62 0l158.41 158.41c6.25 6.25 6.25 16.38 0 22.62a15.936 15.936 0 0 1-11.31 4.68z" fill="#353D42" p-id="30755"></path></svg>