<?xml version="1.0" standalone="no"?><!DOCTYPE svg PUBLIC "-//W3C//DTD SVG 1.1//EN" "http://www.w3.org/Graphics/SVG/1.1/DTD/svg11.dtd"><svg t="1765987906187" class="icon" viewBox="0 0 1024 1024" version="1.1" xmlns="http://www.w3.org/2000/svg" p-id="28032" xmlns:xlink="http://www.w3.org/1999/xlink" width="128" height="128"><path d="M976 740l-24 14-526-312L26 672.86 58 692l30-16 196-110 510 300-28 16-166 96 30 18 166-98 32-20 190-114z m-192-20l28-16 44 28-28 16z m114 72l-44-28 28-16 44 26z" opacity=".2" p-id="28033"></path><path d="M26 488l574 336 184-104 14-8-32-20v-26L274 380l-30 18-32-16L26 488z" fill="#FFE571" p-id="28034"></path><path d="M212 90l32-18 30 18-30 18-32-18z" fill="#FFE08C" p-id="28035"></path><path d="M244 108v290l30-18V90l-30 18z" fill="#D67240" p-id="28036"></path><path d="M766 402l32-18 30 18-30 18-32-18z" fill="#FFE08C" p-id="28037"></path><path d="M58 558v134l30-16V574l-30-16z" fill="#D67240" p-id="28038"></path><path d="M796 764v134l-30-16V780l30-16z" fill="#FFB230" p-id="28039"></path><path d="M798 420v292l-14 8-184 104v190l30-18V858l136-78 30-16v134l32-20V402l-30 18z" fill="#D67240" p-id="28040"></path><path d="M244 150l30-16 492 286v34L244 150z" fill="#FFE571" p-id="28041"></path><path d="M334 444l24-14V248l-24-14v210z m86 50l24-14V298l-24-14v210z m86 50l24-14V350l-24-14v208z m90 52l24-14V402l-24-14v208z m96 56l24-14V460l-24-14v206z" fill="#D67240" p-id="28042"></path><path d="M26 488v184.86L58 692V558l30 16 482 287.14V994l30 20V824L26 488z m740-86v52L244 150v-42l-32-18v292l32 16V184l66 36v210l24 14V234l24 14 38 22v210l24 14V284l24 14 38 24v208l24 14V336l24 14 42 24v208l24 14V388l24 14 48 30v206l24 14V446l24 14 50 30v202l32 20V420l-32-18z" fill="#FFB230" p-id="28043"></path><path d="M90 488l140-78 514 292-148 82L90 488z" fill="#FF5542" p-id="28044"></path></svg>