<?xml version="1.0" standalone="no"?><!DOCTYPE svg PUBLIC "-//W3C//DTD SVG 1.1//EN" "http://www.w3.org/Graphics/SVG/1.1/DTD/svg11.dtd"><svg t="1765880477573" class="icon" viewBox="0 0 2864 1024" version="1.1" xmlns="http://www.w3.org/2000/svg" p-id="54582" xmlns:xlink="http://www.w3.org/1999/xlink" width="358" height="128"><path d="M208.670136 251.019579h2444.974474V605.581165H208.670136z" fill="#FFFFFF" p-id="54583"></path><path d="M261.265923 960.52342a63.444857 63.444857 0 0 1-63.444857 63.444858H155.535068a63.444857 63.444857 0 0 1-63.444857-63.444858V203.721437a63.444857 63.444857 0 0 1 63.444857-63.444857h42.285998a63.444857 63.444857 0 0 1 63.444857 63.444857v756.801983z" fill="#68A6DA" p-id="54584"></path><path d="M200.454027 942.790582c0 14.084758-10.658736 25.47311-23.791821 25.473111s-23.791822-11.420074-23.791822-25.473111V238.013383c0-14.053036 10.658736-25.47311 23.791822-25.47311s23.791822 11.420074 23.791821 25.47311V942.790582z" fill="#FFFFFF" p-id="54585"></path><path d="M2763.435936 960.52342a63.444857 63.444857 0 0 1-63.444858 63.444858H2657.705081a63.444857 63.444857 0 0 1-63.444858-63.444858V203.721437a63.444857 63.444857 0 0 1 63.444858-63.444857h42.285997a63.444857 63.444857 0 0 1 63.444858 63.444857v756.801983z" fill="#68A6DA" p-id="54586"></path><path d="M2702.62404 942.790582c0 14.084758-10.658736 25.47311-23.791822 25.473111s-23.791822-11.420074-23.791821-25.473111V238.013383c0-14.053036 10.658736-25.47311 23.791821-25.47311s23.791822 11.420074 23.791822 25.47311V942.790582z" fill="#FFFFFF" p-id="54587"></path><path d="M2864.027757 251.019579H0v-196.04461C0 24.616605 19.382404 0 43.301115 0H2820.758364c23.918711 0 43.301115 24.616605 43.301116 54.974969v196.04461z" fill="#68A6DA" p-id="54588"></path><path d="M2795.158364 191.540025H68.869393V80.06741c0-17.257001 18.462454-31.278315 41.207435-31.278315h2643.874101c22.744981 0 41.207435 13.989591 41.207435 31.278315v111.472615z" fill="#FFFFFF" p-id="54589"></path><path d="M205.815118 605.581165h2447.797769v61.795291H205.815118z" fill="#68A6DA" p-id="54590"></path><path d="M762.924411 428.284511m-46.600247 0a46.600248 46.600248 0 1 0 93.200495 0 46.600248 46.600248 0 1 0-93.200495 0Z" fill="#68A6DA" p-id="54591"></path><path d="M1983.2228 428.284511m-46.600247 0a46.600248 46.600248 0 1 0 93.200495 0 46.600248 46.600248 0 1 0-93.200495 0Z" fill="#68A6DA" p-id="54592"></path><path d="M1397.02404 251.019579h61.478067V605.581165h-61.478067z" fill="#68A6DA" p-id="54593"></path></svg>