<?xml version="1.0" standalone="no"?><!DOCTYPE svg PUBLIC "-//W3C//DTD SVG 1.1//EN" "http://www.w3.org/Graphics/SVG/1.1/DTD/svg11.dtd"><svg t="1765879793417" class="icon" viewBox="0 0 1024 1024" version="1.1" xmlns="http://www.w3.org/2000/svg" p-id="46953" xmlns:xlink="http://www.w3.org/1999/xlink" width="128" height="128"><path d="M214.169935 438.379085l595.66013 200.115033v307.2c0 31.456209-25.43268 56.888889-56.888889 56.888889H271.058824c-31.456209 0-56.888889-25.43268-56.888889-56.888889V438.379085z" fill="#F76B84" p-id="46954"></path><path d="M752.941176 1019.315033H271.058824c-40.826144 0-73.620915-32.794771-73.620916-73.620915V414.954248l629.124184 211.492811v319.247059c0 40.826144-32.794771 73.620915-73.620916 73.620915zM230.901961 461.803922v484.559477c0 22.086275 18.070588 40.156863 40.156863 40.156862h481.882352c22.086275 0 40.156863-18.070588 40.156863-40.156862V650.541176L230.901961 461.803922z" fill="#1E1E1E" p-id="46955"></path><path d="M645.856209 742.901961m-26.771242 0a26.771242 26.771242 0 1 0 53.542484 0 26.771242 26.771242 0 1 0-53.542484 0Z" fill="#2D2D2E" p-id="46956"></path><path d="M621.762092 829.908497h61.573856c8.700654 0 16.062745-6.023529 16.062745-13.385621s-7.362092-13.385621-16.062745-13.385621h-61.573856c-8.700654 0-16.062745 6.023529-16.062746 13.385621s7.362092 13.385621 16.062746 13.385621z" fill="#F52854" p-id="46957"></path><path d="M391.529412 742.901961m-26.771242 0a26.771242 26.771242 0 1 0 53.542484 0 26.771242 26.771242 0 1 0-53.542484 0Z" fill="#2D2D2E" p-id="46958"></path><path d="M347.356863 829.908497h61.573856c8.700654 0 16.062745-6.023529 16.062745-13.385621s-7.362092-13.385621-16.062745-13.385621h-61.573856c-8.700654 0-16.062745 6.023529-16.062745 13.385621s7.362092 13.385621 16.062745 13.385621z" fill="#F52854" p-id="46959"></path><path d="M548.810458 816.522876c24.094118 0 43.503268-20.078431 43.503267-44.172549 0-8.700654-6.69281-16.062745-15.393464-16.062745-8.700654 0-15.393464 7.362092-15.393464 16.062745 0 6.69281-5.354248 12.71634-12.716339 12.71634-6.69281 0-12.71634-5.354248-12.71634-12.71634 0-8.700654-6.69281-16.062745-15.393464-16.062745-8.700654 0-15.393464 7.362092-15.393464 16.062745 0 24.094118 19.40915 44.172549 43.503268 44.172549z" fill="#2D2D2E" p-id="46960"></path><path d="M495.267974 816.522876c24.094118 0 43.503268-20.078431 43.503268-44.172549 0-8.700654-6.69281-16.062745-15.393464-16.062745-8.700654 0-15.393464 7.362092-15.393464 16.062745 0 6.69281-5.354248 12.71634-12.71634 12.71634-6.69281 0-12.71634-5.354248-12.71634-12.71634 0-8.700654-6.69281-16.062745-15.393464-16.062745-8.700654 0-15.393464 7.362092-15.393464 16.062745 0 24.094118 19.40915 44.172549 43.503268 44.172549z" fill="#2D2D2E" p-id="46961"></path><path d="M809.830065 73.620915c0-31.456209-25.43268-56.888889-56.888889-56.888889H271.058824c-31.456209 0-56.888889 25.43268-56.888889 56.888889v366.766013l595.66013 143.226144V73.620915z" fill="#D1B1A2" p-id="46962"></path><path d="M826.562092 605.030065L197.437908 453.772549V73.620915c0-40.826144 32.794771-73.620915 73.620916-73.620915h481.882352c40.826144 0 73.620915 32.794771 73.620916 73.620915v531.40915zM230.901961 427.670588l562.196078 135.194771V73.620915c0-22.086275-18.070588-40.156863-40.156863-40.156863H271.058824c-22.086275 0-40.156863 18.070588-40.156863 40.156863v354.049673z" fill="#1E1E1E" p-id="46963"></path><path d="M445.071895 344.679739c16.732026 0 30.117647 13.385621 30.117647 30.117647v110.431372c0 3.346405-0.669281 6.023529-1.338562 8.700654-4.684967 16.062745-22.086275 24.763399-37.479738 19.40915l-127.163399-40.156863c-12.71634-4.015686-21.416993-15.393464-21.416993-28.779085V374.797386c0-16.732026 13.385621-30.117647 30.117647-30.117647h127.163398z" fill="#B68775" p-id="46964"></path><path d="M445.071895 532.078431c-4.684967 0-9.369935-0.669281-14.054902-2.007843l-127.163398-40.156863c-19.40915-6.023529-32.794771-24.094118-32.794771-44.84183V374.797386c0-26.101961 20.747712-46.849673 46.849673-46.849674h127.163398c26.101961 0 46.849673 20.747712 46.849674 46.849674v110.431372c0 4.684967-0.669281 9.369935-2.007844 14.054902-4.015686 12.047059-12.047059 21.416993-22.755555 27.440523-7.362092 3.346405-14.724183 5.354248-22.086275 5.354248zM317.908497 361.411765c-7.362092 0-13.385621 6.023529-13.385621 13.385621v70.274509c0 6.023529 4.015686 10.708497 9.369934 12.71634l127.163399 40.156863c3.346405 1.338562 7.362092 0.669281 10.039216-0.669281s5.354248-4.684967 6.69281-8.031373c0.669281-1.338562 0.669281-2.677124 0.669281-4.015686V374.797386c0-7.362092-6.023529-13.385621-13.385621-13.385621H317.908497z" fill="#1E1E1E" p-id="46965"></path><path d="M682.666667 90.352941h-93.699347c-26.101961 0-46.849673 20.747712-46.849673 46.849673v93.699347c0 26.101961 20.747712 46.849673 46.849673 46.849673h93.699347c26.101961 0 46.849673-20.747712 46.849673-46.849673v-93.699347c0-26.101961-20.747712-46.849673-46.849673-46.849673z" fill="#B68775" p-id="46966"></path><path d="M682.666667 294.48366h-93.699347c-34.802614 0-63.581699-28.779085-63.581699-63.581699v-93.699347c0-34.802614 28.779085-63.581699 63.581699-63.581699h93.699347c34.802614 0 63.581699 28.779085 63.581699 63.581699v93.699347c0 34.802614-28.779085 63.581699-63.581699 63.581699z m-93.699347-187.398693C572.235294 107.084967 558.849673 120.470588 558.849673 137.202614v93.699347c0 16.732026 13.385621 30.117647 30.117647 30.117647h93.699347c16.732026 0 30.117647-13.385621 30.117647-30.117647v-93.699347c0-16.732026-13.385621-30.117647-30.117647-30.117647h-93.699347z" fill="#1E1E1E" p-id="46967"></path><path d="M682.666667 344.679739h-93.699347c-26.101961 0-46.849673 20.747712-46.849673 46.849673v93.699346c0 26.101961 20.747712 46.849673 46.849673 46.849673h93.699347c26.101961 0 46.849673-20.747712 46.849673-46.849673v-93.699346c0-26.101961-20.747712-46.849673-46.849673-46.849673z" fill="#B68775" p-id="46968"></path><path d="M682.666667 548.810458h-93.699347c-34.802614 0-63.581699-28.779085-63.581699-63.5817v-93.699346c0-34.802614 28.779085-63.581699 63.581699-63.5817h93.699347c34.802614 0 63.581699 28.779085 63.581699 63.5817v93.699346c0 34.802614-28.779085 63.581699-63.581699 63.5817z m-93.699347-187.398693C572.235294 361.411765 558.849673 374.797386 558.849673 391.529412v93.699346c0 16.732026 13.385621 30.117647 30.117647 30.117647h93.699347c16.732026 0 30.117647-13.385621 30.117647-30.117647v-93.699346c0-16.732026-13.385621-30.117647-30.117647-30.117647h-93.699347z" fill="#1E1E1E" p-id="46969"></path><path d="M428.339869 90.352941h-93.699346c-26.101961 0-46.849673 20.747712-46.849673 46.849673v93.699347c0 26.101961 20.747712 46.849673 46.849673 46.849673h93.699346c26.101961 0 46.849673-20.747712 46.849673-46.849673v-93.699347c0-26.101961-20.747712-46.849673-46.849673-46.849673z" fill="#B68775" p-id="46970"></path><path d="M428.339869 294.48366h-93.699346c-34.802614 0-63.581699-28.779085-63.581699-63.581699v-93.699347c0-34.802614 28.779085-63.581699 63.581699-63.581699h93.699346c34.802614 0 63.581699 28.779085 63.5817 63.581699v93.699347c0 34.802614-28.779085 63.581699-63.5817 63.581699z m-93.699346-187.398693C317.908497 107.084967 304.522876 120.470588 304.522876 137.202614v93.699347c0 16.732026 13.385621 30.117647 30.117647 30.117647h93.699346c16.732026 0 30.117647-13.385621 30.117647-30.117647v-93.699347c0-16.732026-13.385621-30.117647-30.117647-30.117647h-93.699346z" fill="#1E1E1E" p-id="46971"></path><path d="M880.773856 596.329412L156.611765 402.237908c-14.054902-4.015686-28.779085 4.684967-32.794772 18.73987-4.015686 14.054902 4.684967 28.779085 18.73987 32.794771l724.162091 194.091503c14.054902 4.015686 28.779085-4.684967 32.794771-18.739869 4.015686-14.724183-4.684967-28.779085-18.739869-32.794771z" fill="#FFFFFF" p-id="46972"></path><path d="M873.411765 665.265359c-4.015686 0-7.362092-0.669281-11.377778-1.338562L138.541176 469.835294c-23.424837-6.023529-36.810458-30.117647-30.786928-53.542484 2.677124-11.377778 10.039216-20.747712 20.078432-26.10196 10.039216-6.023529 22.086275-7.362092 32.794771-4.015687l724.162091 194.091504c23.424837 6.023529 36.810458 30.117647 30.786929 53.542483-5.354248 18.739869-22.755556 31.456209-42.164706 31.456209zM149.918954 418.300654c-2.007843 0-3.346405 0.669281-4.684967 1.338562-2.007843 1.338562-4.015686 3.346405-4.684967 6.023529-1.338562 5.354248 2.007843 10.708497 7.362091 12.047059l724.162092 194.091503c5.354248 1.338562 10.708497-2.007843 12.047058-7.362091 1.338562-5.354248-2.007843-10.708497-7.362091-12.047059L151.926797 418.300654h-2.007843z" fill="#1E1E1E" p-id="46973"></path><path d="M411.607843 582.27451m-13.385621 0a13.385621 13.385621 0 1 0 26.771242 0 13.385621 13.385621 0 1 0-26.771242 0Z" fill="#2D2D2E" p-id="46974"></path><path d="M278.420915 656.564706c-9.369935 0-16.732026-7.362092-16.732026-16.732026V570.227451c-2.007843-16.062745 3.346405-25.43268 8.700653-30.117647 13.385621-12.047059 32.794771-6.69281 39.487582-5.354248 21.416993 5.354248 43.503268 11.377778 66.258824 18.070588 8.700654 2.677124 14.054902 12.047059 11.377777 20.747712-2.677124 8.700654-12.047059 14.054902-20.747712 11.377778-22.086275-6.69281-44.172549-12.71634-64.920261-18.070588-2.677124-0.669281-5.354248-1.338562-6.692811-1.338562v74.290196c0 9.369935-7.362092 16.732026-16.732026 16.732026z" fill="#1E1E1E" p-id="46975"></path></svg>