<?xml version="1.0" standalone="no"?><!DOCTYPE svg PUBLIC "-//W3C//DTD SVG 1.1//EN" "http://www.w3.org/Graphics/SVG/1.1/DTD/svg11.dtd"><svg t="1765879830049" class="icon" viewBox="0 0 1024 1024" version="1.1" xmlns="http://www.w3.org/2000/svg" p-id="51857" xmlns:xlink="http://www.w3.org/1999/xlink" width="128" height="128"><path d="M671.6 130.1c-5.1-16.2-22.5-24.9-38.3-19.3-209.8 74.7-374.7 222.1-476 405.2-0.9 1.6-1.5 3.2-2 4.8-1 1.8-2.1 3.4-3 5.2-8.2 14.8-2.8 58.7 12.1 66.6l78.8 41.4 584 277.4c23.5 12.4 49.8-10.1 41.7-35.5l-1.5-5.4c7.1-7.3 10.5-18.2 6.9-29.8L698.7 215.6l-27.1-85.5z" fill="#F6B545" p-id="51858"></path><path d="M643.1 109.1c12.6 0 24.4 8.2 28.5 21l27.2 85.4 175.5 625.1c3.7 11.6 0.2 22.5-6.9 29.8l1.5 5.4c6.5 20.5-9.3 39-27.9 39-4.5 0-9.2-1.1-13.8-3.5L243.1 634l-78.8-41.4c-14.9-7.9-20.3-51.8-12.1-66.6 1-1.8 2.1-3.4 3-5.2 0.6-1.6 1.2-3.3 2-4.8 101.3-183.1 266.2-330.5 476-405.2 3.3-1.1 6.6-1.7 9.9-1.7m0-36.1c-7.5 0-14.8 1.3-21.9 3.8-210.6 75-386.6 224.8-495.5 421.7-1.3 2.4-2.3 4.7-3.2 6.7-0.7 1.1-1.3 2.2-1.9 3.3-13.1 23.6-8 58.3-3 75.1 5.9 19.8 16 33.6 30 40.9l78.8 41.4c0.4 0.2 0.9 0.4 1.3 0.7l583.4 277.1c9.4 4.8 19.5 7.2 29.8 7.2 20.7 0 40.5-10.1 52.9-27.1 10.1-13.8 14.3-30.4 12.1-47 6.5-14.4 7.7-30.9 2.9-46.5L733.5 205.8c-0.1-0.4-0.2-0.8-0.4-1.2L706 119.2C697.2 91.6 671.9 73 643.1 73z" fill="#6B0A0C" p-id="51859"></path><path d="M666.4 165.3c-5.1-16.2-22.5-24.9-38.3-19.3-209.8 74.7-374.5 196.8-475.8 380-8.2 14.8-2.8 58.7 12.1 66.6l78.8 41.4 584 277.4c23.5 12.4 49.8-10.1 41.7-35.5L693.5 250.7l-27.1-85.4z" fill="#FFB657" p-id="51860"></path><path d="M698.9 215.5C496 280 338.8 421.8 248.6 598.8l584 277.4c23.5 12.4 49.8-10.1 41.7-35.5L698.9 215.5z" fill="#FFE27A" p-id="51861"></path><path d="M698.9 215.5l175.5 625.1c6.5 20.5-9.3 39-27.9 39-4.5 0-9.2-1.1-13.8-3.5l-584-277.4C338.8 421.8 496 280 698.9 215.5m12.3-22.8l-17.8 5.7c-200.9 63.9-364.6 203.2-460.9 392.2l-8.4 16.5 16.8 8 583.7 277.2c6.9 3.6 14.3 5.4 21.8 5.4 15 0 29.3-7.3 38.3-19.7 9-12.3 11.5-27.8 6.9-42.5L716.2 210.7l-5-18z" fill="#6B0A0C" p-id="51862"></path><path d="M169.8 557.3l78.8 41.4C338.8 421.8 496 280 698.9 215.5l-27.2-85.4c-5.1-16.2-22.5-24.9-38.3-19.3-209.8 74.7-374.7 222.1-476 405.2-8.2 14.7-2.5 33.5 12.4 41.3z" fill="#F19920" p-id="51863"></path><path d="M643.2 109.1c12.6 0 24.4 8.2 28.5 21l27.2 85.4C496 280 338.8 421.8 248.6 598.8l-78.8-41.4c-14.9-7.9-20.6-26.6-12.4-41.4 101.3-183.1 266.2-330.5 476-405.2 3.3-1.2 6.6-1.7 9.8-1.7m0-18.1c-5.4 0-10.7 0.9-15.8 2.7C421 167.2 248.4 314 141.6 507.2c-6.3 11.4-7.7 24.6-4 37.2 3.8 12.6 12.2 22.8 23.8 28.9l78.8 41.4c2.6 1.4 5.5 2.1 8.4 2.1 1.8 0 3.7-0.3 5.5-0.8 4.6-1.5 8.4-4.7 10.6-9 91.9-180.4 248-313.3 439.6-374.2 9.5-3 14.8-13.2 11.7-22.7l-27.2-85.4c-6.3-20.2-24.7-33.7-45.6-33.7z" fill="#6B0A0C" p-id="51864"></path><path d="M537.8 516.8c48.7-15.5 100.9 12 116.6 61.3 15.7 49.3-11.1 101.9-59.8 117.4-48.7 15.5-100.9-12-116.6-61.3-15.6-49.4 11.2-101.9 59.8-117.4z" fill="#FF5A78" p-id="51865"></path><path d="M537.8 525.8c48.7-15.5 100.9 12 116.6 61.3 15.7 49.3-11.1 101.9-59.8 117.4-48.7 15.5-100.9-12-116.6-61.3-15.6-49.3 11.2-101.9 59.8-117.4z" fill="#FF5A78" p-id="51866"></path><path d="M566.8 717.9c-16.2 0-32.2-3.9-47-11.7-24.1-12.7-42-34.1-50.3-60.2-17.2-54 12.3-111.7 65.6-128.7 53.4-16.9 110.7 13.2 127.9 67.2 17.2 54-12.3 111.7-65.6 128.7-10 3.1-20.3 4.7-30.6 4.7z m-26.2-183.5c-43.9 14-68.1 61.5-53.9 106 6.9 21.6 21.6 39.2 41.5 49.7 19.9 10.4 42.5 12.5 63.7 5.7 43.9-13.9 68-61.5 53.9-106-14.1-44.4-61.3-69.3-105.2-55.4z" fill="#6B0A0C" p-id="51867"></path><path d="M600.1 290.3c48.7-15.5 100.9 12 116.6 61.3 15.7 49.3-11.1 101.9-59.8 117.4-48.7 15.5-100.9-12-116.6-61.3-15.6-49.4 11.1-102 59.8-117.4z" fill="#FF5A78" p-id="51868"></path><path d="M600.1 299.3c48.7-15.5 100.9 12 116.6 61.3 15.7 49.3-11.1 101.9-59.8 117.4-48.7 15.5-100.9-12-116.6-61.3-15.6-49.4 11.1-101.9 59.8-117.4z" fill="#FF5A78" p-id="51869"></path><path d="M629.1 491.3c-16.2 0-32.2-3.9-47-11.7-24.1-12.7-42-34.1-50.3-60.2-8.3-26.1-6.1-53.9 6.3-78.2 12.4-24.3 33.5-42.3 59.3-50.5 53.3-16.9 110.7 13.2 127.9 67.2 17.2 54-12.3 111.7-65.6 128.7-10.1 3.1-20.4 4.7-30.6 4.7zM627.8 304c-8.3 0-16.6 1.3-24.9 3.9-21.2 6.8-38.5 21.5-48.7 41.5-10.2 20-12 43-5.2 64.5 6.9 21.6 21.6 39.2 41.5 49.7 19.9 10.4 42.5 12.5 63.7 5.7 43.9-13.9 68-61.5 53.9-106-11.5-36.1-44.8-59.3-80.3-59.3z" fill="#6B0A0C" p-id="51870"></path><path d="M369.4 523.6c7.2 22.6 31 35.1 53.3 28 22.3-7.1 34.5-31.1 27.3-53.7-7.2-22.6-31-35.1-53.3-28-22.3 7.2-34.5 31.2-27.3 53.7z m60.3-19.2c3.6 11.2-2.5 23.2-13.6 26.7s-22.9-2.7-26.5-13.9c-3.6-11.2 2.5-23.2 13.6-26.7s22.9 2.7 26.5 13.9zM699.2 602c7.2 22.6 31 35.1 53.3 28 22.3-7.1 34.5-31.1 27.3-53.6-7.2-22.6-31-35.1-53.3-28-22.2 7-34.4 31-27.3 53.6z m60.4-19.2c3.6 11.2-2.5 23.2-13.6 26.7s-22.9-2.7-26.5-13.9c-3.6-11.2 2.5-23.2 13.6-26.7s22.9 2.7 26.5 13.9z" fill="#6B0A0C" p-id="51871"></path><path d="M811 631.1c-49.2 13.7-77.8 65.3-63.8 115.1s65.2 79.1 114.4 65.4c1.5-0.4 2.7-1.1 4.1-1.6l-50.4-179.6c-1.4 0.3-2.9 0.3-4.3 0.7z" fill="#FF5A78" p-id="51872"></path><path d="M811 631.1c-49.2 13.7-77.8 65.3-63.8 115.1s65.2 79.1 114.4 65.4c1.5-0.4 2.7-1.1 4.1-1.6l-50.4-179.6c-1.4 0.3-2.9 0.3-4.3 0.7z" fill="#FF5A78" p-id="51873"></path><path d="M837 824c-44.6 0-85.8-29.9-98.5-75.3-7.4-26.4-4.2-54.1 9-77.9 13.2-23.9 34.9-41 61.1-48.3 1.2-0.3 2.5-0.5 3.7-0.7 0.4-0.1 0.7-0.1 1.1-0.2 4.6-1 9.4 1.7 10.7 6.4l50.4 179.6c1.3 4.6-1.3 9.5-5.8 11-0.4 0.1-0.7 0.3-1.1 0.4-1.1 0.5-2.3 1-3.5 1.3-9.1 2.5-18.2 3.7-27.1 3.7z m-28-182.8c-19.5 6.6-35.6 20.1-45.7 38.3-10.9 19.7-13.5 42.5-7.4 64.3 12.2 43.5 55.8 69.7 98.8 60.2L809 641.2z" fill="#6B0A0C" p-id="51874"></path></svg>