<?xml version="1.0" standalone="no"?><!DOCTYPE svg PUBLIC "-//W3C//DTD SVG 1.1//EN" "http://www.w3.org/Graphics/SVG/1.1/DTD/svg11.dtd"><svg t="1765988842976" class="icon" viewBox="0 0 1024 1024" version="1.1" xmlns="http://www.w3.org/2000/svg" p-id="1692" xmlns:xlink="http://www.w3.org/1999/xlink" width="128" height="128"><path d="M521.2 58.5c-54 0-105.13 9.15-152.08 27.19a383.57 383.57 0 0 0-104.24 60.24 368.43 368.43 0 0 0-67.46 71.32 162.55 162.55 0 0 0-49.67 16.45 198.17 198.17 0 0 0-57.64 45.43C55.85 317.9 36.2 368 36.2 416.5a196.79 196.79 0 0 0 54 136.35 207.82 207.82 0 0 0 55 41.66 205.43 205.43 0 0 0 36.22 14.8l44.76 206.2a172.61 172.61 0 0 0 168.68 136h234.22a172.61 172.61 0 0 0 168.68-136l40.58-187a169.51 169.51 0 0 0 65.41-23.37 171.63 171.63 0 0 0 59.5-62.85 196.9 196.9 0 0 0 24.53-93.41c0.37-33.71-7.79-65-23.58-90.49-21.51-34.72-50.57-60.67-84-75a155.56 155.56 0 0 0-23.56-8 430.35 430.35 0 0 0-66.43-97.33c-31.43-34.54-67.32-62.13-106.68-82-49.39-24.92-104-37.56-162.33-37.56z" fill="#4A4A4A" p-id="1693"></path><path d="M394.92 911.5h234.16A132.61 132.61 0 0 0 758.68 807L848 395.5H176L265.32 807a132.61 132.61 0 0 0 129.6 104.5z" fill="#00C3FF" p-id="1694"></path><path d="M399.31 395.5H176L265.32 807a132.61 132.61 0 0 0 129.6 104.5h31.84z" fill="#3891FC" p-id="1695"></path><path d="M648.52 827.5a13.13 13.13 0 0 1-1.63-0.1 13 13 0 0 1-11.29-14.51l18-144a13 13 0 1 1 25.8 3.22l-18 144a13 13 0 0 1-12.88 11.39zM534.52 827.5h-1a13 13 0 0 1-12-13.92l11-149a13 13 0 0 1 25.93 1.91l-11 149a13 13 0 0 1-12.93 12.01z" fill="#14A5ED" p-id="1696"></path><path d="M521.2 98.5c-215 0-301 157-301 157-75 0-144 80-144 161 0 97 83.09 161 160 161 88 0 134-72 134-72s69.81 70 169.81 70c108.3 0 142.19-68 142.19-68s35 83 128 83c126 0 164-140 120-211-42.38-68.39-101.19-68-101.19-68s-79.81-213-307.81-213z" fill="#FFEB2A" p-id="1697"></path><path d="M930.2 379.5a177.52 177.52 0 0 0-14.2-19.83c-1.87 28.72-13.91 58.89-46.49 83.83-98 75-203-18-203-18s-39.83 30-144 30c-95 0-153-86-153-86s-42 56-118 26c-57.52-22.74-48.83-94.69-36.77-139.84C141.88 259.41 76.2 337.47 76.2 416.5c0 97 83.09 161 160 161 88 0 134-72 134-72s69.81 70 169.81 70c108.3 0 142.19-68 142.19-68s35 83 128 83c126 0 164-140 120-211z" fill="#FFC700" p-id="1698"></path><path d="M149.5 421.5c-36-116 71-166 71-166l-0.18-0.21-0.12 0.21c-75 0-144 80-144 161 0 97 83.09 161 160 161 85.64 0 131.5-68.18 133.89-71.84-9.17 3.63-173.88 66.34-220.59-84.16z" fill="#E291D3" p-id="1699"></path><path d="M111 515.87s3.36 4.07 5.11 6c31.3 35.2 76.67 55.59 120.08 55.59 85.64 0 131.5-68.18 133.89-71.84-6.09 2.4-80.59 30.79-143.7 5.74-2-0.78-5.89-2.51-5.89-2.51s-18.75 5.26-54.17 9a194.14 194.14 0 0 1-55.32-1.98z" fill="#C395FF" p-id="1700"></path><path d="M143.56 395.5s-0.7-5.4-0.93-8c-8.06-91.82 77.87-132 77.87-132l-0.18-0.21-0.12 0.21c-73 0-140.24 75.7-143.85 154.39-0.1 2.2-0.15 6.61-0.15 6.61z" fill="#FF9369" p-id="1701"></path><path d="M666.5 179.5c14 10 85 56 89 80s-4 68-44 32-72-64-88-84 29-38 43-28z" fill="#FFFFFF" p-id="1702"></path><path d="MNaN NaNmNaN NaNaNaN NaN NaN 1 0 NaN NaN NaN NaN NaN 1 0 NaN NaNZ" fill="#FFFFFF" p-id="1703"></path></svg>