<?xml version="1.0" standalone="no"?><!DOCTYPE svg PUBLIC "-//W3C//DTD SVG 1.1//EN" "http://www.w3.org/Graphics/SVG/1.1/DTD/svg11.dtd"><svg t="1765879600055" class="icon" viewBox="0 0 1030 1024" version="1.1" xmlns="http://www.w3.org/2000/svg" p-id="31915" xmlns:xlink="http://www.w3.org/1999/xlink" width="128.75" height="128"><path d="M153.979013 836.947117l200.876883-148.772572-40.321662-54.438233-200.876883 148.772571a33.865143 33.865143 0 1 0 40.321662 54.438234z" fill="#FCC79F" p-id="31916"></path><path d="M551.095784 464.66237m253.16233 91.818436a269.298701 269.298701 0 1 1-506.32466-183.636872 269.298701 269.298701 0 1 1 506.32466 183.636872Z" fill="#FF5A78" p-id="31917"></path><path d="M498.947325 200.438026c46.545455-9.242597 96.123013-6.290286 143.978389 11.071169a270.089974 270.089974 0 0 1 53.746702 26.530909c-58.614026 24.735584-107.160935 72.876883-130.56 137.402182a235.958857 235.958857 0 0 0-13.910442 93.263792C486.001039 405.876364 459.47013 307.50587 492.577247 216.223584c1.94826-5.385974 4.082701-10.638961 6.370078-15.785558z" fill="#FFADBC" p-id="31918"></path><path d="M603.328831 727.079896a268.101818 268.101818 0 0 1-143.97174-11.077818A270.482286 270.482286 0 0 1 405.61039 689.464519c58.620675-24.735584 107.160935-72.876883 130.566649-137.395532A235.918961 235.918961 0 0 0 550.087481 458.805195c66.194286 62.836364 92.725195 161.206857 59.611428 252.489143-1.94826 5.379325-4.076052 10.638961-6.370078 15.785558z" fill="#FFADBC" p-id="31919"></path><path d="M814.465662 411.561558a267.968831 267.968831 0 0 1-11.077818 143.971741 269.764156 269.764156 0 0 1-26.537558 53.746701c-24.728935-58.620675-72.870234-107.160935-137.395533-130.566649a235.945558 235.945558 0 0 0-93.257143-13.910442c62.836364-66.194286 161.200208-92.725195 252.482494-59.611428 5.379325 1.94826 10.638961 4.076052 15.785558 6.370077z" fill="#FFADBC" p-id="31920"></path><path d="M287.817143 515.949714a268.048623 268.048623 0 0 1 11.077818-143.985039 270.203013 270.203013 0 0 1 26.537558-53.746701c24.735584 58.620675 72.876883 107.167584 137.402182 130.566649a235.945558 235.945558 0 0 0 93.257143 13.910442c-62.836364 66.200935-161.206857 92.731844-252.489143 59.624727a240.374026 240.374026 0 0 1-15.785558-6.370078z" fill="#FFADBC" p-id="31921"></path><path d="M272.583481 360.926753c60.103481-165.701818 243.166753-251.318857 408.868571-191.215376 165.708468 60.103481 251.318857 243.160104 191.215377 408.868571-60.103481 165.708468-243.153455 251.312208-408.861923 191.215377a319.474701 319.474701 0 0 1-76.155012-39.869507l-200.305039 151.299325c-32.714805 24.702338-79.25361 18.219221-103.955949-14.488935-24.702338-32.708156-18.219221-79.246961 14.488936-103.955948l191.986701-145.022338c-40.075636-76.607169-49.085506-169.146182-17.281662-256.824519z m-150.654338 433.683948a34.337247 34.337247 0 0 0-6.709195 48.081455 34.330597 34.330597 0 0 0 48.074805 6.695896l192.452156-145.368104a318.410805 318.410805 0 0 1-45.109195-51.944727l-188.708571 142.53548z m545.918338-587.396987c-144.99574-52.589714-305.165299 22.32187-357.755013 167.317611-52.589714 144.99574 22.32187 305.171948 167.31761 357.761662 144.99574 52.589714 305.171948-22.32187 357.761662-167.31761 52.583065-144.99574-22.328519-305.171948-167.324259-357.761663z" fill="#6B0A0C" p-id="31922"></path></svg>