<?xml version="1.0" standalone="no"?><!DOCTYPE svg PUBLIC "-//W3C//DTD SVG 1.1//EN" "http://www.w3.org/Graphics/SVG/1.1/DTD/svg11.dtd"><svg t="1765879841101" class="icon" viewBox="0 0 1024 1024" version="1.1" xmlns="http://www.w3.org/2000/svg" p-id="53442" xmlns:xlink="http://www.w3.org/1999/xlink" width="128" height="128"><path d="M540.38009 872.137557h348.206335c25.136652 0 45.639819 20.503167 45.639819 45.639819 0 50.157466-41.006335 91.163801-91.163801 91.1638H543.276018" fill="#FFBF3E" p-id="53443"></path><path d="M534.240724 712.282353h298.859728c38.226244 0 69.502262 31.276018 69.502263 69.502262v20.039819c0 38.226244-31.276018 69.502262-69.502263 69.502263H523.236199 540.38009" fill="#824B33" p-id="53444"></path><path d="M453.733937 716.684163c11.467873 15.638009 28.959276 26.41086 48.883258 29.075113 3.011765 0.347511 6.139367 0.579186 9.266968 0.579186 23.862443 0 44.944796-11.699548 58.266063-29.654299 13.321267 17.954751 34.40362 29.654299 58.266064 29.654299 23.862443 0 44.944796-11.699548 58.266063-29.654299 13.321267 17.954751 34.40362 29.654299 58.266063 29.654299s44.944796-11.699548 58.266064-29.654299c13.321267 17.954751 34.40362 29.654299 58.266063 29.654299 40.195475 0 72.745701-33.129412 72.745701-74.135747 0-40.890498-32.550226-74.135747-72.745701-74.135747-23.862443 0-44.944796 11.699548-58.266063 29.654299-13.321267-17.954751-34.40362-29.654299-58.266064-29.654299s-44.944796 11.699548-58.266063 29.654299c-13.321267-17.954751-34.40362-29.654299-58.266063-29.654299-23.862443 0-44.944796 11.699548-58.266064 29.654299-13.321267-17.954751-34.40362-29.654299-58.266063-29.654299s-44.944796 11.699548-58.266063 29.654299" fill="#94BF41" p-id="53445"></path><path d="M524.510407 477.480543h353.071493c24.78914 0 45.060633 25.6 45.060634 56.876018V560.651584c0 31.276018-20.271493 56.876018-45.060634 56.876018H513.274208h12.742082" fill="#FF4C39" p-id="53446"></path><path d="M504.8181 316.698643h350.291402c14.479638 0 26.41086 12.857919 26.41086 28.495927v103.21086c0 15.638009-26.41086 28.495928-26.41086 28.495927s-9.266968 6.602715-94.291402 5.21267c-85.024434-1.390045-124.640724 59.19276-143.174661 59.308597-17.838914 0.115837-24.673303-39.963801-112.709502-55.60181-3.59095-0.695023 15.869683-1.274208 11.931221-1.737556" fill="#FFD939" p-id="53447"></path><path d="M512.231674 17.375566h-0.231674 24.094118C763.945701 17.375566 934.226244 145.60724 934.226244 302.450679c0 43.902262-33.013575 79.811765-73.324887 79.811764H512" fill="#FFBF3E" p-id="53448"></path><path d="M763.714027 1008.941176H262.602715c-50.157466 0-91.163801-41.006335-91.163801-91.1638 0-25.136652 20.503167-45.639819 45.639819-45.639819h592.275113c25.136652 0 45.639819 20.503167 45.639819 45.639819-0.115837 50.157466-41.122172 91.163801-91.279638 91.1638z" fill="#FFC973" p-id="53449"></path><path d="M843.062443 1024H180.937557C121.744796 1024 73.556561 975.811765 73.556561 916.619005c0-34.056109 27.685068-61.857014 61.857014-61.857014h753.288687c34.056109 0 61.857014 27.685068 61.857014 61.857014-0.115837 59.19276-48.304072 107.380995-107.496833 107.380995zM135.413575 887.19638c-16.217195 0-29.422624 13.20543-29.422625 29.422625C105.99095 957.972851 139.58371 991.565611 180.937557 991.565611h662.009049c41.353846 0 74.946606-33.59276 74.946607-74.946606 0-16.217195-13.20543-29.422624-29.422625-29.422625H135.413575z" fill="" p-id="53450"></path><path d="M758.964706 871.21086H267.352036c-38.226244 0-69.502262-31.276018-69.502262-69.502263v-20.039819c0-38.226244 31.276018-69.502262 69.502262-69.502262h491.496833c38.226244 0 69.502262 31.276018 69.502262 69.502262v20.039819c0.115837 38.226244-31.160181 69.502262-69.386425 69.502263z" fill="#A07058" p-id="53451"></path><path d="M833.100452 886.269683H190.899548c-47.261538 0-85.719457-38.457919-85.719458-85.719457v-20.039819c0-18.186425 2.548416-31.855204 15.63801-47.956561 5.676018-6.950226 15.869683-7.99276 22.819909-2.432579s7.99276 15.869683 2.432579 22.819909c-6.718552 8.340271-8.340271 13.784615-8.340271 27.569231v20.039819c0 29.422624 23.862443 53.285068 53.285068 53.285068h642.085067c29.422624 0 53.285068-23.862443 53.285068-53.285068v-20.039819c0-9.61448-2.664253-18.997285-7.529411-27.221719-4.633484-7.645249-2.085068-17.60724 5.560181-22.240724s17.60724-2.085068 22.240724 5.560181c7.99276 13.321267 12.162896 28.495928 12.162896 43.902262v20.039819c0 47.377376-38.457919 85.719457-85.719458 85.719457z" fill="" p-id="53452"></path><path d="M809.817195 613.704977c-20.271493 0-38.226244-2.432579-49.462444 11.815385-11.236199-14.247964-29.19095-11.815385-49.462443-11.815385-20.271493 0-38.226244-2.432579-49.462444 11.815385-11.236199-14.247964-29.19095-11.815385-49.462443-11.815385s-38.226244-2.432579-49.462444 11.815385c-11.236199-14.247964-29.19095-11.815385-49.462443-11.815385s-38.226244-2.432579-49.462444 11.815385c-11.236199-14.247964-29.19095-11.815385-49.462443-11.815385s-38.226244-2.432579-49.462443 11.815385c-11.236199-14.247964-29.19095-11.815385-49.462444-11.815385s-38.226244-2.432579-49.462443 11.815385c-11.236199-14.247964-29.19095-11.815385-49.462444-11.815385-34.171946 0-61.857014 26.179186-61.857013 58.497738s27.685068 58.497738 61.857013 58.497737c20.271493 0 38.226244 14.01629 49.462444-0.231674 11.236199 14.247964 29.19095 0.231674 49.462443 0.231674s38.226244 14.01629 49.462444-0.231674c11.236199 14.247964 29.19095 0.231674 49.462443 0.231674s38.226244-9.151131 49.462443-23.399095c11.236199 14.247964 29.19095 23.399095 49.462444 23.399095s38.226244-9.151131 49.462443-23.399095c11.236199 14.247964 29.19095 23.399095 49.462444 23.399095s38.226244 14.01629 49.462443-0.231674c11.236199 14.247964 29.19095 0.231674 49.462444 0.231674 20.271493 0 38.226244 14.01629 49.462443-0.231674 11.236199 14.247964 29.19095 0.231674 49.462444 0.231674 34.171946 0 61.857014-26.179186 61.857013-58.497737s-27.685068-58.497738-61.857013-58.497738z" fill="#B1DD6B" p-id="53453"></path><path d="M861.480543 761.281448c-21.429864 0-42.164706-7.99276-58.266063-22.00905-15.98552 14.01629-36.720362 22.00905-58.266064 22.00905-21.429864 0-42.164706-7.99276-58.266063-22.00905-15.98552 14.01629-36.720362 22.00905-58.266063 22.00905-21.429864 0-42.164706-7.99276-58.266064-22.00905-15.98552 14.01629-36.720362 22.00905-58.266063 22.00905-21.429864 0-42.164706-7.99276-58.266063-22.00905-16.101357 14.01629-36.720362 22.00905-58.266064 22.00905s-42.164706-7.99276-58.266063-22.00905c-15.98552 14.01629-36.720362 22.00905-58.266063 22.00905-21.429864 0-42.164706-7.99276-58.266064-22.00905-15.98552 14.01629-36.720362 22.00905-58.266063 22.00905-49.114932 0-88.962896-40.542986-88.962896-90.352941 0-22.00905 7.876923-43.20724 22.240724-59.656109 5.907692-6.718552 16.101357-7.529412 22.935746-1.621719 6.718552 5.907692 7.529412 16.101357 1.62172 22.935746C111.087783 643.127602 105.99095 656.79638 105.99095 671.044344c0 31.971041 25.368326 57.918552 56.528507 57.918552 17.954751 0 34.40362-8.456109 45.176471-23.051584 3.011765-4.170136 7.876923-6.602715 13.089592-6.602715s9.961991 2.432579 13.089593 6.602715c10.772851 14.595475 27.337557 23.051584 45.176471 23.051584 17.954751 0 34.40362-8.456109 45.17647-23.051584 3.011765-4.170136 7.876923-6.602715 13.089593-6.602715s9.961991 2.432579 13.089593 6.602715c10.772851 14.595475 27.337557 23.051584 45.17647 23.051584s34.40362-8.456109 45.176471-23.051584c3.011765-4.170136 7.876923-6.602715 13.089593-6.602715s9.961991 2.432579 13.089593 6.602715c10.772851 14.595475 27.337557 23.051584 45.17647 23.051584 17.954751 0 34.40362-8.456109 45.176471-23.051584 3.011765-4.170136 7.876923-6.602715 13.089592-6.602715 5.096833 0 9.961991 2.432579 13.089593 6.602715 10.772851 14.595475 27.337557 23.051584 45.176471 23.051584s34.40362-8.456109 45.17647-23.051584c3.011765-4.170136 7.876923-6.602715 13.089593-6.602715 5.096833 0 9.961991 2.432579 13.089593 6.602715 10.772851 14.595475 27.337557 23.051584 45.17647 23.051584s34.40362-8.456109 45.176471-23.051584c3.011765-4.170136 7.876923-6.602715 13.089593-6.602715 5.096833 0 9.961991 2.432579 13.089593 6.602715 10.772851 14.595475 27.337557 23.051584 45.17647 23.051584 31.160181 0 56.528507-25.947511 56.528507-57.918552 0-15.406335-5.791855-29.885973-16.333032-40.774661-6.255204-6.486878-6.023529-16.680543 0.347512-22.935746 6.486878-6.255204 16.680543-6.023529 22.935746 0.347511 16.448869 17.028054 25.484163 39.500452 25.484163 63.362896-0.231674 49.809955-40.195475 90.237104-89.19457 90.237104z" fill="" p-id="53454"></path><path d="M803.677828 617.527602H222.523077c-25.484163 0-46.334842-20.850679-46.334842-46.334842v-47.261538c0-25.484163 20.850679-46.334842 46.334842-46.334842h581.154751c25.484163 0 46.334842 20.850679 46.334842 46.334842v47.261538c0 25.484163-20.850679 46.334842-46.334842 46.334842z" fill="#FF735C" p-id="53455"></path><path d="M877.5819 632.238914H146.4181c-33.824434 0-61.277828-32.7819-61.277829-73.093213v-26.179185c0-40.311312 27.453394-73.093213 61.277829-73.093213H168.542986c8.919457 0 16.217195 7.297738 16.217195 16.217195s-7.297738 16.217195-16.217195 16.217194H146.4181C130.78009 492.307692 117.574661 510.957466 117.574661 532.966516v26.179185c0 22.00905 13.20543 40.658824 28.843439 40.658824h731.1638c15.638009 0 28.843439-18.649774 28.843439-40.658824v-26.179185c0-22.00905-13.20543-40.658824-28.843439-40.658824h-27.685067c-8.919457 0-16.217195-7.297738-16.217195-16.217194s7.297738-16.217195 16.217195-16.217195h27.685067c33.824434 0 61.277828 32.7819 61.277829 73.093213v26.179185c0 40.311312-27.453394 73.093213-61.277829 73.093213z" fill="" p-id="53456"></path><path d="M786.881448 476.901357s-7.413575 6.602715-75.178281 5.21267c-67.764706-1.390045-99.504072 59.19276-114.331221 59.308597-14.827149 0.115837-20.039819-43.323077-98.924887-57.339366-78.885068-14.132127-259.011765-7.066063-259.011765-7.066063-11.58371 0-21.082353-12.857919-21.082353-28.495928V345.19457c0-15.638009 9.498643-28.495928 21.082353-28.495927h547.446154c11.58371 0 21.082353 12.857919 21.082353 28.495927v103.21086c0 15.638009-21.082353 28.495928-21.082353 28.495927z" fill="#FFEA71" p-id="53457"></path><path d="M617.527602 556.365611c-12.278733 0-20.619005-7.761086-28.611765-15.290498-14.132127-13.321267-35.561991-33.361086-97.534842-42.280543-96.260633-13.784615-319.59457-6.950226-321.795475-6.950226h-0.463348c-23.514932 0-42.628054-20.039819-42.628054-44.713122v-67.764706c0-8.919457 7.297738-16.217195 16.217194-16.217195s16.217195 7.297738 16.217195 16.217195V447.131222c0 6.602715 4.517647 12.162896 9.961991 12.278733 13.089593-0.347511 229.009955-6.718552 327.123982 7.1819 72.282353 10.309502 99.156561 35.561991 115.257918 50.736652 2.200905 2.085068 4.865158 4.633484 6.602715 5.907692 3.475113-1.853394 9.61448-6.486878 14.595475-10.425339 24.325792-18.4181 64.868778-49.346606 128.695023-48.304073 67.301357 1.042534 84.561086-2.895928 87.109502-3.59095 7.645249-3.822624 16.101357-10.772851 17.028054-14.016289v-61.741177c0-8.919457 7.297738-16.217195 16.217195-16.217195s16.217195 7.297738 16.217195 16.217195V447.131222c0 23.514932-27.221719 38.921267-34.635295 42.628054-5.096833 2.895928-21.777376 8.571946-102.515837 7.1819-52.590045-0.81086-86.298643 24.78914-108.539366 41.701358-13.437104 10.193665-23.051584 17.60724-34.40362 17.60724l-0.115837 0.115837z m228.199095-93.943892z m0.115837 0c-0.115837 0-0.115837 0 0 0-0.115837 0-0.115837 0 0 0z m0.347511-0.347511c-0.115837 0.115837-0.231674 0.231674-0.347511 0.231674 0.115837 0 0.231674-0.115837 0.347511-0.231674z m0 0z" fill="" p-id="53458"></path><path d="M795.569231 382.146606H230.747511c-32.666063 0-59.308597-35.909502-59.308597-79.811764 0-156.727602 129.274208-284.959276 313.686878-284.959276h47.493213c184.41267 0 322.258824 128.231674 322.258823 285.075113 0 43.786425-26.758371 79.695928-59.308597 79.695927z" fill="#FFC973" p-id="53459"></path><path d="M860.901357 397.20543H163.098643C113.752036 397.20543 73.556561 354.229864 73.556561 301.292308c0-82.244344 40.774661-158.349321 114.79457-214.182806C262.718552 30.928507 365.350226 0 477.480543 0h58.613575c112.593665 0 217.078733 30.81267 294.110407 86.877828 77.61086 56.41267 120.238914 132.517647 120.238914 214.41448 0 52.937557-40.195475 95.913122-89.542082 95.913122zM477.480543 32.434389C372.300452 32.434389 276.619005 61.046154 207.927602 112.941176 142.132127 162.519457 105.99095 229.357466 105.99095 301.292308c0 35.098643 25.6 63.59457 57.107693 63.59457h697.802714c31.507692 0 57.107692-28.495928 57.107693-63.59457C918.00905 150.472398 750.276923 32.434389 536.094118 32.434389h-58.613575z" fill="" p-id="53460"></path></svg>