<?xml version="1.0" standalone="no"?><!DOCTYPE svg PUBLIC "-//W3C//DTD SVG 1.1//EN" "http://www.w3.org/Graphics/SVG/1.1/DTD/svg11.dtd"><svg t="1765879862491" class="icon" viewBox="0 0 1024 1024" version="1.1" xmlns="http://www.w3.org/2000/svg" p-id="55350" xmlns:xlink="http://www.w3.org/1999/xlink" width="128" height="128"><path d="M255.4 108.1c15 0 30.1 3.5 43.3 10.3 13.7 7.1 28.6 19.8 44.7 36 7.6-1.4 15.5-2.2 23.8-2.2 3.9 0 7.9 0.2 11.9 0.5 27.3 2.3 57.1 17.9 145.1 107.1 88 89.1 124.8 138.7 218.8 194.6 94 55.9 146.8 81 134.6 159-0.7 4.8-1.6 9.5-2.6 14.1 3.7 3.1 7.2 6.1 10.4 8.9 40.5 35.9 37.9 102.4 4.2 141.5-8.6 10-19.2 18.2-31.6 23.6-11.3 4.9-22.8 7-34.2 7-6.4 0-12.8-0.7-19.1-1.8-13.8 71.9-71.3 109.2-144.6 109.2H656C432.7 911.7 226.2 742.7 140.6 539 79 392.2 117.2 287 161.9 255.6c7.2-5.1 14.5-8.9 21.9-11.8-14.3-31.3-20.3-66.1-2.5-96.2 15.9-26.6 45-39.5 74.1-39.5m0-35.1c-44.2 0-83.1 21.2-104.1 56.6-12.3 20.7-22.5 53.3-10.5 97.9-52.5 38-103.9 154.9-32.5 325 45 107.2 122.2 205.8 217.3 277.7C427.2 907.1 541.3 948.8 655.5 951h4.8c82.5 0 145.3-40.5 170.6-107.6 14.4-0.8 28.3-4.1 41.3-9.8 16.9-7.4 31.8-18.4 44.2-32.8 47.3-55 45.4-139-3.2-186.7 12.3-93-52.5-131.2-134.1-179.3-5.8-3.4-11.8-7-18-10.6-70.4-41.9-107-80.1-162.3-138-14.5-15.2-31-32.4-49.4-51.1-94.6-95.7-129.3-114.1-167.2-117.4-5-0.4-10-0.6-14.9-0.6-3.9 0-7.7 0.1-11.5 0.4-15.2-14-28.4-23.8-40.9-30.3-18.1-9.3-38.6-14.2-59.5-14.2z" fill="#6B0A0C" p-id="55351"></path><path d="M379.2 152.7c27.3 2.3 57.1 17.9 145.1 107.1 88 89.1 124.8 138.7 218.8 194.6 94 55.9 146.8 81 134.6 159-12.2 78-58.6 129.7-154.7 146.1-96.2 16.4-194.5-41-340.9-166.8C235.7 466.8 235.2 377 244.6 287.4c9.5-89.6 58.7-141.2 134.6-134.7z" fill="#FFB657" p-id="55352"></path><path d="M889.7 777.9c33.6-39.1 36.2-105.6-4.2-141.5-51.2-45.4-158-115.9-226.2-170.1-68.3-54.2-132.2-117-197.4-182.8-65.3-65.8-120.4-143-163.2-165.1-38.7-20-93.3-11.1-117.2 29.1-28.1 47.4 3 106.7 32.4 145.1 31.1 40.8 120.3 154.6 233.9 262.8 113.6 108.2 241.7 203.5 315.9 237.5 30 13.7 62.8 22.4 94.5 8.5 12.4-5.4 23-13.5 31.5-23.5z" fill="#FF7384" p-id="55353"></path><path d="M255.4 108.1c15 0 30.1 3.5 43.3 10.3 42.8 22.1 97.9 99.4 163.2 165.1 65.3 65.8 129.2 128.6 197.4 182.8 68.3 54.2 175.1 124.7 226.2 170.1 40.5 35.9 37.9 102.4 4.2 141.5-8.6 10-19.2 18.2-31.6 23.6-11.3 4.9-22.8 7-34.2 7-20.6 0-41-6.7-60.3-15.6-74.2-34-202.3-129.3-315.9-237.5C334.2 447.2 245 333.5 213.9 292.7c-29.3-38.5-60.5-97.8-32.4-145.1 15.7-26.6 44.8-39.5 73.9-39.5m0-35.1c-44.2 0-83.1 21.2-104.1 56.6-29.9 50.4-17.6 115.9 34.6 184.4 42.2 55.4 129.3 163.7 237.6 266.9 114.8 109.4 245.6 207.4 325.4 244 27.9 12.8 51.7 18.8 74.9 18.8 16.9 0 33.1-3.4 48.3-10 16.9-7.4 31.8-18.4 44.2-32.8 48.7-56.6 45.2-143.9-7.5-190.7-30.3-26.8-76.8-60.4-126-95.9-35.7-25.8-72.7-52.4-101.7-75.4-68-54-133.3-118.5-194.4-180.1-22.7-22.8-44.1-47.1-64.8-70.6-39.7-44.9-73.9-83.8-107.2-101-17.9-9.3-38.4-14.2-59.3-14.2z" fill="#6B0A0C" p-id="55354"></path><path d="M889.7 777.9C615 738.9 201 209.1 181.4 147.5c-28.1 47.4 3 106.7 32.4 145.1 31.1 40.8 120.3 154.6 233.9 262.8 113.6 108.2 241.7 203.5 315.9 237.5 30 13.7 62.8 22.4 94.5 8.5 19.5-8.5 31.6-23.5 31.6-23.5z" fill="#FF4E5F" p-id="55355"></path><path d="M807.5 787.1c3.6-47.7-26.4-90-117.6-141.5-91.2-51.6-153.7-101.4-223.3-167.2C397 412.6 349 336.9 302.2 285.8c-46.8-51.1-95.4-61.7-140.1-30.3-44.7 31.4-83 136.7-21.3 283.4 85.6 203.7 292.1 372.7 515.4 376.9 81.6 1.6 144.8-42.4 151.3-128.7z" fill="#F6B545" p-id="55356"></path><path d="M213.9 237.8c29.2 0 59.1 16.1 88.3 48C349 336.9 397 412.6 466.6 478.4 536.2 544.2 598.7 594 690 645.6c91.2 51.5 121.2 93.8 117.6 141.5-6.4 84.8-67.6 128.8-147.3 128.8h-4.1C432.9 911.7 226.4 742.7 140.8 539c-61.6-146.8-23.4-252 21.3-283.4 16.8-11.9 34.2-17.8 51.8-17.8m0-35.1c-25 0-49.3 8.1-72 24.1C89 263.9 36.4 381.3 108.3 552.5c45 107.2 122.2 205.8 217.3 277.7C427.2 907.1 541.3 948.8 655.5 951h4.8c103.3 0 174.9-63.3 182.3-161.3 6.3-83.1-64.9-134.9-135.3-174.7-93-52.6-153.8-102.8-216.5-162.1-41.3-38.9-75.6-82.8-105.8-121.6-19.6-25.1-38.1-48.8-56.9-69.2-36.1-39.4-74.5-59.4-114.2-59.4z" fill="#6B0A0C" p-id="55357"></path><path d="M111.5 353.9c-7.5 48.6-1.6 111.6 29.2 185 85.6 203.7 292.1 372.7 515.4 376.9 30.3 0.6 58.1-5.1 81.3-16.9-251.4-29.8-541.5-297.8-625.9-545z" fill="#F19920" p-id="55358"></path><path d="M204.8 444a30.8 31.2 0 1 0 61.6 0 30.8 31.2 0 1 0-61.6 0Z" fill="#E78825" p-id="55359"></path><path d="M175 342.4a23.1 23.4 0 1 0 46.2 0 23.1 23.4 0 1 0-46.2 0Z" fill="#E78825" p-id="55360"></path><path d="M656.3 814.4a23.1 23.4 0 1 0 46.2 0 23.1 23.4 0 1 0-46.2 0Z" fill="#E78825" p-id="55361"></path><path d="M474.8 376.6c0.6 14.3 6.6 27.6 17 37.3 10.4 9.7 24 14.8 38.2 14.2l6.4-0.3 44-1.7 6.4-0.3c5.9-0.2 11.5 1.9 15.8 5.9 4.3 4 6.8 9.5 7.1 15.4l2.2 57.4c0.6 14.3 6.6 27.6 17 37.3s24 14.8 38.2 14.2l56.9-2.3c5.9-0.2 11.5 1.9 15.8 5.9 4.3 4 6.8 9.6 7.1 15.4l2 50.9c0.3 8.7 7.6 15.4 16.2 15.1s15.3-7.6 14.9-16.3l-2-50.9c-0.6-14.3-6.6-27.6-17-37.3-10.4-9.7-24-14.8-38.2-14.2l-56.9 2.3c-5.9 0.2-11.5-1.9-15.8-5.9-4.3-4-6.8-9.5-7.1-15.4l-2.2-57.4c-0.6-14.3-6.6-27.6-17-37.3-10.4-9.7-24-14.8-38.2-14.2l-6.4 0.3-44 1.7-6.4 0.3c-5.9 0.2-11.5-1.9-15.8-5.9-4.3-4-6.8-9.5-7.1-15.4l-2.2-57.4c-0.6-14.3-6.6-27.6-17-37.3-10.4-9.7-24-14.8-38.2-14.2l-56.9 2.3c-5.9 0.2-11.5-1.9-15.8-5.9-4.3-4-6.8-9.5-7.1-15.4l-2-50.9c-0.3-8.7-7.6-15.4-16.2-15.1-4.3 0.2-8.1 2.1-10.8 5-2.7 3-4.3 6.9-4.1 11.3l2 50.9c0.6 14.3 6.6 27.6 17 37.3 10.4 9.7 24 14.8 38.2 14.2l56.9-2.3c5.9-0.2 11.5 1.9 15.8 5.9 4.3 4 6.8 9.5 7.1 15.4l2.2 57.4z" fill="#F04B4D" p-id="55362"></path><path d="M496.8 375.8c0.6 14.3 6.6 27.6 17 37.3 10.4 9.7 24 14.8 38.2 14.2l6.4-0.3 50.4-2c5.9-0.2 11.5 1.9 15.8 5.9s6.8 9.5 7.1 15.4l2.2 57.4c0.6 14.3 6.6 27.6 17 37.3 10.4 9.7 24 14.8 38.2 14.2l56.9-2.3c5.8-0.2 11.6 1.9 15.8 5.9s6.8 9.6 7.1 15.4l2 50.9c0.3 8.7 7.6 15.4 16.2 15.1s15.3-7.6 14.9-16.3l-2-50.9c-0.6-14.3-6.6-27.6-17-37.3-10.4-9.7-24-14.8-38.2-14.2l-56.9 2.3c-5.9 0.2-11.5-1.9-15.8-5.9-4.3-4-6.8-9.5-7.1-15.4l-2.2-57.4c-0.6-14.3-6.6-27.6-17-37.3-10.4-9.7-24-14.8-38.2-14.2l-6.4 0.3-44 1.7-6.4 0.3c-5.9 0.2-11.5-1.9-15.8-5.9-4.3-4-6.8-9.5-7.1-15.4l-2.2-57.4c-0.6-14.3-6.6-27.6-17-37.3-10.4-9.7-24-14.8-38.2-14.2l-56.9 2.3c-5.9 0.2-11.5-1.9-15.8-5.9-4.3-4-6.8-9.5-7.1-15.4l-2-50.9c-0.3-8.7-7.6-15.4-16.2-15.1-4.3 0.2-8.1 2.1-10.8 5-2.7 3-4.3 6.9-4.1 11.3l2 50.9c0.6 14.3 6.6 27.6 17 37.3 10.4 9.7 24 14.8 38.2 14.2l56.9-2.3c5.9-0.2 11.5 1.9 15.8 5.9 4.3 4 6.8 9.5 7.1 15.4l2.2 57.4z" fill="#FFCB5B" p-id="55363"></path></svg>