<?xml version="1.0" standalone="no"?><!DOCTYPE svg PUBLIC "-//W3C//DTD SVG 1.1//EN" "http://www.w3.org/Graphics/SVG/1.1/DTD/svg11.dtd"><svg t="1765879952059" class="icon" viewBox="0 0 1024 1024" version="1.1" xmlns="http://www.w3.org/2000/svg" p-id="60614" xmlns:xlink="http://www.w3.org/1999/xlink" width="128" height="128"><path d="M723.843921 330.241925l-49.397347 613.143488h-101.328811l6.22727-203.924169c33.459549-21.848689 55.519158-59.636201 55.519158-102.595357 0-40.320604-19.421057-75.996864-49.502807-98.372854l6.33273-208.145648 132.149807-0.10546zM445.084998 739.461244l6.121811 203.924169h-101.328811l-49.397348-613.143488h132.255268l6.33273 208.145648c-29.976291 22.377014-49.502808 58.158734-49.502807 98.372854 0 42.959157 22.16507 80.852129 55.519157 102.700817z" fill="#F2F2F2" p-id="60615"></path><path d="M585.361384 538.387573c29.976291 22.377014 49.502808 58.053274 49.502807 98.372854 0 42.959157-22.059609 80.746668-55.519158 102.595357-19.315597 12.666485-42.325372 19.949382-67.130017 19.949382-24.699186 0-47.814421-7.282896-67.130018-19.949382-33.459549-21.848689-55.519158-59.741661-55.519157-102.700817 0-40.320604 19.421057-76.102325 49.502807-98.372855 20.371222-15.199578 45.703169-24.170861 73.146368-24.17086 27.443198 0 52.775145 9.076743 73.146368 24.276321zM236.62297 204.742253c-2.744013-6.650135-4.222503-13.933032-4.222503-21.532309 0-31.348297 25.437407-56.785704 56.785704-56.785704 15.726879 0 29.976291 6.438191 40.320604 16.782505 10.132369-29.44899 38.103892-50.663894 71.035116-50.663894 22.271554 0 42.325372 9.710528 56.152943 25.226487 8.022142-21.743229 28.920665-37.153727 53.40893-37.153727 25.860272 0 47.708961 17.309805 54.570017 40.953365 13.721087-17.62721 35.147935-29.026125 59.31982-29.026125 32.932248 0 60.902747 21.215928 71.035116 50.663894 10.238853-10.344313 24.488265-16.782504 40.320604-16.782505 31.348297 0 56.785704 25.437407 56.785704 56.785704 0 7.599277-1.477467 14.882173-4.221479 21.532309 38.314813 3.377798 68.396564 35.5708 68.396563 74.729294a74.631001 74.631001 0 0 1-19.738461 50.663894H187.963844a74.634073 74.634073 0 0 1-19.737437-50.663894c0-39.158494 30.081751-71.351497 68.396563-74.729294z" fill="#F7B239" p-id="60616"></path><path d="M400.121074 204.742253c-2.744013-6.650135-4.222503-13.933032-4.222503-21.532309 0-31.348297 25.437407-56.785704 56.785704-56.785704 15.726879 0 29.976291 6.438191 40.320604 16.782505 8.338522-24.276321 28.815205-42.959157 54.147152-48.764587-9.921449-8.654903-22.904315-13.933032-37.153727-13.933031-24.487241 0-45.386789 15.515958-53.40893 37.153727-13.721087-15.515958-33.775929-25.226487-56.152943-25.226487-32.932248 0-60.902747 21.215928-71.035116 50.663894-10.344313-10.344313-24.593726-16.782504-40.320604-16.782505-31.453757 0-56.785704 25.437407-56.785704 56.785704 0 7.599277 1.477467 14.882173 4.222503 21.532309-38.314813 3.377798-68.396564 35.5708-68.396564 74.729294a74.634073 74.634073 0 0 0 19.737438 50.663894H351.461948a74.635097 74.635097 0 0 1-19.738461-50.663894c0-39.05201 30.081751-71.245013 68.397587-74.62281zM620.193962 117.662854c3.483258-9.394148 9.394148-17.73267 16.993425-24.065401-4.327963-0.739245-8.760363-1.161086-13.299246-1.161086-10.660694 0-20.793063 2.216712-29.976291 6.227271a73.778105 73.778105 0 0 1 26.282112 18.999216z" fill="#E09B2D" p-id="60617"></path><path d="M300.58611 330.241925l49.398372 613.143488h-86.973939l-75.78492-613.143488h0.738221z" fill="#E54728" p-id="60618"></path><path d="M579.345033 739.461244l-6.22727 203.923145H451.312269l-6.12181-203.924169c19.210136 12.666485 42.325372 19.949382 67.130017 19.949382 24.699186 0.001024 47.708961-7.281872 67.024557-19.948358zM591.695138 330.241925l-6.332731 208.145648c-20.476683-15.199578-45.808629-24.276321-73.146367-24.276321-27.443198 0-52.775145 8.972307-73.146368 24.17086l-6.332731-208.145647H591.696162v0.10546zM837.205433 330.241925l-75.78492 613.143488H674.446574l49.397347-613.143488h112.727727z" fill="#F95428" p-id="60619"></path><path d="M727.74902 807.646888c-0.739245 0-1.372006 0-2.111251-0.105461-9.288688-1.161086-15.937799-9.605068-14.776713-18.999216l42.537315-343.777689c1.161086-9.288688 9.710528-15.937799 18.999216-14.776713 9.288688 1.161086 15.937799 9.605068 14.776713 18.999216l-42.537315 343.777689c-1.160062 8.549442-8.442958 14.882173-16.887965 14.882174z" fill="#FFFFFF" p-id="60620"></path><path d="M777.885613 381.961444m-16.993425 0a16.993425 16.993425 0 1 0 33.98685 0 16.993425 16.993425 0 1 0-33.98685 0Z" fill="#FFFFFF" p-id="60621"></path><path d="M873.303534 279.578031c0-41.37623-26.703953-76.313245-64.702385-88.029564 0.316381-2.744013 0.421841-5.594509 0.42184-8.338523 0-40.742445-33.143168-73.885613-73.885612-73.885612-12.0327 0-23.5381 2.849473-33.88139 8.233062a92.028861 92.028861 0 0 0-77.367846-42.114452c-19.949382 0-38.948598 6.332731-54.570017 17.943591-13.721087-18.365431-35.5708-29.87083-59.213336-29.870831-22.798855 0-44.014782 10.660694-57.735869 27.865039-15.094117-10.238853-33.143168-15.937799-51.71952-15.937799a92.029885 92.029885 0 0 0-77.36887 42.114452c-10.344313-5.382565-21.954149-8.233062-33.88139-8.233062-40.742445 0-73.885613 33.143168-73.885613 73.885612 0 2.849473 0.10546 5.594509 0.421841 8.338523-37.892972 11.61086-64.702385 46.653335-64.702385 88.029564 0 20.687603 6.966516 40.636985 19.631977 56.785704l75.363079 609.131905c1.055626 8.549442 8.338522 14.988657 16.887965 14.988658h498.40997c8.549442 0 15.832339-6.438191 16.887965-14.988658l75.257619-609.131905c12.665461-16.148719 19.631977-36.098101 19.631977-56.785704z m-645.652871-55.942022c8.971283 12.877406 25.121026 26.387573 48.764586 26.387572 2.427632 0 5.066185-0.10546 7.704738-0.42184 8.865823-1.055626 16.043259-8.443982 15.832338-17.41629-0.316381-10.238853-9.394148-17.73267-19.315596-16.466124-19.104676 2.533092-26.703953-13.721087-28.07596-17.098884 0-0.10546 0-0.10546-0.10546-0.210921v-0.10546c-1.372006-3.377798-2.216712-6.755595-2.638552-10.344313-2.638552-22.377014 14.249412-42.959157 36.731886-44.436624 11.61086-0.844705 22.693394 3.377798 30.820996 11.39994 3.166877 3.166877 7.493817 5.171645 11.92724 5.171644 7.599277 0.10546 14.038492-4.644344 16.466124-11.505399 8.022142-23.43264 30.081751-39.159518 54.886396-39.159518a57.861807 57.861807 0 0 1 43.275537 19.421057c3.061417 3.377798 7.282896 5.594509 11.82178 5.805429 7.704737 0.421841 14.354872-4.222503 16.993425-11.082534 5.80543-15.621418 20.793063-26.071192 37.364647-26.071192 17.416289 0 33.037708 11.61086 38.103893 28.182443 1.477467 4.855264 4.749804 9.077767 9.288687 11.187995 7.388357 3.377798 15.832339 1.161086 20.582143-4.960724 11.082535-14.249412 27.865039-22.482474 45.80863-22.482474 21.954149 0 41.69261 12.349081 51.614059 31.348297-3.166877 4.960724-6.650135 11.71632-8.865823 19.737437-6.438191 23.327179 0.632761 46.653335 19.737437 65.863472 3.272337 3.377798 7.704737 4.960724 12.0327 4.960724s8.549442-1.582927 11.82178-4.855264c6.861056-6.650135 6.227271-18.049051-0.42184-24.804646-9.815989-10.132369-13.299246-20.265762-10.660694-31.242837 0.316381-1.161086 0.632761-2.322172 1.055625-3.377798a35.471483 35.471483 0 0 1 19.210137-20.582142c6.227271-2.638552 12.982866-3.799638 20.054842-3.061418 20.054842 2.111252 35.5708 19.526517 35.5708 39.68682 0 5.171645-0.950166 10.238853-2.954933 14.988657-1.477467 3.694178-1.688387 8.022142-0.421841 11.82178 2.216712 6.650135 8.022142 11.082535 14.671253 11.71632 29.65991 2.638552 52.880605 27.970499 52.880605 57.841329a57.458397 57.458397 0 0 1-10.871614 33.670469h-632.249188c-6.966516-9.815989-10.766154-21.532308-10.766154-33.670469-0.10546-26.597469 17.52175-49.078919 42.325371-55.834514z m284.564353 518.781192c-58.264194 0-105.55029-47.39258-105.55029-105.55029 0-58.264194 47.39258-105.55029 105.55029-105.55029s105.55029 47.39258 105.55029 105.55029c0.106484 58.15771-47.286096 105.55029-105.55029 105.55029z m0-245.299374c-20.265762 0-39.581359 4.433423-56.997648 12.243621l-4.855265-162.126098h123.811286l-4.855265 162.126098c-17.52175-7.811221-36.731886-12.243621-57.103108-12.243621z m-95.945222-149.882477l5.489049 183.235541c-30.081751 25.648327-49.186427 63.75222-49.186427 106.289536 0 45.597709 21.954149 86.129234 55.836562 111.56664l5.383589 177.958437h-68.080183l-46.653335-579.050154h97.210745z m46.758795 420.197418c15.305038 5.80543 31.876622 8.972307 49.186427 8.972307 17.309805 0 33.881389-3.166877 49.186427-8.972307l-4.855264 158.85376h-88.873246l-4.644344-158.85376z m133.098949-18.999217c33.881389-25.542867 55.836562-66.074392 55.836562-111.56664 0-42.537316-19.104676-80.640184-49.186427-106.289536l5.489049-183.235541h97.106308L658.719695 926.390964h-68.080183l5.488026-177.957413zM206.435759 347.23535h78.424497l46.653334 579.050154h-53.40893l-71.668901-579.050154z m539.890636 579.050154H692.917465l46.653335-579.050154h78.424497l-71.668902 579.050154z" fill="#333333" p-id="60622"></path><path d="M443.396612 291.716192c9.394148 0 16.993425-7.599277 16.993424-16.993425s-7.599277-16.993425-16.993424-16.993425c-15.621418 0-28.393364-12.771946-28.393364-28.393364 0-15.621418 12.771946-28.393364 28.393364-28.393364 10.132369 0 19.210136 5.277105 24.381781 14.038492 2.744013 4.538884 7.388357 7.599277 12.666485 8.233062 5.277105 0.633785 10.555234-1.266546 14.249412-5.066185 7.071976-7.282896 16.571584-11.399939 26.809414-11.399939 20.582143 0 37.259187 16.677044 37.259187 37.259187 0 9.394148 7.599277 16.993425 16.993424 16.993425s16.993425-7.599277 16.993425-16.993425c0-39.370439-31.982082-71.352521-71.35252-71.35252-13.088326 0-25.648327 3.483258-36.520966 10.026909-11.293455-10.026909-26.071192-15.937799-41.48169-15.937799-34.409714 0-62.485674 27.970499-62.485674 62.485673s27.972547 62.486697 62.487722 62.486698z" fill="#333333" p-id="60623"></path></svg>