<?xml version="1.0" standalone="no"?><!DOCTYPE svg PUBLIC "-//W3C//DTD SVG 1.1//EN" "http://www.w3.org/Graphics/SVG/1.1/DTD/svg11.dtd"><svg t="1765988875658" class="icon" viewBox="0 0 1024 1024" version="1.1" xmlns="http://www.w3.org/2000/svg" p-id="3739" xmlns:xlink="http://www.w3.org/1999/xlink" width="128" height="128"><path d="M382.16 6.92c-18.29 0-37.51 6.45-57.14 19.17-15.57 10.09-31.79 24.37-48.2 42.44-30.75 33.85-61.71 80.3-89.55 134.33a959.07 959.07 0 0 0-70.6 180.94C97.24 454.1 87.4 522 87.4 585.47c0 54 4.51 104.67 13.41 150.55 10 51.81 25.71 97.38 46.54 135.44 24 43.79 55 78 92.1 101.7 40.82 26 88.84 39.24 142.71 39.24a281.39 281.39 0 0 0 68.21-8 242.67 242.67 0 0 0 64.25 8.81c63.36 0 125.9-25.66 185.88-76.26 47.24-39.86 93.55-95.84 137.63-166.39 32.76-52.44 59.73-113.43 80.14-181.26a928.6 928.6 0 0 0 35.68-186.12c5.05-59.59 3.32-114.43-5-158.57-10.13-53.61-29.67-89.75-58.09-107.51-16.14-10.09-36.78-15.2-61.34-15.2-37.06 0-84.53 11.71-137.26 33.86-38.2 16-77.78 37-116.41 61.41-22.85-49.68-48.74-94.38-74.92-128.85C483 64.67 465 45.9 447.56 32.55c-22.22-17-44.23-25.63-65.4-25.63z" fill="#4A4A4A" p-id="3740"></path><path d="M804.28 749.39C704 909.95 561.82 1040.94 392.31 935 221 828 264.93 635.64 365.76 474.26 496.43 265.12 794 123.65 869.71 170.93s64.73 370.14-65.43 578.46z" fill="#FFE7CA" p-id="3741"></path><path d="M869.71 170.93c-0.47-0.3-1-0.58-1.45-0.86-1-0.56-2.5-1.35-4.51-2.28-59.43-26.23-219.5 35.58-353.37 145.93-44.27 42-92.49 94.6-144.62 160.52-41.47 66.37-73.3 138-84.5 206.73-4 87.49 31.77 174.76 111.05 254l2.34 1.44c54.95 17.38 475.06-765.48 475.06-765.48z" fill="#FFD7B3" p-id="3742"></path><path d="M749.22 756.82c-83.51 133.65-201.83 242.69-342.94 154.53-142.58-89.08-106-249.22-22.11-383.56 91.19-145.93 301.73-223.54 384.52-237.58 16-2.71 23.94-19.95 35-14.91 10.06 4.59 0.93 29.75 3.91 38.85 22.59 69.07 37.34 289.46-58.38 442.67z" fill="#F99048" p-id="3743"></path><path d="M749.22 756.82s31.44-153.61-23.36-274.09C676.39 374 685 313.25 685 313.25s5.91-2.07 8.81-3.05c29.74-10.1 55.7-16.74 74.83-20 16-2.71 23.94-19.95 35-14.91 10.06 4.59 0.93 29.75 3.91 38.85 22.24 68 36.87 282.39-53.83 435.2-1.44 2.52-4.5 7.48-4.5 7.48z" fill="#FFB244" p-id="3744"></path><path d="M450.81 962.85l-11.71-38.24c50.15-15.35 86.27-53.43 110.4-116.41 21.6-56.37 32.55-131 32.55-221.73 0-95.85-15.06-183.92-58.22-287.25l68.17-45c47.15 112.87 70.05 226.09 70.05 332.28 0 100.58-12.73 184.81-37.85 250.35-15.42 40.24-35.82 74.17-60.63 100.84-12.92 13.89-28.32 31.32-42.44 36 0 0-26.68 0.42-41.35-2.65a212.11 212.11 0 0 1-28.97-8.19z" fill="#896A4E" p-id="3745"></path><path d="M622.06 586.47c0 194.51-48.88 386-239.9 386-193 0-254.86-191.52-254.86-387 0-253.36 169.57-538.65 254.86-538.65s239.9 287.28 239.9 539.65z" fill="#FFD88A" p-id="3746"></path><path d="M382.16 972.5c-193 0-254.86-191.52-254.86-387 0-49.3 6.42-99.8 17.39-149.18q1-4.57 2.08-9.12c47-200.75 167.72-380.34 235.39-380.34 85.28-0.04 191.02 925.64 0 925.64z" fill="#A6D4CC" p-id="3747"></path><path d="M382.16 972.5c-122.16 0-191.76-76.69-226.42-182.56-1.22-3.71-3.52-11.24-3.52-11.24l337-164.77s0 6.2 0.05 9.28c0.66 187.96-27.37 349.29-107.11 349.29z" fill="#60C9F9" p-id="3748"></path><path d="M132.56 505.42s0.89-6.78 1.37-10.17C166 268.93 306.9 46.82 382.16 46.82c35 0 73.44 155.89 93.41 339.72 0.34 3.09 1 9.3 1 9.3s-81.7-1.63-189.93 36c-98.33 34.16-154.08 73.58-154.08 73.58z" fill="#D7DBAD" p-id="3749"></path><path d="M546.25 581.48c12 189.52 6 391-164.09 391-153.12 0-181-191.52-181-387 0-69.62 7.23-141.66 19.49-209.52q1.15-6.38 2.37-12.72c33.13-173.43 98.76-316.42 159.14-316.42 85.28 0 148.18 282.8 164.09 534.66z" fill="#333333" p-id="3750"></path><path d="M303.85 576.49c12 189.52 78.3 396 78.3 396S276.92 770 276.92 574.5c0-253.36 105.24-527.68 105.24-527.68s-94.21 277.81-78.31 529.67z" fill="#FFD88A" p-id="3751"></path><path d="M772.69 482.73a15 15 0 0 1-14.53-18.6c0-0.16 4.54-18.8 4.54-47.24a250.59 250.59 0 0 0-4.65-46.71 15 15 0 0 1 29.24-6.35 276.71 276.71 0 0 1 5.33 53.05c0 32.41-5.21 53.62-5.44 54.5a15 15 0 0 1-14.49 11.35z" fill="#FFFFFF" p-id="3752"></path><path d="M766.19 509.16m-14.46 0a14.46 14.46 0 1 0 28.92 0 14.46 14.46 0 1 0-28.92 0Z" fill="#FFFFFF" p-id="3753"></path></svg>