<?xml version="1.0" standalone="no"?><!DOCTYPE svg PUBLIC "-//W3C//DTD SVG 1.1//EN" "http://www.w3.org/Graphics/SVG/1.1/DTD/svg11.dtd"><svg t="1765879570864" class="icon" viewBox="0 0 1024 1024" version="1.1" xmlns="http://www.w3.org/2000/svg" p-id="29158" xmlns:xlink="http://www.w3.org/1999/xlink" width="128" height="128"><path d="M279.272727 372.363636V93.090909h93.090909V69.818182h186.181819V23.272727h93.090909v93.090909h93.090909v256z" fill="#FFCB5B" p-id="29159"></path><path d="M744.727273 93.090909h-69.818182V23.272727c0-13.963636-9.309091-23.272727-23.272727-23.272727h-93.090909c-13.963636 0-23.272727 9.309091-23.272728 23.272727v23.272728h-162.909091c-13.963636 0-23.272727 9.309091-23.272727 23.272727h-69.818182c-13.963636 0-23.272727 9.309091-23.272727 23.272727v279.272727c0 13.963636 9.309091 23.272727 23.272727 23.272728h23.272728V116.363636h46.545454v23.272728c0 13.963636 9.309091 23.272727 23.272727 23.272727s23.272727-9.309091 23.272728-23.272727V93.090909h46.545454v23.272727c0 13.963636 9.309091 23.272727 23.272727 23.272728s23.272727-9.309091 23.272728-23.272728V93.090909h46.545454v46.545455c0 13.963636 9.309091 23.272727 23.272728 23.272727s23.272727-9.309091 23.272727-23.272727V46.545455h46.545454v139.636363c0 13.963636 9.309091 23.272727 23.272728 23.272727s23.272727-9.309091 23.272727-23.272727V139.636364h46.545454v256h23.272728c13.963636 0 23.272727-9.309091 23.272727-23.272728V116.363636c0-13.963636-9.309091-23.272727-23.272727-23.272727z" fill="#004463" p-id="29160"></path><path d="M651.636364 302.545455h23.272727v116.363636h-23.272727z" fill="#FFCB5B" p-id="29161"></path><path d="M279.272727 139.636364v209.454545H186.181818V139.636364z" fill="#F6B545" p-id="29162"></path><path d="M279.272727 372.363636H186.181818c-13.963636 0-23.272727-9.309091-23.272727-23.272727V139.636364c0-13.963636 9.309091-23.272727 23.272727-23.272728h93.090909c13.963636 0 23.272727 9.309091 23.272728 23.272728v209.454545c0 13.963636-9.309091 23.272727-23.272728 23.272727z m-69.818182-46.545454h46.545455V162.909091H209.454545v162.909091z" fill="#004463" p-id="29163"></path><path d="M837.818182 186.181818v162.909091h-93.090909V186.181818z" fill="#F6B545" p-id="29164"></path><path d="M837.818182 372.363636h-93.090909c-13.963636 0-23.272727-9.309091-23.272728-23.272727V186.181818c0-13.963636 9.309091-23.272727 23.272728-23.272727h93.090909c13.963636 0 23.272727 9.309091 23.272727 23.272727v162.909091c0 13.963636-9.309091 23.272727-23.272727 23.272727z m-69.818182-46.545454h46.545455V209.454545h-46.545455v116.363637z" fill="#004463" p-id="29165"></path><path d="M605.090909 279.272727v-46.545454h-93.090909V186.181818h-93.090909v69.818182h-93.090909v209.454545h372.363636v-186.181818z" fill="#FFE27A" p-id="29166"></path><path d="M698.181818 256h-69.818182v-23.272727c0-13.963636-9.309091-23.272727-23.272727-23.272728h-69.818182V186.181818c0-13.963636-9.309091-23.272727-23.272727-23.272727h-93.090909c-13.963636 0-23.272727 9.309091-23.272727 23.272727v46.545455h-69.818182c-13.963636 0-23.272727 9.309091-23.272727 23.272727v209.454545c0 13.963636 9.309091 23.272727 23.272727 23.272728h372.363636c13.963636 0 23.272727-9.309091 23.272727-23.272728v-186.181818c0-13.963636-9.309091-23.272727-23.272727-23.272727z m-349.090909 23.272727h46.545455v162.909091h-46.545455v-162.909091z m93.090909-23.272727V209.454545h46.545455v232.727273h-46.545455v-186.181818z m93.090909 0h46.545455v186.181818h-46.545455v-186.181818z m139.636364 186.181818h-46.545455v-139.636363h46.545455v139.636363z" fill="#004463" p-id="29167"></path><path d="M558.545455 256h23.272727v186.181818h-23.272727zM372.363636 279.272727h23.272728v139.636364h-23.272728zM465.454545 209.454545h23.272728v232.727273h-23.272728z" fill="#FFCB5B" p-id="29168"></path><path d="M744.727273 1000.727273c-13.963636 0-30.254545-2.327273-44.218182-6.981818l-51.2-16.29091c-44.218182-16.290909-90.763636-23.272727-137.309091-23.272727s-93.090909 6.981818-134.981818 20.945455l-51.2 16.290909c-16.290909 6.981818-30.254545 9.309091-46.545455 9.309091h-44.218182L167.563636 442.181818c-2.327273-23.272727-4.654545-46.545455-4.654545-69.818182v-23.272727h100.072727c20.945455 0 41.890909 11.636364 55.854546 32.581818 32.581818 48.872727 116.363636 83.781818 193.163636 83.781818s160.581818-37.236364 193.163636-83.781818c13.963636-20.945455 34.909091-32.581818 55.854546-32.581818H861.090909v23.272727c0 23.272727-2.327273 46.545455-4.654545 69.818182l-67.490909 558.545455H744.727273z" fill="#F04D4E" p-id="29169"></path><path d="M788.945455 1024H744.727273c-18.618182 0-34.909091-2.327273-51.2-9.309091l-51.2-16.290909c-83.781818-27.927273-174.545455-27.927273-258.327273 0l-51.2 16.290909c-18.618182 6.981818-34.909091 9.309091-53.527273 9.309091h-44.218182c-11.636364 0-20.945455-9.309091-23.272727-20.945455l-67.490909-558.545454C141.963636 411.927273 139.636364 381.672727 139.636364 349.090909c0-13.963636 9.309091-23.272727 23.272727-23.272727h100.072727c30.254545 0 58.181818 16.290909 74.472727 41.890909C367.709091 409.6 442.181818 442.181818 512 442.181818s144.290909-32.581818 174.545455-74.472727c18.618182-25.6 46.545455-41.890909 74.472727-41.890909H861.090909c13.963636 0 23.272727 9.309091 23.272727 23.272727 0 32.581818-2.327273 62.836364-4.654545 95.418182l-67.490909 558.545454c-2.327273 11.636364-11.636364 20.945455-23.272727 20.945455zM512 930.909091c48.872727 0 97.745455 6.981818 144.290909 23.272727l51.2 16.290909c11.636364 4.654545 23.272727 6.981818 37.236364 6.981818h23.272727l65.163636-537.6c2.327273-23.272727 4.654545-44.218182 4.654546-67.490909h-76.8c-13.963636 0-27.927273 6.981818-37.236364 20.945455-37.236364 55.854545-125.672727 95.418182-211.781818 95.418182s-174.545455-39.563636-211.781818-95.418182c-9.309091-13.963636-23.272727-20.945455-37.236364-20.945455H186.181818c0 23.272727 2.327273 44.218182 4.654546 67.490909L256 977.454545h23.272727c11.636364 0 25.6-2.327273 37.236364-6.981818l51.2-16.290909c46.545455-16.290909 95.418182-23.272727 144.290909-23.272727z" fill="#004463" p-id="29170"></path><path d="M791.272727 372.363636c0 23.272727-2.327273 44.218182-4.654545 67.490909l-53.527273 442.181819c-4.654545 32.581818-37.236364 51.2-67.490909 37.236363-48.872727-23.272727-102.4-34.909091-153.6-34.909091s-104.727273 11.636364-153.6 34.909091L302.545455 944.872727c-11.636364 6.981818-25.6 9.309091-39.563637 9.309091h-11.636363l2.327272 23.272727h23.272728c11.636364 0 25.6-2.327273 37.236363-6.981818l51.2-16.290909c11.636364-4.654545 25.6-9.309091 37.236364-11.636363 83.781818-18.618182 169.890909-16.290909 249.018182 11.636363l51.2 16.290909c6.981818 2.327273 13.963636 4.654545 23.272727 4.654546 4.654545 0 9.309091 2.327273 13.963636 2.327272h23.272728l65.163636-537.6c6.981818-23.272727 9.309091-44.218182 9.309091-67.490909h-46.545455z" fill="#DF3540" p-id="29171"></path></svg>