<?xml version="1.0" standalone="no"?><!DOCTYPE svg PUBLIC "-//W3C//DTD SVG 1.1//EN" "http://www.w3.org/Graphics/SVG/1.1/DTD/svg11.dtd"><svg t="1765988883044" class="icon" viewBox="0 0 1024 1024" version="1.1" xmlns="http://www.w3.org/2000/svg" p-id="4118" xmlns:xlink="http://www.w3.org/1999/xlink" width="128" height="128"><path d="M206.52 73.09c8 0 13.43 7.31 13.43 7.31 6 27.83 7.71 75.34 8.22 100.78a209.3 209.3 0 0 1 76.33-14.58c55.33 0 108.79 22.75 143.54 68.56 67.2 88.55 78.1 143.66 138.56 208.84 62.34 67.19 94.39 68.77 219 134 96.67 50.6 112.79 145.53 75.33 223.66 20.71-1.54 41.76-3 51.18-3.43q1.76-0.08 3.4-0.08c15.17 0 23 5.21 25.65 24.44 3.72 27.31-20.62 32.8-20.62 32.8s12.18 19.68 0.94 37.48c-7.37 11.66-20 13.58-27.56 13.58a36.92 36.92 0 0 1-6.18-0.46s5.62 22.49-2.81 33.74a27.57 27.57 0 0 1-22.79 11.16c-10.44 0-20.73-4.91-25.94-11.16-4-4.86-24.12-34.84-40.32-59.25-46.58 34.87-104.47 49.1-159.81 49.1-46.55 0-91.3-10.07-126-26.4-84.07-39.57-161.16-91.69-239.36-172.83S151.44 529.43 151.44 529.43c-55.53-108.6-78.12-220.34 5-301.78-32.09-6-75.08-17.41-90.22-37.6C53.61 173.18 67 169 83.48 169s36.2 4.22 36.2 4.22-20.62-23.43 5.62-43.11c10-7.51 19.35-9.84 27.07-9.84a37.48 37.48 0 0 1 20.73 6.09s-1.73-10.75 13.12-36.55c7.44-12.92 14.55-16.68 20.31-16.68m0-37.48a53.24 53.24 0 0 0-31.93 10.93c-7.94 5.92-14.77 13.95-20.86 24.53-2.39 4.15-4.49 8.1-6.33 11.84-15.6 1-30.92 6.92-44.59 17.17-13.44 10.08-20.66 21.35-24.43 31.5a82.91 82.91 0 0 0-18.24 2.61c-18.51 5-27.45 16.15-31.69 24.64-4.85 9.69-10.27 29.56 7.84 53.71 11.35 15.13 29.6 27.18 55.78 36.82l0.24 0.09c-20.37 35.43-29.7 75.76-27.8 120.49 2.24 52.68 19.76 110.43 53.57 176.55 2.58 5.05 64.51 125.69 145.65 209.87C339.39 834.88 419 892.31 514.17 937.11c41.06 19.32 91.47 30 142 30a335.2 335.2 0 0 0 93.66-13 286.3 286.3 0 0 0 55.17-22.4c17.95 26.68 20.73 30 22.41 32 12.67 15.21 33.65 24.65 54.74 24.65A65.3 65.3 0 0 0 935 962.23a60.33 60.33 0 0 0 10.74-25.08 64.88 64.88 0 0 0 27.52-24.25 69.2 69.2 0 0 0 10.35-42 62.43 62.43 0 0 0 10.74-17.59 69.32 69.32 0 0 0 4-35.74c-2.54-18.65-9.22-32.53-20.42-42.44-16.3-14.43-35.93-14.43-42.38-14.43h-2c5.72-31 4.5-62.28-3.89-91.52-15.15-52.79-52-95.8-106.61-124.37-34.43-18-62.3-31.45-84.69-42.25-59.19-28.53-83.69-40.33-124.26-84.07-29.65-31.94-46.54-61.85-66.1-96.49-17.65-31.27-37.65-66.71-70.11-109.49-40.21-53-103.41-83.38-173.4-83.38a243.3 243.3 0 0 0-40.77 3.43c-1.38-21.74-3.59-43.47-7.13-60l-1.7-7.92-4.81-6.51c-8-10.88-23.71-22.51-43.57-22.51z" fill="#4A4A4A" p-id="4119"></path><path d="M794.4 847.9s54.85 83.44 61.85 91.84c9.37 11.25 35.13 18.13 48.73 0 8.43-11.25 2.81-33.74 2.81-33.74s22.75 4.28 33.74-13.12c11.25-17.81-0.94-37.48-0.94-37.48s24.34-5.49 20.62-32.8c-2.81-20.62-11.64-25.12-29.05-24.37-21.55 0.94-104 7.5-104 7.5zM219.95 80.4c8.43 39.36 8.43 118.08 8.43 118.08l-33.74 34.67S91.56 223.78 66.26 190s53.42-16.87 53.42-16.87-20.62-23.43 5.62-43.11 47.79-3.75 47.79-3.75-1.73-10.75 13.12-36.55c17.79-30.87 33.74-9.32 33.74-9.32z" fill="#EA3D34" p-id="4120"></path><path d="M227.19 145.21l1.2 53.27-58.2 36.85-52-16.79s25-26.86 49.33-43.67c24.67-16.99 59.67-29.66 59.67-29.66zM917.52 799.16L881 801.67l-65 78.82 18.25 27.39s35.3-28 52-49.33c19.27-24.67 31.27-59.39 31.27-59.39z" fill="#C1272D" p-id="4121"></path><path d="M158.37 225.79c85.4-81.6 222.48-79.18 289.68 9.37S526.14 378.82 586.6 444c62.34 67.19 94.39 68.77 219 134s115.39 204.23 30 285.82c-85.4 81.6-223.52 77.94-305.5 39.36-84.1-39.57-161.19-91.7-239.39-172.83S151.44 529.43 151.44 529.43C95.49 420 73 307.39 158.37 225.79z" fill="#EA3D34" p-id="4122"></path><path d="M640.72 871.33c-72-23.86-171.73-95.05-239-147.13C235.48 595.41 143 412.62 105 322.45c-11.9 64.16 10.29 136.24 46.46 207 0 0 61.07 119.79 139.27 200.92S446 863.61 530.13 903.19c75.78 35.66 199.51 41.48 285.25-22.29-6.72 2.35-73.75 23.87-174.66-9.57z" fill="#BC1EAE" p-id="4123"></path><path d="M640.72 871.33c-38.27-12.68-84.39-38.74-129.29-68.2-3.43-2.25-10.25-6.8-10.25-6.8s-2.68 25.77-0.5 46.87c3.51 34 10.75 50.91 10.75 50.91s12.43 6.12 18.71 9.07c75.78 35.66 199.51 41.48 285.25-22.29-6.73 2.36-73.76 23.88-174.67-9.56z" fill="#8E3FFF" p-id="4124"></path><path d="M263.55 588s-4.38-5.41-6.54-8.12C178.92 481.83 130.1 382 105 322.45c-11.9 64.16 10.29 136.24 46.46 207 0 0 11.3 23.43 27.47 50.62 27.94 47 73.94 107.66 73.94 107.66s-5.54-32.85-1.5-56c5.07-29.17 12.18-43.73 12.18-43.73z" fill="#E80063" p-id="4125"></path><path d="M517.95 459.94m-21.55 0a21.55 21.55 0 1 0 43.1 0 21.55 21.55 0 1 0-43.1 0Z" fill="#FFFFFF" p-id="4126"></path><path d="M367.08 247.21c22.66-27 41.11-6.07 78.72 43.11 36.55 47.79 72.16 121.83 46.86 137.76C462.56 447 457 370.91 429.86 339c-27.79-32.53-82.46-68.36-62.78-91.79z" fill="#FFFFFF" p-id="4127"></path></svg>