<?xml version="1.0" standalone="no"?><!DOCTYPE svg PUBLIC "-//W3C//DTD SVG 1.1//EN" "http://www.w3.org/Graphics/SVG/1.1/DTD/svg11.dtd"><svg t="1765988849444" class="icon" viewBox="0 0 1024 1024" version="1.1" xmlns="http://www.w3.org/2000/svg" p-id="2066" xmlns:xlink="http://www.w3.org/1999/xlink" width="128" height="128"><path d="M356.93 27a326.07 326.07 0 0 0-130.34 27 332.55 332.55 0 0 0-106.17 73.26A340.32 340.32 0 0 0 49.06 235.6 345.08 345.08 0 0 0 22.93 368c0 45.88 9.73 88.53 28.91 126.79C69 529.08 94.34 560.77 127.09 589c62 53.46 143.61 89.28 215.29 117.28 87.7 34.26 211.4 75.09 302.67 75.09a262 262 0 0 0 29.11-1.54l91.54 91.57a88 88 0 1 0 168.61 50.52 88 88 0 0 0-24.45-172.56 88.57 88.57 0 0 0-27.14 4.29l-98.86-98.85c-2.3-73.42-36.64-175.52-60-245-5.15-15.31-9.6-28.54-12.74-38.65-31.12-100.3-73.5-180.47-125.93-238.24-30.3-33.39-64.12-59.28-100.51-76.91-39.53-19.23-82.51-29-127.75-29z" fill="#4A4A4A" p-id="2067"></path><path d="M862.14 789.65l-221-221-60.81 60.81L797.07 846.2a32.65 32.65 0 0 1 7.74 34.42A48 48 0 1 0 897.68 900a15.42 15.42 0 0 1 14.67-14.67 48 48 0 1 0-23.7-91 23.17 23.17 0 0 1-26.51-4.68z" fill="#FFF4C7" p-id="2068"></path><path d="M903.42 888.7c-2.18 0.9-3.49 1.34-3.49 1.34s-27 61-65 32a74.1 74.1 0 0 1-28.36-48.64 31.47 31.47 0 0 1-1.76 7.22A48 48 0 1 0 897.68 900a15.42 15.42 0 0 1 5.74-11.3zM945.1 804.77a47.87 47.87 0 0 0-36.1-15.39l-4.53 1.05c13.35-0.4 31.62 6.17 39.43 41.61 6.33 28.74-18.78 46-33.68 53.52a15.74 15.74 0 0 1 2.11-0.27 48 48 0 0 0 32.75-80.52zM734.88 662.39l-76.21 45.41 49.83 49.83c16.15-1.91 35.73-6.34 45.42-16.6 12.77-13.52 19.47-26.19 22.86-36.74z" fill="#EFDC8E" p-id="2069"></path><path d="M672.93 383c22.18 71.48 102.16 277.34 58 330-53.92 64.3-246 6-374-44-151.24-59.08-294-134.76-294-301s131.63-301 294-301 262 142 316 316z" fill="#FF9750" p-id="2070"></path><path d="M730.93 713c31.28-37.3 0.28-151.43-28.35-240.26-32.4 42.72-90.08 71.55-192.65 33.26-175.65-65.57-275-191-289-323-3.33-31.41-2.22-58.92 1.52-82.73C127.71 150.29 62.93 251.41 62.93 368c0 166.24 142.76 241.92 294 301 128 50 320.07 108.34 374 44z" fill="#F47C2C" p-id="2071"></path><path d="M414.93 651c-50.7-34.57-163-142-219-205-88.19-99.22-96.25-186.32-93.34-229a305.07 305.07 0 0 0-39.66 151c0 166.24 142.76 241.92 294 301 67.58 26.4 153 55.11 226.57 66.87C539 718.84 471.55 689.65 414.93 651z" fill="#FF534D" p-id="2072"></path><path d="M414.93 651c-24.75-16.88-64.19-51.13-104.6-89.09l-5.89-5.55A372.24 372.24 0 0 0 292.06 595c-5.17 20.21-8.54 43.21-8.54 43.21l5.43 2.47c22.15 10 45 19.39 68 28.38 67.58 26.4 153 55.11 226.57 66.87C539 718.84 471.55 689.65 414.93 651z" fill="#FF882A" p-id="2073"></path><path d="M134.85 358s-2.51-5-3.7-7.49c-27.62-57.66-30.49-105.28-28.57-133.51a305.07 305.07 0 0 0-39.65 151c0 39.46 8 73.83 22.34 104.07 1.52 3.22 4.78 9.52 4.78 9.52s27.22-78.84 22-64.33 22.8-59.26 22.8-59.26z" fill="#FF1477" p-id="2074"></path><path d="M359.93 128c25-26 98 5 138 42s77 95 72 121-48-13-72-40-126-70-138-86 0-37 0-37z" fill="#FFFFFF" p-id="2075"></path><path d="M594.43 350.54m-28.5 0a28.5 28.5 0 1 0 57 0 28.5 28.5 0 1 0-57 0Z" fill="#FFFFFF" p-id="2076"></path></svg>